M48
; DRILL file {KiCad (6.0.7-1)-1} date Tuesday, August 23, 2022 at 01:12:01 PM
; FORMAT={-:-/ absolute / metric / decimal}
; #@! TF.CreationDate,2022-08-23T13:12:01-05:00
; #@! TF.GenerationSoftware,Kicad,Pcbnew,(6.0.7-1)-1
; #@! TF.FileFunction,Plated,1,4,PTH
FMAT,2
METRIC
; #@! TA.AperFunction,Plated,PTH,ViaDrill
T1C0.400
; #@! TA.AperFunction,Plated,PTH,ComponentDrill
T2C0.750
; #@! TA.AperFunction,Plated,PTH,ComponentDrill
T3C1.000
%
G90
G05
T1
X166.891Y-126.109
X173.0Y-155.5
X174.0Y-127.0
X175.25Y-129.0
X175.75Y-125.75
X176.0Y-127.6
X178.0Y-128.0
X178.5Y-111.0
X178.5Y-112.0
X178.5Y-120.25
X178.5Y-172.75
X179.0Y-161.75
X179.1Y-171.2
X179.5Y-111.0
X179.5Y-120.25
X179.5Y-130.25
X179.85Y-96.3
X179.85Y-97.3
X180.0Y-104.0
X180.0Y-105.0
X180.5Y-111.0
X180.5Y-120.25
X181.5Y-111.0
X181.5Y-112.0
X181.5Y-120.25
X181.5Y-160.75
X181.5Y-162.1
X181.5Y-172.5
X181.5Y-174.0
X182.75Y-153.25
X184.25Y-158.0
X185.5Y-155.5
X185.75Y-117.25
X185.75Y-118.25
X185.75Y-122.25
X185.75Y-123.25
X186.0Y-107.75
X186.0Y-133.5
X186.05Y-100.05
X186.4Y-162.5
X187.1Y-134.8
X187.5Y-180.5
X188.0Y-162.5
X188.5Y-135.5
X189.75Y-168.0
X189.75Y-169.0
X191.25Y-120.25
X191.25Y-121.5
X191.5Y-137.0
X191.6Y-111.65
X191.6Y-112.9
X191.75Y-123.5
X191.85Y-104.75
X192.5Y-120.25
X192.5Y-121.5
X192.85Y-111.65
X192.85Y-112.9
X193.25Y-137.0
X194.75Y-123.5
X195.0Y-137.0
X195.0Y-154.25
X197.0Y-120.75
X197.0Y-122.0
X197.35Y-112.15
X197.35Y-113.4
X198.25Y-99.75
X199.25Y-99.75
X200.0Y-106.25
X202.5Y-96.75
X203.25Y-110.0
X203.25Y-111.75
X203.25Y-113.5
X204.5Y-170.5
X204.75Y-120.5
X204.75Y-121.75
X205.0Y-96.75
X207.5Y-96.75
X207.5Y-108.5
X207.5Y-114.75
X207.5Y-193.75
X207.8Y-155.5
X208.5Y-193.75
X209.0Y-168.5
X209.25Y-120.0
X209.4Y-165.0
X209.5Y-129.0
X209.5Y-155.5
X210.0Y-141.2
X210.0Y-144.75
X210.0Y-148.3
X210.25Y-96.75
X210.65Y-164.0
X210.65Y-165.0
X211.75Y-159.75
X212.15Y-164.0
X212.15Y-165.0
X212.5Y-96.75
X212.5Y-125.5
X212.5Y-160.5
X213.75Y-118.5
X213.75Y-123.0
X213.75Y-130.0
X213.8Y-160.6
X214.5Y-134.7
X214.5Y-136.25
X214.65Y-162.0
X214.65Y-163.0
X214.75Y-118.5
X214.75Y-123.0
X215.0Y-108.5
X215.25Y-153.5
X215.5Y-137.5
X216.5Y-139.25
X217.0Y-134.0
X217.25Y-141.25
X219.25Y-127.25
X219.5Y-181.5
X220.0Y-130.75
X221.0Y-157.5
X222.25Y-149.25
X222.75Y-172.0
X223.25Y-128.0
X223.5Y-151.75
X223.9Y-148.9
X224.5Y-150.5
X224.75Y-122.5
X225.0Y-132.75
X226.0Y-154.75
X226.2Y-151.3
X227.25Y-149.5
X227.5Y-129.0
X230.75Y-173.25
X234.0Y-125.0
T2
X192.801Y-133.269
X192.801Y-163.849
X193.301Y-126.669
X193.301Y-157.249
X193.801Y-129.969
X193.801Y-160.549
X194.301Y-133.269
X194.301Y-163.849
X194.801Y-126.669
X194.801Y-157.249
X195.301Y-129.969
X195.301Y-160.549
X195.801Y-133.269
X195.801Y-163.849
X196.301Y-126.669
X196.301Y-157.249
X196.801Y-129.969
X196.801Y-160.549
X197.301Y-133.269
X197.301Y-163.849
X197.801Y-126.669
X197.801Y-157.249
X198.301Y-129.969
X198.301Y-160.549
X198.801Y-133.269
X198.801Y-163.849
X199.301Y-126.669
X199.301Y-157.249
X199.801Y-129.969
X199.801Y-160.549
X200.301Y-133.269
X200.301Y-163.849
X200.801Y-126.669
X200.801Y-157.249
X201.301Y-129.969
X201.301Y-160.549
X201.801Y-133.269
X201.801Y-163.849
X202.301Y-126.669
X202.301Y-157.249
X202.801Y-129.969
X202.801Y-160.549
X203.301Y-133.269
X203.301Y-163.849
X203.801Y-126.669
X203.801Y-157.249
X204.301Y-129.969
X204.301Y-160.549
X204.801Y-133.269
X204.801Y-163.849
X205.301Y-126.669
X205.301Y-157.249
X205.801Y-129.969
X205.801Y-160.549
X206.301Y-133.269
X206.301Y-163.849
T3
X168.5Y-83.06
X168.5Y-85.6
X168.5Y-98.3
X168.5Y-100.84
X168.5Y-103.38
X168.5Y-105.92
X168.5Y-111.0
X168.5Y-113.54
X168.5Y-116.08
X168.5Y-118.62
X168.5Y-121.16
X168.5Y-123.7
X168.5Y-126.24
X168.5Y-128.78
X168.5Y-131.32
X168.5Y-133.86
X168.5Y-136.4
X168.5Y-138.94
X168.5Y-141.48
X168.5Y-144.02
X168.5Y-146.56
X168.5Y-149.1
X168.5Y-151.64
X168.5Y-154.18
X168.5Y-156.72
X168.5Y-159.26
X168.5Y-161.8
X168.5Y-164.34
X168.5Y-166.88
X168.5Y-169.42
X168.5Y-171.96
X168.5Y-174.5
X168.5Y-177.04
X168.5Y-179.58
X168.5Y-182.12
X168.5Y-184.66
X168.5Y-187.2
X168.5Y-189.74
X168.5Y-192.28
X168.5Y-194.82
X168.5Y-197.36
X168.5Y-199.9
X171.04Y-98.3
X171.04Y-100.84
X171.04Y-103.38
X171.04Y-105.92
X171.04Y-111.0
X171.04Y-113.54
X171.04Y-116.08
X171.04Y-118.62
X171.04Y-121.16
X171.04Y-123.7
X171.04Y-126.24
X171.04Y-128.78
X171.04Y-131.32
X171.04Y-133.86
X171.04Y-136.4
X171.04Y-138.94
X171.04Y-141.48
X171.04Y-144.02
X171.04Y-146.56
X171.04Y-149.1
X171.04Y-151.64
X171.04Y-154.18
X171.04Y-156.72
X171.04Y-159.26
X171.04Y-161.8
X171.04Y-164.34
X171.04Y-166.88
X171.04Y-169.42
X171.04Y-171.96
X171.04Y-174.5
X171.04Y-177.04
X171.04Y-179.58
X171.04Y-182.12
X171.04Y-184.66
X171.04Y-187.2
X171.04Y-189.74
X171.04Y-192.28
X171.04Y-194.82
X171.04Y-197.36
X171.04Y-199.9
X200.46Y-184.0
X203.0Y-184.0
X207.92Y-184.0
X210.46Y-184.0
X213.0Y-184.0
X229.46Y-111.0
X229.46Y-113.54
X229.46Y-116.08
X229.46Y-118.62
X229.46Y-121.16
X229.46Y-123.7
X229.46Y-126.24
X229.46Y-128.78
X229.46Y-131.32
X229.46Y-133.86
X229.46Y-136.4
X229.46Y-138.94
X229.46Y-141.48
X229.46Y-144.02
X229.46Y-146.56
X229.46Y-149.1
X229.46Y-151.64
X229.46Y-154.18
X229.46Y-156.72
X229.46Y-159.26
X229.46Y-161.8
X229.46Y-164.34
X229.46Y-166.88
X229.46Y-169.42
X229.46Y-171.96
X229.46Y-174.5
X229.46Y-177.04
X229.46Y-179.58
X229.46Y-182.12
X229.46Y-184.66
X229.46Y-187.2
X229.46Y-189.74
X229.46Y-192.28
X229.46Y-194.82
X229.46Y-197.36
X229.46Y-199.9
X229.5Y-98.3
X229.5Y-100.84
X229.5Y-103.38
X229.5Y-105.92
X232.0Y-83.06
X232.0Y-85.6
X232.0Y-111.0
X232.0Y-113.54
X232.0Y-116.08
X232.0Y-118.62
X232.0Y-121.16
X232.0Y-123.7
X232.0Y-126.24
X232.0Y-128.78
X232.0Y-131.32
X232.0Y-133.86
X232.0Y-136.4
X232.0Y-138.94
X232.0Y-141.48
X232.0Y-144.02
X232.0Y-146.56
X232.0Y-149.1
X232.0Y-151.64
X232.0Y-154.18
X232.0Y-156.72
X232.0Y-159.26
X232.0Y-161.8
X232.0Y-164.34
X232.0Y-166.88
X232.0Y-169.42
X232.0Y-171.96
X232.0Y-174.5
X232.0Y-177.04
X232.0Y-179.58
X232.0Y-182.12
X232.0Y-184.66
X232.0Y-187.2
X232.0Y-189.74
X232.0Y-192.28
X232.0Y-194.82
X232.0Y-197.36
X232.0Y-199.9
X232.04Y-98.3
X232.04Y-100.84
X232.04Y-103.38
X232.04Y-105.92
T0
M30
