%TF.GenerationSoftware,KiCad,Pcbnew,(6.0.7-1)-1*%
%TF.CreationDate,2022-08-23T13:11:44-05:00*%
%TF.ProjectId,NR1B-ST56,4e523142-2d53-4543-9536-2e6b69636164,rev?*%
%TF.SameCoordinates,Original*%
%TF.FileFunction,Legend,Bot*%
%TF.FilePolarity,Positive*%
%FSLAX46Y46*%
G04 Gerber Fmt 4.6, Leading zero omitted, Abs format (unit mm)*
G04 Created by KiCad (PCBNEW (6.0.7-1)-1) date 2022-08-23 13:11:44*
%MOMM*%
%LPD*%
G01*
G04 APERTURE LIST*
%ADD10C,0.150000*%
G04 APERTURE END LIST*
D10*
%TO.C,U1*%
X204972170Y-134416877D02*
X204438837Y-134416877D01*
X205276932Y-134607353D02*
X204705503Y-134797829D01*
X204705503Y-134302591D01*
X206638837Y-162459734D02*
X206638837Y-162840686D01*
X206257884Y-162878781D01*
X206295980Y-162840686D01*
X206334075Y-162764496D01*
X206334075Y-162574019D01*
X206295980Y-162497829D01*
X206257884Y-162459734D01*
X206181694Y-162421638D01*
X205991218Y-162421638D01*
X205915027Y-162459734D01*
X205876932Y-162497829D01*
X205838837Y-162574019D01*
X205838837Y-162764496D01*
X205876932Y-162840686D01*
X205915027Y-162878781D01*
X206638837Y-161735924D02*
X206638837Y-161888305D01*
X206600742Y-161964496D01*
X206562646Y-162002591D01*
X206448361Y-162078781D01*
X206295980Y-162116877D01*
X205991218Y-162116877D01*
X205915027Y-162078781D01*
X205876932Y-162040686D01*
X205838837Y-161964496D01*
X205838837Y-161812115D01*
X205876932Y-161735924D01*
X205915027Y-161697829D01*
X205991218Y-161659734D01*
X206181694Y-161659734D01*
X206257884Y-161697829D01*
X206295980Y-161735924D01*
X206334075Y-161812115D01*
X206334075Y-161964496D01*
X206295980Y-162040686D01*
X206257884Y-162078781D01*
X206181694Y-162116877D01*
X194138837Y-159716877D02*
X194138837Y-159221638D01*
X193834075Y-159488305D01*
X193834075Y-159374019D01*
X193795980Y-159297829D01*
X193757884Y-159259734D01*
X193681694Y-159221638D01*
X193491218Y-159221638D01*
X193415027Y-159259734D01*
X193376932Y-159297829D01*
X193338837Y-159374019D01*
X193338837Y-159602591D01*
X193376932Y-159678781D01*
X193415027Y-159716877D01*
X193338837Y-158459734D02*
X193338837Y-158916877D01*
X193338837Y-158688305D02*
X194138837Y-158688305D01*
X194024551Y-158764496D01*
X193948361Y-158840686D01*
X193910265Y-158916877D01*
X193162646Y-135478781D02*
X193200742Y-135440686D01*
X193238837Y-135364496D01*
X193238837Y-135174019D01*
X193200742Y-135097829D01*
X193162646Y-135059734D01*
X193086456Y-135021638D01*
X193010265Y-135021638D01*
X192895980Y-135059734D01*
X192438837Y-135516877D01*
X192438837Y-135021638D01*
X192895980Y-134564496D02*
X192934075Y-134640686D01*
X192972170Y-134678781D01*
X193048361Y-134716877D01*
X193086456Y-134716877D01*
X193162646Y-134678781D01*
X193200742Y-134640686D01*
X193238837Y-134564496D01*
X193238837Y-134412115D01*
X193200742Y-134335924D01*
X193162646Y-134297829D01*
X193086456Y-134259734D01*
X193048361Y-134259734D01*
X192972170Y-134297829D01*
X192934075Y-134335924D01*
X192895980Y-134412115D01*
X192895980Y-134564496D01*
X192857884Y-134640686D01*
X192819789Y-134678781D01*
X192743599Y-134716877D01*
X192591218Y-134716877D01*
X192515027Y-134678781D01*
X192476932Y-134640686D01*
X192438837Y-134564496D01*
X192438837Y-134412115D01*
X192476932Y-134335924D01*
X192515027Y-134297829D01*
X192591218Y-134259734D01*
X192743599Y-134259734D01*
X192819789Y-134297829D01*
X192857884Y-134335924D01*
X192895980Y-134412115D01*
X206162646Y-131397829D02*
X206200742Y-131359734D01*
X206238837Y-131283543D01*
X206238837Y-131093067D01*
X206200742Y-131016877D01*
X206162646Y-130978781D01*
X206086456Y-130940686D01*
X206010265Y-130940686D01*
X205895980Y-130978781D01*
X205438837Y-131435924D01*
X205438837Y-130940686D01*
X193162646Y-162878781D02*
X193200742Y-162840686D01*
X193238837Y-162764496D01*
X193238837Y-162574019D01*
X193200742Y-162497829D01*
X193162646Y-162459734D01*
X193086456Y-162421638D01*
X193010265Y-162421638D01*
X192895980Y-162459734D01*
X192438837Y-162916877D01*
X192438837Y-162421638D01*
X192438837Y-162040686D02*
X192438837Y-161888305D01*
X192476932Y-161812115D01*
X192515027Y-161774019D01*
X192629313Y-161697829D01*
X192781694Y-161659734D01*
X193086456Y-161659734D01*
X193162646Y-161697829D01*
X193200742Y-161735924D01*
X193238837Y-161812115D01*
X193238837Y-161964496D01*
X193200742Y-162040686D01*
X193162646Y-162078781D01*
X193086456Y-162116877D01*
X192895980Y-162116877D01*
X192819789Y-162078781D01*
X192781694Y-162040686D01*
X192743599Y-161964496D01*
X192743599Y-161812115D01*
X192781694Y-161735924D01*
X192819789Y-161697829D01*
X192895980Y-161659734D01*
X193738837Y-156316877D02*
X193738837Y-155821638D01*
X193434075Y-156088305D01*
X193434075Y-155974019D01*
X193395980Y-155897829D01*
X193357884Y-155859734D01*
X193281694Y-155821638D01*
X193091218Y-155821638D01*
X193015027Y-155859734D01*
X192976932Y-155897829D01*
X192938837Y-155974019D01*
X192938837Y-156202591D01*
X192976932Y-156278781D01*
X193015027Y-156316877D01*
X193738837Y-155326400D02*
X193738837Y-155250210D01*
X193700742Y-155174019D01*
X193662646Y-155135924D01*
X193586456Y-155097829D01*
X193434075Y-155059734D01*
X193243599Y-155059734D01*
X193091218Y-155097829D01*
X193015027Y-155135924D01*
X192976932Y-155174019D01*
X192938837Y-155250210D01*
X192938837Y-155326400D01*
X192976932Y-155402591D01*
X193015027Y-155440686D01*
X193091218Y-155478781D01*
X193243599Y-155516877D01*
X193434075Y-155516877D01*
X193586456Y-155478781D01*
X193662646Y-155440686D01*
X193700742Y-155402591D01*
X193738837Y-155326400D01*
X195138837Y-156316877D02*
X195138837Y-155821638D01*
X194834075Y-156088305D01*
X194834075Y-155974019D01*
X194795980Y-155897829D01*
X194757884Y-155859734D01*
X194681694Y-155821638D01*
X194491218Y-155821638D01*
X194415027Y-155859734D01*
X194376932Y-155897829D01*
X194338837Y-155974019D01*
X194338837Y-156202591D01*
X194376932Y-156278781D01*
X194415027Y-156316877D01*
X195138837Y-155554972D02*
X195138837Y-155059734D01*
X194834075Y-155326400D01*
X194834075Y-155212115D01*
X194795980Y-155135924D01*
X194757884Y-155097829D01*
X194681694Y-155059734D01*
X194491218Y-155059734D01*
X194415027Y-155097829D01*
X194376932Y-155135924D01*
X194338837Y-155212115D01*
X194338837Y-155440686D01*
X194376932Y-155516877D01*
X194415027Y-155554972D01*
X194638837Y-162916877D02*
X194638837Y-162421638D01*
X194334075Y-162688305D01*
X194334075Y-162574019D01*
X194295980Y-162497829D01*
X194257884Y-162459734D01*
X194181694Y-162421638D01*
X193991218Y-162421638D01*
X193915027Y-162459734D01*
X193876932Y-162497829D01*
X193838837Y-162574019D01*
X193838837Y-162802591D01*
X193876932Y-162878781D01*
X193915027Y-162916877D01*
X194562646Y-162116877D02*
X194600742Y-162078781D01*
X194638837Y-162002591D01*
X194638837Y-161812115D01*
X194600742Y-161735924D01*
X194562646Y-161697829D01*
X194486456Y-161659734D01*
X194410265Y-161659734D01*
X194295980Y-161697829D01*
X193838837Y-162154972D01*
X193838837Y-161659734D01*
X205938837Y-134340686D02*
X205938837Y-134797829D01*
X205938837Y-134569258D02*
X206738837Y-134569258D01*
X206624551Y-134645448D01*
X206548361Y-134721638D01*
X206510265Y-134797829D01*
X205738837Y-128035924D02*
X205738837Y-127540686D01*
X205434075Y-127807353D01*
X205434075Y-127693067D01*
X205395980Y-127616877D01*
X205357884Y-127578781D01*
X205281694Y-127540686D01*
X205091218Y-127540686D01*
X205015027Y-127578781D01*
X204976932Y-127616877D01*
X204938837Y-127693067D01*
X204938837Y-127921638D01*
X204976932Y-127997829D01*
X205015027Y-128035924D01*
%TD*%
M02*
