%TF.GenerationSoftware,KiCad,Pcbnew,(6.0.7-1)-1*%
%TF.CreationDate,2022-08-23T13:11:44-05:00*%
%TF.ProjectId,NR1B-ST56,4e523142-2d53-4543-9536-2e6b69636164,rev?*%
%TF.SameCoordinates,Original*%
%TF.FileFunction,Legend,Top*%
%TF.FilePolarity,Positive*%
%FSLAX46Y46*%
G04 Gerber Fmt 4.6, Leading zero omitted, Abs format (unit mm)*
G04 Created by KiCad (PCBNEW (6.0.7-1)-1) date 2022-08-23 13:11:44*
%MOMM*%
%LPD*%
G01*
G04 APERTURE LIST*
%ADD10C,0.150000*%
%ADD11C,0.100000*%
%ADD12C,0.200000*%
%ADD13C,0.120000*%
%ADD14C,0.598516*%
G04 APERTURE END LIST*
D10*
X234050000Y-113050000D02*
X233250000Y-113500000D01*
D11*
X181950000Y-107025000D02*
X180950000Y-107725000D01*
X176550000Y-122350000D02*
X176550000Y-123700000D01*
D10*
X213000000Y-182000000D02*
X213000000Y-181500000D01*
D11*
X181000000Y-100750000D02*
X182000000Y-100050000D01*
D10*
X177000000Y-177000000D02*
X177950000Y-178500000D01*
D11*
X176550000Y-123700000D02*
X177550000Y-123000000D01*
X177550000Y-123000000D02*
X177550000Y-123600000D01*
D10*
X182850000Y-96050000D02*
X182850000Y-97550000D01*
X218250000Y-209000000D02*
X181500000Y-209000000D01*
D11*
X182000000Y-100050000D02*
X182000000Y-100650000D01*
D10*
X181500000Y-198600000D02*
X218250000Y-198600000D01*
D11*
X206050000Y-188000000D02*
X206050000Y-187400000D01*
D10*
X183000000Y-122250000D02*
X183000000Y-123750000D01*
D11*
X206050000Y-188000000D02*
X206050000Y-188600000D01*
D10*
X207250000Y-191000000D02*
X208750000Y-191000000D01*
X178300000Y-178500000D02*
X178300000Y-175600000D01*
X210500000Y-181500000D02*
X210500000Y-182000000D01*
D11*
X205050000Y-187350000D02*
X205050000Y-188700000D01*
X181950000Y-108375000D02*
X181950000Y-107025000D01*
X177550000Y-123000000D02*
X176550000Y-122350000D01*
D10*
X182100000Y-103750000D02*
X182100000Y-105250000D01*
D11*
X182000000Y-100050000D02*
X181000000Y-99400000D01*
X182000000Y-100050000D02*
X182000000Y-99450000D01*
D10*
X181500000Y-209000000D02*
X181500000Y-198600000D01*
X178300000Y-175600000D02*
X186900000Y-175600000D01*
D11*
X181000000Y-99400000D02*
X181000000Y-100750000D01*
D10*
X186900000Y-178500000D02*
X178300000Y-178500000D01*
D11*
X205050000Y-188700000D02*
X206050000Y-188000000D01*
X206050000Y-188000000D02*
X205050000Y-187350000D01*
D10*
X186900000Y-175600000D02*
X186900000Y-178500000D01*
X177950000Y-178500000D02*
X178300000Y-178500000D01*
D11*
X180950000Y-107725000D02*
X180950000Y-108325000D01*
D10*
X218250000Y-198600000D02*
X218250000Y-209000000D01*
D11*
X180950000Y-107725000D02*
X180950000Y-107125000D01*
X177550000Y-123000000D02*
X177550000Y-122400000D01*
D10*
X208000000Y-182000000D02*
X208000000Y-181500000D01*
D11*
X180950000Y-107725000D02*
X181950000Y-108375000D01*
X172998333Y-172016666D02*
X173331666Y-172016666D01*
X172931666Y-172216666D02*
X173165000Y-171516666D01*
X173398333Y-172216666D01*
X173598333Y-171583333D02*
X173631666Y-171550000D01*
X173698333Y-171516666D01*
X173865000Y-171516666D01*
X173931666Y-171550000D01*
X173965000Y-171583333D01*
X173998333Y-171650000D01*
X173998333Y-171716666D01*
X173965000Y-171816666D01*
X173565000Y-172216666D01*
X173998333Y-172216666D01*
X174431666Y-171516666D02*
X174498333Y-171516666D01*
X174565000Y-171550000D01*
X174598333Y-171583333D01*
X174631666Y-171650000D01*
X174665000Y-171783333D01*
X174665000Y-171950000D01*
X174631666Y-172083333D01*
X174598333Y-172150000D01*
X174565000Y-172183333D01*
X174498333Y-172216666D01*
X174431666Y-172216666D01*
X174365000Y-172183333D01*
X174331666Y-172150000D01*
X174298333Y-172083333D01*
X174265000Y-171950000D01*
X174265000Y-171783333D01*
X174298333Y-171650000D01*
X174331666Y-171583333D01*
X174365000Y-171550000D01*
X174431666Y-171516666D01*
X225968333Y-192566666D02*
X225968333Y-191866666D01*
X226135000Y-191866666D01*
X226235000Y-191900000D01*
X226301666Y-191966666D01*
X226335000Y-192033333D01*
X226368333Y-192166666D01*
X226368333Y-192266666D01*
X226335000Y-192400000D01*
X226301666Y-192466666D01*
X226235000Y-192533333D01*
X226135000Y-192566666D01*
X225968333Y-192566666D01*
X227035000Y-192566666D02*
X226635000Y-192566666D01*
X226835000Y-192566666D02*
X226835000Y-191866666D01*
X226768333Y-191966666D01*
X226701666Y-192033333D01*
X226635000Y-192066666D01*
X227668333Y-191866666D02*
X227335000Y-191866666D01*
X227301666Y-192200000D01*
X227335000Y-192166666D01*
X227401666Y-192133333D01*
X227568333Y-192133333D01*
X227635000Y-192166666D01*
X227668333Y-192200000D01*
X227701666Y-192266666D01*
X227701666Y-192433333D01*
X227668333Y-192500000D01*
X227635000Y-192533333D01*
X227568333Y-192566666D01*
X227401666Y-192566666D01*
X227335000Y-192533333D01*
X227301666Y-192500000D01*
X233831666Y-179816666D02*
X233831666Y-179116666D01*
X233998333Y-179116666D01*
X234098333Y-179150000D01*
X234165000Y-179216666D01*
X234198333Y-179283333D01*
X234231666Y-179416666D01*
X234231666Y-179516666D01*
X234198333Y-179650000D01*
X234165000Y-179716666D01*
X234098333Y-179783333D01*
X233998333Y-179816666D01*
X233831666Y-179816666D01*
X234631666Y-179416666D02*
X234565000Y-179383333D01*
X234531666Y-179350000D01*
X234498333Y-179283333D01*
X234498333Y-179250000D01*
X234531666Y-179183333D01*
X234565000Y-179150000D01*
X234631666Y-179116666D01*
X234765000Y-179116666D01*
X234831666Y-179150000D01*
X234865000Y-179183333D01*
X234898333Y-179250000D01*
X234898333Y-179283333D01*
X234865000Y-179350000D01*
X234831666Y-179383333D01*
X234765000Y-179416666D01*
X234631666Y-179416666D01*
X234565000Y-179450000D01*
X234531666Y-179483333D01*
X234498333Y-179550000D01*
X234498333Y-179683333D01*
X234531666Y-179750000D01*
X234565000Y-179783333D01*
X234631666Y-179816666D01*
X234765000Y-179816666D01*
X234831666Y-179783333D01*
X234865000Y-179750000D01*
X234898333Y-179683333D01*
X234898333Y-179550000D01*
X234865000Y-179483333D01*
X234831666Y-179450000D01*
X234765000Y-179416666D01*
X208750000Y-170633333D02*
X208716666Y-170700000D01*
X208716666Y-170800000D01*
X208750000Y-170900000D01*
X208816666Y-170966666D01*
X208883333Y-171000000D01*
X209016666Y-171033333D01*
X209116666Y-171033333D01*
X209250000Y-171000000D01*
X209316666Y-170966666D01*
X209383333Y-170900000D01*
X209416666Y-170800000D01*
X209416666Y-170733333D01*
X209383333Y-170633333D01*
X209350000Y-170600000D01*
X209116666Y-170600000D01*
X209116666Y-170733333D01*
X209416666Y-170300000D02*
X208716666Y-170300000D01*
X209416666Y-169900000D01*
X208716666Y-169900000D01*
X209416666Y-169566666D02*
X208716666Y-169566666D01*
X208716666Y-169400000D01*
X208750000Y-169300000D01*
X208816666Y-169233333D01*
X208883333Y-169200000D01*
X209016666Y-169166666D01*
X209116666Y-169166666D01*
X209250000Y-169200000D01*
X209316666Y-169233333D01*
X209383333Y-169300000D01*
X209416666Y-169400000D01*
X209416666Y-169566666D01*
X225968333Y-179916666D02*
X225968333Y-179216666D01*
X226135000Y-179216666D01*
X226235000Y-179250000D01*
X226301666Y-179316666D01*
X226335000Y-179383333D01*
X226368333Y-179516666D01*
X226368333Y-179616666D01*
X226335000Y-179750000D01*
X226301666Y-179816666D01*
X226235000Y-179883333D01*
X226135000Y-179916666D01*
X225968333Y-179916666D01*
X227035000Y-179916666D02*
X226635000Y-179916666D01*
X226835000Y-179916666D02*
X226835000Y-179216666D01*
X226768333Y-179316666D01*
X226701666Y-179383333D01*
X226635000Y-179416666D01*
X227468333Y-179216666D02*
X227535000Y-179216666D01*
X227601666Y-179250000D01*
X227635000Y-179283333D01*
X227668333Y-179350000D01*
X227701666Y-179483333D01*
X227701666Y-179650000D01*
X227668333Y-179783333D01*
X227635000Y-179850000D01*
X227601666Y-179883333D01*
X227535000Y-179916666D01*
X227468333Y-179916666D01*
X227401666Y-179883333D01*
X227368333Y-179850000D01*
X227335000Y-179783333D01*
X227301666Y-179650000D01*
X227301666Y-179483333D01*
X227335000Y-179350000D01*
X227368333Y-179283333D01*
X227401666Y-179250000D01*
X227468333Y-179216666D01*
X225968333Y-177316666D02*
X225968333Y-176616666D01*
X226135000Y-176616666D01*
X226235000Y-176650000D01*
X226301666Y-176716666D01*
X226335000Y-176783333D01*
X226368333Y-176916666D01*
X226368333Y-177016666D01*
X226335000Y-177150000D01*
X226301666Y-177216666D01*
X226235000Y-177283333D01*
X226135000Y-177316666D01*
X225968333Y-177316666D01*
X227035000Y-177316666D02*
X226635000Y-177316666D01*
X226835000Y-177316666D02*
X226835000Y-176616666D01*
X226768333Y-176716666D01*
X226701666Y-176783333D01*
X226635000Y-176816666D01*
X227301666Y-176683333D02*
X227335000Y-176650000D01*
X227401666Y-176616666D01*
X227568333Y-176616666D01*
X227635000Y-176650000D01*
X227668333Y-176683333D01*
X227701666Y-176750000D01*
X227701666Y-176816666D01*
X227668333Y-176916666D01*
X227268333Y-177316666D01*
X227701666Y-177316666D01*
X234666666Y-122168333D02*
X233966666Y-122168333D01*
X233966666Y-122001666D01*
X234000000Y-121901666D01*
X234066666Y-121835000D01*
X234133333Y-121801666D01*
X234266666Y-121768333D01*
X234366666Y-121768333D01*
X234500000Y-121801666D01*
X234566666Y-121835000D01*
X234633333Y-121901666D01*
X234666666Y-122001666D01*
X234666666Y-122168333D01*
X234666666Y-121101666D02*
X234666666Y-121501666D01*
X234666666Y-121301666D02*
X233966666Y-121301666D01*
X234066666Y-121368333D01*
X234133333Y-121435000D01*
X234166666Y-121501666D01*
X233966666Y-120868333D02*
X233966666Y-120435000D01*
X234233333Y-120668333D01*
X234233333Y-120568333D01*
X234266666Y-120501666D01*
X234300000Y-120468333D01*
X234366666Y-120435000D01*
X234533333Y-120435000D01*
X234600000Y-120468333D01*
X234633333Y-120501666D01*
X234666666Y-120568333D01*
X234666666Y-120768333D01*
X234633333Y-120835000D01*
X234600000Y-120868333D01*
X165401666Y-161319000D02*
X166201666Y-161319000D01*
X165501666Y-161516666D02*
X165668333Y-162216666D01*
X165801666Y-161716666D01*
X165935000Y-162216666D01*
X166101666Y-161516666D01*
X166201666Y-161319000D02*
X166835000Y-161319000D01*
X166368333Y-161850000D02*
X166601666Y-161850000D01*
X166701666Y-162216666D02*
X166368333Y-162216666D01*
X166368333Y-161516666D01*
X166701666Y-161516666D01*
X200716666Y-169166666D02*
X201416666Y-168933333D01*
X200716666Y-168700000D01*
X201416666Y-168466666D02*
X200716666Y-168466666D01*
X200716666Y-168000000D02*
X200716666Y-167866666D01*
X200750000Y-167800000D01*
X200816666Y-167733333D01*
X200950000Y-167700000D01*
X201183333Y-167700000D01*
X201316666Y-167733333D01*
X201383333Y-167800000D01*
X201416666Y-167866666D01*
X201416666Y-168000000D01*
X201383333Y-168066666D01*
X201316666Y-168133333D01*
X201183333Y-168166666D01*
X200950000Y-168166666D01*
X200816666Y-168133333D01*
X200750000Y-168066666D01*
X200716666Y-168000000D01*
X225935000Y-197516666D02*
X226268333Y-197516666D01*
X225868333Y-197716666D02*
X226101666Y-197016666D01*
X226335000Y-197716666D01*
X226935000Y-197716666D02*
X226535000Y-197716666D01*
X226735000Y-197716666D02*
X226735000Y-197016666D01*
X226668333Y-197116666D01*
X226601666Y-197183333D01*
X226535000Y-197216666D01*
X227168333Y-197016666D02*
X227601666Y-197016666D01*
X227368333Y-197283333D01*
X227468333Y-197283333D01*
X227535000Y-197316666D01*
X227568333Y-197350000D01*
X227601666Y-197416666D01*
X227601666Y-197583333D01*
X227568333Y-197650000D01*
X227535000Y-197683333D01*
X227468333Y-197716666D01*
X227268333Y-197716666D01*
X227201666Y-197683333D01*
X227168333Y-197650000D01*
X165468333Y-158819000D02*
X166201666Y-158819000D01*
X165768333Y-159016666D02*
X165901666Y-159016666D01*
X165968333Y-159050000D01*
X166035000Y-159116666D01*
X166068333Y-159250000D01*
X166068333Y-159483333D01*
X166035000Y-159616666D01*
X165968333Y-159683333D01*
X165901666Y-159716666D01*
X165768333Y-159716666D01*
X165701666Y-159683333D01*
X165635000Y-159616666D01*
X165601666Y-159483333D01*
X165601666Y-159250000D01*
X165635000Y-159116666D01*
X165701666Y-159050000D01*
X165768333Y-159016666D01*
X166201666Y-158819000D02*
X166835000Y-158819000D01*
X166368333Y-159350000D02*
X166601666Y-159350000D01*
X166701666Y-159716666D02*
X166368333Y-159716666D01*
X166368333Y-159016666D01*
X166701666Y-159016666D01*
X173553571Y-99571428D02*
X173553571Y-99000000D01*
X173839285Y-99285714D02*
X173267857Y-99285714D01*
X173839285Y-98250000D02*
X173839285Y-98678571D01*
X173839285Y-98464285D02*
X173089285Y-98464285D01*
X173196428Y-98535714D01*
X173267857Y-98607142D01*
X173303571Y-98678571D01*
X173089285Y-97571428D02*
X173089285Y-97928571D01*
X173446428Y-97964285D01*
X173410714Y-97928571D01*
X173375000Y-97857142D01*
X173375000Y-97678571D01*
X173410714Y-97607142D01*
X173446428Y-97571428D01*
X173517857Y-97535714D01*
X173696428Y-97535714D01*
X173767857Y-97571428D01*
X173803571Y-97607142D01*
X173839285Y-97678571D01*
X173839285Y-97857142D01*
X173803571Y-97928571D01*
X173767857Y-97964285D01*
X173089285Y-97321428D02*
X173839285Y-97071428D01*
X173089285Y-96821428D01*
D10*
X207928571Y-180664404D02*
X207928571Y-180331071D01*
X208452380Y-180188214D02*
X208452380Y-180664404D01*
X207452380Y-180664404D01*
X207452380Y-180188214D01*
X208452380Y-179854880D02*
X207785714Y-179331071D01*
X207785714Y-179854880D02*
X208452380Y-179331071D01*
X207785714Y-179092976D02*
X207785714Y-178712023D01*
X207452380Y-178950119D02*
X208309523Y-178950119D01*
X208404761Y-178902500D01*
X208452380Y-178807261D01*
X208452380Y-178712023D01*
X208357142Y-178378690D02*
X208404761Y-178331071D01*
X208452380Y-178378690D01*
X208404761Y-178426309D01*
X208357142Y-178378690D01*
X208452380Y-178378690D01*
X207452380Y-177283452D02*
X208452380Y-176950119D01*
X207452380Y-176616785D01*
X208452380Y-176283452D02*
X207452380Y-176283452D01*
X207452380Y-175616785D02*
X207452380Y-175426309D01*
X207500000Y-175331071D01*
X207595238Y-175235833D01*
X207785714Y-175188214D01*
X208119047Y-175188214D01*
X208309523Y-175235833D01*
X208404761Y-175331071D01*
X208452380Y-175426309D01*
X208452380Y-175616785D01*
X208404761Y-175712023D01*
X208309523Y-175807261D01*
X208119047Y-175854880D01*
X207785714Y-175854880D01*
X207595238Y-175807261D01*
X207500000Y-175712023D01*
X207452380Y-175616785D01*
D11*
X172998333Y-161916666D02*
X173331666Y-161916666D01*
X172931666Y-162116666D02*
X173165000Y-161416666D01*
X173398333Y-162116666D01*
X173998333Y-162116666D02*
X173598333Y-162116666D01*
X173798333Y-162116666D02*
X173798333Y-161416666D01*
X173731666Y-161516666D01*
X173665000Y-161583333D01*
X173598333Y-161616666D01*
X174665000Y-162116666D02*
X174265000Y-162116666D01*
X174465000Y-162116666D02*
X174465000Y-161416666D01*
X174398333Y-161516666D01*
X174331666Y-161583333D01*
X174265000Y-161616666D01*
X165801666Y-174616666D02*
X166135000Y-174616666D01*
X165735000Y-174816666D02*
X165968333Y-174116666D01*
X166201666Y-174816666D01*
X166568333Y-174116666D02*
X166635000Y-174116666D01*
X166701666Y-174150000D01*
X166735000Y-174183333D01*
X166768333Y-174250000D01*
X166801666Y-174383333D01*
X166801666Y-174550000D01*
X166768333Y-174683333D01*
X166735000Y-174750000D01*
X166701666Y-174783333D01*
X166635000Y-174816666D01*
X166568333Y-174816666D01*
X166501666Y-174783333D01*
X166468333Y-174750000D01*
X166435000Y-174683333D01*
X166401666Y-174550000D01*
X166401666Y-174383333D01*
X166435000Y-174250000D01*
X166468333Y-174183333D01*
X166501666Y-174150000D01*
X166568333Y-174116666D01*
D12*
X175415714Y-84110857D02*
X175415714Y-82910857D01*
X176101428Y-84110857D01*
X176101428Y-82910857D01*
X177358571Y-84110857D02*
X176958571Y-83539428D01*
X176672857Y-84110857D02*
X176672857Y-82910857D01*
X177130000Y-82910857D01*
X177244285Y-82968000D01*
X177301428Y-83025142D01*
X177358571Y-83139428D01*
X177358571Y-83310857D01*
X177301428Y-83425142D01*
X177244285Y-83482285D01*
X177130000Y-83539428D01*
X176672857Y-83539428D01*
X178501428Y-84110857D02*
X177815714Y-84110857D01*
X178158571Y-84110857D02*
X178158571Y-82910857D01*
X178044285Y-83082285D01*
X177930000Y-83196571D01*
X177815714Y-83253714D01*
X179415714Y-83482285D02*
X179587142Y-83539428D01*
X179644285Y-83596571D01*
X179701428Y-83710857D01*
X179701428Y-83882285D01*
X179644285Y-83996571D01*
X179587142Y-84053714D01*
X179472857Y-84110857D01*
X179015714Y-84110857D01*
X179015714Y-82910857D01*
X179415714Y-82910857D01*
X179530000Y-82968000D01*
X179587142Y-83025142D01*
X179644285Y-83139428D01*
X179644285Y-83253714D01*
X179587142Y-83368000D01*
X179530000Y-83425142D01*
X179415714Y-83482285D01*
X179015714Y-83482285D01*
X180215714Y-83653714D02*
X181130000Y-83653714D01*
X181644285Y-84053714D02*
X181815714Y-84110857D01*
X182101428Y-84110857D01*
X182215714Y-84053714D01*
X182272857Y-83996571D01*
X182330000Y-83882285D01*
X182330000Y-83768000D01*
X182272857Y-83653714D01*
X182215714Y-83596571D01*
X182101428Y-83539428D01*
X181872857Y-83482285D01*
X181758571Y-83425142D01*
X181701428Y-83368000D01*
X181644285Y-83253714D01*
X181644285Y-83139428D01*
X181701428Y-83025142D01*
X181758571Y-82968000D01*
X181872857Y-82910857D01*
X182158571Y-82910857D01*
X182330000Y-82968000D01*
X182672857Y-82910857D02*
X183358571Y-82910857D01*
X183015714Y-84110857D02*
X183015714Y-82910857D01*
X184330000Y-82910857D02*
X183758571Y-82910857D01*
X183701428Y-83482285D01*
X183758571Y-83425142D01*
X183872857Y-83368000D01*
X184158571Y-83368000D01*
X184272857Y-83425142D01*
X184330000Y-83482285D01*
X184387142Y-83596571D01*
X184387142Y-83882285D01*
X184330000Y-83996571D01*
X184272857Y-84053714D01*
X184158571Y-84110857D01*
X183872857Y-84110857D01*
X183758571Y-84053714D01*
X183701428Y-83996571D01*
X185415714Y-82910857D02*
X185187142Y-82910857D01*
X185072857Y-82968000D01*
X185015714Y-83025142D01*
X184901428Y-83196571D01*
X184844285Y-83425142D01*
X184844285Y-83882285D01*
X184901428Y-83996571D01*
X184958571Y-84053714D01*
X185072857Y-84110857D01*
X185301428Y-84110857D01*
X185415714Y-84053714D01*
X185472857Y-83996571D01*
X185530000Y-83882285D01*
X185530000Y-83596571D01*
X185472857Y-83482285D01*
X185415714Y-83425142D01*
X185301428Y-83368000D01*
X185072857Y-83368000D01*
X184958571Y-83425142D01*
X184901428Y-83482285D01*
X184844285Y-83596571D01*
X186844285Y-83310857D02*
X187130000Y-84110857D01*
X187415714Y-83310857D01*
X188501428Y-84110857D02*
X187815714Y-84110857D01*
X188158571Y-84110857D02*
X188158571Y-82910857D01*
X188044285Y-83082285D01*
X187930000Y-83196571D01*
X187815714Y-83253714D01*
X189015714Y-83996571D02*
X189072857Y-84053714D01*
X189015714Y-84110857D01*
X188958571Y-84053714D01*
X189015714Y-83996571D01*
X189015714Y-84110857D01*
X189815714Y-82910857D02*
X189930000Y-82910857D01*
X190044285Y-82968000D01*
X190101428Y-83025142D01*
X190158571Y-83139428D01*
X190215714Y-83368000D01*
X190215714Y-83653714D01*
X190158571Y-83882285D01*
X190101428Y-83996571D01*
X190044285Y-84053714D01*
X189930000Y-84110857D01*
X189815714Y-84110857D01*
X189701428Y-84053714D01*
X189644285Y-83996571D01*
X189587142Y-83882285D01*
X189530000Y-83653714D01*
X189530000Y-83368000D01*
X189587142Y-83139428D01*
X189644285Y-83025142D01*
X189701428Y-82968000D01*
X189815714Y-82910857D01*
X175358571Y-85700000D02*
X175930000Y-85700000D01*
X175244285Y-86042857D02*
X175644285Y-84842857D01*
X176044285Y-86042857D01*
X176444285Y-86042857D02*
X176444285Y-85242857D01*
X176444285Y-84842857D02*
X176387142Y-84900000D01*
X176444285Y-84957142D01*
X176501428Y-84900000D01*
X176444285Y-84842857D01*
X176444285Y-84957142D01*
X177530000Y-86042857D02*
X177530000Y-84842857D01*
X177530000Y-85985714D02*
X177415714Y-86042857D01*
X177187142Y-86042857D01*
X177072857Y-85985714D01*
X177015714Y-85928571D01*
X176958571Y-85814285D01*
X176958571Y-85471428D01*
X177015714Y-85357142D01*
X177072857Y-85300000D01*
X177187142Y-85242857D01*
X177415714Y-85242857D01*
X177530000Y-85300000D01*
X178615714Y-86042857D02*
X178615714Y-85414285D01*
X178558571Y-85300000D01*
X178444285Y-85242857D01*
X178215714Y-85242857D01*
X178101428Y-85300000D01*
X178615714Y-85985714D02*
X178501428Y-86042857D01*
X178215714Y-86042857D01*
X178101428Y-85985714D01*
X178044285Y-85871428D01*
X178044285Y-85757142D01*
X178101428Y-85642857D01*
X178215714Y-85585714D01*
X178501428Y-85585714D01*
X178615714Y-85528571D01*
X179187142Y-85242857D02*
X179187142Y-86042857D01*
X179187142Y-85357142D02*
X179244285Y-85300000D01*
X179358571Y-85242857D01*
X179530000Y-85242857D01*
X179644285Y-85300000D01*
X179701428Y-85414285D01*
X179701428Y-86042857D01*
X181187142Y-86042857D02*
X181187142Y-84842857D01*
X181587142Y-85700000D01*
X181987142Y-84842857D01*
X181987142Y-86042857D01*
X183015714Y-85985714D02*
X182901428Y-86042857D01*
X182672857Y-86042857D01*
X182558571Y-85985714D01*
X182501428Y-85871428D01*
X182501428Y-85414285D01*
X182558571Y-85300000D01*
X182672857Y-85242857D01*
X182901428Y-85242857D01*
X183015714Y-85300000D01*
X183072857Y-85414285D01*
X183072857Y-85528571D01*
X182501428Y-85642857D01*
X184101428Y-86042857D02*
X184101428Y-84842857D01*
X184101428Y-85985714D02*
X183987142Y-86042857D01*
X183758571Y-86042857D01*
X183644285Y-85985714D01*
X183587142Y-85928571D01*
X183530000Y-85814285D01*
X183530000Y-85471428D01*
X183587142Y-85357142D01*
X183644285Y-85300000D01*
X183758571Y-85242857D01*
X183987142Y-85242857D01*
X184101428Y-85300000D01*
X185187142Y-85985714D02*
X185072857Y-86042857D01*
X184844285Y-86042857D01*
X184730000Y-85985714D01*
X184672857Y-85928571D01*
X184615714Y-85814285D01*
X184615714Y-85471428D01*
X184672857Y-85357142D01*
X184730000Y-85300000D01*
X184844285Y-85242857D01*
X185072857Y-85242857D01*
X185187142Y-85300000D01*
X186215714Y-86042857D02*
X186215714Y-85414285D01*
X186158571Y-85300000D01*
X186044285Y-85242857D01*
X185815714Y-85242857D01*
X185701428Y-85300000D01*
X186215714Y-85985714D02*
X186101428Y-86042857D01*
X185815714Y-86042857D01*
X185701428Y-85985714D01*
X185644285Y-85871428D01*
X185644285Y-85757142D01*
X185701428Y-85642857D01*
X185815714Y-85585714D01*
X186101428Y-85585714D01*
X186215714Y-85528571D01*
X186958571Y-86042857D02*
X186844285Y-85985714D01*
X186787142Y-85871428D01*
X186787142Y-84842857D01*
X187244285Y-85242857D02*
X187701428Y-85242857D01*
X187415714Y-86042857D02*
X187415714Y-85014285D01*
X187472857Y-84900000D01*
X187587142Y-84842857D01*
X187701428Y-84842857D01*
X175358571Y-86889142D02*
X175415714Y-86832000D01*
X175530000Y-86774857D01*
X175815714Y-86774857D01*
X175930000Y-86832000D01*
X175987142Y-86889142D01*
X176044285Y-87003428D01*
X176044285Y-87117714D01*
X175987142Y-87289142D01*
X175301428Y-87974857D01*
X176044285Y-87974857D01*
X176787142Y-86774857D02*
X176901428Y-86774857D01*
X177015714Y-86832000D01*
X177072857Y-86889142D01*
X177130000Y-87003428D01*
X177187142Y-87232000D01*
X177187142Y-87517714D01*
X177130000Y-87746285D01*
X177072857Y-87860571D01*
X177015714Y-87917714D01*
X176901428Y-87974857D01*
X176787142Y-87974857D01*
X176672857Y-87917714D01*
X176615714Y-87860571D01*
X176558571Y-87746285D01*
X176501428Y-87517714D01*
X176501428Y-87232000D01*
X176558571Y-87003428D01*
X176615714Y-86889142D01*
X176672857Y-86832000D01*
X176787142Y-86774857D01*
X177644285Y-86889142D02*
X177701428Y-86832000D01*
X177815714Y-86774857D01*
X178101428Y-86774857D01*
X178215714Y-86832000D01*
X178272857Y-86889142D01*
X178330000Y-87003428D01*
X178330000Y-87117714D01*
X178272857Y-87289142D01*
X177587142Y-87974857D01*
X178330000Y-87974857D01*
X178787142Y-86889142D02*
X178844285Y-86832000D01*
X178958571Y-86774857D01*
X179244285Y-86774857D01*
X179358571Y-86832000D01*
X179415714Y-86889142D01*
X179472857Y-87003428D01*
X179472857Y-87117714D01*
X179415714Y-87289142D01*
X178730000Y-87974857D01*
X179472857Y-87974857D01*
X180901428Y-86774857D02*
X180901428Y-87746285D01*
X180958571Y-87860571D01*
X181015714Y-87917714D01*
X181130000Y-87974857D01*
X181358571Y-87974857D01*
X181472857Y-87917714D01*
X181530000Y-87860571D01*
X181587142Y-87746285D01*
X181587142Y-86774857D01*
X182158571Y-87174857D02*
X182158571Y-87974857D01*
X182158571Y-87289142D02*
X182215714Y-87232000D01*
X182330000Y-87174857D01*
X182501428Y-87174857D01*
X182615714Y-87232000D01*
X182672857Y-87346285D01*
X182672857Y-87974857D01*
X183244285Y-87974857D02*
X183244285Y-87174857D01*
X183244285Y-86774857D02*
X183187142Y-86832000D01*
X183244285Y-86889142D01*
X183301428Y-86832000D01*
X183244285Y-86774857D01*
X183244285Y-86889142D01*
X183701428Y-87174857D02*
X183987142Y-87974857D01*
X184272857Y-87174857D01*
X185187142Y-87917714D02*
X185072857Y-87974857D01*
X184844285Y-87974857D01*
X184730000Y-87917714D01*
X184672857Y-87803428D01*
X184672857Y-87346285D01*
X184730000Y-87232000D01*
X184844285Y-87174857D01*
X185072857Y-87174857D01*
X185187142Y-87232000D01*
X185244285Y-87346285D01*
X185244285Y-87460571D01*
X184672857Y-87574857D01*
X185758571Y-87974857D02*
X185758571Y-87174857D01*
X185758571Y-87403428D02*
X185815714Y-87289142D01*
X185872857Y-87232000D01*
X185987142Y-87174857D01*
X186101428Y-87174857D01*
X186444285Y-87917714D02*
X186558571Y-87974857D01*
X186787142Y-87974857D01*
X186901428Y-87917714D01*
X186958571Y-87803428D01*
X186958571Y-87746285D01*
X186901428Y-87632000D01*
X186787142Y-87574857D01*
X186615714Y-87574857D01*
X186501428Y-87517714D01*
X186444285Y-87403428D01*
X186444285Y-87346285D01*
X186501428Y-87232000D01*
X186615714Y-87174857D01*
X186787142Y-87174857D01*
X186901428Y-87232000D01*
X187472857Y-87974857D02*
X187472857Y-87174857D01*
X187472857Y-86774857D02*
X187415714Y-86832000D01*
X187472857Y-86889142D01*
X187530000Y-86832000D01*
X187472857Y-86774857D01*
X187472857Y-86889142D01*
X187872857Y-87174857D02*
X188330000Y-87174857D01*
X188044285Y-86774857D02*
X188044285Y-87803428D01*
X188101428Y-87917714D01*
X188215714Y-87974857D01*
X188330000Y-87974857D01*
X188615714Y-87174857D02*
X188901428Y-87974857D01*
X189187142Y-87174857D02*
X188901428Y-87974857D01*
X188787142Y-88260571D01*
X188730000Y-88317714D01*
X188615714Y-88374857D01*
X190730000Y-87974857D02*
X190615714Y-87917714D01*
X190558571Y-87860571D01*
X190501428Y-87746285D01*
X190501428Y-87403428D01*
X190558571Y-87289142D01*
X190615714Y-87232000D01*
X190730000Y-87174857D01*
X190901428Y-87174857D01*
X191015714Y-87232000D01*
X191072857Y-87289142D01*
X191130000Y-87403428D01*
X191130000Y-87746285D01*
X191072857Y-87860571D01*
X191015714Y-87917714D01*
X190901428Y-87974857D01*
X190730000Y-87974857D01*
X191472857Y-87174857D02*
X191930000Y-87174857D01*
X191644285Y-87974857D02*
X191644285Y-86946285D01*
X191701428Y-86832000D01*
X191815714Y-86774857D01*
X191930000Y-86774857D01*
X193244285Y-87974857D02*
X193244285Y-86774857D01*
X193530000Y-86774857D01*
X193701428Y-86832000D01*
X193815714Y-86946285D01*
X193872857Y-87060571D01*
X193930000Y-87289142D01*
X193930000Y-87460571D01*
X193872857Y-87689142D01*
X193815714Y-87803428D01*
X193701428Y-87917714D01*
X193530000Y-87974857D01*
X193244285Y-87974857D01*
X194958571Y-87974857D02*
X194958571Y-87346285D01*
X194901428Y-87232000D01*
X194787142Y-87174857D01*
X194558571Y-87174857D01*
X194444285Y-87232000D01*
X194958571Y-87917714D02*
X194844285Y-87974857D01*
X194558571Y-87974857D01*
X194444285Y-87917714D01*
X194387142Y-87803428D01*
X194387142Y-87689142D01*
X194444285Y-87574857D01*
X194558571Y-87517714D01*
X194844285Y-87517714D01*
X194958571Y-87460571D01*
X195701428Y-87974857D02*
X195587142Y-87917714D01*
X195530000Y-87803428D01*
X195530000Y-86774857D01*
X196330000Y-87974857D02*
X196215714Y-87917714D01*
X196158571Y-87803428D01*
X196158571Y-86774857D01*
X197301428Y-87974857D02*
X197301428Y-87346285D01*
X197244285Y-87232000D01*
X197130000Y-87174857D01*
X196901428Y-87174857D01*
X196787142Y-87232000D01*
X197301428Y-87917714D02*
X197187142Y-87974857D01*
X196901428Y-87974857D01*
X196787142Y-87917714D01*
X196730000Y-87803428D01*
X196730000Y-87689142D01*
X196787142Y-87574857D01*
X196901428Y-87517714D01*
X197187142Y-87517714D01*
X197301428Y-87460571D01*
X197815714Y-87917714D02*
X197930000Y-87974857D01*
X198158571Y-87974857D01*
X198272857Y-87917714D01*
X198330000Y-87803428D01*
X198330000Y-87746285D01*
X198272857Y-87632000D01*
X198158571Y-87574857D01*
X197987142Y-87574857D01*
X197872857Y-87517714D01*
X197815714Y-87403428D01*
X197815714Y-87346285D01*
X197872857Y-87232000D01*
X197987142Y-87174857D01*
X198158571Y-87174857D01*
X198272857Y-87232000D01*
D11*
X226701666Y-182216666D02*
X227035000Y-182216666D01*
X226635000Y-182416666D02*
X226868333Y-181716666D01*
X227101666Y-182416666D01*
X227635000Y-181716666D02*
X227501666Y-181716666D01*
X227435000Y-181750000D01*
X227401666Y-181783333D01*
X227335000Y-181883333D01*
X227301666Y-182016666D01*
X227301666Y-182283333D01*
X227335000Y-182350000D01*
X227368333Y-182383333D01*
X227435000Y-182416666D01*
X227568333Y-182416666D01*
X227635000Y-182383333D01*
X227668333Y-182350000D01*
X227701666Y-182283333D01*
X227701666Y-182116666D01*
X227668333Y-182050000D01*
X227635000Y-182016666D01*
X227568333Y-181983333D01*
X227435000Y-181983333D01*
X227368333Y-182016666D01*
X227335000Y-182050000D01*
X227301666Y-182116666D01*
D10*
X182868928Y-200108571D02*
X182535595Y-200108571D01*
X182535595Y-200632380D02*
X182535595Y-199632380D01*
X183011785Y-199632380D01*
X183535595Y-200632380D02*
X183440357Y-200584761D01*
X183392738Y-200537142D01*
X183345119Y-200441904D01*
X183345119Y-200156190D01*
X183392738Y-200060952D01*
X183440357Y-200013333D01*
X183535595Y-199965714D01*
X183678452Y-199965714D01*
X183773690Y-200013333D01*
X183821309Y-200060952D01*
X183868928Y-200156190D01*
X183868928Y-200441904D01*
X183821309Y-200537142D01*
X183773690Y-200584761D01*
X183678452Y-200632380D01*
X183535595Y-200632380D01*
X184297500Y-200632380D02*
X184297500Y-199965714D01*
X184297500Y-200156190D02*
X184345119Y-200060952D01*
X184392738Y-200013333D01*
X184487976Y-199965714D01*
X184583214Y-199965714D01*
X185583214Y-199965714D02*
X185773690Y-200632380D01*
X185964166Y-200156190D01*
X186154642Y-200632380D01*
X186345119Y-199965714D01*
X186868928Y-200632380D02*
X186773690Y-200584761D01*
X186726071Y-200537142D01*
X186678452Y-200441904D01*
X186678452Y-200156190D01*
X186726071Y-200060952D01*
X186773690Y-200013333D01*
X186868928Y-199965714D01*
X187011785Y-199965714D01*
X187107023Y-200013333D01*
X187154642Y-200060952D01*
X187202261Y-200156190D01*
X187202261Y-200441904D01*
X187154642Y-200537142D01*
X187107023Y-200584761D01*
X187011785Y-200632380D01*
X186868928Y-200632380D01*
X187630833Y-200632380D02*
X187630833Y-199965714D01*
X187630833Y-200156190D02*
X187678452Y-200060952D01*
X187726071Y-200013333D01*
X187821309Y-199965714D01*
X187916547Y-199965714D01*
X188678452Y-200632380D02*
X188678452Y-199632380D01*
X188678452Y-200584761D02*
X188583214Y-200632380D01*
X188392738Y-200632380D01*
X188297500Y-200584761D01*
X188249880Y-200537142D01*
X188202261Y-200441904D01*
X188202261Y-200156190D01*
X188249880Y-200060952D01*
X188297500Y-200013333D01*
X188392738Y-199965714D01*
X188583214Y-199965714D01*
X188678452Y-200013333D01*
X190345119Y-200584761D02*
X190249880Y-200632380D01*
X190059404Y-200632380D01*
X189964166Y-200584761D01*
X189916547Y-200537142D01*
X189868928Y-200441904D01*
X189868928Y-200156190D01*
X189916547Y-200060952D01*
X189964166Y-200013333D01*
X190059404Y-199965714D01*
X190249880Y-199965714D01*
X190345119Y-200013333D01*
X190916547Y-200632380D02*
X190821309Y-200584761D01*
X190773690Y-200537142D01*
X190726071Y-200441904D01*
X190726071Y-200156190D01*
X190773690Y-200060952D01*
X190821309Y-200013333D01*
X190916547Y-199965714D01*
X191059404Y-199965714D01*
X191154642Y-200013333D01*
X191202261Y-200060952D01*
X191249880Y-200156190D01*
X191249880Y-200441904D01*
X191202261Y-200537142D01*
X191154642Y-200584761D01*
X191059404Y-200632380D01*
X190916547Y-200632380D01*
X191678452Y-199965714D02*
X191678452Y-200632380D01*
X191678452Y-200060952D02*
X191726071Y-200013333D01*
X191821309Y-199965714D01*
X191964166Y-199965714D01*
X192059404Y-200013333D01*
X192107023Y-200108571D01*
X192107023Y-200632380D01*
X192440357Y-199965714D02*
X192821309Y-199965714D01*
X192583214Y-200632380D02*
X192583214Y-199775238D01*
X192630833Y-199680000D01*
X192726071Y-199632380D01*
X192821309Y-199632380D01*
X193154642Y-200632380D02*
X193154642Y-199965714D01*
X193154642Y-199632380D02*
X193107023Y-199680000D01*
X193154642Y-199727619D01*
X193202261Y-199680000D01*
X193154642Y-199632380D01*
X193154642Y-199727619D01*
X194059404Y-199965714D02*
X194059404Y-200775238D01*
X194011785Y-200870476D01*
X193964166Y-200918095D01*
X193868928Y-200965714D01*
X193726071Y-200965714D01*
X193630833Y-200918095D01*
X194059404Y-200584761D02*
X193964166Y-200632380D01*
X193773690Y-200632380D01*
X193678452Y-200584761D01*
X193630833Y-200537142D01*
X193583214Y-200441904D01*
X193583214Y-200156190D01*
X193630833Y-200060952D01*
X193678452Y-200013333D01*
X193773690Y-199965714D01*
X193964166Y-199965714D01*
X194059404Y-200013333D01*
X194964166Y-199965714D02*
X194964166Y-200632380D01*
X194535595Y-199965714D02*
X194535595Y-200489523D01*
X194583214Y-200584761D01*
X194678452Y-200632380D01*
X194821309Y-200632380D01*
X194916547Y-200584761D01*
X194964166Y-200537142D01*
X195440357Y-200632380D02*
X195440357Y-199965714D01*
X195440357Y-200156190D02*
X195487976Y-200060952D01*
X195535595Y-200013333D01*
X195630833Y-199965714D01*
X195726071Y-199965714D01*
X196487976Y-200632380D02*
X196487976Y-200108571D01*
X196440357Y-200013333D01*
X196345119Y-199965714D01*
X196154642Y-199965714D01*
X196059404Y-200013333D01*
X196487976Y-200584761D02*
X196392738Y-200632380D01*
X196154642Y-200632380D01*
X196059404Y-200584761D01*
X196011785Y-200489523D01*
X196011785Y-200394285D01*
X196059404Y-200299047D01*
X196154642Y-200251428D01*
X196392738Y-200251428D01*
X196487976Y-200203809D01*
X196821309Y-199965714D02*
X197202261Y-199965714D01*
X196964166Y-199632380D02*
X196964166Y-200489523D01*
X197011785Y-200584761D01*
X197107023Y-200632380D01*
X197202261Y-200632380D01*
X197535595Y-200632380D02*
X197535595Y-199965714D01*
X197535595Y-199632380D02*
X197487976Y-199680000D01*
X197535595Y-199727619D01*
X197583214Y-199680000D01*
X197535595Y-199632380D01*
X197535595Y-199727619D01*
X198154642Y-200632380D02*
X198059404Y-200584761D01*
X198011785Y-200537142D01*
X197964166Y-200441904D01*
X197964166Y-200156190D01*
X198011785Y-200060952D01*
X198059404Y-200013333D01*
X198154642Y-199965714D01*
X198297500Y-199965714D01*
X198392738Y-200013333D01*
X198440357Y-200060952D01*
X198487976Y-200156190D01*
X198487976Y-200441904D01*
X198440357Y-200537142D01*
X198392738Y-200584761D01*
X198297500Y-200632380D01*
X198154642Y-200632380D01*
X198916547Y-199965714D02*
X198916547Y-200632380D01*
X198916547Y-200060952D02*
X198964166Y-200013333D01*
X199059404Y-199965714D01*
X199202261Y-199965714D01*
X199297500Y-200013333D01*
X199345119Y-200108571D01*
X199345119Y-200632380D01*
X199821309Y-200537142D02*
X199868928Y-200584761D01*
X199821309Y-200632380D01*
X199773690Y-200584761D01*
X199821309Y-200537142D01*
X199821309Y-200632380D01*
X199821309Y-200013333D02*
X199868928Y-200060952D01*
X199821309Y-200108571D01*
X199773690Y-200060952D01*
X199821309Y-200013333D01*
X199821309Y-200108571D01*
X182535595Y-202242380D02*
X182535595Y-201242380D01*
X182916547Y-201242380D01*
X183011785Y-201290000D01*
X183059404Y-201337619D01*
X183107023Y-201432857D01*
X183107023Y-201575714D01*
X183059404Y-201670952D01*
X183011785Y-201718571D01*
X182916547Y-201766190D01*
X182535595Y-201766190D01*
X183678452Y-202242380D02*
X183583214Y-202194761D01*
X183535595Y-202099523D01*
X183535595Y-201242380D01*
X184487976Y-202242380D02*
X184487976Y-201718571D01*
X184440357Y-201623333D01*
X184345119Y-201575714D01*
X184154642Y-201575714D01*
X184059404Y-201623333D01*
X184487976Y-202194761D02*
X184392738Y-202242380D01*
X184154642Y-202242380D01*
X184059404Y-202194761D01*
X184011785Y-202099523D01*
X184011785Y-202004285D01*
X184059404Y-201909047D01*
X184154642Y-201861428D01*
X184392738Y-201861428D01*
X184487976Y-201813809D01*
X185392738Y-202194761D02*
X185297500Y-202242380D01*
X185107023Y-202242380D01*
X185011785Y-202194761D01*
X184964166Y-202147142D01*
X184916547Y-202051904D01*
X184916547Y-201766190D01*
X184964166Y-201670952D01*
X185011785Y-201623333D01*
X185107023Y-201575714D01*
X185297500Y-201575714D01*
X185392738Y-201623333D01*
X186202261Y-202194761D02*
X186107023Y-202242380D01*
X185916547Y-202242380D01*
X185821309Y-202194761D01*
X185773690Y-202099523D01*
X185773690Y-201718571D01*
X185821309Y-201623333D01*
X185916547Y-201575714D01*
X186107023Y-201575714D01*
X186202261Y-201623333D01*
X186249880Y-201718571D01*
X186249880Y-201813809D01*
X185773690Y-201909047D01*
X188011785Y-202242380D02*
X187678452Y-201766190D01*
X187440357Y-202242380D02*
X187440357Y-201242380D01*
X187821309Y-201242380D01*
X187916547Y-201290000D01*
X187964166Y-201337619D01*
X188011785Y-201432857D01*
X188011785Y-201575714D01*
X187964166Y-201670952D01*
X187916547Y-201718571D01*
X187821309Y-201766190D01*
X187440357Y-201766190D01*
X188964166Y-202242380D02*
X188392738Y-202242380D01*
X188678452Y-202242380D02*
X188678452Y-201242380D01*
X188583214Y-201385238D01*
X188487976Y-201480476D01*
X188392738Y-201528095D01*
X189440357Y-202194761D02*
X189440357Y-202242380D01*
X189392738Y-202337619D01*
X189345119Y-202385238D01*
X190630833Y-202242380D02*
X190630833Y-201242380D01*
X190868928Y-201242380D01*
X191011785Y-201290000D01*
X191107023Y-201385238D01*
X191154642Y-201480476D01*
X191202261Y-201670952D01*
X191202261Y-201813809D01*
X191154642Y-202004285D01*
X191107023Y-202099523D01*
X191011785Y-202194761D01*
X190868928Y-202242380D01*
X190630833Y-202242380D01*
X191630833Y-202242380D02*
X191630833Y-201242380D01*
X192202261Y-202242380D01*
X192202261Y-201242380D01*
X192678452Y-202242380D02*
X192678452Y-201242380D01*
X193059404Y-201242380D01*
X193154642Y-201290000D01*
X193202261Y-201337619D01*
X193249880Y-201432857D01*
X193249880Y-201575714D01*
X193202261Y-201670952D01*
X193154642Y-201718571D01*
X193059404Y-201766190D01*
X192678452Y-201766190D01*
X195011785Y-202242380D02*
X194678452Y-201766190D01*
X194440357Y-202242380D02*
X194440357Y-201242380D01*
X194821309Y-201242380D01*
X194916547Y-201290000D01*
X194964166Y-201337619D01*
X195011785Y-201432857D01*
X195011785Y-201575714D01*
X194964166Y-201670952D01*
X194916547Y-201718571D01*
X194821309Y-201766190D01*
X194440357Y-201766190D01*
X195392738Y-201337619D02*
X195440357Y-201290000D01*
X195535595Y-201242380D01*
X195773690Y-201242380D01*
X195868928Y-201290000D01*
X195916547Y-201337619D01*
X195964166Y-201432857D01*
X195964166Y-201528095D01*
X195916547Y-201670952D01*
X195345119Y-202242380D01*
X195964166Y-202242380D01*
X196440357Y-202194761D02*
X196440357Y-202242380D01*
X196392738Y-202337619D01*
X196345119Y-202385238D01*
X197630833Y-202242380D02*
X197630833Y-201242380D01*
X197868928Y-201242380D01*
X198011785Y-201290000D01*
X198107023Y-201385238D01*
X198154642Y-201480476D01*
X198202261Y-201670952D01*
X198202261Y-201813809D01*
X198154642Y-202004285D01*
X198107023Y-202099523D01*
X198011785Y-202194761D01*
X197868928Y-202242380D01*
X197630833Y-202242380D01*
X198630833Y-202242380D02*
X198630833Y-201242380D01*
X199202261Y-202242380D01*
X199202261Y-201242380D01*
X199678452Y-202242380D02*
X199678452Y-201242380D01*
X200059404Y-201242380D01*
X200154642Y-201290000D01*
X200202261Y-201337619D01*
X200249880Y-201432857D01*
X200249880Y-201575714D01*
X200202261Y-201670952D01*
X200154642Y-201718571D01*
X200059404Y-201766190D01*
X199678452Y-201766190D01*
X202011785Y-202242380D02*
X201678452Y-201766190D01*
X201440357Y-202242380D02*
X201440357Y-201242380D01*
X201821309Y-201242380D01*
X201916547Y-201290000D01*
X201964166Y-201337619D01*
X202011785Y-201432857D01*
X202011785Y-201575714D01*
X201964166Y-201670952D01*
X201916547Y-201718571D01*
X201821309Y-201766190D01*
X201440357Y-201766190D01*
X202345119Y-201242380D02*
X202964166Y-201242380D01*
X202630833Y-201623333D01*
X202773690Y-201623333D01*
X202868928Y-201670952D01*
X202916547Y-201718571D01*
X202964166Y-201813809D01*
X202964166Y-202051904D01*
X202916547Y-202147142D01*
X202868928Y-202194761D01*
X202773690Y-202242380D01*
X202487976Y-202242380D01*
X202392738Y-202194761D01*
X202345119Y-202147142D01*
X203440357Y-202194761D02*
X203440357Y-202242380D01*
X203392738Y-202337619D01*
X203345119Y-202385238D01*
X204630833Y-201575714D02*
X204630833Y-202575714D01*
X204630833Y-201623333D02*
X204726071Y-201575714D01*
X204916547Y-201575714D01*
X205011785Y-201623333D01*
X205059404Y-201670952D01*
X205107023Y-201766190D01*
X205107023Y-202051904D01*
X205059404Y-202147142D01*
X205011785Y-202194761D01*
X204916547Y-202242380D01*
X204726071Y-202242380D01*
X204630833Y-202194761D01*
X205678452Y-202242380D02*
X205583214Y-202194761D01*
X205535595Y-202099523D01*
X205535595Y-201242380D01*
X206487976Y-202242380D02*
X206487976Y-201718571D01*
X206440357Y-201623333D01*
X206345119Y-201575714D01*
X206154642Y-201575714D01*
X206059404Y-201623333D01*
X206487976Y-202194761D02*
X206392738Y-202242380D01*
X206154642Y-202242380D01*
X206059404Y-202194761D01*
X206011785Y-202099523D01*
X206011785Y-202004285D01*
X206059404Y-201909047D01*
X206154642Y-201861428D01*
X206392738Y-201861428D01*
X206487976Y-201813809D01*
X207392738Y-202194761D02*
X207297500Y-202242380D01*
X207107023Y-202242380D01*
X207011785Y-202194761D01*
X206964166Y-202147142D01*
X206916547Y-202051904D01*
X206916547Y-201766190D01*
X206964166Y-201670952D01*
X207011785Y-201623333D01*
X207107023Y-201575714D01*
X207297500Y-201575714D01*
X207392738Y-201623333D01*
X208202261Y-202194761D02*
X208107023Y-202242380D01*
X207916547Y-202242380D01*
X207821309Y-202194761D01*
X207773690Y-202099523D01*
X207773690Y-201718571D01*
X207821309Y-201623333D01*
X207916547Y-201575714D01*
X208107023Y-201575714D01*
X208202261Y-201623333D01*
X208249880Y-201718571D01*
X208249880Y-201813809D01*
X207773690Y-201909047D01*
X210011785Y-202242380D02*
X209678452Y-201766190D01*
X209440357Y-202242380D02*
X209440357Y-201242380D01*
X209821309Y-201242380D01*
X209916547Y-201290000D01*
X209964166Y-201337619D01*
X210011785Y-201432857D01*
X210011785Y-201575714D01*
X209964166Y-201670952D01*
X209916547Y-201718571D01*
X209821309Y-201766190D01*
X209440357Y-201766190D01*
X210583214Y-201670952D02*
X210487976Y-201623333D01*
X210440357Y-201575714D01*
X210392738Y-201480476D01*
X210392738Y-201432857D01*
X210440357Y-201337619D01*
X210487976Y-201290000D01*
X210583214Y-201242380D01*
X210773690Y-201242380D01*
X210868928Y-201290000D01*
X210916547Y-201337619D01*
X210964166Y-201432857D01*
X210964166Y-201480476D01*
X210916547Y-201575714D01*
X210868928Y-201623333D01*
X210773690Y-201670952D01*
X210583214Y-201670952D01*
X210487976Y-201718571D01*
X210440357Y-201766190D01*
X210392738Y-201861428D01*
X210392738Y-202051904D01*
X210440357Y-202147142D01*
X210487976Y-202194761D01*
X210583214Y-202242380D01*
X210773690Y-202242380D01*
X210868928Y-202194761D01*
X210916547Y-202147142D01*
X210964166Y-202051904D01*
X210964166Y-201861428D01*
X210916547Y-201766190D01*
X210868928Y-201718571D01*
X210773690Y-201670952D01*
X212154642Y-201861428D02*
X212916547Y-201861428D01*
X214726071Y-202242380D02*
X214392738Y-201766190D01*
X214154642Y-202242380D02*
X214154642Y-201242380D01*
X214535595Y-201242380D01*
X214630833Y-201290000D01*
X214678452Y-201337619D01*
X214726071Y-201432857D01*
X214726071Y-201575714D01*
X214678452Y-201670952D01*
X214630833Y-201718571D01*
X214535595Y-201766190D01*
X214154642Y-201766190D01*
X215678452Y-202242380D02*
X215107023Y-202242380D01*
X215392738Y-202242380D02*
X215392738Y-201242380D01*
X215297500Y-201385238D01*
X215202261Y-201480476D01*
X215107023Y-201528095D01*
X216011785Y-201242380D02*
X216630833Y-201242380D01*
X216297500Y-201623333D01*
X216440357Y-201623333D01*
X216535595Y-201670952D01*
X216583214Y-201718571D01*
X216630833Y-201813809D01*
X216630833Y-202051904D01*
X216583214Y-202147142D01*
X216535595Y-202194761D01*
X216440357Y-202242380D01*
X216154642Y-202242380D01*
X216059404Y-202194761D01*
X216011785Y-202147142D01*
X217059404Y-202147142D02*
X217107023Y-202194761D01*
X217059404Y-202242380D01*
X217011785Y-202194761D01*
X217059404Y-202147142D01*
X217059404Y-202242380D01*
X182868928Y-204938571D02*
X182535595Y-204938571D01*
X182535595Y-205462380D02*
X182535595Y-204462380D01*
X183011785Y-204462380D01*
X183535595Y-205462380D02*
X183440357Y-205414761D01*
X183392738Y-205367142D01*
X183345119Y-205271904D01*
X183345119Y-204986190D01*
X183392738Y-204890952D01*
X183440357Y-204843333D01*
X183535595Y-204795714D01*
X183678452Y-204795714D01*
X183773690Y-204843333D01*
X183821309Y-204890952D01*
X183868928Y-204986190D01*
X183868928Y-205271904D01*
X183821309Y-205367142D01*
X183773690Y-205414761D01*
X183678452Y-205462380D01*
X183535595Y-205462380D01*
X184297500Y-205462380D02*
X184297500Y-204795714D01*
X184297500Y-204986190D02*
X184345119Y-204890952D01*
X184392738Y-204843333D01*
X184487976Y-204795714D01*
X184583214Y-204795714D01*
X185678452Y-205462380D02*
X185678452Y-204462380D01*
X185678452Y-204843333D02*
X185773690Y-204795714D01*
X185964166Y-204795714D01*
X186059404Y-204843333D01*
X186107023Y-204890952D01*
X186154642Y-204986190D01*
X186154642Y-205271904D01*
X186107023Y-205367142D01*
X186059404Y-205414761D01*
X185964166Y-205462380D01*
X185773690Y-205462380D01*
X185678452Y-205414761D01*
X186487976Y-204795714D02*
X186726071Y-205462380D01*
X186964166Y-204795714D02*
X186726071Y-205462380D01*
X186630833Y-205700476D01*
X186583214Y-205748095D01*
X186487976Y-205795714D01*
X187202261Y-204795714D02*
X187583214Y-204795714D01*
X187345119Y-204462380D02*
X187345119Y-205319523D01*
X187392738Y-205414761D01*
X187487976Y-205462380D01*
X187583214Y-205462380D01*
X188297500Y-205414761D02*
X188202261Y-205462380D01*
X188011785Y-205462380D01*
X187916547Y-205414761D01*
X187868928Y-205319523D01*
X187868928Y-204938571D01*
X187916547Y-204843333D01*
X188011785Y-204795714D01*
X188202261Y-204795714D01*
X188297500Y-204843333D01*
X188345119Y-204938571D01*
X188345119Y-205033809D01*
X187868928Y-205129047D01*
X189964166Y-205414761D02*
X189868928Y-205462380D01*
X189678452Y-205462380D01*
X189583214Y-205414761D01*
X189535595Y-205367142D01*
X189487976Y-205271904D01*
X189487976Y-204986190D01*
X189535595Y-204890952D01*
X189583214Y-204843333D01*
X189678452Y-204795714D01*
X189868928Y-204795714D01*
X189964166Y-204843333D01*
X190535595Y-205462380D02*
X190440357Y-205414761D01*
X190392738Y-205367142D01*
X190345119Y-205271904D01*
X190345119Y-204986190D01*
X190392738Y-204890952D01*
X190440357Y-204843333D01*
X190535595Y-204795714D01*
X190678452Y-204795714D01*
X190773690Y-204843333D01*
X190821309Y-204890952D01*
X190868928Y-204986190D01*
X190868928Y-205271904D01*
X190821309Y-205367142D01*
X190773690Y-205414761D01*
X190678452Y-205462380D01*
X190535595Y-205462380D01*
X191297500Y-204795714D02*
X191297500Y-205462380D01*
X191297500Y-204890952D02*
X191345119Y-204843333D01*
X191440357Y-204795714D01*
X191583214Y-204795714D01*
X191678452Y-204843333D01*
X191726071Y-204938571D01*
X191726071Y-205462380D01*
X192059404Y-204795714D02*
X192440357Y-204795714D01*
X192202261Y-205462380D02*
X192202261Y-204605238D01*
X192249880Y-204510000D01*
X192345119Y-204462380D01*
X192440357Y-204462380D01*
X192773690Y-205462380D02*
X192773690Y-204795714D01*
X192773690Y-204462380D02*
X192726071Y-204510000D01*
X192773690Y-204557619D01*
X192821309Y-204510000D01*
X192773690Y-204462380D01*
X192773690Y-204557619D01*
X193678452Y-204795714D02*
X193678452Y-205605238D01*
X193630833Y-205700476D01*
X193583214Y-205748095D01*
X193487976Y-205795714D01*
X193345119Y-205795714D01*
X193249880Y-205748095D01*
X193678452Y-205414761D02*
X193583214Y-205462380D01*
X193392738Y-205462380D01*
X193297500Y-205414761D01*
X193249880Y-205367142D01*
X193202261Y-205271904D01*
X193202261Y-204986190D01*
X193249880Y-204890952D01*
X193297500Y-204843333D01*
X193392738Y-204795714D01*
X193583214Y-204795714D01*
X193678452Y-204843333D01*
X194583214Y-204795714D02*
X194583214Y-205462380D01*
X194154642Y-204795714D02*
X194154642Y-205319523D01*
X194202261Y-205414761D01*
X194297500Y-205462380D01*
X194440357Y-205462380D01*
X194535595Y-205414761D01*
X194583214Y-205367142D01*
X195059404Y-205462380D02*
X195059404Y-204795714D01*
X195059404Y-204986190D02*
X195107023Y-204890952D01*
X195154642Y-204843333D01*
X195249880Y-204795714D01*
X195345119Y-204795714D01*
X196107023Y-205462380D02*
X196107023Y-204938571D01*
X196059404Y-204843333D01*
X195964166Y-204795714D01*
X195773690Y-204795714D01*
X195678452Y-204843333D01*
X196107023Y-205414761D02*
X196011785Y-205462380D01*
X195773690Y-205462380D01*
X195678452Y-205414761D01*
X195630833Y-205319523D01*
X195630833Y-205224285D01*
X195678452Y-205129047D01*
X195773690Y-205081428D01*
X196011785Y-205081428D01*
X196107023Y-205033809D01*
X196440357Y-204795714D02*
X196821309Y-204795714D01*
X196583214Y-204462380D02*
X196583214Y-205319523D01*
X196630833Y-205414761D01*
X196726071Y-205462380D01*
X196821309Y-205462380D01*
X197154642Y-205462380D02*
X197154642Y-204795714D01*
X197154642Y-204462380D02*
X197107023Y-204510000D01*
X197154642Y-204557619D01*
X197202261Y-204510000D01*
X197154642Y-204462380D01*
X197154642Y-204557619D01*
X197773690Y-205462380D02*
X197678452Y-205414761D01*
X197630833Y-205367142D01*
X197583214Y-205271904D01*
X197583214Y-204986190D01*
X197630833Y-204890952D01*
X197678452Y-204843333D01*
X197773690Y-204795714D01*
X197916547Y-204795714D01*
X198011785Y-204843333D01*
X198059404Y-204890952D01*
X198107023Y-204986190D01*
X198107023Y-205271904D01*
X198059404Y-205367142D01*
X198011785Y-205414761D01*
X197916547Y-205462380D01*
X197773690Y-205462380D01*
X198535595Y-204795714D02*
X198535595Y-205462380D01*
X198535595Y-204890952D02*
X198583214Y-204843333D01*
X198678452Y-204795714D01*
X198821309Y-204795714D01*
X198916547Y-204843333D01*
X198964166Y-204938571D01*
X198964166Y-205462380D01*
X199440357Y-205367142D02*
X199487976Y-205414761D01*
X199440357Y-205462380D01*
X199392738Y-205414761D01*
X199440357Y-205367142D01*
X199440357Y-205462380D01*
X199440357Y-204843333D02*
X199487976Y-204890952D01*
X199440357Y-204938571D01*
X199392738Y-204890952D01*
X199440357Y-204843333D01*
X199440357Y-204938571D01*
X182535595Y-207072380D02*
X182535595Y-206072380D01*
X182773690Y-206072380D01*
X182916547Y-206120000D01*
X183011785Y-206215238D01*
X183059404Y-206310476D01*
X183107023Y-206500952D01*
X183107023Y-206643809D01*
X183059404Y-206834285D01*
X183011785Y-206929523D01*
X182916547Y-207024761D01*
X182773690Y-207072380D01*
X182535595Y-207072380D01*
X183535595Y-207072380D02*
X183535595Y-206072380D01*
X184107023Y-207072380D01*
X184107023Y-206072380D01*
X184583214Y-207072380D02*
X184583214Y-206072380D01*
X184964166Y-206072380D01*
X185059404Y-206120000D01*
X185107023Y-206167619D01*
X185154642Y-206262857D01*
X185154642Y-206405714D01*
X185107023Y-206500952D01*
X185059404Y-206548571D01*
X184964166Y-206596190D01*
X184583214Y-206596190D01*
X186916547Y-207072380D02*
X186583214Y-206596190D01*
X186345119Y-207072380D02*
X186345119Y-206072380D01*
X186726071Y-206072380D01*
X186821309Y-206120000D01*
X186868928Y-206167619D01*
X186916547Y-206262857D01*
X186916547Y-206405714D01*
X186868928Y-206500952D01*
X186821309Y-206548571D01*
X186726071Y-206596190D01*
X186345119Y-206596190D01*
X187868928Y-207072380D02*
X187297500Y-207072380D01*
X187583214Y-207072380D02*
X187583214Y-206072380D01*
X187487976Y-206215238D01*
X187392738Y-206310476D01*
X187297500Y-206358095D01*
X188345119Y-207024761D02*
X188345119Y-207072380D01*
X188297500Y-207167619D01*
X188249880Y-207215238D01*
X189535595Y-206405714D02*
X189535595Y-207405714D01*
X189535595Y-206453333D02*
X189630833Y-206405714D01*
X189821309Y-206405714D01*
X189916547Y-206453333D01*
X189964166Y-206500952D01*
X190011785Y-206596190D01*
X190011785Y-206881904D01*
X189964166Y-206977142D01*
X189916547Y-207024761D01*
X189821309Y-207072380D01*
X189630833Y-207072380D01*
X189535595Y-207024761D01*
X190583214Y-207072380D02*
X190487976Y-207024761D01*
X190440357Y-206929523D01*
X190440357Y-206072380D01*
X191392738Y-207072380D02*
X191392738Y-206548571D01*
X191345119Y-206453333D01*
X191249880Y-206405714D01*
X191059404Y-206405714D01*
X190964166Y-206453333D01*
X191392738Y-207024761D02*
X191297500Y-207072380D01*
X191059404Y-207072380D01*
X190964166Y-207024761D01*
X190916547Y-206929523D01*
X190916547Y-206834285D01*
X190964166Y-206739047D01*
X191059404Y-206691428D01*
X191297500Y-206691428D01*
X191392738Y-206643809D01*
X192297500Y-207024761D02*
X192202261Y-207072380D01*
X192011785Y-207072380D01*
X191916547Y-207024761D01*
X191868928Y-206977142D01*
X191821309Y-206881904D01*
X191821309Y-206596190D01*
X191868928Y-206500952D01*
X191916547Y-206453333D01*
X192011785Y-206405714D01*
X192202261Y-206405714D01*
X192297500Y-206453333D01*
X193107023Y-207024761D02*
X193011785Y-207072380D01*
X192821309Y-207072380D01*
X192726071Y-207024761D01*
X192678452Y-206929523D01*
X192678452Y-206548571D01*
X192726071Y-206453333D01*
X192821309Y-206405714D01*
X193011785Y-206405714D01*
X193107023Y-206453333D01*
X193154642Y-206548571D01*
X193154642Y-206643809D01*
X192678452Y-206739047D01*
X194916547Y-207072380D02*
X194583214Y-206596190D01*
X194345119Y-207072380D02*
X194345119Y-206072380D01*
X194726071Y-206072380D01*
X194821309Y-206120000D01*
X194868928Y-206167619D01*
X194916547Y-206262857D01*
X194916547Y-206405714D01*
X194868928Y-206500952D01*
X194821309Y-206548571D01*
X194726071Y-206596190D01*
X194345119Y-206596190D01*
X195297500Y-206167619D02*
X195345119Y-206120000D01*
X195440357Y-206072380D01*
X195678452Y-206072380D01*
X195773690Y-206120000D01*
X195821309Y-206167619D01*
X195868928Y-206262857D01*
X195868928Y-206358095D01*
X195821309Y-206500952D01*
X195249880Y-207072380D01*
X195868928Y-207072380D01*
X196345119Y-207024761D02*
X196345119Y-207072380D01*
X196297500Y-207167619D01*
X196249880Y-207215238D01*
X197535595Y-206405714D02*
X197535595Y-207405714D01*
X197535595Y-206453333D02*
X197630833Y-206405714D01*
X197821309Y-206405714D01*
X197916547Y-206453333D01*
X197964166Y-206500952D01*
X198011785Y-206596190D01*
X198011785Y-206881904D01*
X197964166Y-206977142D01*
X197916547Y-207024761D01*
X197821309Y-207072380D01*
X197630833Y-207072380D01*
X197535595Y-207024761D01*
X198583214Y-207072380D02*
X198487976Y-207024761D01*
X198440357Y-206929523D01*
X198440357Y-206072380D01*
X199392738Y-207072380D02*
X199392738Y-206548571D01*
X199345119Y-206453333D01*
X199249880Y-206405714D01*
X199059404Y-206405714D01*
X198964166Y-206453333D01*
X199392738Y-207024761D02*
X199297500Y-207072380D01*
X199059404Y-207072380D01*
X198964166Y-207024761D01*
X198916547Y-206929523D01*
X198916547Y-206834285D01*
X198964166Y-206739047D01*
X199059404Y-206691428D01*
X199297500Y-206691428D01*
X199392738Y-206643809D01*
X200297500Y-207024761D02*
X200202261Y-207072380D01*
X200011785Y-207072380D01*
X199916547Y-207024761D01*
X199868928Y-206977142D01*
X199821309Y-206881904D01*
X199821309Y-206596190D01*
X199868928Y-206500952D01*
X199916547Y-206453333D01*
X200011785Y-206405714D01*
X200202261Y-206405714D01*
X200297500Y-206453333D01*
X201107023Y-207024761D02*
X201011785Y-207072380D01*
X200821309Y-207072380D01*
X200726071Y-207024761D01*
X200678452Y-206929523D01*
X200678452Y-206548571D01*
X200726071Y-206453333D01*
X200821309Y-206405714D01*
X201011785Y-206405714D01*
X201107023Y-206453333D01*
X201154642Y-206548571D01*
X201154642Y-206643809D01*
X200678452Y-206739047D01*
X202916547Y-207072380D02*
X202583214Y-206596190D01*
X202345119Y-207072380D02*
X202345119Y-206072380D01*
X202726071Y-206072380D01*
X202821309Y-206120000D01*
X202868928Y-206167619D01*
X202916547Y-206262857D01*
X202916547Y-206405714D01*
X202868928Y-206500952D01*
X202821309Y-206548571D01*
X202726071Y-206596190D01*
X202345119Y-206596190D01*
X203249880Y-206072380D02*
X203868928Y-206072380D01*
X203535595Y-206453333D01*
X203678452Y-206453333D01*
X203773690Y-206500952D01*
X203821309Y-206548571D01*
X203868928Y-206643809D01*
X203868928Y-206881904D01*
X203821309Y-206977142D01*
X203773690Y-207024761D01*
X203678452Y-207072380D01*
X203392738Y-207072380D01*
X203297500Y-207024761D01*
X203249880Y-206977142D01*
X204345119Y-207024761D02*
X204345119Y-207072380D01*
X204297500Y-207167619D01*
X204249880Y-207215238D01*
X205535595Y-207072380D02*
X205535595Y-206072380D01*
X205773690Y-206072380D01*
X205916547Y-206120000D01*
X206011785Y-206215238D01*
X206059404Y-206310476D01*
X206107023Y-206500952D01*
X206107023Y-206643809D01*
X206059404Y-206834285D01*
X206011785Y-206929523D01*
X205916547Y-207024761D01*
X205773690Y-207072380D01*
X205535595Y-207072380D01*
X206535595Y-207072380D02*
X206535595Y-206072380D01*
X207107023Y-207072380D01*
X207107023Y-206072380D01*
X207583214Y-207072380D02*
X207583214Y-206072380D01*
X207964166Y-206072380D01*
X208059404Y-206120000D01*
X208107023Y-206167619D01*
X208154642Y-206262857D01*
X208154642Y-206405714D01*
X208107023Y-206500952D01*
X208059404Y-206548571D01*
X207964166Y-206596190D01*
X207583214Y-206596190D01*
X209916547Y-207072380D02*
X209583214Y-206596190D01*
X209345119Y-207072380D02*
X209345119Y-206072380D01*
X209726071Y-206072380D01*
X209821309Y-206120000D01*
X209868928Y-206167619D01*
X209916547Y-206262857D01*
X209916547Y-206405714D01*
X209868928Y-206500952D01*
X209821309Y-206548571D01*
X209726071Y-206596190D01*
X209345119Y-206596190D01*
X210487976Y-206500952D02*
X210392738Y-206453333D01*
X210345119Y-206405714D01*
X210297500Y-206310476D01*
X210297500Y-206262857D01*
X210345119Y-206167619D01*
X210392738Y-206120000D01*
X210487976Y-206072380D01*
X210678452Y-206072380D01*
X210773690Y-206120000D01*
X210821309Y-206167619D01*
X210868928Y-206262857D01*
X210868928Y-206310476D01*
X210821309Y-206405714D01*
X210773690Y-206453333D01*
X210678452Y-206500952D01*
X210487976Y-206500952D01*
X210392738Y-206548571D01*
X210345119Y-206596190D01*
X210297500Y-206691428D01*
X210297500Y-206881904D01*
X210345119Y-206977142D01*
X210392738Y-207024761D01*
X210487976Y-207072380D01*
X210678452Y-207072380D01*
X210773690Y-207024761D01*
X210821309Y-206977142D01*
X210868928Y-206881904D01*
X210868928Y-206691428D01*
X210821309Y-206596190D01*
X210773690Y-206548571D01*
X210678452Y-206500952D01*
X212059404Y-206691428D02*
X212821309Y-206691428D01*
X214630833Y-207072380D02*
X214297500Y-206596190D01*
X214059404Y-207072380D02*
X214059404Y-206072380D01*
X214440357Y-206072380D01*
X214535595Y-206120000D01*
X214583214Y-206167619D01*
X214630833Y-206262857D01*
X214630833Y-206405714D01*
X214583214Y-206500952D01*
X214535595Y-206548571D01*
X214440357Y-206596190D01*
X214059404Y-206596190D01*
X215583214Y-207072380D02*
X215011785Y-207072380D01*
X215297500Y-207072380D02*
X215297500Y-206072380D01*
X215202261Y-206215238D01*
X215107023Y-206310476D01*
X215011785Y-206358095D01*
X215916547Y-206072380D02*
X216535595Y-206072380D01*
X216202261Y-206453333D01*
X216345119Y-206453333D01*
X216440357Y-206500952D01*
X216487976Y-206548571D01*
X216535595Y-206643809D01*
X216535595Y-206881904D01*
X216487976Y-206977142D01*
X216440357Y-207024761D01*
X216345119Y-207072380D01*
X216059404Y-207072380D01*
X215964166Y-207024761D01*
X215916547Y-206977142D01*
X216964166Y-206977142D02*
X217011785Y-207024761D01*
X216964166Y-207072380D01*
X216916547Y-207024761D01*
X216964166Y-206977142D01*
X216964166Y-207072380D01*
D11*
X234416666Y-195601666D02*
X234416666Y-195268333D01*
X234616666Y-195668333D02*
X233916666Y-195435000D01*
X234616666Y-195201666D01*
X234616666Y-194601666D02*
X234616666Y-195001666D01*
X234616666Y-194801666D02*
X233916666Y-194801666D01*
X234016666Y-194868333D01*
X234083333Y-194935000D01*
X234116666Y-195001666D01*
X234150000Y-194001666D02*
X234616666Y-194001666D01*
X233883333Y-194168333D02*
X234383333Y-194335000D01*
X234383333Y-193901666D01*
D12*
X202915714Y-83076857D02*
X202915714Y-81876857D01*
X203601428Y-83076857D01*
X203601428Y-81876857D01*
X204172857Y-83076857D02*
X204172857Y-81876857D01*
X204687142Y-83019714D02*
X204858571Y-83076857D01*
X205144285Y-83076857D01*
X205258571Y-83019714D01*
X205315714Y-82962571D01*
X205372857Y-82848285D01*
X205372857Y-82734000D01*
X205315714Y-82619714D01*
X205258571Y-82562571D01*
X205144285Y-82505428D01*
X204915714Y-82448285D01*
X204801428Y-82391142D01*
X204744285Y-82334000D01*
X204687142Y-82219714D01*
X204687142Y-82105428D01*
X204744285Y-81991142D01*
X204801428Y-81934000D01*
X204915714Y-81876857D01*
X205201428Y-81876857D01*
X205372857Y-81934000D01*
X206058571Y-83076857D02*
X205944285Y-83019714D01*
X205887142Y-82962571D01*
X205830000Y-82848285D01*
X205830000Y-82505428D01*
X205887142Y-82391142D01*
X205944285Y-82334000D01*
X206058571Y-82276857D01*
X206230000Y-82276857D01*
X206344285Y-82334000D01*
X206401428Y-82391142D01*
X206458571Y-82505428D01*
X206458571Y-82848285D01*
X206401428Y-82962571D01*
X206344285Y-83019714D01*
X206230000Y-83076857D01*
X206058571Y-83076857D01*
X207658571Y-82962571D02*
X207601428Y-83019714D01*
X207430000Y-83076857D01*
X207315714Y-83076857D01*
X207144285Y-83019714D01*
X207030000Y-82905428D01*
X206972857Y-82791142D01*
X206915714Y-82562571D01*
X206915714Y-82391142D01*
X206972857Y-82162571D01*
X207030000Y-82048285D01*
X207144285Y-81934000D01*
X207315714Y-81876857D01*
X207430000Y-81876857D01*
X207601428Y-81934000D01*
X207658571Y-81991142D01*
X209030000Y-83019714D02*
X209144285Y-83076857D01*
X209372857Y-83076857D01*
X209487142Y-83019714D01*
X209544285Y-82905428D01*
X209544285Y-82848285D01*
X209487142Y-82734000D01*
X209372857Y-82676857D01*
X209201428Y-82676857D01*
X209087142Y-82619714D01*
X209030000Y-82505428D01*
X209030000Y-82448285D01*
X209087142Y-82334000D01*
X209201428Y-82276857D01*
X209372857Y-82276857D01*
X209487142Y-82334000D01*
X210230000Y-83076857D02*
X210115714Y-83019714D01*
X210058571Y-82962571D01*
X210001428Y-82848285D01*
X210001428Y-82505428D01*
X210058571Y-82391142D01*
X210115714Y-82334000D01*
X210230000Y-82276857D01*
X210401428Y-82276857D01*
X210515714Y-82334000D01*
X210572857Y-82391142D01*
X210630000Y-82505428D01*
X210630000Y-82848285D01*
X210572857Y-82962571D01*
X210515714Y-83019714D01*
X210401428Y-83076857D01*
X210230000Y-83076857D01*
X211658571Y-83019714D02*
X211544285Y-83076857D01*
X211315714Y-83076857D01*
X211201428Y-83019714D01*
X211144285Y-82962571D01*
X211087142Y-82848285D01*
X211087142Y-82505428D01*
X211144285Y-82391142D01*
X211201428Y-82334000D01*
X211315714Y-82276857D01*
X211544285Y-82276857D01*
X211658571Y-82334000D01*
X212172857Y-83076857D02*
X212172857Y-81876857D01*
X212287142Y-82619714D02*
X212630000Y-83076857D01*
X212630000Y-82276857D02*
X212172857Y-82734000D01*
X213601428Y-83019714D02*
X213487142Y-83076857D01*
X213258571Y-83076857D01*
X213144285Y-83019714D01*
X213087142Y-82905428D01*
X213087142Y-82448285D01*
X213144285Y-82334000D01*
X213258571Y-82276857D01*
X213487142Y-82276857D01*
X213601428Y-82334000D01*
X213658571Y-82448285D01*
X213658571Y-82562571D01*
X213087142Y-82676857D01*
X214001428Y-82276857D02*
X214458571Y-82276857D01*
X214172857Y-81876857D02*
X214172857Y-82905428D01*
X214230000Y-83019714D01*
X214344285Y-83076857D01*
X214458571Y-83076857D01*
X216287142Y-83019714D02*
X216172857Y-83076857D01*
X215944285Y-83076857D01*
X215830000Y-83019714D01*
X215772857Y-82962571D01*
X215715714Y-82848285D01*
X215715714Y-82505428D01*
X215772857Y-82391142D01*
X215830000Y-82334000D01*
X215944285Y-82276857D01*
X216172857Y-82276857D01*
X216287142Y-82334000D01*
X217315714Y-83076857D02*
X217315714Y-82448285D01*
X217258571Y-82334000D01*
X217144285Y-82276857D01*
X216915714Y-82276857D01*
X216801428Y-82334000D01*
X217315714Y-83019714D02*
X217201428Y-83076857D01*
X216915714Y-83076857D01*
X216801428Y-83019714D01*
X216744285Y-82905428D01*
X216744285Y-82791142D01*
X216801428Y-82676857D01*
X216915714Y-82619714D01*
X217201428Y-82619714D01*
X217315714Y-82562571D01*
X217887142Y-83076857D02*
X217887142Y-82276857D01*
X217887142Y-82505428D02*
X217944285Y-82391142D01*
X218001428Y-82334000D01*
X218115714Y-82276857D01*
X218230000Y-82276857D01*
X218630000Y-83076857D02*
X218630000Y-82276857D01*
X218630000Y-82505428D02*
X218687142Y-82391142D01*
X218744285Y-82334000D01*
X218858571Y-82276857D01*
X218972857Y-82276857D01*
X219372857Y-83076857D02*
X219372857Y-82276857D01*
X219372857Y-81876857D02*
X219315714Y-81934000D01*
X219372857Y-81991142D01*
X219430000Y-81934000D01*
X219372857Y-81876857D01*
X219372857Y-81991142D01*
X220401428Y-83019714D02*
X220287142Y-83076857D01*
X220058571Y-83076857D01*
X219944285Y-83019714D01*
X219887142Y-82905428D01*
X219887142Y-82448285D01*
X219944285Y-82334000D01*
X220058571Y-82276857D01*
X220287142Y-82276857D01*
X220401428Y-82334000D01*
X220458571Y-82448285D01*
X220458571Y-82562571D01*
X219887142Y-82676857D01*
X220972857Y-83076857D02*
X220972857Y-82276857D01*
X220972857Y-82505428D02*
X221030000Y-82391142D01*
X221087142Y-82334000D01*
X221201428Y-82276857D01*
X221315714Y-82276857D01*
X203544285Y-85008857D02*
X202858571Y-85008857D01*
X203201428Y-85008857D02*
X203201428Y-83808857D01*
X203087142Y-83980285D01*
X202972857Y-84094571D01*
X202858571Y-84151714D01*
X204858571Y-85008857D02*
X205487142Y-84208857D01*
X204858571Y-84208857D02*
X205487142Y-85008857D01*
X206687142Y-83808857D02*
X207372857Y-83808857D01*
X207030000Y-85008857D02*
X207030000Y-83808857D01*
X207715714Y-84951714D02*
X207887142Y-85008857D01*
X208172857Y-85008857D01*
X208287142Y-84951714D01*
X208344285Y-84894571D01*
X208401428Y-84780285D01*
X208401428Y-84666000D01*
X208344285Y-84551714D01*
X208287142Y-84494571D01*
X208172857Y-84437428D01*
X207944285Y-84380285D01*
X207830000Y-84323142D01*
X207772857Y-84266000D01*
X207715714Y-84151714D01*
X207715714Y-84037428D01*
X207772857Y-83923142D01*
X207830000Y-83866000D01*
X207944285Y-83808857D01*
X208230000Y-83808857D01*
X208401428Y-83866000D01*
X209144285Y-83808857D02*
X209372857Y-83808857D01*
X209487142Y-83866000D01*
X209601428Y-83980285D01*
X209658571Y-84208857D01*
X209658571Y-84608857D01*
X209601428Y-84837428D01*
X209487142Y-84951714D01*
X209372857Y-85008857D01*
X209144285Y-85008857D01*
X209030000Y-84951714D01*
X208915714Y-84837428D01*
X208858571Y-84608857D01*
X208858571Y-84208857D01*
X208915714Y-83980285D01*
X209030000Y-83866000D01*
X209144285Y-83808857D01*
X210172857Y-85008857D02*
X210172857Y-83808857D01*
X210630000Y-83808857D01*
X210744285Y-83866000D01*
X210801428Y-83923142D01*
X210858571Y-84037428D01*
X210858571Y-84208857D01*
X210801428Y-84323142D01*
X210744285Y-84380285D01*
X210630000Y-84437428D01*
X210172857Y-84437428D01*
X211372857Y-84551714D02*
X212287142Y-84551714D01*
X213430000Y-83808857D02*
X212858571Y-83808857D01*
X212801428Y-84380285D01*
X212858571Y-84323142D01*
X212972857Y-84266000D01*
X213258571Y-84266000D01*
X213372857Y-84323142D01*
X213430000Y-84380285D01*
X213487142Y-84494571D01*
X213487142Y-84780285D01*
X213430000Y-84894571D01*
X213372857Y-84951714D01*
X213258571Y-85008857D01*
X212972857Y-85008857D01*
X212858571Y-84951714D01*
X212801428Y-84894571D01*
X214515714Y-83808857D02*
X214287142Y-83808857D01*
X214172857Y-83866000D01*
X214115714Y-83923142D01*
X214001428Y-84094571D01*
X213944285Y-84323142D01*
X213944285Y-84780285D01*
X214001428Y-84894571D01*
X214058571Y-84951714D01*
X214172857Y-85008857D01*
X214401428Y-85008857D01*
X214515714Y-84951714D01*
X214572857Y-84894571D01*
X214630000Y-84780285D01*
X214630000Y-84494571D01*
X214572857Y-84380285D01*
X214515714Y-84323142D01*
X214401428Y-84266000D01*
X214172857Y-84266000D01*
X214058571Y-84323142D01*
X214001428Y-84380285D01*
X213944285Y-84494571D01*
D10*
X224940476Y-110452380D02*
X225607142Y-111452380D01*
X225607142Y-110452380D02*
X224940476Y-111452380D01*
X226511904Y-111452380D02*
X225940476Y-111452380D01*
X226226190Y-111452380D02*
X226226190Y-110452380D01*
X226130952Y-110595238D01*
X226035714Y-110690476D01*
X225940476Y-110738095D01*
X227273809Y-110928571D02*
X227416666Y-110976190D01*
X227464285Y-111023809D01*
X227511904Y-111119047D01*
X227511904Y-111261904D01*
X227464285Y-111357142D01*
X227416666Y-111404761D01*
X227321428Y-111452380D01*
X226940476Y-111452380D01*
X226940476Y-110452380D01*
X227273809Y-110452380D01*
X227369047Y-110500000D01*
X227416666Y-110547619D01*
X227464285Y-110642857D01*
X227464285Y-110738095D01*
X227416666Y-110833333D01*
X227369047Y-110880952D01*
X227273809Y-110928571D01*
X226940476Y-110928571D01*
D11*
X178831666Y-176753166D02*
X178831666Y-176053166D01*
X179098333Y-176053166D01*
X179165000Y-176086500D01*
X179198333Y-176119833D01*
X179231666Y-176186500D01*
X179231666Y-176286500D01*
X179198333Y-176353166D01*
X179165000Y-176386500D01*
X179098333Y-176419833D01*
X178831666Y-176419833D01*
X179631666Y-176753166D02*
X179565000Y-176719833D01*
X179531666Y-176653166D01*
X179531666Y-176053166D01*
X180198333Y-176753166D02*
X180198333Y-176386500D01*
X180165000Y-176319833D01*
X180098333Y-176286500D01*
X179965000Y-176286500D01*
X179898333Y-176319833D01*
X180198333Y-176719833D02*
X180131666Y-176753166D01*
X179965000Y-176753166D01*
X179898333Y-176719833D01*
X179865000Y-176653166D01*
X179865000Y-176586500D01*
X179898333Y-176519833D01*
X179965000Y-176486500D01*
X180131666Y-176486500D01*
X180198333Y-176453166D01*
X180831666Y-176719833D02*
X180765000Y-176753166D01*
X180631666Y-176753166D01*
X180565000Y-176719833D01*
X180531666Y-176686500D01*
X180498333Y-176619833D01*
X180498333Y-176419833D01*
X180531666Y-176353166D01*
X180565000Y-176319833D01*
X180631666Y-176286500D01*
X180765000Y-176286500D01*
X180831666Y-176319833D01*
X181398333Y-176719833D02*
X181331666Y-176753166D01*
X181198333Y-176753166D01*
X181131666Y-176719833D01*
X181098333Y-176653166D01*
X181098333Y-176386500D01*
X181131666Y-176319833D01*
X181198333Y-176286500D01*
X181331666Y-176286500D01*
X181398333Y-176319833D01*
X181431666Y-176386500D01*
X181431666Y-176453166D01*
X181098333Y-176519833D01*
X182165000Y-176286500D02*
X182431666Y-176286500D01*
X182265000Y-176753166D02*
X182265000Y-176153166D01*
X182298333Y-176086500D01*
X182365000Y-176053166D01*
X182431666Y-176053166D01*
X182765000Y-176753166D02*
X182698333Y-176719833D01*
X182665000Y-176686500D01*
X182631666Y-176619833D01*
X182631666Y-176419833D01*
X182665000Y-176353166D01*
X182698333Y-176319833D01*
X182765000Y-176286500D01*
X182865000Y-176286500D01*
X182931666Y-176319833D01*
X182965000Y-176353166D01*
X182998333Y-176419833D01*
X182998333Y-176619833D01*
X182965000Y-176686500D01*
X182931666Y-176719833D01*
X182865000Y-176753166D01*
X182765000Y-176753166D01*
X183298333Y-176753166D02*
X183298333Y-176286500D01*
X183298333Y-176419833D02*
X183331666Y-176353166D01*
X183365000Y-176319833D01*
X183431666Y-176286500D01*
X183498333Y-176286500D01*
X184265000Y-176753166D02*
X184265000Y-176053166D01*
X184265000Y-176319833D02*
X184331666Y-176286500D01*
X184465000Y-176286500D01*
X184531666Y-176319833D01*
X184565000Y-176353166D01*
X184598333Y-176419833D01*
X184598333Y-176619833D01*
X184565000Y-176686500D01*
X184531666Y-176719833D01*
X184465000Y-176753166D01*
X184331666Y-176753166D01*
X184265000Y-176719833D01*
X184831666Y-176286500D02*
X184998333Y-176753166D01*
X185165000Y-176286500D02*
X184998333Y-176753166D01*
X184931666Y-176919833D01*
X184898333Y-176953166D01*
X184831666Y-176986500D01*
X185331666Y-176286500D02*
X185598333Y-176286500D01*
X185431666Y-176053166D02*
X185431666Y-176653166D01*
X185465000Y-176719833D01*
X185531666Y-176753166D01*
X185598333Y-176753166D01*
X186098333Y-176719833D02*
X186031666Y-176753166D01*
X185898333Y-176753166D01*
X185831666Y-176719833D01*
X185798333Y-176653166D01*
X185798333Y-176386500D01*
X185831666Y-176319833D01*
X185898333Y-176286500D01*
X186031666Y-176286500D01*
X186098333Y-176319833D01*
X186131666Y-176386500D01*
X186131666Y-176453166D01*
X185798333Y-176519833D01*
X186431666Y-176686500D02*
X186465000Y-176719833D01*
X186431666Y-176753166D01*
X186398333Y-176719833D01*
X186431666Y-176686500D01*
X186431666Y-176753166D01*
X178831666Y-177880166D02*
X178831666Y-177180166D01*
X178998333Y-177180166D01*
X179098333Y-177213500D01*
X179165000Y-177280166D01*
X179198333Y-177346833D01*
X179231666Y-177480166D01*
X179231666Y-177580166D01*
X179198333Y-177713500D01*
X179165000Y-177780166D01*
X179098333Y-177846833D01*
X178998333Y-177880166D01*
X178831666Y-177880166D01*
X179531666Y-177880166D02*
X179531666Y-177180166D01*
X179931666Y-177880166D01*
X179931666Y-177180166D01*
X180265000Y-177880166D02*
X180265000Y-177180166D01*
X180531666Y-177180166D01*
X180598333Y-177213500D01*
X180631666Y-177246833D01*
X180665000Y-177313500D01*
X180665000Y-177413500D01*
X180631666Y-177480166D01*
X180598333Y-177513500D01*
X180531666Y-177546833D01*
X180265000Y-177546833D01*
X181398333Y-177413500D02*
X181665000Y-177413500D01*
X181498333Y-177880166D02*
X181498333Y-177280166D01*
X181531666Y-177213500D01*
X181598333Y-177180166D01*
X181665000Y-177180166D01*
X181998333Y-177880166D02*
X181931666Y-177846833D01*
X181898333Y-177813500D01*
X181865000Y-177746833D01*
X181865000Y-177546833D01*
X181898333Y-177480166D01*
X181931666Y-177446833D01*
X181998333Y-177413500D01*
X182098333Y-177413500D01*
X182165000Y-177446833D01*
X182198333Y-177480166D01*
X182231666Y-177546833D01*
X182231666Y-177746833D01*
X182198333Y-177813500D01*
X182165000Y-177846833D01*
X182098333Y-177880166D01*
X181998333Y-177880166D01*
X182531666Y-177880166D02*
X182531666Y-177413500D01*
X182531666Y-177546833D02*
X182565000Y-177480166D01*
X182598333Y-177446833D01*
X182665000Y-177413500D01*
X182731666Y-177413500D01*
X183431666Y-177413500D02*
X183565000Y-177880166D01*
X183698333Y-177546833D01*
X183831666Y-177880166D01*
X183965000Y-177413500D01*
X184331666Y-177880166D02*
X184265000Y-177846833D01*
X184231666Y-177813500D01*
X184198333Y-177746833D01*
X184198333Y-177546833D01*
X184231666Y-177480166D01*
X184265000Y-177446833D01*
X184331666Y-177413500D01*
X184431666Y-177413500D01*
X184498333Y-177446833D01*
X184531666Y-177480166D01*
X184565000Y-177546833D01*
X184565000Y-177746833D01*
X184531666Y-177813500D01*
X184498333Y-177846833D01*
X184431666Y-177880166D01*
X184331666Y-177880166D01*
X184865000Y-177880166D02*
X184865000Y-177413500D01*
X184865000Y-177546833D02*
X184898333Y-177480166D01*
X184931666Y-177446833D01*
X184998333Y-177413500D01*
X185065000Y-177413500D01*
X185598333Y-177880166D02*
X185598333Y-177180166D01*
X185598333Y-177846833D02*
X185531666Y-177880166D01*
X185398333Y-177880166D01*
X185331666Y-177846833D01*
X185298333Y-177813500D01*
X185265000Y-177746833D01*
X185265000Y-177546833D01*
X185298333Y-177480166D01*
X185331666Y-177446833D01*
X185398333Y-177413500D01*
X185531666Y-177413500D01*
X185598333Y-177446833D01*
X185931666Y-177813500D02*
X185965000Y-177846833D01*
X185931666Y-177880166D01*
X185898333Y-177846833D01*
X185931666Y-177813500D01*
X185931666Y-177880166D01*
X233831666Y-164716666D02*
X233831666Y-164016666D01*
X233998333Y-164016666D01*
X234098333Y-164050000D01*
X234165000Y-164116666D01*
X234198333Y-164183333D01*
X234231666Y-164316666D01*
X234231666Y-164416666D01*
X234198333Y-164550000D01*
X234165000Y-164616666D01*
X234098333Y-164683333D01*
X233998333Y-164716666D01*
X233831666Y-164716666D01*
X234831666Y-164250000D02*
X234831666Y-164716666D01*
X234665000Y-163983333D02*
X234498333Y-164483333D01*
X234931666Y-164483333D01*
X165735000Y-179916666D02*
X165735000Y-179216666D01*
X165901666Y-179216666D01*
X166001666Y-179250000D01*
X166068333Y-179316666D01*
X166101666Y-179383333D01*
X166135000Y-179516666D01*
X166135000Y-179616666D01*
X166101666Y-179750000D01*
X166068333Y-179816666D01*
X166001666Y-179883333D01*
X165901666Y-179916666D01*
X165735000Y-179916666D01*
X166368333Y-179216666D02*
X166801666Y-179216666D01*
X166568333Y-179483333D01*
X166668333Y-179483333D01*
X166735000Y-179516666D01*
X166768333Y-179550000D01*
X166801666Y-179616666D01*
X166801666Y-179783333D01*
X166768333Y-179850000D01*
X166735000Y-179883333D01*
X166668333Y-179916666D01*
X166468333Y-179916666D01*
X166401666Y-179883333D01*
X166368333Y-179850000D01*
D10*
X200000000Y-180140595D02*
X199952380Y-180235833D01*
X199952380Y-180378690D01*
X200000000Y-180521547D01*
X200095238Y-180616785D01*
X200190476Y-180664404D01*
X200380952Y-180712023D01*
X200523809Y-180712023D01*
X200714285Y-180664404D01*
X200809523Y-180616785D01*
X200904761Y-180521547D01*
X200952380Y-180378690D01*
X200952380Y-180283452D01*
X200904761Y-180140595D01*
X200857142Y-180092976D01*
X200523809Y-180092976D01*
X200523809Y-180283452D01*
X200952380Y-179664404D02*
X199952380Y-179664404D01*
X200952380Y-179092976D01*
X199952380Y-179092976D01*
X200952380Y-178616785D02*
X199952380Y-178616785D01*
X199952380Y-178378690D01*
X200000000Y-178235833D01*
X200095238Y-178140595D01*
X200190476Y-178092976D01*
X200380952Y-178045357D01*
X200523809Y-178045357D01*
X200714285Y-178092976D01*
X200809523Y-178140595D01*
X200904761Y-178235833D01*
X200952380Y-178378690D01*
X200952380Y-178616785D01*
D11*
X233898333Y-172116666D02*
X234231666Y-172116666D01*
X233831666Y-172316666D02*
X234065000Y-171616666D01*
X234298333Y-172316666D01*
X234465000Y-171616666D02*
X234931666Y-171616666D01*
X234631666Y-172316666D01*
X166650000Y-112100000D02*
X166683333Y-112133333D01*
X166716666Y-112233333D01*
X166716666Y-112300000D01*
X166683333Y-112400000D01*
X166616666Y-112466666D01*
X166550000Y-112500000D01*
X166416666Y-112533333D01*
X166316666Y-112533333D01*
X166183333Y-112500000D01*
X166116666Y-112466666D01*
X166050000Y-112400000D01*
X166016666Y-112300000D01*
X166016666Y-112233333D01*
X166050000Y-112133333D01*
X166083333Y-112100000D01*
X166350000Y-111800000D02*
X166350000Y-111566666D01*
X166716666Y-111466666D02*
X166716666Y-111800000D01*
X166016666Y-111800000D01*
X166016666Y-111466666D01*
X166783333Y-111333333D02*
X166783333Y-110800000D01*
X166683333Y-110666666D02*
X166716666Y-110566666D01*
X166716666Y-110400000D01*
X166683333Y-110333333D01*
X166650000Y-110300000D01*
X166583333Y-110266666D01*
X166516666Y-110266666D01*
X166450000Y-110300000D01*
X166416666Y-110333333D01*
X166383333Y-110400000D01*
X166350000Y-110533333D01*
X166316666Y-110600000D01*
X166283333Y-110633333D01*
X166216666Y-110666666D01*
X166150000Y-110666666D01*
X166083333Y-110633333D01*
X166050000Y-110600000D01*
X166016666Y-110533333D01*
X166016666Y-110366666D01*
X166050000Y-110266666D01*
X166016666Y-110033333D02*
X166716666Y-109866666D01*
X166216666Y-109733333D01*
X166716666Y-109600000D01*
X166016666Y-109433333D01*
X166716666Y-198431666D02*
X166016666Y-198431666D01*
X166016666Y-198265000D01*
X166050000Y-198165000D01*
X166116666Y-198098333D01*
X166183333Y-198065000D01*
X166316666Y-198031666D01*
X166416666Y-198031666D01*
X166550000Y-198065000D01*
X166616666Y-198098333D01*
X166683333Y-198165000D01*
X166716666Y-198265000D01*
X166716666Y-198431666D01*
X166716666Y-197365000D02*
X166716666Y-197765000D01*
X166716666Y-197565000D02*
X166016666Y-197565000D01*
X166116666Y-197631666D01*
X166183333Y-197698333D01*
X166216666Y-197765000D01*
X166250000Y-196765000D02*
X166716666Y-196765000D01*
X165983333Y-196931666D02*
X166483333Y-197098333D01*
X166483333Y-196665000D01*
X233831666Y-174816666D02*
X233831666Y-174116666D01*
X233998333Y-174116666D01*
X234098333Y-174150000D01*
X234165000Y-174216666D01*
X234198333Y-174283333D01*
X234231666Y-174416666D01*
X234231666Y-174516666D01*
X234198333Y-174650000D01*
X234165000Y-174716666D01*
X234098333Y-174783333D01*
X233998333Y-174816666D01*
X233831666Y-174816666D01*
X234831666Y-174116666D02*
X234698333Y-174116666D01*
X234631666Y-174150000D01*
X234598333Y-174183333D01*
X234531666Y-174283333D01*
X234498333Y-174416666D01*
X234498333Y-174683333D01*
X234531666Y-174750000D01*
X234565000Y-174783333D01*
X234631666Y-174816666D01*
X234765000Y-174816666D01*
X234831666Y-174783333D01*
X234865000Y-174750000D01*
X234898333Y-174683333D01*
X234898333Y-174516666D01*
X234865000Y-174450000D01*
X234831666Y-174416666D01*
X234765000Y-174383333D01*
X234631666Y-174383333D01*
X234565000Y-174416666D01*
X234531666Y-174450000D01*
X234498333Y-174516666D01*
X234816666Y-112368333D02*
X234483333Y-112601666D01*
X234816666Y-112768333D02*
X234116666Y-112768333D01*
X234116666Y-112501666D01*
X234150000Y-112435000D01*
X234183333Y-112401666D01*
X234250000Y-112368333D01*
X234350000Y-112368333D01*
X234416666Y-112401666D01*
X234450000Y-112435000D01*
X234483333Y-112501666D01*
X234483333Y-112768333D01*
X234483333Y-111935000D02*
X234816666Y-111935000D01*
X234116666Y-112168333D02*
X234483333Y-111935000D01*
X234116666Y-111701666D01*
X234083333Y-110968333D02*
X234983333Y-111568333D01*
X233919000Y-110901666D02*
X233919000Y-110201666D01*
X234450000Y-110501666D02*
X234483333Y-110401666D01*
X234516666Y-110368333D01*
X234583333Y-110335000D01*
X234683333Y-110335000D01*
X234750000Y-110368333D01*
X234783333Y-110401666D01*
X234816666Y-110468333D01*
X234816666Y-110735000D01*
X234116666Y-110735000D01*
X234116666Y-110501666D01*
X234150000Y-110435000D01*
X234183333Y-110401666D01*
X234250000Y-110368333D01*
X234316666Y-110368333D01*
X234383333Y-110401666D01*
X234416666Y-110435000D01*
X234450000Y-110501666D01*
X234450000Y-110735000D01*
X233919000Y-110201666D02*
X233919000Y-109601666D01*
X234483333Y-109901666D02*
X234816666Y-109901666D01*
X234116666Y-110135000D02*
X234483333Y-109901666D01*
X234116666Y-109668333D01*
D10*
X216011904Y-103416666D02*
X216488095Y-103416666D01*
X215916666Y-103702380D02*
X216250000Y-102702380D01*
X216583333Y-103702380D01*
X216916666Y-103702380D02*
X216916666Y-102702380D01*
X217488095Y-103702380D01*
X217488095Y-102702380D01*
X217916666Y-103416666D02*
X218392857Y-103416666D01*
X217821428Y-103702380D02*
X218154761Y-102702380D01*
X218488095Y-103702380D01*
X218583333Y-103797619D02*
X219345238Y-103797619D01*
X219440476Y-102702380D02*
X219773809Y-103702380D01*
X220107142Y-102702380D01*
X220345238Y-102702380D02*
X220583333Y-103702380D01*
X220773809Y-102988095D01*
X220964285Y-103702380D01*
X221202380Y-102702380D01*
X222059523Y-103702380D02*
X221583333Y-103702380D01*
X221583333Y-102702380D01*
X222154761Y-103797619D02*
X222916666Y-103797619D01*
X223107142Y-103654761D02*
X223250000Y-103702380D01*
X223488095Y-103702380D01*
X223583333Y-103654761D01*
X223630952Y-103607142D01*
X223678571Y-103511904D01*
X223678571Y-103416666D01*
X223630952Y-103321428D01*
X223583333Y-103273809D01*
X223488095Y-103226190D01*
X223297619Y-103178571D01*
X223202380Y-103130952D01*
X223154761Y-103083333D01*
X223107142Y-102988095D01*
X223107142Y-102892857D01*
X223154761Y-102797619D01*
X223202380Y-102750000D01*
X223297619Y-102702380D01*
X223535714Y-102702380D01*
X223678571Y-102750000D01*
X224107142Y-103178571D02*
X224440476Y-103178571D01*
X224583333Y-103702380D02*
X224107142Y-103702380D01*
X224107142Y-102702380D01*
X224583333Y-102702380D01*
X225011904Y-103702380D02*
X225011904Y-102702380D01*
X225583333Y-103702380D01*
X225583333Y-102702380D01*
X226011904Y-103654761D02*
X226154761Y-103702380D01*
X226392857Y-103702380D01*
X226488095Y-103654761D01*
X226535714Y-103607142D01*
X226583333Y-103511904D01*
X226583333Y-103416666D01*
X226535714Y-103321428D01*
X226488095Y-103273809D01*
X226392857Y-103226190D01*
X226202380Y-103178571D01*
X226107142Y-103130952D01*
X226059523Y-103083333D01*
X226011904Y-102988095D01*
X226011904Y-102892857D01*
X226059523Y-102797619D01*
X226107142Y-102750000D01*
X226202380Y-102702380D01*
X226440476Y-102702380D01*
X226583333Y-102750000D01*
X227011904Y-103178571D02*
X227345238Y-103178571D01*
X227488095Y-103702380D02*
X227011904Y-103702380D01*
X227011904Y-102702380D01*
X227488095Y-102702380D01*
D11*
X233898333Y-182116666D02*
X234231666Y-182116666D01*
X233831666Y-182316666D02*
X234065000Y-181616666D01*
X234298333Y-182316666D01*
X234498333Y-181683333D02*
X234531666Y-181650000D01*
X234598333Y-181616666D01*
X234765000Y-181616666D01*
X234831666Y-181650000D01*
X234865000Y-181683333D01*
X234898333Y-181750000D01*
X234898333Y-181816666D01*
X234865000Y-181916666D01*
X234465000Y-182316666D01*
X234898333Y-182316666D01*
X172998333Y-187316666D02*
X173331666Y-187316666D01*
X172931666Y-187516666D02*
X173165000Y-186816666D01*
X173398333Y-187516666D01*
X173598333Y-186883333D02*
X173631666Y-186850000D01*
X173698333Y-186816666D01*
X173865000Y-186816666D01*
X173931666Y-186850000D01*
X173965000Y-186883333D01*
X173998333Y-186950000D01*
X173998333Y-187016666D01*
X173965000Y-187116666D01*
X173565000Y-187516666D01*
X173998333Y-187516666D01*
X174665000Y-187516666D02*
X174265000Y-187516666D01*
X174465000Y-187516666D02*
X174465000Y-186816666D01*
X174398333Y-186916666D01*
X174331666Y-186983333D01*
X174265000Y-187016666D01*
D10*
X221523809Y-106166666D02*
X222000000Y-106166666D01*
X221428571Y-106452380D02*
X221761904Y-105452380D01*
X222095238Y-106452380D01*
X222428571Y-106452380D02*
X222428571Y-105452380D01*
X223000000Y-106452380D01*
X223000000Y-105452380D01*
X223428571Y-106166666D02*
X223904761Y-106166666D01*
X223333333Y-106452380D02*
X223666666Y-105452380D01*
X224000000Y-106452380D01*
X224095238Y-106547619D02*
X224857142Y-106547619D01*
X224952380Y-105452380D02*
X225285714Y-106452380D01*
X225619047Y-105452380D01*
X225857142Y-105452380D02*
X226095238Y-106452380D01*
X226285714Y-105738095D01*
X226476190Y-106452380D01*
X226714285Y-105452380D01*
X227571428Y-106452380D02*
X227095238Y-106452380D01*
X227095238Y-105452380D01*
X173261904Y-110202380D02*
X173928571Y-111202380D01*
X173928571Y-110202380D02*
X173261904Y-111202380D01*
X174833333Y-111202380D02*
X174261904Y-111202380D01*
X174547619Y-111202380D02*
X174547619Y-110202380D01*
X174452380Y-110345238D01*
X174357142Y-110440476D01*
X174261904Y-110488095D01*
X175214285Y-110916666D02*
X175690476Y-110916666D01*
X175119047Y-111202380D02*
X175452380Y-110202380D01*
X175785714Y-111202380D01*
D11*
X226635000Y-172316666D02*
X226635000Y-171616666D01*
X226801666Y-171616666D01*
X226901666Y-171650000D01*
X226968333Y-171716666D01*
X227001666Y-171783333D01*
X227035000Y-171916666D01*
X227035000Y-172016666D01*
X227001666Y-172150000D01*
X226968333Y-172216666D01*
X226901666Y-172283333D01*
X226801666Y-172316666D01*
X226635000Y-172316666D01*
X227368333Y-172316666D02*
X227501666Y-172316666D01*
X227568333Y-172283333D01*
X227601666Y-172250000D01*
X227668333Y-172150000D01*
X227701666Y-172016666D01*
X227701666Y-171750000D01*
X227668333Y-171683333D01*
X227635000Y-171650000D01*
X227568333Y-171616666D01*
X227435000Y-171616666D01*
X227368333Y-171650000D01*
X227335000Y-171683333D01*
X227301666Y-171750000D01*
X227301666Y-171916666D01*
X227335000Y-171983333D01*
X227368333Y-172016666D01*
X227435000Y-172050000D01*
X227568333Y-172050000D01*
X227635000Y-172016666D01*
X227668333Y-171983333D01*
X227701666Y-171916666D01*
X166416666Y-170465000D02*
X166416666Y-170131666D01*
X166616666Y-170531666D02*
X165916666Y-170298333D01*
X166616666Y-170065000D01*
X166616666Y-169465000D02*
X166616666Y-169865000D01*
X166616666Y-169665000D02*
X165916666Y-169665000D01*
X166016666Y-169731666D01*
X166083333Y-169798333D01*
X166116666Y-169865000D01*
X166216666Y-169065000D02*
X166183333Y-169131666D01*
X166150000Y-169165000D01*
X166083333Y-169198333D01*
X166050000Y-169198333D01*
X165983333Y-169165000D01*
X165950000Y-169131666D01*
X165916666Y-169065000D01*
X165916666Y-168931666D01*
X165950000Y-168865000D01*
X165983333Y-168831666D01*
X166050000Y-168798333D01*
X166083333Y-168798333D01*
X166150000Y-168831666D01*
X166183333Y-168865000D01*
X166216666Y-168931666D01*
X166216666Y-169065000D01*
X166250000Y-169131666D01*
X166283333Y-169165000D01*
X166350000Y-169198333D01*
X166483333Y-169198333D01*
X166550000Y-169165000D01*
X166583333Y-169131666D01*
X166616666Y-169065000D01*
X166616666Y-168931666D01*
X166583333Y-168865000D01*
X166550000Y-168831666D01*
X166483333Y-168798333D01*
X166350000Y-168798333D01*
X166283333Y-168831666D01*
X166250000Y-168865000D01*
X166216666Y-168931666D01*
X233831666Y-169816666D02*
X233831666Y-169116666D01*
X233998333Y-169116666D01*
X234098333Y-169150000D01*
X234165000Y-169216666D01*
X234198333Y-169283333D01*
X234231666Y-169416666D01*
X234231666Y-169516666D01*
X234198333Y-169650000D01*
X234165000Y-169716666D01*
X234098333Y-169783333D01*
X233998333Y-169816666D01*
X233831666Y-169816666D01*
X234898333Y-169816666D02*
X234498333Y-169816666D01*
X234698333Y-169816666D02*
X234698333Y-169116666D01*
X234631666Y-169216666D01*
X234565000Y-169283333D01*
X234498333Y-169316666D01*
D10*
X202928571Y-180664404D02*
X202928571Y-180331071D01*
X203452380Y-180188214D02*
X203452380Y-180664404D01*
X202452380Y-180664404D01*
X202452380Y-180188214D01*
X203452380Y-179854880D02*
X202785714Y-179331071D01*
X202785714Y-179854880D02*
X203452380Y-179331071D01*
X202785714Y-179092976D02*
X202785714Y-178712023D01*
X202452380Y-178950119D02*
X203309523Y-178950119D01*
X203404761Y-178902500D01*
X203452380Y-178807261D01*
X203452380Y-178712023D01*
X203357142Y-178378690D02*
X203404761Y-178331071D01*
X203452380Y-178378690D01*
X203404761Y-178426309D01*
X203357142Y-178378690D01*
X203452380Y-178378690D01*
X202452380Y-177283452D02*
X203452380Y-176950119D01*
X202452380Y-176616785D01*
X203452380Y-176283452D02*
X202452380Y-176283452D01*
X202452380Y-175616785D02*
X202452380Y-175426309D01*
X202500000Y-175331071D01*
X202595238Y-175235833D01*
X202785714Y-175188214D01*
X203119047Y-175188214D01*
X203309523Y-175235833D01*
X203404761Y-175331071D01*
X203452380Y-175426309D01*
X203452380Y-175616785D01*
X203404761Y-175712023D01*
X203309523Y-175807261D01*
X203119047Y-175854880D01*
X202785714Y-175854880D01*
X202595238Y-175807261D01*
X202500000Y-175712023D01*
X202452380Y-175616785D01*
X166283019Y-105500000D02*
X166187781Y-105452380D01*
X166044924Y-105452380D01*
X165902067Y-105500000D01*
X165806829Y-105595238D01*
X165759210Y-105690476D01*
X165711591Y-105880952D01*
X165711591Y-106023809D01*
X165759210Y-106214285D01*
X165806829Y-106309523D01*
X165902067Y-106404761D01*
X166044924Y-106452380D01*
X166140162Y-106452380D01*
X166283019Y-106404761D01*
X166330638Y-106357142D01*
X166330638Y-106023809D01*
X166140162Y-106023809D01*
D11*
X226035000Y-164616666D02*
X226368333Y-164616666D01*
X225968333Y-164816666D02*
X226201666Y-164116666D01*
X226435000Y-164816666D01*
X227035000Y-164816666D02*
X226635000Y-164816666D01*
X226835000Y-164816666D02*
X226835000Y-164116666D01*
X226768333Y-164216666D01*
X226701666Y-164283333D01*
X226635000Y-164316666D01*
X227635000Y-164116666D02*
X227501666Y-164116666D01*
X227435000Y-164150000D01*
X227401666Y-164183333D01*
X227335000Y-164283333D01*
X227301666Y-164416666D01*
X227301666Y-164683333D01*
X227335000Y-164750000D01*
X227368333Y-164783333D01*
X227435000Y-164816666D01*
X227568333Y-164816666D01*
X227635000Y-164783333D01*
X227668333Y-164750000D01*
X227701666Y-164683333D01*
X227701666Y-164516666D01*
X227668333Y-164450000D01*
X227635000Y-164416666D01*
X227568333Y-164383333D01*
X227435000Y-164383333D01*
X227368333Y-164416666D01*
X227335000Y-164450000D01*
X227301666Y-164516666D01*
D10*
X166261904Y-100500000D02*
X166166666Y-100452380D01*
X166023809Y-100452380D01*
X165880952Y-100500000D01*
X165785714Y-100595238D01*
X165738095Y-100690476D01*
X165690476Y-100880952D01*
X165690476Y-101023809D01*
X165738095Y-101214285D01*
X165785714Y-101309523D01*
X165880952Y-101404761D01*
X166023809Y-101452380D01*
X166119047Y-101452380D01*
X166261904Y-101404761D01*
X166309523Y-101357142D01*
X166309523Y-101023809D01*
X166119047Y-101023809D01*
D11*
X225935000Y-146716666D02*
X226268333Y-146716666D01*
X225868333Y-146916666D02*
X226101666Y-146216666D01*
X226335000Y-146916666D01*
X226535000Y-146283333D02*
X226568333Y-146250000D01*
X226635000Y-146216666D01*
X226801666Y-146216666D01*
X226868333Y-146250000D01*
X226901666Y-146283333D01*
X226935000Y-146350000D01*
X226935000Y-146416666D01*
X226901666Y-146516666D01*
X226501666Y-146916666D01*
X226935000Y-146916666D01*
X227168333Y-146216666D02*
X227601666Y-146216666D01*
X227368333Y-146483333D01*
X227468333Y-146483333D01*
X227535000Y-146516666D01*
X227568333Y-146550000D01*
X227601666Y-146616666D01*
X227601666Y-146783333D01*
X227568333Y-146850000D01*
X227535000Y-146883333D01*
X227468333Y-146916666D01*
X227268333Y-146916666D01*
X227201666Y-146883333D01*
X227168333Y-146850000D01*
X172998333Y-174616666D02*
X173331666Y-174616666D01*
X172931666Y-174816666D02*
X173165000Y-174116666D01*
X173398333Y-174816666D01*
X173998333Y-174816666D02*
X173598333Y-174816666D01*
X173798333Y-174816666D02*
X173798333Y-174116666D01*
X173731666Y-174216666D01*
X173665000Y-174283333D01*
X173598333Y-174316666D01*
X165801666Y-184716666D02*
X166135000Y-184716666D01*
X165735000Y-184916666D02*
X165968333Y-184216666D01*
X166201666Y-184916666D01*
X166468333Y-184916666D02*
X166601666Y-184916666D01*
X166668333Y-184883333D01*
X166701666Y-184850000D01*
X166768333Y-184750000D01*
X166801666Y-184616666D01*
X166801666Y-184350000D01*
X166768333Y-184283333D01*
X166735000Y-184250000D01*
X166668333Y-184216666D01*
X166535000Y-184216666D01*
X166468333Y-184250000D01*
X166435000Y-184283333D01*
X166401666Y-184350000D01*
X166401666Y-184516666D01*
X166435000Y-184583333D01*
X166468333Y-184616666D01*
X166535000Y-184650000D01*
X166668333Y-184650000D01*
X166735000Y-184616666D01*
X166768333Y-184583333D01*
X166801666Y-184516666D01*
X226035000Y-167116666D02*
X226368333Y-167116666D01*
X225968333Y-167316666D02*
X226201666Y-166616666D01*
X226435000Y-167316666D01*
X227035000Y-167316666D02*
X226635000Y-167316666D01*
X226835000Y-167316666D02*
X226835000Y-166616666D01*
X226768333Y-166716666D01*
X226701666Y-166783333D01*
X226635000Y-166816666D01*
X227668333Y-166616666D02*
X227335000Y-166616666D01*
X227301666Y-166950000D01*
X227335000Y-166916666D01*
X227401666Y-166883333D01*
X227568333Y-166883333D01*
X227635000Y-166916666D01*
X227668333Y-166950000D01*
X227701666Y-167016666D01*
X227701666Y-167183333D01*
X227668333Y-167250000D01*
X227635000Y-167283333D01*
X227568333Y-167316666D01*
X227401666Y-167316666D01*
X227335000Y-167283333D01*
X227301666Y-167250000D01*
D10*
X212452380Y-180807261D02*
X213452380Y-180473928D01*
X212452380Y-180140595D01*
X213357142Y-179235833D02*
X213404761Y-179283452D01*
X213452380Y-179426309D01*
X213452380Y-179521547D01*
X213404761Y-179664404D01*
X213309523Y-179759642D01*
X213214285Y-179807261D01*
X213023809Y-179854880D01*
X212880952Y-179854880D01*
X212690476Y-179807261D01*
X212595238Y-179759642D01*
X212500000Y-179664404D01*
X212452380Y-179521547D01*
X212452380Y-179426309D01*
X212500000Y-179283452D01*
X212547619Y-179235833D01*
X213357142Y-178235833D02*
X213404761Y-178283452D01*
X213452380Y-178426309D01*
X213452380Y-178521547D01*
X213404761Y-178664404D01*
X213309523Y-178759642D01*
X213214285Y-178807261D01*
X213023809Y-178854880D01*
X212880952Y-178854880D01*
X212690476Y-178807261D01*
X212595238Y-178759642D01*
X212500000Y-178664404D01*
X212452380Y-178521547D01*
X212452380Y-178426309D01*
X212500000Y-178283452D01*
X212547619Y-178235833D01*
D11*
X233831666Y-167316666D02*
X233831666Y-166616666D01*
X233998333Y-166616666D01*
X234098333Y-166650000D01*
X234165000Y-166716666D01*
X234198333Y-166783333D01*
X234231666Y-166916666D01*
X234231666Y-167016666D01*
X234198333Y-167150000D01*
X234165000Y-167216666D01*
X234098333Y-167283333D01*
X233998333Y-167316666D01*
X233831666Y-167316666D01*
X234665000Y-166616666D02*
X234731666Y-166616666D01*
X234798333Y-166650000D01*
X234831666Y-166683333D01*
X234865000Y-166750000D01*
X234898333Y-166883333D01*
X234898333Y-167050000D01*
X234865000Y-167183333D01*
X234831666Y-167250000D01*
X234798333Y-167283333D01*
X234731666Y-167316666D01*
X234665000Y-167316666D01*
X234598333Y-167283333D01*
X234565000Y-167250000D01*
X234531666Y-167183333D01*
X234498333Y-167050000D01*
X234498333Y-166883333D01*
X234531666Y-166750000D01*
X234565000Y-166683333D01*
X234598333Y-166650000D01*
X234665000Y-166616666D01*
X225968333Y-134316666D02*
X225968333Y-133616666D01*
X226368333Y-134316666D01*
X226368333Y-133616666D01*
X226701666Y-133950000D02*
X226935000Y-133950000D01*
X227035000Y-134316666D02*
X226701666Y-134316666D01*
X226701666Y-133616666D01*
X227035000Y-133616666D01*
X227701666Y-134316666D02*
X227301666Y-134316666D01*
X227501666Y-134316666D02*
X227501666Y-133616666D01*
X227435000Y-133716666D01*
X227368333Y-133783333D01*
X227301666Y-133816666D01*
X166516666Y-177965000D02*
X166516666Y-177631666D01*
X166716666Y-178031666D02*
X166016666Y-177798333D01*
X166716666Y-177565000D01*
X166450000Y-177331666D02*
X166450000Y-176798333D01*
X166716666Y-176098333D02*
X166716666Y-176498333D01*
X166716666Y-176298333D02*
X166016666Y-176298333D01*
X166116666Y-176365000D01*
X166183333Y-176431666D01*
X166216666Y-176498333D01*
X226035000Y-162016666D02*
X226368333Y-162016666D01*
X225968333Y-162216666D02*
X226201666Y-161516666D01*
X226435000Y-162216666D01*
X227035000Y-162216666D02*
X226635000Y-162216666D01*
X226835000Y-162216666D02*
X226835000Y-161516666D01*
X226768333Y-161616666D01*
X226701666Y-161683333D01*
X226635000Y-161716666D01*
X227268333Y-161516666D02*
X227735000Y-161516666D01*
X227435000Y-162216666D01*
X233848333Y-156966666D02*
X234181666Y-156966666D01*
X233781666Y-157166666D02*
X234015000Y-156466666D01*
X234248333Y-157166666D01*
X234415000Y-156466666D02*
X234848333Y-156466666D01*
X234615000Y-156733333D01*
X234715000Y-156733333D01*
X234781666Y-156766666D01*
X234815000Y-156800000D01*
X234848333Y-156866666D01*
X234848333Y-157033333D01*
X234815000Y-157100000D01*
X234781666Y-157133333D01*
X234715000Y-157166666D01*
X234515000Y-157166666D01*
X234448333Y-157133333D01*
X234415000Y-157100000D01*
D10*
X216595238Y-98416666D02*
X217071428Y-98416666D01*
X216500000Y-98702380D02*
X216833333Y-97702380D01*
X217166666Y-98702380D01*
X217500000Y-98702380D02*
X217500000Y-97702380D01*
X218071428Y-98702380D01*
X218071428Y-97702380D01*
X218500000Y-98416666D02*
X218976190Y-98416666D01*
X218404761Y-98702380D02*
X218738095Y-97702380D01*
X219071428Y-98702380D01*
X219166666Y-98797619D02*
X219928571Y-98797619D01*
X220071428Y-97702380D02*
X220309523Y-98702380D01*
X220500000Y-97988095D01*
X220690476Y-98702380D01*
X220928571Y-97702380D01*
X221309523Y-98702380D02*
X221309523Y-97702380D01*
X221690476Y-97702380D01*
X221785714Y-97750000D01*
X221833333Y-97797619D01*
X221880952Y-97892857D01*
X221880952Y-98035714D01*
X221833333Y-98130952D01*
X221785714Y-98178571D01*
X221690476Y-98226190D01*
X221309523Y-98226190D01*
X222071428Y-98797619D02*
X222833333Y-98797619D01*
X223023809Y-98654761D02*
X223166666Y-98702380D01*
X223404761Y-98702380D01*
X223500000Y-98654761D01*
X223547619Y-98607142D01*
X223595238Y-98511904D01*
X223595238Y-98416666D01*
X223547619Y-98321428D01*
X223500000Y-98273809D01*
X223404761Y-98226190D01*
X223214285Y-98178571D01*
X223119047Y-98130952D01*
X223071428Y-98083333D01*
X223023809Y-97988095D01*
X223023809Y-97892857D01*
X223071428Y-97797619D01*
X223119047Y-97750000D01*
X223214285Y-97702380D01*
X223452380Y-97702380D01*
X223595238Y-97750000D01*
X224023809Y-98178571D02*
X224357142Y-98178571D01*
X224500000Y-98702380D02*
X224023809Y-98702380D01*
X224023809Y-97702380D01*
X224500000Y-97702380D01*
X224928571Y-98702380D02*
X224928571Y-97702380D01*
X225500000Y-98702380D01*
X225500000Y-97702380D01*
X225928571Y-98654761D02*
X226071428Y-98702380D01*
X226309523Y-98702380D01*
X226404761Y-98654761D01*
X226452380Y-98607142D01*
X226500000Y-98511904D01*
X226500000Y-98416666D01*
X226452380Y-98321428D01*
X226404761Y-98273809D01*
X226309523Y-98226190D01*
X226119047Y-98178571D01*
X226023809Y-98130952D01*
X225976190Y-98083333D01*
X225928571Y-97988095D01*
X225928571Y-97892857D01*
X225976190Y-97797619D01*
X226023809Y-97750000D01*
X226119047Y-97702380D01*
X226357142Y-97702380D01*
X226500000Y-97750000D01*
X226928571Y-98178571D02*
X227261904Y-98178571D01*
X227404761Y-98702380D02*
X226928571Y-98702380D01*
X226928571Y-97702380D01*
X227404761Y-97702380D01*
D11*
X226635000Y-169816666D02*
X226635000Y-169116666D01*
X226801666Y-169116666D01*
X226901666Y-169150000D01*
X226968333Y-169216666D01*
X227001666Y-169283333D01*
X227035000Y-169416666D01*
X227035000Y-169516666D01*
X227001666Y-169650000D01*
X226968333Y-169716666D01*
X226901666Y-169783333D01*
X226801666Y-169816666D01*
X226635000Y-169816666D01*
X227268333Y-169116666D02*
X227735000Y-169116666D01*
X227435000Y-169816666D01*
D10*
X209952380Y-180807261D02*
X210952380Y-180473928D01*
X209952380Y-180140595D01*
X210952380Y-179807261D02*
X209952380Y-179807261D01*
X209952380Y-179140595D02*
X209952380Y-178950119D01*
X210000000Y-178854880D01*
X210095238Y-178759642D01*
X210285714Y-178712023D01*
X210619047Y-178712023D01*
X210809523Y-178759642D01*
X210904761Y-178854880D01*
X210952380Y-178950119D01*
X210952380Y-179140595D01*
X210904761Y-179235833D01*
X210809523Y-179331071D01*
X210619047Y-179378690D01*
X210285714Y-179378690D01*
X210095238Y-179331071D01*
X210000000Y-179235833D01*
X209952380Y-179140595D01*
D11*
X233831666Y-159816666D02*
X233831666Y-159116666D01*
X233998333Y-159116666D01*
X234098333Y-159150000D01*
X234165000Y-159216666D01*
X234198333Y-159283333D01*
X234231666Y-159416666D01*
X234231666Y-159516666D01*
X234198333Y-159650000D01*
X234165000Y-159716666D01*
X234098333Y-159783333D01*
X233998333Y-159816666D01*
X233831666Y-159816666D01*
X234865000Y-159116666D02*
X234531666Y-159116666D01*
X234498333Y-159450000D01*
X234531666Y-159416666D01*
X234598333Y-159383333D01*
X234765000Y-159383333D01*
X234831666Y-159416666D01*
X234865000Y-159450000D01*
X234898333Y-159516666D01*
X234898333Y-159683333D01*
X234865000Y-159750000D01*
X234831666Y-159783333D01*
X234765000Y-159816666D01*
X234598333Y-159816666D01*
X234531666Y-159783333D01*
X234498333Y-159750000D01*
D10*
X222107142Y-100916666D02*
X222583333Y-100916666D01*
X222011904Y-101202380D02*
X222345238Y-100202380D01*
X222678571Y-101202380D01*
X223011904Y-101202380D02*
X223011904Y-100202380D01*
X223583333Y-101202380D01*
X223583333Y-100202380D01*
X224011904Y-100916666D02*
X224488095Y-100916666D01*
X223916666Y-101202380D02*
X224250000Y-100202380D01*
X224583333Y-101202380D01*
X224678571Y-101297619D02*
X225440476Y-101297619D01*
X225583333Y-100202380D02*
X225821428Y-101202380D01*
X226011904Y-100488095D01*
X226202380Y-101202380D01*
X226440476Y-100202380D01*
X226821428Y-101202380D02*
X226821428Y-100202380D01*
X227202380Y-100202380D01*
X227297619Y-100250000D01*
X227345238Y-100297619D01*
X227392857Y-100392857D01*
X227392857Y-100535714D01*
X227345238Y-100630952D01*
X227297619Y-100678571D01*
X227202380Y-100726190D01*
X226821428Y-100726190D01*
X173761904Y-100500000D02*
X173666666Y-100452380D01*
X173523809Y-100452380D01*
X173380952Y-100500000D01*
X173285714Y-100595238D01*
X173238095Y-100690476D01*
X173190476Y-100880952D01*
X173190476Y-101023809D01*
X173238095Y-101214285D01*
X173285714Y-101309523D01*
X173380952Y-101404761D01*
X173523809Y-101452380D01*
X173619047Y-101452380D01*
X173761904Y-101404761D01*
X173809523Y-101357142D01*
X173809523Y-101023809D01*
X173619047Y-101023809D01*
D11*
X166053571Y-99721428D02*
X166053571Y-99150000D01*
X166339285Y-98400000D02*
X166339285Y-98828571D01*
X166339285Y-98614285D02*
X165589285Y-98614285D01*
X165696428Y-98685714D01*
X165767857Y-98757142D01*
X165803571Y-98828571D01*
X165589285Y-97721428D02*
X165589285Y-98078571D01*
X165946428Y-98114285D01*
X165910714Y-98078571D01*
X165875000Y-98007142D01*
X165875000Y-97828571D01*
X165910714Y-97757142D01*
X165946428Y-97721428D01*
X166017857Y-97685714D01*
X166196428Y-97685714D01*
X166267857Y-97721428D01*
X166303571Y-97757142D01*
X166339285Y-97828571D01*
X166339285Y-98007142D01*
X166303571Y-98078571D01*
X166267857Y-98114285D01*
X165589285Y-97471428D02*
X166339285Y-97221428D01*
X165589285Y-96971428D01*
X172998333Y-166916666D02*
X173331666Y-166916666D01*
X172931666Y-167116666D02*
X173165000Y-166416666D01*
X173398333Y-167116666D01*
X173598333Y-166483333D02*
X173631666Y-166450000D01*
X173698333Y-166416666D01*
X173865000Y-166416666D01*
X173931666Y-166450000D01*
X173965000Y-166483333D01*
X173998333Y-166550000D01*
X173998333Y-166616666D01*
X173965000Y-166716666D01*
X173565000Y-167116666D01*
X173998333Y-167116666D01*
X174265000Y-166483333D02*
X174298333Y-166450000D01*
X174365000Y-166416666D01*
X174531666Y-166416666D01*
X174598333Y-166450000D01*
X174631666Y-166483333D01*
X174665000Y-166550000D01*
X174665000Y-166616666D01*
X174631666Y-166716666D01*
X174231666Y-167116666D01*
X174665000Y-167116666D01*
X233848333Y-154416666D02*
X234181666Y-154416666D01*
X233781666Y-154616666D02*
X234015000Y-153916666D01*
X234248333Y-154616666D01*
X234781666Y-154150000D02*
X234781666Y-154616666D01*
X234615000Y-153883333D02*
X234448333Y-154383333D01*
X234881666Y-154383333D01*
X166316666Y-137265000D02*
X166316666Y-136931666D01*
X166516666Y-137331666D02*
X165816666Y-137098333D01*
X166516666Y-136865000D01*
X165883333Y-136665000D02*
X165850000Y-136631666D01*
X165816666Y-136565000D01*
X165816666Y-136398333D01*
X165850000Y-136331666D01*
X165883333Y-136298333D01*
X165950000Y-136265000D01*
X166016666Y-136265000D01*
X166116666Y-136298333D01*
X166516666Y-136698333D01*
X166516666Y-136265000D01*
X165816666Y-135631666D02*
X165816666Y-135965000D01*
X166150000Y-135998333D01*
X166116666Y-135965000D01*
X166083333Y-135898333D01*
X166083333Y-135731666D01*
X166116666Y-135665000D01*
X166150000Y-135631666D01*
X166216666Y-135598333D01*
X166383333Y-135598333D01*
X166450000Y-135631666D01*
X166483333Y-135665000D01*
X166516666Y-135731666D01*
X166516666Y-135898333D01*
X166483333Y-135965000D01*
X166450000Y-135998333D01*
X233898333Y-184716666D02*
X234231666Y-184716666D01*
X233831666Y-184916666D02*
X234065000Y-184216666D01*
X234298333Y-184916666D01*
X234631666Y-184516666D02*
X234565000Y-184483333D01*
X234531666Y-184450000D01*
X234498333Y-184383333D01*
X234498333Y-184350000D01*
X234531666Y-184283333D01*
X234565000Y-184250000D01*
X234631666Y-184216666D01*
X234765000Y-184216666D01*
X234831666Y-184250000D01*
X234865000Y-184283333D01*
X234898333Y-184350000D01*
X234898333Y-184383333D01*
X234865000Y-184450000D01*
X234831666Y-184483333D01*
X234765000Y-184516666D01*
X234631666Y-184516666D01*
X234565000Y-184550000D01*
X234531666Y-184583333D01*
X234498333Y-184650000D01*
X234498333Y-184783333D01*
X234531666Y-184850000D01*
X234565000Y-184883333D01*
X234631666Y-184916666D01*
X234765000Y-184916666D01*
X234831666Y-184883333D01*
X234865000Y-184850000D01*
X234898333Y-184783333D01*
X234898333Y-184650000D01*
X234865000Y-184583333D01*
X234831666Y-184550000D01*
X234765000Y-184516666D01*
X225968333Y-174816666D02*
X225968333Y-174116666D01*
X226135000Y-174116666D01*
X226235000Y-174150000D01*
X226301666Y-174216666D01*
X226335000Y-174283333D01*
X226368333Y-174416666D01*
X226368333Y-174516666D01*
X226335000Y-174650000D01*
X226301666Y-174716666D01*
X226235000Y-174783333D01*
X226135000Y-174816666D01*
X225968333Y-174816666D01*
X227035000Y-174816666D02*
X226635000Y-174816666D01*
X226835000Y-174816666D02*
X226835000Y-174116666D01*
X226768333Y-174216666D01*
X226701666Y-174283333D01*
X226635000Y-174316666D01*
X227701666Y-174816666D02*
X227301666Y-174816666D01*
X227501666Y-174816666D02*
X227501666Y-174116666D01*
X227435000Y-174216666D01*
X227368333Y-174283333D01*
X227301666Y-174316666D01*
X165735000Y-182316666D02*
X165735000Y-181616666D01*
X165901666Y-181616666D01*
X166001666Y-181650000D01*
X166068333Y-181716666D01*
X166101666Y-181783333D01*
X166135000Y-181916666D01*
X166135000Y-182016666D01*
X166101666Y-182150000D01*
X166068333Y-182216666D01*
X166001666Y-182283333D01*
X165901666Y-182316666D01*
X165735000Y-182316666D01*
X166401666Y-181683333D02*
X166435000Y-181650000D01*
X166501666Y-181616666D01*
X166668333Y-181616666D01*
X166735000Y-181650000D01*
X166768333Y-181683333D01*
X166801666Y-181750000D01*
X166801666Y-181816666D01*
X166768333Y-181916666D01*
X166368333Y-182316666D01*
X166801666Y-182316666D01*
X172998333Y-164516666D02*
X173331666Y-164516666D01*
X172931666Y-164716666D02*
X173165000Y-164016666D01*
X173398333Y-164716666D01*
X173998333Y-164716666D02*
X173598333Y-164716666D01*
X173798333Y-164716666D02*
X173798333Y-164016666D01*
X173731666Y-164116666D01*
X173665000Y-164183333D01*
X173598333Y-164216666D01*
X174265000Y-164083333D02*
X174298333Y-164050000D01*
X174365000Y-164016666D01*
X174531666Y-164016666D01*
X174598333Y-164050000D01*
X174631666Y-164083333D01*
X174665000Y-164150000D01*
X174665000Y-164216666D01*
X174631666Y-164316666D01*
X174231666Y-164716666D01*
X174665000Y-164716666D01*
X172998333Y-169516666D02*
X173331666Y-169516666D01*
X172931666Y-169716666D02*
X173165000Y-169016666D01*
X173398333Y-169716666D01*
X173998333Y-169716666D02*
X173598333Y-169716666D01*
X173798333Y-169716666D02*
X173798333Y-169016666D01*
X173731666Y-169116666D01*
X173665000Y-169183333D01*
X173598333Y-169216666D01*
X174331666Y-169716666D02*
X174465000Y-169716666D01*
X174531666Y-169683333D01*
X174565000Y-169650000D01*
X174631666Y-169550000D01*
X174665000Y-169416666D01*
X174665000Y-169150000D01*
X174631666Y-169083333D01*
X174598333Y-169050000D01*
X174531666Y-169016666D01*
X174398333Y-169016666D01*
X174331666Y-169050000D01*
X174298333Y-169083333D01*
X174265000Y-169150000D01*
X174265000Y-169316666D01*
X174298333Y-169383333D01*
X174331666Y-169416666D01*
X174398333Y-169450000D01*
X174531666Y-169450000D01*
X174598333Y-169416666D01*
X174631666Y-169383333D01*
X174665000Y-169316666D01*
X226701666Y-184716666D02*
X227035000Y-184716666D01*
X226635000Y-184916666D02*
X226868333Y-184216666D01*
X227101666Y-184916666D01*
X227668333Y-184216666D02*
X227335000Y-184216666D01*
X227301666Y-184550000D01*
X227335000Y-184516666D01*
X227401666Y-184483333D01*
X227568333Y-184483333D01*
X227635000Y-184516666D01*
X227668333Y-184550000D01*
X227701666Y-184616666D01*
X227701666Y-184783333D01*
X227668333Y-184850000D01*
X227635000Y-184883333D01*
X227568333Y-184916666D01*
X227401666Y-184916666D01*
X227335000Y-184883333D01*
X227301666Y-184850000D01*
X172998333Y-182216666D02*
X173331666Y-182216666D01*
X172931666Y-182416666D02*
X173165000Y-181716666D01*
X173398333Y-182416666D01*
X173998333Y-182416666D02*
X173598333Y-182416666D01*
X173798333Y-182416666D02*
X173798333Y-181716666D01*
X173731666Y-181816666D01*
X173665000Y-181883333D01*
X173598333Y-181916666D01*
X174431666Y-181716666D02*
X174498333Y-181716666D01*
X174565000Y-181750000D01*
X174598333Y-181783333D01*
X174631666Y-181850000D01*
X174665000Y-181983333D01*
X174665000Y-182150000D01*
X174631666Y-182283333D01*
X174598333Y-182350000D01*
X174565000Y-182383333D01*
X174498333Y-182416666D01*
X174431666Y-182416666D01*
X174365000Y-182383333D01*
X174331666Y-182350000D01*
X174298333Y-182283333D01*
X174265000Y-182150000D01*
X174265000Y-181983333D01*
X174298333Y-181850000D01*
X174331666Y-181783333D01*
X174365000Y-181750000D01*
X174431666Y-181716666D01*
D10*
%TO.C,U3*%
X189038095Y-114502380D02*
X189038095Y-115311904D01*
X189085714Y-115407142D01*
X189133333Y-115454761D01*
X189228571Y-115502380D01*
X189419047Y-115502380D01*
X189514285Y-115454761D01*
X189561904Y-115407142D01*
X189609523Y-115311904D01*
X189609523Y-114502380D01*
X189990476Y-114502380D02*
X190609523Y-114502380D01*
X190276190Y-114883333D01*
X190419047Y-114883333D01*
X190514285Y-114930952D01*
X190561904Y-114978571D01*
X190609523Y-115073809D01*
X190609523Y-115311904D01*
X190561904Y-115407142D01*
X190514285Y-115454761D01*
X190419047Y-115502380D01*
X190133333Y-115502380D01*
X190038095Y-115454761D01*
X189990476Y-115407142D01*
%TO.C,R6*%
X196683333Y-103852380D02*
X196350000Y-103376190D01*
X196111904Y-103852380D02*
X196111904Y-102852380D01*
X196492857Y-102852380D01*
X196588095Y-102900000D01*
X196635714Y-102947619D01*
X196683333Y-103042857D01*
X196683333Y-103185714D01*
X196635714Y-103280952D01*
X196588095Y-103328571D01*
X196492857Y-103376190D01*
X196111904Y-103376190D01*
X197540476Y-102852380D02*
X197350000Y-102852380D01*
X197254761Y-102900000D01*
X197207142Y-102947619D01*
X197111904Y-103090476D01*
X197064285Y-103280952D01*
X197064285Y-103661904D01*
X197111904Y-103757142D01*
X197159523Y-103804761D01*
X197254761Y-103852380D01*
X197445238Y-103852380D01*
X197540476Y-103804761D01*
X197588095Y-103757142D01*
X197635714Y-103661904D01*
X197635714Y-103423809D01*
X197588095Y-103328571D01*
X197540476Y-103280952D01*
X197445238Y-103233333D01*
X197254761Y-103233333D01*
X197159523Y-103280952D01*
X197111904Y-103328571D01*
X197064285Y-103423809D01*
%TO.C,R5*%
X200852380Y-97666666D02*
X200376190Y-98000000D01*
X200852380Y-98238095D02*
X199852380Y-98238095D01*
X199852380Y-97857142D01*
X199900000Y-97761904D01*
X199947619Y-97714285D01*
X200042857Y-97666666D01*
X200185714Y-97666666D01*
X200280952Y-97714285D01*
X200328571Y-97761904D01*
X200376190Y-97857142D01*
X200376190Y-98238095D01*
X199852380Y-96761904D02*
X199852380Y-97238095D01*
X200328571Y-97285714D01*
X200280952Y-97238095D01*
X200233333Y-97142857D01*
X200233333Y-96904761D01*
X200280952Y-96809523D01*
X200328571Y-96761904D01*
X200423809Y-96714285D01*
X200661904Y-96714285D01*
X200757142Y-96761904D01*
X200804761Y-96809523D01*
X200852380Y-96904761D01*
X200852380Y-97142857D01*
X200804761Y-97238095D01*
X200757142Y-97285714D01*
%TO.C,J2*%
X169436665Y-95422381D02*
X169436665Y-96136667D01*
X169389046Y-96279524D01*
X169293808Y-96374762D01*
X169150951Y-96422381D01*
X169055713Y-96422381D01*
X169865237Y-95517620D02*
X169912856Y-95470001D01*
X170008094Y-95422381D01*
X170246189Y-95422381D01*
X170341427Y-95470001D01*
X170389046Y-95517620D01*
X170436665Y-95612858D01*
X170436665Y-95708096D01*
X170389046Y-95850953D01*
X169817618Y-96422381D01*
X170436665Y-96422381D01*
%TO.C,C2*%
X191833333Y-167107142D02*
X191785714Y-167154761D01*
X191642857Y-167202380D01*
X191547619Y-167202380D01*
X191404761Y-167154761D01*
X191309523Y-167059523D01*
X191261904Y-166964285D01*
X191214285Y-166773809D01*
X191214285Y-166630952D01*
X191261904Y-166440476D01*
X191309523Y-166345238D01*
X191404761Y-166250000D01*
X191547619Y-166202380D01*
X191642857Y-166202380D01*
X191785714Y-166250000D01*
X191833333Y-166297619D01*
X192214285Y-166297619D02*
X192261904Y-166250000D01*
X192357142Y-166202380D01*
X192595238Y-166202380D01*
X192690476Y-166250000D01*
X192738095Y-166297619D01*
X192785714Y-166392857D01*
X192785714Y-166488095D01*
X192738095Y-166630952D01*
X192166666Y-167202380D01*
X192785714Y-167202380D01*
%TO.C,C1*%
X212183333Y-161177142D02*
X212135714Y-161224761D01*
X211992857Y-161272380D01*
X211897619Y-161272380D01*
X211754761Y-161224761D01*
X211659523Y-161129523D01*
X211611904Y-161034285D01*
X211564285Y-160843809D01*
X211564285Y-160700952D01*
X211611904Y-160510476D01*
X211659523Y-160415238D01*
X211754761Y-160320000D01*
X211897619Y-160272380D01*
X211992857Y-160272380D01*
X212135714Y-160320000D01*
X212183333Y-160367619D01*
X213135714Y-161272380D02*
X212564285Y-161272380D01*
X212850000Y-161272380D02*
X212850000Y-160272380D01*
X212754761Y-160415238D01*
X212659523Y-160510476D01*
X212564285Y-160558095D01*
%TO.C,R2*%
X206745833Y-167522380D02*
X206412500Y-167046190D01*
X206174404Y-167522380D02*
X206174404Y-166522380D01*
X206555357Y-166522380D01*
X206650595Y-166570000D01*
X206698214Y-166617619D01*
X206745833Y-166712857D01*
X206745833Y-166855714D01*
X206698214Y-166950952D01*
X206650595Y-166998571D01*
X206555357Y-167046190D01*
X206174404Y-167046190D01*
X207126785Y-166617619D02*
X207174404Y-166570000D01*
X207269642Y-166522380D01*
X207507738Y-166522380D01*
X207602976Y-166570000D01*
X207650595Y-166617619D01*
X207698214Y-166712857D01*
X207698214Y-166808095D01*
X207650595Y-166950952D01*
X207079166Y-167522380D01*
X207698214Y-167522380D01*
%TO.C,U5*%
X189138095Y-106002380D02*
X189138095Y-106811904D01*
X189185714Y-106907142D01*
X189233333Y-106954761D01*
X189328571Y-107002380D01*
X189519047Y-107002380D01*
X189614285Y-106954761D01*
X189661904Y-106907142D01*
X189709523Y-106811904D01*
X189709523Y-106002380D01*
X190661904Y-106002380D02*
X190185714Y-106002380D01*
X190138095Y-106478571D01*
X190185714Y-106430952D01*
X190280952Y-106383333D01*
X190519047Y-106383333D01*
X190614285Y-106430952D01*
X190661904Y-106478571D01*
X190709523Y-106573809D01*
X190709523Y-106811904D01*
X190661904Y-106907142D01*
X190614285Y-106954761D01*
X190519047Y-107002380D01*
X190280952Y-107002380D01*
X190185714Y-106954761D01*
X190138095Y-106907142D01*
%TO.C,R10*%
X220657023Y-179952380D02*
X220323690Y-179476190D01*
X220085595Y-179952380D02*
X220085595Y-178952380D01*
X220466547Y-178952380D01*
X220561785Y-179000000D01*
X220609404Y-179047619D01*
X220657023Y-179142857D01*
X220657023Y-179285714D01*
X220609404Y-179380952D01*
X220561785Y-179428571D01*
X220466547Y-179476190D01*
X220085595Y-179476190D01*
X221609404Y-179952380D02*
X221037976Y-179952380D01*
X221323690Y-179952380D02*
X221323690Y-178952380D01*
X221228452Y-179095238D01*
X221133214Y-179190476D01*
X221037976Y-179238095D01*
X222228452Y-178952380D02*
X222323690Y-178952380D01*
X222418928Y-179000000D01*
X222466547Y-179047619D01*
X222514166Y-179142857D01*
X222561785Y-179333333D01*
X222561785Y-179571428D01*
X222514166Y-179761904D01*
X222466547Y-179857142D01*
X222418928Y-179904761D01*
X222323690Y-179952380D01*
X222228452Y-179952380D01*
X222133214Y-179904761D01*
X222085595Y-179857142D01*
X222037976Y-179761904D01*
X221990357Y-179571428D01*
X221990357Y-179333333D01*
X222037976Y-179142857D01*
X222085595Y-179047619D01*
X222133214Y-179000000D01*
X222228452Y-178952380D01*
%TO.C,R13*%
X221107142Y-124382380D02*
X220773809Y-123906190D01*
X220535714Y-124382380D02*
X220535714Y-123382380D01*
X220916666Y-123382380D01*
X221011904Y-123430000D01*
X221059523Y-123477619D01*
X221107142Y-123572857D01*
X221107142Y-123715714D01*
X221059523Y-123810952D01*
X221011904Y-123858571D01*
X220916666Y-123906190D01*
X220535714Y-123906190D01*
X222059523Y-124382380D02*
X221488095Y-124382380D01*
X221773809Y-124382380D02*
X221773809Y-123382380D01*
X221678571Y-123525238D01*
X221583333Y-123620476D01*
X221488095Y-123668095D01*
X222392857Y-123382380D02*
X223011904Y-123382380D01*
X222678571Y-123763333D01*
X222821428Y-123763333D01*
X222916666Y-123810952D01*
X222964285Y-123858571D01*
X223011904Y-123953809D01*
X223011904Y-124191904D01*
X222964285Y-124287142D01*
X222916666Y-124334761D01*
X222821428Y-124382380D01*
X222535714Y-124382380D01*
X222440476Y-124334761D01*
X222392857Y-124287142D01*
%TO.C,U2*%
X203238095Y-116642380D02*
X203238095Y-117451904D01*
X203285714Y-117547142D01*
X203333333Y-117594761D01*
X203428571Y-117642380D01*
X203619047Y-117642380D01*
X203714285Y-117594761D01*
X203761904Y-117547142D01*
X203809523Y-117451904D01*
X203809523Y-116642380D01*
X204238095Y-116737619D02*
X204285714Y-116690000D01*
X204380952Y-116642380D01*
X204619047Y-116642380D01*
X204714285Y-116690000D01*
X204761904Y-116737619D01*
X204809523Y-116832857D01*
X204809523Y-116928095D01*
X204761904Y-117070952D01*
X204190476Y-117642380D01*
X204809523Y-117642380D01*
%TO.C,D8*%
X177611904Y-97252380D02*
X177611904Y-96252380D01*
X177850000Y-96252380D01*
X177992857Y-96300000D01*
X178088095Y-96395238D01*
X178135714Y-96490476D01*
X178183333Y-96680952D01*
X178183333Y-96823809D01*
X178135714Y-97014285D01*
X178088095Y-97109523D01*
X177992857Y-97204761D01*
X177850000Y-97252380D01*
X177611904Y-97252380D01*
X178754761Y-96680952D02*
X178659523Y-96633333D01*
X178611904Y-96585714D01*
X178564285Y-96490476D01*
X178564285Y-96442857D01*
X178611904Y-96347619D01*
X178659523Y-96300000D01*
X178754761Y-96252380D01*
X178945238Y-96252380D01*
X179040476Y-96300000D01*
X179088095Y-96347619D01*
X179135714Y-96442857D01*
X179135714Y-96490476D01*
X179088095Y-96585714D01*
X179040476Y-96633333D01*
X178945238Y-96680952D01*
X178754761Y-96680952D01*
X178659523Y-96728571D01*
X178611904Y-96776190D01*
X178564285Y-96871428D01*
X178564285Y-97061904D01*
X178611904Y-97157142D01*
X178659523Y-97204761D01*
X178754761Y-97252380D01*
X178945238Y-97252380D01*
X179040476Y-97204761D01*
X179088095Y-97157142D01*
X179135714Y-97061904D01*
X179135714Y-96871428D01*
X179088095Y-96776190D01*
X179040476Y-96728571D01*
X178945238Y-96680952D01*
%TO.C,U4*%
X202738095Y-114702380D02*
X202738095Y-115511904D01*
X202785714Y-115607142D01*
X202833333Y-115654761D01*
X202928571Y-115702380D01*
X203119047Y-115702380D01*
X203214285Y-115654761D01*
X203261904Y-115607142D01*
X203309523Y-115511904D01*
X203309523Y-114702380D01*
X204214285Y-115035714D02*
X204214285Y-115702380D01*
X203976190Y-114654761D02*
X203738095Y-115369047D01*
X204357142Y-115369047D01*
%TO.C,D9*%
X176511904Y-110452380D02*
X176511904Y-109452380D01*
X176750000Y-109452380D01*
X176892857Y-109500000D01*
X176988095Y-109595238D01*
X177035714Y-109690476D01*
X177083333Y-109880952D01*
X177083333Y-110023809D01*
X177035714Y-110214285D01*
X176988095Y-110309523D01*
X176892857Y-110404761D01*
X176750000Y-110452380D01*
X176511904Y-110452380D01*
X177559523Y-110452380D02*
X177750000Y-110452380D01*
X177845238Y-110404761D01*
X177892857Y-110357142D01*
X177988095Y-110214285D01*
X178035714Y-110023809D01*
X178035714Y-109642857D01*
X177988095Y-109547619D01*
X177940476Y-109500000D01*
X177845238Y-109452380D01*
X177654761Y-109452380D01*
X177559523Y-109500000D01*
X177511904Y-109547619D01*
X177464285Y-109642857D01*
X177464285Y-109880952D01*
X177511904Y-109976190D01*
X177559523Y-110023809D01*
X177654761Y-110071428D01*
X177845238Y-110071428D01*
X177940476Y-110023809D01*
X177988095Y-109976190D01*
X178035714Y-109880952D01*
%TO.C,JP1*%
X212166666Y-186452380D02*
X212166666Y-187166666D01*
X212119047Y-187309523D01*
X212023809Y-187404761D01*
X211880952Y-187452380D01*
X211785714Y-187452380D01*
X212642857Y-187452380D02*
X212642857Y-186452380D01*
X213023809Y-186452380D01*
X213119047Y-186500000D01*
X213166666Y-186547619D01*
X213214285Y-186642857D01*
X213214285Y-186785714D01*
X213166666Y-186880952D01*
X213119047Y-186928571D01*
X213023809Y-186976190D01*
X212642857Y-186976190D01*
X214166666Y-187452380D02*
X213595238Y-187452380D01*
X213880952Y-187452380D02*
X213880952Y-186452380D01*
X213785714Y-186595238D01*
X213690476Y-186690476D01*
X213595238Y-186738095D01*
%TO.C,FID2*%
X230428571Y-80428571D02*
X230095238Y-80428571D01*
X230095238Y-80952380D02*
X230095238Y-79952380D01*
X230571428Y-79952380D01*
X230952380Y-80952380D02*
X230952380Y-79952380D01*
X231428571Y-80952380D02*
X231428571Y-79952380D01*
X231666666Y-79952380D01*
X231809523Y-80000000D01*
X231904761Y-80095238D01*
X231952380Y-80190476D01*
X232000000Y-80380952D01*
X232000000Y-80523809D01*
X231952380Y-80714285D01*
X231904761Y-80809523D01*
X231809523Y-80904761D01*
X231666666Y-80952380D01*
X231428571Y-80952380D01*
X232380952Y-80047619D02*
X232428571Y-80000000D01*
X232523809Y-79952380D01*
X232761904Y-79952380D01*
X232857142Y-80000000D01*
X232904761Y-80047619D01*
X232952380Y-80142857D01*
X232952380Y-80238095D01*
X232904761Y-80380952D01*
X232333333Y-80952380D01*
X232952380Y-80952380D01*
%TO.C,D4*%
X182761904Y-125452380D02*
X182761904Y-124452380D01*
X183000000Y-124452380D01*
X183142857Y-124500000D01*
X183238095Y-124595238D01*
X183285714Y-124690476D01*
X183333333Y-124880952D01*
X183333333Y-125023809D01*
X183285714Y-125214285D01*
X183238095Y-125309523D01*
X183142857Y-125404761D01*
X183000000Y-125452380D01*
X182761904Y-125452380D01*
X184190476Y-124785714D02*
X184190476Y-125452380D01*
X183952380Y-124404761D02*
X183714285Y-125119047D01*
X184333333Y-125119047D01*
%TO.C,C8*%
X198333333Y-113207142D02*
X198285714Y-113254761D01*
X198142857Y-113302380D01*
X198047619Y-113302380D01*
X197904761Y-113254761D01*
X197809523Y-113159523D01*
X197761904Y-113064285D01*
X197714285Y-112873809D01*
X197714285Y-112730952D01*
X197761904Y-112540476D01*
X197809523Y-112445238D01*
X197904761Y-112350000D01*
X198047619Y-112302380D01*
X198142857Y-112302380D01*
X198285714Y-112350000D01*
X198333333Y-112397619D01*
X198904761Y-112730952D02*
X198809523Y-112683333D01*
X198761904Y-112635714D01*
X198714285Y-112540476D01*
X198714285Y-112492857D01*
X198761904Y-112397619D01*
X198809523Y-112350000D01*
X198904761Y-112302380D01*
X199095238Y-112302380D01*
X199190476Y-112350000D01*
X199238095Y-112397619D01*
X199285714Y-112492857D01*
X199285714Y-112540476D01*
X199238095Y-112635714D01*
X199190476Y-112683333D01*
X199095238Y-112730952D01*
X198904761Y-112730952D01*
X198809523Y-112778571D01*
X198761904Y-112826190D01*
X198714285Y-112921428D01*
X198714285Y-113111904D01*
X198761904Y-113207142D01*
X198809523Y-113254761D01*
X198904761Y-113302380D01*
X199095238Y-113302380D01*
X199190476Y-113254761D01*
X199238095Y-113207142D01*
X199285714Y-113111904D01*
X199285714Y-112921428D01*
X199238095Y-112826190D01*
X199190476Y-112778571D01*
X199095238Y-112730952D01*
%TO.C,C7*%
X215357142Y-113966666D02*
X215404761Y-114014285D01*
X215452380Y-114157142D01*
X215452380Y-114252380D01*
X215404761Y-114395238D01*
X215309523Y-114490476D01*
X215214285Y-114538095D01*
X215023809Y-114585714D01*
X214880952Y-114585714D01*
X214690476Y-114538095D01*
X214595238Y-114490476D01*
X214500000Y-114395238D01*
X214452380Y-114252380D01*
X214452380Y-114157142D01*
X214500000Y-114014285D01*
X214547619Y-113966666D01*
X214452380Y-113633333D02*
X214452380Y-112966666D01*
X215452380Y-113395238D01*
%TO.C,D6*%
X210302380Y-192238095D02*
X209302380Y-192238095D01*
X209302380Y-192000000D01*
X209350000Y-191857142D01*
X209445238Y-191761904D01*
X209540476Y-191714285D01*
X209730952Y-191666666D01*
X209873809Y-191666666D01*
X210064285Y-191714285D01*
X210159523Y-191761904D01*
X210254761Y-191857142D01*
X210302380Y-192000000D01*
X210302380Y-192238095D01*
X209302380Y-190809523D02*
X209302380Y-191000000D01*
X209350000Y-191095238D01*
X209397619Y-191142857D01*
X209540476Y-191238095D01*
X209730952Y-191285714D01*
X210111904Y-191285714D01*
X210207142Y-191238095D01*
X210254761Y-191190476D01*
X210302380Y-191095238D01*
X210302380Y-190904761D01*
X210254761Y-190809523D01*
X210207142Y-190761904D01*
X210111904Y-190714285D01*
X209873809Y-190714285D01*
X209778571Y-190761904D01*
X209730952Y-190809523D01*
X209683333Y-190904761D01*
X209683333Y-191095238D01*
X209730952Y-191190476D01*
X209778571Y-191238095D01*
X209873809Y-191285714D01*
%TO.C,D3*%
X176261904Y-125952380D02*
X176261904Y-124952380D01*
X176500000Y-124952380D01*
X176642857Y-125000000D01*
X176738095Y-125095238D01*
X176785714Y-125190476D01*
X176833333Y-125380952D01*
X176833333Y-125523809D01*
X176785714Y-125714285D01*
X176738095Y-125809523D01*
X176642857Y-125904761D01*
X176500000Y-125952380D01*
X176261904Y-125952380D01*
X177166666Y-124952380D02*
X177785714Y-124952380D01*
X177452380Y-125333333D01*
X177595238Y-125333333D01*
X177690476Y-125380952D01*
X177738095Y-125428571D01*
X177785714Y-125523809D01*
X177785714Y-125761904D01*
X177738095Y-125857142D01*
X177690476Y-125904761D01*
X177595238Y-125952380D01*
X177309523Y-125952380D01*
X177214285Y-125904761D01*
X177166666Y-125857142D01*
%TO.C,C5*%
X176657142Y-115666666D02*
X176704761Y-115714285D01*
X176752380Y-115857142D01*
X176752380Y-115952380D01*
X176704761Y-116095238D01*
X176609523Y-116190476D01*
X176514285Y-116238095D01*
X176323809Y-116285714D01*
X176180952Y-116285714D01*
X175990476Y-116238095D01*
X175895238Y-116190476D01*
X175800000Y-116095238D01*
X175752380Y-115952380D01*
X175752380Y-115857142D01*
X175800000Y-115714285D01*
X175847619Y-115666666D01*
X175752380Y-114761904D02*
X175752380Y-115238095D01*
X176228571Y-115285714D01*
X176180952Y-115238095D01*
X176133333Y-115142857D01*
X176133333Y-114904761D01*
X176180952Y-114809523D01*
X176228571Y-114761904D01*
X176323809Y-114714285D01*
X176561904Y-114714285D01*
X176657142Y-114761904D01*
X176704761Y-114809523D01*
X176752380Y-114904761D01*
X176752380Y-115142857D01*
X176704761Y-115238095D01*
X176657142Y-115285714D01*
%TO.C,FID1*%
X167928571Y-80428571D02*
X167595238Y-80428571D01*
X167595238Y-80952380D02*
X167595238Y-79952380D01*
X168071428Y-79952380D01*
X168452380Y-80952380D02*
X168452380Y-79952380D01*
X168928571Y-80952380D02*
X168928571Y-79952380D01*
X169166666Y-79952380D01*
X169309523Y-80000000D01*
X169404761Y-80095238D01*
X169452380Y-80190476D01*
X169500000Y-80380952D01*
X169500000Y-80523809D01*
X169452380Y-80714285D01*
X169404761Y-80809523D01*
X169309523Y-80904761D01*
X169166666Y-80952380D01*
X168928571Y-80952380D01*
X170452380Y-80952380D02*
X169880952Y-80952380D01*
X170166666Y-80952380D02*
X170166666Y-79952380D01*
X170071428Y-80095238D01*
X169976190Y-80190476D01*
X169880952Y-80238095D01*
%TO.C,R11*%
X220657023Y-174952380D02*
X220323690Y-174476190D01*
X220085595Y-174952380D02*
X220085595Y-173952380D01*
X220466547Y-173952380D01*
X220561785Y-174000000D01*
X220609404Y-174047619D01*
X220657023Y-174142857D01*
X220657023Y-174285714D01*
X220609404Y-174380952D01*
X220561785Y-174428571D01*
X220466547Y-174476190D01*
X220085595Y-174476190D01*
X221609404Y-174952380D02*
X221037976Y-174952380D01*
X221323690Y-174952380D02*
X221323690Y-173952380D01*
X221228452Y-174095238D01*
X221133214Y-174190476D01*
X221037976Y-174238095D01*
X222561785Y-174952380D02*
X221990357Y-174952380D01*
X222276071Y-174952380D02*
X222276071Y-173952380D01*
X222180833Y-174095238D01*
X222085595Y-174190476D01*
X221990357Y-174238095D01*
%TO.C,D7*%
X176011904Y-100702380D02*
X176011904Y-99702380D01*
X176250000Y-99702380D01*
X176392857Y-99750000D01*
X176488095Y-99845238D01*
X176535714Y-99940476D01*
X176583333Y-100130952D01*
X176583333Y-100273809D01*
X176535714Y-100464285D01*
X176488095Y-100559523D01*
X176392857Y-100654761D01*
X176250000Y-100702380D01*
X176011904Y-100702380D01*
X176916666Y-99702380D02*
X177583333Y-99702380D01*
X177154761Y-100702380D01*
%TO.C,D10*%
X176785714Y-104952380D02*
X176785714Y-103952380D01*
X177023809Y-103952380D01*
X177166666Y-104000000D01*
X177261904Y-104095238D01*
X177309523Y-104190476D01*
X177357142Y-104380952D01*
X177357142Y-104523809D01*
X177309523Y-104714285D01*
X177261904Y-104809523D01*
X177166666Y-104904761D01*
X177023809Y-104952380D01*
X176785714Y-104952380D01*
X178309523Y-104952380D02*
X177738095Y-104952380D01*
X178023809Y-104952380D02*
X178023809Y-103952380D01*
X177928571Y-104095238D01*
X177833333Y-104190476D01*
X177738095Y-104238095D01*
X178928571Y-103952380D02*
X179023809Y-103952380D01*
X179119047Y-104000000D01*
X179166666Y-104047619D01*
X179214285Y-104142857D01*
X179261904Y-104333333D01*
X179261904Y-104571428D01*
X179214285Y-104761904D01*
X179166666Y-104857142D01*
X179119047Y-104904761D01*
X179023809Y-104952380D01*
X178928571Y-104952380D01*
X178833333Y-104904761D01*
X178785714Y-104857142D01*
X178738095Y-104761904D01*
X178690476Y-104571428D01*
X178690476Y-104333333D01*
X178738095Y-104142857D01*
X178785714Y-104047619D01*
X178833333Y-104000000D01*
X178928571Y-103952380D01*
%TO.C,U1*%
X212847619Y-128038095D02*
X212038095Y-128038095D01*
X211942857Y-128085714D01*
X211895238Y-128133333D01*
X211847619Y-128228571D01*
X211847619Y-128419047D01*
X211895238Y-128514285D01*
X211942857Y-128561904D01*
X212038095Y-128609523D01*
X212847619Y-128609523D01*
X211847619Y-129609523D02*
X211847619Y-129038095D01*
X211847619Y-129323809D02*
X212847619Y-129323809D01*
X212704761Y-129228571D01*
X212609523Y-129133333D01*
X212561904Y-129038095D01*
%TO.C,R9*%
X221082023Y-172452380D02*
X220748690Y-171976190D01*
X220510595Y-172452380D02*
X220510595Y-171452380D01*
X220891547Y-171452380D01*
X220986785Y-171500000D01*
X221034404Y-171547619D01*
X221082023Y-171642857D01*
X221082023Y-171785714D01*
X221034404Y-171880952D01*
X220986785Y-171928571D01*
X220891547Y-171976190D01*
X220510595Y-171976190D01*
X221558214Y-172452380D02*
X221748690Y-172452380D01*
X221843928Y-172404761D01*
X221891547Y-172357142D01*
X221986785Y-172214285D01*
X222034404Y-172023809D01*
X222034404Y-171642857D01*
X221986785Y-171547619D01*
X221939166Y-171500000D01*
X221843928Y-171452380D01*
X221653452Y-171452380D01*
X221558214Y-171500000D01*
X221510595Y-171547619D01*
X221462976Y-171642857D01*
X221462976Y-171880952D01*
X221510595Y-171976190D01*
X221558214Y-172023809D01*
X221653452Y-172071428D01*
X221843928Y-172071428D01*
X221939166Y-172023809D01*
X221986785Y-171976190D01*
X222034404Y-171880952D01*
%TO.C,R1*%
X203333333Y-167522380D02*
X203000000Y-167046190D01*
X202761904Y-167522380D02*
X202761904Y-166522380D01*
X203142857Y-166522380D01*
X203238095Y-166570000D01*
X203285714Y-166617619D01*
X203333333Y-166712857D01*
X203333333Y-166855714D01*
X203285714Y-166950952D01*
X203238095Y-166998571D01*
X203142857Y-167046190D01*
X202761904Y-167046190D01*
X204285714Y-167522380D02*
X203714285Y-167522380D01*
X204000000Y-167522380D02*
X204000000Y-166522380D01*
X203904761Y-166665238D01*
X203809523Y-166760476D01*
X203714285Y-166808095D01*
%TO.C,D5*%
X204761904Y-190952380D02*
X204761904Y-189952380D01*
X205000000Y-189952380D01*
X205142857Y-190000000D01*
X205238095Y-190095238D01*
X205285714Y-190190476D01*
X205333333Y-190380952D01*
X205333333Y-190523809D01*
X205285714Y-190714285D01*
X205238095Y-190809523D01*
X205142857Y-190904761D01*
X205000000Y-190952380D01*
X204761904Y-190952380D01*
X206238095Y-189952380D02*
X205761904Y-189952380D01*
X205714285Y-190428571D01*
X205761904Y-190380952D01*
X205857142Y-190333333D01*
X206095238Y-190333333D01*
X206190476Y-190380952D01*
X206238095Y-190428571D01*
X206285714Y-190523809D01*
X206285714Y-190761904D01*
X206238095Y-190857142D01*
X206190476Y-190904761D01*
X206095238Y-190952380D01*
X205857142Y-190952380D01*
X205761904Y-190904761D01*
X205714285Y-190857142D01*
%TO.C,R14*%
X173857142Y-198132380D02*
X173523809Y-197656190D01*
X173285714Y-198132380D02*
X173285714Y-197132380D01*
X173666666Y-197132380D01*
X173761904Y-197180000D01*
X173809523Y-197227619D01*
X173857142Y-197322857D01*
X173857142Y-197465714D01*
X173809523Y-197560952D01*
X173761904Y-197608571D01*
X173666666Y-197656190D01*
X173285714Y-197656190D01*
X174809523Y-198132380D02*
X174238095Y-198132380D01*
X174523809Y-198132380D02*
X174523809Y-197132380D01*
X174428571Y-197275238D01*
X174333333Y-197370476D01*
X174238095Y-197418095D01*
X175666666Y-197465714D02*
X175666666Y-198132380D01*
X175428571Y-197084761D02*
X175190476Y-197799047D01*
X175809523Y-197799047D01*
%TO.C,R7*%
X193783333Y-103852380D02*
X193450000Y-103376190D01*
X193211904Y-103852380D02*
X193211904Y-102852380D01*
X193592857Y-102852380D01*
X193688095Y-102900000D01*
X193735714Y-102947619D01*
X193783333Y-103042857D01*
X193783333Y-103185714D01*
X193735714Y-103280952D01*
X193688095Y-103328571D01*
X193592857Y-103376190D01*
X193211904Y-103376190D01*
X194116666Y-102852380D02*
X194783333Y-102852380D01*
X194354761Y-103852380D01*
%TO.C,R3*%
X175333332Y-178882381D02*
X174999999Y-178406191D01*
X174761903Y-178882381D02*
X174761903Y-177882381D01*
X175142856Y-177882381D01*
X175238094Y-177930001D01*
X175285713Y-177977620D01*
X175333332Y-178072858D01*
X175333332Y-178215715D01*
X175285713Y-178310953D01*
X175238094Y-178358572D01*
X175142856Y-178406191D01*
X174761903Y-178406191D01*
X175666665Y-177882381D02*
X176285713Y-177882381D01*
X175952379Y-178263334D01*
X176095237Y-178263334D01*
X176190475Y-178310953D01*
X176238094Y-178358572D01*
X176285713Y-178453810D01*
X176285713Y-178691905D01*
X176238094Y-178787143D01*
X176190475Y-178834762D01*
X176095237Y-178882381D01*
X175809522Y-178882381D01*
X175714284Y-178834762D01*
X175666665Y-178787143D01*
%TO.C,FID3*%
X230428571Y-211428571D02*
X230095238Y-211428571D01*
X230095238Y-211952380D02*
X230095238Y-210952380D01*
X230571428Y-210952380D01*
X230952380Y-211952380D02*
X230952380Y-210952380D01*
X231428571Y-211952380D02*
X231428571Y-210952380D01*
X231666666Y-210952380D01*
X231809523Y-211000000D01*
X231904761Y-211095238D01*
X231952380Y-211190476D01*
X232000000Y-211380952D01*
X232000000Y-211523809D01*
X231952380Y-211714285D01*
X231904761Y-211809523D01*
X231809523Y-211904761D01*
X231666666Y-211952380D01*
X231428571Y-211952380D01*
X232333333Y-210952380D02*
X232952380Y-210952380D01*
X232619047Y-211333333D01*
X232761904Y-211333333D01*
X232857142Y-211380952D01*
X232904761Y-211428571D01*
X232952380Y-211523809D01*
X232952380Y-211761904D01*
X232904761Y-211857142D01*
X232857142Y-211904761D01*
X232761904Y-211952380D01*
X232476190Y-211952380D01*
X232380952Y-211904761D01*
X232333333Y-211857142D01*
%TO.C,J1*%
X230436665Y-95422381D02*
X230436665Y-96136667D01*
X230389046Y-96279524D01*
X230293808Y-96374762D01*
X230150951Y-96422381D01*
X230055713Y-96422381D01*
X231436665Y-96422381D02*
X230865237Y-96422381D01*
X231150951Y-96422381D02*
X231150951Y-95422381D01*
X231055713Y-95565239D01*
X230960475Y-95660477D01*
X230865237Y-95708096D01*
%TO.C,C4*%
X192083333Y-121757142D02*
X192035714Y-121804761D01*
X191892857Y-121852380D01*
X191797619Y-121852380D01*
X191654761Y-121804761D01*
X191559523Y-121709523D01*
X191511904Y-121614285D01*
X191464285Y-121423809D01*
X191464285Y-121280952D01*
X191511904Y-121090476D01*
X191559523Y-120995238D01*
X191654761Y-120900000D01*
X191797619Y-120852380D01*
X191892857Y-120852380D01*
X192035714Y-120900000D01*
X192083333Y-120947619D01*
X192940476Y-121185714D02*
X192940476Y-121852380D01*
X192702380Y-120804761D02*
X192464285Y-121519047D01*
X193083333Y-121519047D01*
%TO.C,J3*%
X197666666Y-183452380D02*
X197666666Y-184166666D01*
X197619047Y-184309523D01*
X197523809Y-184404761D01*
X197380952Y-184452380D01*
X197285714Y-184452380D01*
X198047619Y-183452380D02*
X198666666Y-183452380D01*
X198333333Y-183833333D01*
X198476190Y-183833333D01*
X198571428Y-183880952D01*
X198619047Y-183928571D01*
X198666666Y-184023809D01*
X198666666Y-184261904D01*
X198619047Y-184357142D01*
X198571428Y-184404761D01*
X198476190Y-184452380D01*
X198190476Y-184452380D01*
X198095238Y-184404761D01*
X198047619Y-184357142D01*
%TO.C,R12*%
X220657023Y-177452380D02*
X220323690Y-176976190D01*
X220085595Y-177452380D02*
X220085595Y-176452380D01*
X220466547Y-176452380D01*
X220561785Y-176500000D01*
X220609404Y-176547619D01*
X220657023Y-176642857D01*
X220657023Y-176785714D01*
X220609404Y-176880952D01*
X220561785Y-176928571D01*
X220466547Y-176976190D01*
X220085595Y-176976190D01*
X221609404Y-177452380D02*
X221037976Y-177452380D01*
X221323690Y-177452380D02*
X221323690Y-176452380D01*
X221228452Y-176595238D01*
X221133214Y-176690476D01*
X221037976Y-176738095D01*
X221990357Y-176547619D02*
X222037976Y-176500000D01*
X222133214Y-176452380D01*
X222371309Y-176452380D01*
X222466547Y-176500000D01*
X222514166Y-176547619D01*
X222561785Y-176642857D01*
X222561785Y-176738095D01*
X222514166Y-176880952D01*
X221942738Y-177452380D01*
X222561785Y-177452380D01*
%TO.C,R15*%
X220657023Y-192702380D02*
X220323690Y-192226190D01*
X220085595Y-192702380D02*
X220085595Y-191702380D01*
X220466547Y-191702380D01*
X220561785Y-191750000D01*
X220609404Y-191797619D01*
X220657023Y-191892857D01*
X220657023Y-192035714D01*
X220609404Y-192130952D01*
X220561785Y-192178571D01*
X220466547Y-192226190D01*
X220085595Y-192226190D01*
X221609404Y-192702380D02*
X221037976Y-192702380D01*
X221323690Y-192702380D02*
X221323690Y-191702380D01*
X221228452Y-191845238D01*
X221133214Y-191940476D01*
X221037976Y-191988095D01*
X222514166Y-191702380D02*
X222037976Y-191702380D01*
X221990357Y-192178571D01*
X222037976Y-192130952D01*
X222133214Y-192083333D01*
X222371309Y-192083333D01*
X222466547Y-192130952D01*
X222514166Y-192178571D01*
X222561785Y-192273809D01*
X222561785Y-192511904D01*
X222514166Y-192607142D01*
X222466547Y-192654761D01*
X222371309Y-192702380D01*
X222133214Y-192702380D01*
X222037976Y-192654761D01*
X221990357Y-192607142D01*
%TO.C,R8*%
X223657023Y-181452380D02*
X223323690Y-180976190D01*
X223085595Y-181452380D02*
X223085595Y-180452380D01*
X223466547Y-180452380D01*
X223561785Y-180500000D01*
X223609404Y-180547619D01*
X223657023Y-180642857D01*
X223657023Y-180785714D01*
X223609404Y-180880952D01*
X223561785Y-180928571D01*
X223466547Y-180976190D01*
X223085595Y-180976190D01*
X224228452Y-180880952D02*
X224133214Y-180833333D01*
X224085595Y-180785714D01*
X224037976Y-180690476D01*
X224037976Y-180642857D01*
X224085595Y-180547619D01*
X224133214Y-180500000D01*
X224228452Y-180452380D01*
X224418928Y-180452380D01*
X224514166Y-180500000D01*
X224561785Y-180547619D01*
X224609404Y-180642857D01*
X224609404Y-180690476D01*
X224561785Y-180785714D01*
X224514166Y-180833333D01*
X224418928Y-180880952D01*
X224228452Y-180880952D01*
X224133214Y-180928571D01*
X224085595Y-180976190D01*
X224037976Y-181071428D01*
X224037976Y-181261904D01*
X224085595Y-181357142D01*
X224133214Y-181404761D01*
X224228452Y-181452380D01*
X224418928Y-181452380D01*
X224514166Y-181404761D01*
X224561785Y-181357142D01*
X224609404Y-181261904D01*
X224609404Y-181071428D01*
X224561785Y-180976190D01*
X224514166Y-180928571D01*
X224418928Y-180880952D01*
%TO.C,R4*%
X187683333Y-120002380D02*
X187350000Y-119526190D01*
X187111904Y-120002380D02*
X187111904Y-119002380D01*
X187492857Y-119002380D01*
X187588095Y-119050000D01*
X187635714Y-119097619D01*
X187683333Y-119192857D01*
X187683333Y-119335714D01*
X187635714Y-119430952D01*
X187588095Y-119478571D01*
X187492857Y-119526190D01*
X187111904Y-119526190D01*
X188540476Y-119335714D02*
X188540476Y-120002380D01*
X188302380Y-118954761D02*
X188064285Y-119669047D01*
X188683333Y-119669047D01*
%TO.C,C6*%
X199177142Y-109116666D02*
X199224761Y-109164285D01*
X199272380Y-109307142D01*
X199272380Y-109402380D01*
X199224761Y-109545238D01*
X199129523Y-109640476D01*
X199034285Y-109688095D01*
X198843809Y-109735714D01*
X198700952Y-109735714D01*
X198510476Y-109688095D01*
X198415238Y-109640476D01*
X198320000Y-109545238D01*
X198272380Y-109402380D01*
X198272380Y-109307142D01*
X198320000Y-109164285D01*
X198367619Y-109116666D01*
X198272380Y-108259523D02*
X198272380Y-108450000D01*
X198320000Y-108545238D01*
X198367619Y-108592857D01*
X198510476Y-108688095D01*
X198700952Y-108735714D01*
X199081904Y-108735714D01*
X199177142Y-108688095D01*
X199224761Y-108640476D01*
X199272380Y-108545238D01*
X199272380Y-108354761D01*
X199224761Y-108259523D01*
X199177142Y-108211904D01*
X199081904Y-108164285D01*
X198843809Y-108164285D01*
X198748571Y-108211904D01*
X198700952Y-108259523D01*
X198653333Y-108354761D01*
X198653333Y-108545238D01*
X198700952Y-108640476D01*
X198748571Y-108688095D01*
X198843809Y-108735714D01*
%TO.C,C3*%
X214083333Y-117607142D02*
X214035714Y-117654761D01*
X213892857Y-117702380D01*
X213797619Y-117702380D01*
X213654761Y-117654761D01*
X213559523Y-117559523D01*
X213511904Y-117464285D01*
X213464285Y-117273809D01*
X213464285Y-117130952D01*
X213511904Y-116940476D01*
X213559523Y-116845238D01*
X213654761Y-116750000D01*
X213797619Y-116702380D01*
X213892857Y-116702380D01*
X214035714Y-116750000D01*
X214083333Y-116797619D01*
X214416666Y-116702380D02*
X215035714Y-116702380D01*
X214702380Y-117083333D01*
X214845238Y-117083333D01*
X214940476Y-117130952D01*
X214988095Y-117178571D01*
X215035714Y-117273809D01*
X215035714Y-117511904D01*
X214988095Y-117607142D01*
X214940476Y-117654761D01*
X214845238Y-117702380D01*
X214559523Y-117702380D01*
X214464285Y-117654761D01*
X214416666Y-117607142D01*
D13*
%TO.C,U3*%
X194625000Y-119525000D02*
X192675000Y-119525000D01*
X194625000Y-114405000D02*
X196575000Y-114405000D01*
X194625000Y-114405000D02*
X191175000Y-114405000D01*
X194625000Y-119525000D02*
X196575000Y-119525000D01*
%TO.C,R6*%
X196712742Y-105272500D02*
X197187258Y-105272500D01*
X196712742Y-104227500D02*
X197187258Y-104227500D01*
%TO.C,R5*%
X198015000Y-97272936D02*
X198015000Y-97727064D01*
X199485000Y-97272936D02*
X199485000Y-97727064D01*
%TO.C,J2*%
X172369999Y-96970001D02*
X172369999Y-107250001D01*
X169769999Y-96970001D02*
X172369999Y-96970001D01*
X167169999Y-98300001D02*
X167169999Y-96970001D01*
X167169999Y-107250001D02*
X172369999Y-107250001D01*
X167169999Y-96970001D02*
X168499999Y-96970001D01*
X167169999Y-99570001D02*
X169769999Y-99570001D01*
X167169999Y-99570001D02*
X167169999Y-107250001D01*
X169769999Y-99570001D02*
X169769999Y-96970001D01*
%TO.C,C2*%
X192261252Y-169235000D02*
X191738748Y-169235000D01*
X192261252Y-167765000D02*
X191738748Y-167765000D01*
%TO.C,C1*%
X212088748Y-163235000D02*
X212611252Y-163235000D01*
X212088748Y-161765000D02*
X212611252Y-161765000D01*
%TO.C,R2*%
X206675242Y-167977500D02*
X207149758Y-167977500D01*
X206675242Y-169022500D02*
X207149758Y-169022500D01*
%TO.C,U5*%
X194700000Y-105840000D02*
X196650000Y-105840000D01*
X194700000Y-105840000D02*
X191250000Y-105840000D01*
X194700000Y-110960000D02*
X196650000Y-110960000D01*
X194700000Y-110960000D02*
X192750000Y-110960000D01*
%TO.C,R10*%
X224012742Y-180022500D02*
X224487258Y-180022500D01*
X224012742Y-178977500D02*
X224487258Y-178977500D01*
%TO.C,R13*%
X221987258Y-123022500D02*
X221512742Y-123022500D01*
X221987258Y-121977500D02*
X221512742Y-121977500D01*
%TO.C,U2*%
X209000000Y-117190000D02*
X205550000Y-117190000D01*
X209000000Y-122310000D02*
X207050000Y-122310000D01*
X209000000Y-122310000D02*
X210950000Y-122310000D01*
X209000000Y-117190000D02*
X210950000Y-117190000D01*
%TO.C,D8*%
X183850000Y-97650000D02*
X181300000Y-97650000D01*
X183850000Y-97650000D02*
X183850000Y-95950000D01*
X183850000Y-95950000D02*
X181300000Y-95950000D01*
%TO.C,U4*%
X204085000Y-108900000D02*
X204085000Y-114025000D01*
X212675000Y-107400000D02*
X212675000Y-108900000D01*
X212675000Y-108900000D02*
X210865000Y-108900000D01*
X202275000Y-107400000D02*
X202275000Y-108900000D01*
X202275000Y-108900000D02*
X204085000Y-108900000D01*
X210865000Y-108900000D02*
X210865000Y-110000000D01*
%TO.C,D9*%
X178100000Y-106100000D02*
X178100000Y-109400000D01*
X178100000Y-106100000D02*
X183500000Y-106100000D01*
X178100000Y-109400000D02*
X183500000Y-109400000D01*
%TO.C,JP1*%
X211730000Y-182670000D02*
X211730000Y-185330000D01*
X206590000Y-182670000D02*
X206590000Y-185330000D01*
X214330000Y-182670000D02*
X214330000Y-184000000D01*
X213000000Y-182670000D02*
X214330000Y-182670000D01*
X211730000Y-182670000D02*
X206590000Y-182670000D01*
X211730000Y-185330000D02*
X206590000Y-185330000D01*
%TO.C,D4*%
X182000000Y-122150000D02*
X184550000Y-122150000D01*
X182000000Y-122150000D02*
X182000000Y-123850000D01*
X182000000Y-123850000D02*
X184550000Y-123850000D01*
%TO.C,C8*%
X195461252Y-112065000D02*
X194938748Y-112065000D01*
X195461252Y-113535000D02*
X194938748Y-113535000D01*
%TO.C,C7*%
X214265000Y-111061252D02*
X214265000Y-110538748D01*
X215735000Y-111061252D02*
X215735000Y-110538748D01*
%TO.C,D6*%
X207150000Y-190000000D02*
X207150000Y-192550000D01*
X208850000Y-190000000D02*
X207150000Y-190000000D01*
X208850000Y-190000000D02*
X208850000Y-192550000D01*
%TO.C,D3*%
X180400000Y-124650000D02*
X175000000Y-124650000D01*
X180400000Y-124650000D02*
X180400000Y-121350000D01*
X180400000Y-121350000D02*
X175000000Y-121350000D01*
%TO.C,C5*%
X177240000Y-117195563D02*
X177240000Y-112740000D01*
X178002500Y-118812500D02*
X178627500Y-118812500D01*
X178315000Y-119125000D02*
X178315000Y-118500000D01*
X178304437Y-118260000D02*
X178940000Y-118260000D01*
X182760000Y-112740000D02*
X181060000Y-112740000D01*
X177240000Y-112740000D02*
X178940000Y-112740000D01*
X181695563Y-118260000D02*
X181060000Y-118260000D01*
X178304437Y-118260000D02*
X177240000Y-117195563D01*
X181695563Y-118260000D02*
X182760000Y-117195563D01*
X182760000Y-117195563D02*
X182760000Y-112740000D01*
%TO.C,R11*%
X224487258Y-175022500D02*
X224012742Y-175022500D01*
X224487258Y-173977500D02*
X224012742Y-173977500D01*
%TO.C,D7*%
X184850000Y-98400000D02*
X179450000Y-98400000D01*
X184850000Y-101700000D02*
X184850000Y-98400000D01*
X184850000Y-101700000D02*
X179450000Y-101700000D01*
%TO.C,D10*%
X181000000Y-103650000D02*
X181000000Y-105350000D01*
X181000000Y-103650000D02*
X183550000Y-103650000D01*
X181000000Y-105350000D02*
X183550000Y-105350000D01*
%TO.C,U1*%
X190100742Y-125269258D02*
X190100742Y-155269258D01*
X190100742Y-165269258D02*
X190100742Y-158269258D01*
X208900742Y-125269258D02*
X190100742Y-125269258D01*
X208900742Y-165269258D02*
X190100742Y-165269258D01*
X208900742Y-125269258D02*
X208900742Y-132269258D01*
X208900742Y-135269258D02*
X208900742Y-165269258D01*
D14*
X212600000Y-125219258D02*
G75*
G03*
X212600000Y-125219258I-299258J0D01*
G01*
D13*
%TO.C,R9*%
X224912258Y-172522500D02*
X224437742Y-172522500D01*
X224912258Y-171477500D02*
X224437742Y-171477500D01*
%TO.C,R1*%
X203262742Y-169022500D02*
X203737258Y-169022500D01*
X203262742Y-167977500D02*
X203737258Y-167977500D01*
%TO.C,D5*%
X208900000Y-186350000D02*
X203500000Y-186350000D01*
X208900000Y-189650000D02*
X203500000Y-189650000D01*
X208900000Y-189650000D02*
X208900000Y-186350000D01*
%TO.C,R14*%
X174737258Y-195727500D02*
X174262742Y-195727500D01*
X174737258Y-196772500D02*
X174262742Y-196772500D01*
%TO.C,R7*%
X194087258Y-104227500D02*
X193612742Y-104227500D01*
X194087258Y-105272500D02*
X193612742Y-105272500D01*
%TO.C,R3*%
X175737257Y-177522501D02*
X175262741Y-177522501D01*
X175737257Y-176477501D02*
X175262741Y-176477501D01*
%TO.C,J1*%
X228169999Y-96970001D02*
X229499999Y-96970001D01*
X228169999Y-99570001D02*
X230769999Y-99570001D01*
X233369999Y-96970001D02*
X233369999Y-107250001D01*
X228169999Y-107250001D02*
X233369999Y-107250001D01*
X230769999Y-96970001D02*
X233369999Y-96970001D01*
X228169999Y-98300001D02*
X228169999Y-96970001D01*
X228169999Y-99570001D02*
X228169999Y-107250001D01*
X230769999Y-99570001D02*
X230769999Y-96970001D01*
%TO.C,C4*%
X195111252Y-120665000D02*
X194588748Y-120665000D01*
X195111252Y-122135000D02*
X194588748Y-122135000D01*
%TO.C,J3*%
X204330000Y-182670000D02*
X204330000Y-184000000D01*
X201730000Y-182670000D02*
X201730000Y-185330000D01*
X203000000Y-182670000D02*
X204330000Y-182670000D01*
X201730000Y-182670000D02*
X199130000Y-182670000D01*
X201730000Y-185330000D02*
X199130000Y-185330000D01*
X199130000Y-182670000D02*
X199130000Y-185330000D01*
%TO.C,R12*%
X224012742Y-177522500D02*
X224487258Y-177522500D01*
X224012742Y-176477500D02*
X224487258Y-176477500D01*
%TO.C,R15*%
X224487258Y-192772500D02*
X224012742Y-192772500D01*
X224487258Y-191727500D02*
X224012742Y-191727500D01*
%TO.C,R8*%
X226012742Y-180477500D02*
X226487258Y-180477500D01*
X226012742Y-181522500D02*
X226487258Y-181522500D01*
%TO.C,R4*%
X188177064Y-117015000D02*
X187722936Y-117015000D01*
X188177064Y-118485000D02*
X187722936Y-118485000D01*
%TO.C,C6*%
X201235000Y-109211252D02*
X201235000Y-108688748D01*
X199765000Y-109211252D02*
X199765000Y-108688748D01*
%TO.C,C3*%
X214985000Y-121011252D02*
X214985000Y-120488748D01*
X213515000Y-121011252D02*
X213515000Y-120488748D01*
%TD*%
M02*
