%TF.GenerationSoftware,KiCad,Pcbnew,(6.0.7-1)-1*%
%TF.CreationDate,2022-08-23T13:11:12-05:00*%
%TF.ProjectId,NR1B-ST56,4e523142-2d53-4543-9536-2e6b69636164,rev?*%
%TF.SameCoordinates,Original*%
%TF.FileFunction,Soldermask,Bot*%
%TF.FilePolarity,Negative*%
%FSLAX46Y46*%
G04 Gerber Fmt 4.6, Leading zero omitted, Abs format (unit mm)*
G04 Created by KiCad (PCBNEW (6.0.7-1)-1) date 2022-08-23 13:11:12*
%MOMM*%
%LPD*%
G01*
G04 APERTURE LIST*
G04 Aperture macros list*
%AMRoundRect*
0 Rectangle with rounded corners*
0 $1 Rounding radius*
0 $2 $3 $4 $5 $6 $7 $8 $9 X,Y pos of 4 corners*
0 Add a 4 corners polygon primitive as box body*
4,1,4,$2,$3,$4,$5,$6,$7,$8,$9,$2,$3,0*
0 Add four circle primitives for the rounded corners*
1,1,$1+$1,$2,$3*
1,1,$1+$1,$4,$5*
1,1,$1+$1,$6,$7*
1,1,$1+$1,$8,$9*
0 Add four rect primitives between the rounded corners*
20,1,$1+$1,$2,$3,$4,$5,0*
20,1,$1+$1,$4,$5,$6,$7,0*
20,1,$1+$1,$6,$7,$8,$9,0*
20,1,$1+$1,$8,$9,$2,$3,0*%
G04 Aperture macros list end*
%ADD10RoundRect,0.050800X-0.850000X-0.850000X0.850000X-0.850000X0.850000X0.850000X-0.850000X0.850000X0*%
%ADD11O,1.801600X1.801600*%
%ADD12RoundRect,0.050800X-0.850000X0.850000X-0.850000X-0.850000X0.850000X-0.850000X0.850000X0.850000X0*%
%ADD13C,1.101600*%
%ADD14RoundRect,0.050800X-0.600000X0.600000X-0.600000X-0.600000X0.600000X-0.600000X0.600000X0.600000X0*%
%ADD15C,1.301600*%
%ADD16C,3.101600*%
%ADD17C,1.801600*%
G04 APERTURE END LIST*
D10*
%TO.C,J2*%
X168499999Y-98300001D03*
D11*
X171039999Y-98300001D03*
X168499999Y-100840001D03*
X171039999Y-100840001D03*
X168499999Y-103380001D03*
X171039999Y-103380001D03*
X168499999Y-105920001D03*
X171039999Y-105920001D03*
%TD*%
D12*
%TO.C,JP1*%
X213000000Y-184000000D03*
D11*
X210460000Y-184000000D03*
X207920000Y-184000000D03*
%TD*%
D13*
%TO.C,U1*%
X190625742Y-156759258D03*
X208475742Y-133759258D03*
D14*
X206300742Y-133269258D03*
D15*
X205800742Y-129969258D03*
X205300742Y-126669258D03*
X204800742Y-133269258D03*
X204300742Y-129969258D03*
X203800742Y-126669258D03*
X203300742Y-133269258D03*
X202800742Y-129969258D03*
X202300742Y-126669258D03*
X201800742Y-133269258D03*
X201300742Y-129969258D03*
X200800742Y-126669258D03*
X200300742Y-133269258D03*
X199800742Y-129969258D03*
X199300742Y-126669258D03*
X198800742Y-133269258D03*
X198300742Y-129969258D03*
X197800742Y-126669258D03*
X197300742Y-133269258D03*
X196800742Y-129969258D03*
X196300742Y-126669258D03*
X195800742Y-133269258D03*
X195300742Y-129969258D03*
X194800742Y-126669258D03*
X194300742Y-133269258D03*
X193800742Y-129969258D03*
X193300742Y-126669258D03*
X192800742Y-133269258D03*
X192800742Y-163849258D03*
X193300742Y-157249258D03*
X193800742Y-160549258D03*
X194300742Y-163849258D03*
X194800742Y-157249258D03*
X195300742Y-160549258D03*
X195800742Y-163849258D03*
X196300742Y-157249258D03*
X196800742Y-160549258D03*
X197300742Y-163849258D03*
X197800742Y-157249258D03*
X198300742Y-160549258D03*
X198800742Y-163849258D03*
X199300742Y-157249258D03*
X199800742Y-160549258D03*
X200300742Y-163849258D03*
X200800742Y-157249258D03*
X201300742Y-160549258D03*
X201800742Y-163849258D03*
X202300742Y-157249258D03*
X202800742Y-160549258D03*
X203300742Y-163849258D03*
X203800742Y-157249258D03*
X204300742Y-160549258D03*
X204800742Y-163849258D03*
X205300742Y-157249258D03*
X205800742Y-160549258D03*
X206300742Y-163849258D03*
%TD*%
D10*
%TO.C,J1*%
X229499999Y-98300001D03*
D11*
X232039999Y-98300001D03*
X229499999Y-100840001D03*
X232039999Y-100840001D03*
X229499999Y-103380001D03*
X232039999Y-103380001D03*
X229499999Y-105920001D03*
X232039999Y-105920001D03*
%TD*%
D12*
%TO.C,J3*%
X203000000Y-184000000D03*
D11*
X200460000Y-184000000D03*
%TD*%
D16*
%TO.C,X1*%
X177389999Y-183390001D03*
X224399999Y-108500001D03*
X176119999Y-107190001D03*
X223099999Y-183400001D03*
D17*
X168499999Y-111000001D03*
X171039999Y-111000001D03*
X168499999Y-113540001D03*
X171039999Y-113540001D03*
X168499999Y-116080001D03*
X171039999Y-116080001D03*
X168499999Y-118620001D03*
X171039999Y-118620001D03*
X168499999Y-121160001D03*
X171039999Y-121160001D03*
X168499999Y-123700001D03*
X171039999Y-123700001D03*
X168499999Y-126240001D03*
X171039999Y-126240001D03*
X168499999Y-128780001D03*
X171039999Y-128780001D03*
X168499999Y-131320001D03*
X171039999Y-131320001D03*
X168499999Y-133860001D03*
X171039999Y-133860001D03*
X168499999Y-136400001D03*
X171039999Y-136400001D03*
X168499999Y-138940001D03*
X171039999Y-138940001D03*
X168499999Y-141480001D03*
X171039999Y-141480001D03*
X168499999Y-144020001D03*
X171039999Y-144020001D03*
X168499999Y-146560001D03*
X171039999Y-146560001D03*
X168499999Y-149100001D03*
X171039999Y-149100001D03*
X168499999Y-151640001D03*
X171039999Y-151640001D03*
X168499999Y-154180001D03*
X171039999Y-154180001D03*
X168499999Y-156720001D03*
X171039999Y-156720001D03*
X168499999Y-159260001D03*
X171039999Y-159260001D03*
X168499999Y-161800001D03*
X171039999Y-161800001D03*
X168499999Y-164340001D03*
X171039999Y-164340001D03*
X168499999Y-166880001D03*
X171039999Y-166880001D03*
X168499999Y-169420001D03*
X171039999Y-169420001D03*
X168499999Y-171960001D03*
X171039999Y-171960001D03*
X168499999Y-174500001D03*
X171039999Y-174500001D03*
X168499999Y-177040001D03*
X171039999Y-177040001D03*
X168499999Y-179580001D03*
X171039999Y-179580001D03*
X168499999Y-182120001D03*
X171039999Y-182120001D03*
X168499999Y-184660001D03*
X171039999Y-184660001D03*
X168499999Y-187200001D03*
X171039999Y-187200001D03*
X168499999Y-189740001D03*
X171039999Y-189740001D03*
X168499999Y-192280001D03*
X171039999Y-192280001D03*
X168499999Y-194820001D03*
X171039999Y-194820001D03*
X168499999Y-197360001D03*
X171039999Y-197360001D03*
X168499999Y-199900001D03*
X171039999Y-199900001D03*
X229459999Y-111000001D03*
X231999999Y-111000001D03*
X229459999Y-113540001D03*
X231999999Y-113540001D03*
X229459999Y-116080001D03*
X231999999Y-116080001D03*
X229459999Y-118620001D03*
X231999999Y-118620001D03*
X229459999Y-121160001D03*
X231999999Y-121160001D03*
X229459999Y-123700001D03*
X231999999Y-123700001D03*
X229459999Y-126240001D03*
X231999999Y-126240001D03*
X229459999Y-128780001D03*
X231999999Y-128780001D03*
X229459999Y-131320001D03*
X231999999Y-131320001D03*
X229459999Y-133860001D03*
X231999999Y-133860001D03*
X229459999Y-136400001D03*
X231999999Y-136400001D03*
X229459999Y-138940001D03*
X231999999Y-138940001D03*
X229459999Y-141480001D03*
X231999999Y-141480001D03*
X229459999Y-144020001D03*
X231999999Y-144020001D03*
X229459999Y-146560001D03*
X231999999Y-146560001D03*
X229459999Y-149100001D03*
X231999999Y-149100001D03*
X229459999Y-151640001D03*
X231999999Y-151640001D03*
X229459999Y-154180001D03*
X231999999Y-154180001D03*
X229459999Y-156720001D03*
X231999999Y-156720001D03*
X229459999Y-159260001D03*
X231999999Y-159260001D03*
X229459999Y-161800001D03*
X231999999Y-161800001D03*
X229459999Y-164340001D03*
X231999999Y-164340001D03*
X229459999Y-166880001D03*
X231999999Y-166880001D03*
X229459999Y-169420001D03*
X231999999Y-169420001D03*
X229459999Y-171960001D03*
X231999999Y-171960001D03*
X229459999Y-174500001D03*
X231999999Y-174500001D03*
X229459999Y-177040001D03*
X231999999Y-177040001D03*
X229459999Y-179580001D03*
X231999999Y-179580001D03*
X229459999Y-182120001D03*
X231999999Y-182120001D03*
X229459999Y-184660001D03*
X231999999Y-184660001D03*
X229459999Y-187200001D03*
X231999999Y-187200001D03*
X229459999Y-189740001D03*
X231999999Y-189740001D03*
X229459999Y-192280001D03*
X231999999Y-192280001D03*
X229459999Y-194820001D03*
X231999999Y-194820001D03*
X229459999Y-197360001D03*
X231999999Y-197360001D03*
X229459999Y-199900001D03*
X231999999Y-199900001D03*
X168499999Y-83060001D03*
X168499999Y-85600001D03*
X231999999Y-83060001D03*
X231999999Y-85600001D03*
%TD*%
M02*
