%TF.GenerationSoftware,KiCad,Pcbnew,(6.0.7-1)-1*%
%TF.CreationDate,2022-08-23T13:11:12-05:00*%
%TF.ProjectId,NR1B-ST56,4e523142-2d53-4543-9536-2e6b69636164,rev?*%
%TF.SameCoordinates,Original*%
%TF.FileFunction,Soldermask,Top*%
%TF.FilePolarity,Negative*%
%FSLAX46Y46*%
G04 Gerber Fmt 4.6, Leading zero omitted, Abs format (unit mm)*
G04 Created by KiCad (PCBNEW (6.0.7-1)-1) date 2022-08-23 13:11:12*
%MOMM*%
%LPD*%
G01*
G04 APERTURE LIST*
G04 Aperture macros list*
%AMRoundRect*
0 Rectangle with rounded corners*
0 $1 Rounding radius*
0 $2 $3 $4 $5 $6 $7 $8 $9 X,Y pos of 4 corners*
0 Add a 4 corners polygon primitive as box body*
4,1,4,$2,$3,$4,$5,$6,$7,$8,$9,$2,$3,0*
0 Add four circle primitives for the rounded corners*
1,1,$1+$1,$2,$3*
1,1,$1+$1,$4,$5*
1,1,$1+$1,$6,$7*
1,1,$1+$1,$8,$9*
0 Add four rect primitives between the rounded corners*
20,1,$1+$1,$2,$3,$4,$5,0*
20,1,$1+$1,$4,$5,$6,$7,0*
20,1,$1+$1,$6,$7,$8,$9,0*
20,1,$1+$1,$8,$9,$2,$3,0*%
G04 Aperture macros list end*
%ADD10RoundRect,0.200800X-0.825000X-0.150000X0.825000X-0.150000X0.825000X0.150000X-0.825000X0.150000X0*%
%ADD11RoundRect,0.250800X-0.200000X-0.275000X0.200000X-0.275000X0.200000X0.275000X-0.200000X0.275000X0*%
%ADD12RoundRect,0.300800X-0.450000X0.262500X-0.450000X-0.262500X0.450000X-0.262500X0.450000X0.262500X0*%
%ADD13RoundRect,0.050800X-0.850000X-0.850000X0.850000X-0.850000X0.850000X0.850000X-0.850000X0.850000X0*%
%ADD14O,1.801600X1.801600*%
%ADD15RoundRect,0.300800X0.250000X0.475000X-0.250000X0.475000X-0.250000X-0.475000X0.250000X-0.475000X0*%
%ADD16RoundRect,0.300800X-0.250000X-0.475000X0.250000X-0.475000X0.250000X0.475000X-0.250000X0.475000X0*%
%ADD17RoundRect,0.250800X0.200000X0.275000X-0.200000X0.275000X-0.200000X-0.275000X0.200000X-0.275000X0*%
%ADD18RoundRect,0.050800X0.300000X0.225000X-0.300000X0.225000X-0.300000X-0.225000X0.300000X-0.225000X0*%
%ADD19RoundRect,0.050800X0.550000X-2.300000X0.550000X2.300000X-0.550000X2.300000X-0.550000X-2.300000X0*%
%ADD20RoundRect,0.050800X5.400000X-4.700000X5.400000X4.700000X-5.400000X4.700000X-5.400000X-4.700000X0*%
%ADD21RoundRect,0.050800X-1.250000X-0.900000X1.250000X-0.900000X1.250000X0.900000X-1.250000X0.900000X0*%
%ADD22RoundRect,0.050800X-0.850000X0.850000X-0.850000X-0.850000X0.850000X-0.850000X0.850000X0.850000X0*%
%ADD23C,1.000000*%
%ADD24RoundRect,0.050800X-0.300000X-0.225000X0.300000X-0.225000X0.300000X0.225000X-0.300000X0.225000X0*%
%ADD25RoundRect,0.300800X0.475000X-0.250000X0.475000X0.250000X-0.475000X0.250000X-0.475000X-0.250000X0*%
%ADD26RoundRect,0.050800X-0.225000X0.300000X-0.225000X-0.300000X0.225000X-0.300000X0.225000X0.300000X0*%
%ADD27RoundRect,0.050800X1.250000X0.900000X-1.250000X0.900000X-1.250000X-0.900000X1.250000X-0.900000X0*%
%ADD28RoundRect,0.300800X0.550000X-1.250000X0.550000X1.250000X-0.550000X1.250000X-0.550000X-1.250000X0*%
%ADD29C,1.101600*%
%ADD30RoundRect,0.050800X-0.600000X0.600000X-0.600000X-0.600000X0.600000X-0.600000X0.600000X0.600000X0*%
%ADD31C,1.301600*%
%ADD32C,3.101600*%
%ADD33C,1.801600*%
%ADD34RoundRect,0.300800X0.262500X0.450000X-0.262500X0.450000X-0.262500X-0.450000X0.262500X-0.450000X0*%
G04 APERTURE END LIST*
D10*
%TO.C,U3*%
X192150000Y-115060000D03*
X192150000Y-116330000D03*
X192150000Y-117600000D03*
X192150000Y-118870000D03*
X197100000Y-118870000D03*
X197100000Y-117600000D03*
X197100000Y-116330000D03*
X197100000Y-115060000D03*
%TD*%
D11*
%TO.C,R6*%
X196125000Y-104750000D03*
X197775000Y-104750000D03*
%TD*%
D12*
%TO.C,R5*%
X198750000Y-96587500D03*
X198750000Y-98412500D03*
%TD*%
D13*
%TO.C,J2*%
X168499999Y-98300001D03*
D14*
X171039999Y-98300001D03*
X168499999Y-100840001D03*
X171039999Y-100840001D03*
X168499999Y-103380001D03*
X171039999Y-103380001D03*
X168499999Y-105920001D03*
X171039999Y-105920001D03*
%TD*%
D15*
%TO.C,C2*%
X192950000Y-168500000D03*
X191050000Y-168500000D03*
%TD*%
D16*
%TO.C,C1*%
X211400000Y-162500000D03*
X213300000Y-162500000D03*
%TD*%
D11*
%TO.C,R2*%
X206087500Y-168500000D03*
X207737500Y-168500000D03*
%TD*%
D10*
%TO.C,U5*%
X192225000Y-106495000D03*
X192225000Y-107765000D03*
X192225000Y-109035000D03*
X192225000Y-110305000D03*
X197175000Y-110305000D03*
X197175000Y-109035000D03*
X197175000Y-107765000D03*
X197175000Y-106495000D03*
%TD*%
D11*
%TO.C,R10*%
X223425000Y-179500000D03*
X225075000Y-179500000D03*
%TD*%
D17*
%TO.C,R13*%
X222575000Y-122500000D03*
X220925000Y-122500000D03*
%TD*%
D10*
%TO.C,U2*%
X206525000Y-117845000D03*
X206525000Y-119115000D03*
X206525000Y-120385000D03*
X206525000Y-121655000D03*
X211475000Y-121655000D03*
X211475000Y-120385000D03*
X211475000Y-119115000D03*
X211475000Y-117845000D03*
%TD*%
D18*
%TO.C,D8*%
X183400000Y-96800000D03*
X181300000Y-96800000D03*
%TD*%
D19*
%TO.C,U4*%
X204935000Y-111725000D03*
X207475000Y-111725000D03*
D20*
X207475000Y-102575000D03*
D19*
X210015000Y-111725000D03*
%TD*%
D21*
%TO.C,D9*%
X179500000Y-107750000D03*
X183500000Y-107750000D03*
%TD*%
D22*
%TO.C,JP1*%
X213000000Y-184000000D03*
D14*
X210460000Y-184000000D03*
X207920000Y-184000000D03*
%TD*%
D23*
%TO.C,FID2*%
X234000000Y-80500000D03*
%TD*%
D24*
%TO.C,D4*%
X182450000Y-123000000D03*
X184550000Y-123000000D03*
%TD*%
D15*
%TO.C,C8*%
X196150000Y-112800000D03*
X194250000Y-112800000D03*
%TD*%
D25*
%TO.C,C7*%
X215000000Y-111750000D03*
X215000000Y-109850000D03*
%TD*%
D26*
%TO.C,D6*%
X208000000Y-190450000D03*
X208000000Y-192550000D03*
%TD*%
D27*
%TO.C,D3*%
X179000000Y-123000000D03*
X175000000Y-123000000D03*
%TD*%
D28*
%TO.C,C5*%
X180000000Y-117700000D03*
X180000000Y-113300000D03*
%TD*%
D23*
%TO.C,FID1*%
X166500000Y-80500000D03*
%TD*%
D17*
%TO.C,R11*%
X225075000Y-174500000D03*
X223425000Y-174500000D03*
%TD*%
D27*
%TO.C,D7*%
X183450000Y-100050000D03*
X179450000Y-100050000D03*
%TD*%
D24*
%TO.C,D10*%
X181450000Y-104500000D03*
X183550000Y-104500000D03*
%TD*%
D29*
%TO.C,U1*%
X190625742Y-156759258D03*
X208475742Y-133759258D03*
D30*
X206300742Y-133269258D03*
D31*
X205800742Y-129969258D03*
X205300742Y-126669258D03*
X204800742Y-133269258D03*
X204300742Y-129969258D03*
X203800742Y-126669258D03*
X203300742Y-133269258D03*
X202800742Y-129969258D03*
X202300742Y-126669258D03*
X201800742Y-133269258D03*
X201300742Y-129969258D03*
X200800742Y-126669258D03*
X200300742Y-133269258D03*
X199800742Y-129969258D03*
X199300742Y-126669258D03*
X198800742Y-133269258D03*
X198300742Y-129969258D03*
X197800742Y-126669258D03*
X197300742Y-133269258D03*
X196800742Y-129969258D03*
X196300742Y-126669258D03*
X195800742Y-133269258D03*
X195300742Y-129969258D03*
X194800742Y-126669258D03*
X194300742Y-133269258D03*
X193800742Y-129969258D03*
X193300742Y-126669258D03*
X192800742Y-133269258D03*
X192800742Y-163849258D03*
X193300742Y-157249258D03*
X193800742Y-160549258D03*
X194300742Y-163849258D03*
X194800742Y-157249258D03*
X195300742Y-160549258D03*
X195800742Y-163849258D03*
X196300742Y-157249258D03*
X196800742Y-160549258D03*
X197300742Y-163849258D03*
X197800742Y-157249258D03*
X198300742Y-160549258D03*
X198800742Y-163849258D03*
X199300742Y-157249258D03*
X199800742Y-160549258D03*
X200300742Y-163849258D03*
X200800742Y-157249258D03*
X201300742Y-160549258D03*
X201800742Y-163849258D03*
X202300742Y-157249258D03*
X202800742Y-160549258D03*
X203300742Y-163849258D03*
X203800742Y-157249258D03*
X204300742Y-160549258D03*
X204800742Y-163849258D03*
X205300742Y-157249258D03*
X205800742Y-160549258D03*
X206300742Y-163849258D03*
%TD*%
D17*
%TO.C,R9*%
X225500000Y-172000000D03*
X223850000Y-172000000D03*
%TD*%
D11*
%TO.C,R1*%
X202675000Y-168500000D03*
X204325000Y-168500000D03*
%TD*%
D27*
%TO.C,D5*%
X207500000Y-188000000D03*
X203500000Y-188000000D03*
%TD*%
D17*
%TO.C,R14*%
X175325000Y-196250000D03*
X173675000Y-196250000D03*
%TD*%
%TO.C,R7*%
X194675000Y-104750000D03*
X193025000Y-104750000D03*
%TD*%
%TO.C,R3*%
X176324999Y-177000001D03*
X174674999Y-177000001D03*
%TD*%
D23*
%TO.C,FID3*%
X234000000Y-211500000D03*
%TD*%
D13*
%TO.C,J1*%
X229499999Y-98300001D03*
D14*
X232039999Y-98300001D03*
X229499999Y-100840001D03*
X232039999Y-100840001D03*
X229499999Y-103380001D03*
X232039999Y-103380001D03*
X229499999Y-105920001D03*
X232039999Y-105920001D03*
%TD*%
D15*
%TO.C,C4*%
X195800000Y-121400000D03*
X193900000Y-121400000D03*
%TD*%
D22*
%TO.C,J3*%
X203000000Y-184000000D03*
D14*
X200460000Y-184000000D03*
%TD*%
D11*
%TO.C,R12*%
X223425000Y-177000000D03*
X225075000Y-177000000D03*
%TD*%
D17*
%TO.C,R15*%
X225075000Y-192250000D03*
X223425000Y-192250000D03*
%TD*%
D11*
%TO.C,R8*%
X225425000Y-181000000D03*
X227075000Y-181000000D03*
%TD*%
D32*
%TO.C,X1*%
X177389999Y-183390001D03*
X224399999Y-108500001D03*
X176119999Y-107190001D03*
X223099999Y-183400001D03*
D33*
X168499999Y-111000001D03*
X171039999Y-111000001D03*
X168499999Y-113540001D03*
X171039999Y-113540001D03*
X168499999Y-116080001D03*
X171039999Y-116080001D03*
X168499999Y-118620001D03*
X171039999Y-118620001D03*
X168499999Y-121160001D03*
X171039999Y-121160001D03*
X168499999Y-123700001D03*
X171039999Y-123700001D03*
X168499999Y-126240001D03*
X171039999Y-126240001D03*
X168499999Y-128780001D03*
X171039999Y-128780001D03*
X168499999Y-131320001D03*
X171039999Y-131320001D03*
X168499999Y-133860001D03*
X171039999Y-133860001D03*
X168499999Y-136400001D03*
X171039999Y-136400001D03*
X168499999Y-138940001D03*
X171039999Y-138940001D03*
X168499999Y-141480001D03*
X171039999Y-141480001D03*
X168499999Y-144020001D03*
X171039999Y-144020001D03*
X168499999Y-146560001D03*
X171039999Y-146560001D03*
X168499999Y-149100001D03*
X171039999Y-149100001D03*
X168499999Y-151640001D03*
X171039999Y-151640001D03*
X168499999Y-154180001D03*
X171039999Y-154180001D03*
X168499999Y-156720001D03*
X171039999Y-156720001D03*
X168499999Y-159260001D03*
X171039999Y-159260001D03*
X168499999Y-161800001D03*
X171039999Y-161800001D03*
X168499999Y-164340001D03*
X171039999Y-164340001D03*
X168499999Y-166880001D03*
X171039999Y-166880001D03*
X168499999Y-169420001D03*
X171039999Y-169420001D03*
X168499999Y-171960001D03*
X171039999Y-171960001D03*
X168499999Y-174500001D03*
X171039999Y-174500001D03*
X168499999Y-177040001D03*
X171039999Y-177040001D03*
X168499999Y-179580001D03*
X171039999Y-179580001D03*
X168499999Y-182120001D03*
X171039999Y-182120001D03*
X168499999Y-184660001D03*
X171039999Y-184660001D03*
X168499999Y-187200001D03*
X171039999Y-187200001D03*
X168499999Y-189740001D03*
X171039999Y-189740001D03*
X168499999Y-192280001D03*
X171039999Y-192280001D03*
X168499999Y-194820001D03*
X171039999Y-194820001D03*
X168499999Y-197360001D03*
X171039999Y-197360001D03*
X168499999Y-199900001D03*
X171039999Y-199900001D03*
X229459999Y-111000001D03*
X231999999Y-111000001D03*
X229459999Y-113540001D03*
X231999999Y-113540001D03*
X229459999Y-116080001D03*
X231999999Y-116080001D03*
X229459999Y-118620001D03*
X231999999Y-118620001D03*
X229459999Y-121160001D03*
X231999999Y-121160001D03*
X229459999Y-123700001D03*
X231999999Y-123700001D03*
X229459999Y-126240001D03*
X231999999Y-126240001D03*
X229459999Y-128780001D03*
X231999999Y-128780001D03*
X229459999Y-131320001D03*
X231999999Y-131320001D03*
X229459999Y-133860001D03*
X231999999Y-133860001D03*
X229459999Y-136400001D03*
X231999999Y-136400001D03*
X229459999Y-138940001D03*
X231999999Y-138940001D03*
X229459999Y-141480001D03*
X231999999Y-141480001D03*
X229459999Y-144020001D03*
X231999999Y-144020001D03*
X229459999Y-146560001D03*
X231999999Y-146560001D03*
X229459999Y-149100001D03*
X231999999Y-149100001D03*
X229459999Y-151640001D03*
X231999999Y-151640001D03*
X229459999Y-154180001D03*
X231999999Y-154180001D03*
X229459999Y-156720001D03*
X231999999Y-156720001D03*
X229459999Y-159260001D03*
X231999999Y-159260001D03*
X229459999Y-161800001D03*
X231999999Y-161800001D03*
X229459999Y-164340001D03*
X231999999Y-164340001D03*
X229459999Y-166880001D03*
X231999999Y-166880001D03*
X229459999Y-169420001D03*
X231999999Y-169420001D03*
X229459999Y-171960001D03*
X231999999Y-171960001D03*
X229459999Y-174500001D03*
X231999999Y-174500001D03*
X229459999Y-177040001D03*
X231999999Y-177040001D03*
X229459999Y-179580001D03*
X231999999Y-179580001D03*
X229459999Y-182120001D03*
X231999999Y-182120001D03*
X229459999Y-184660001D03*
X231999999Y-184660001D03*
X229459999Y-187200001D03*
X231999999Y-187200001D03*
X229459999Y-189740001D03*
X231999999Y-189740001D03*
X229459999Y-192280001D03*
X231999999Y-192280001D03*
X229459999Y-194820001D03*
X231999999Y-194820001D03*
X229459999Y-197360001D03*
X231999999Y-197360001D03*
X229459999Y-199900001D03*
X231999999Y-199900001D03*
X168499999Y-83060001D03*
X168499999Y-85600001D03*
X231999999Y-83060001D03*
X231999999Y-85600001D03*
%TD*%
D34*
%TO.C,R4*%
X188862500Y-117750000D03*
X187037500Y-117750000D03*
%TD*%
D25*
%TO.C,C6*%
X200500000Y-109900000D03*
X200500000Y-108000000D03*
%TD*%
%TO.C,C3*%
X214250000Y-121700000D03*
X214250000Y-119800000D03*
%TD*%
M02*
