%TF.GenerationSoftware,KiCad,Pcbnew,(6.0.7-1)-1*%
%TF.CreationDate,2022-08-23T13:11:12-05:00*%
%TF.ProjectId,NR1B-ST56,4e523142-2d53-4543-9536-2e6b69636164,rev?*%
%TF.SameCoordinates,Original*%
%TF.FileFunction,Copper,L4,Bot*%
%TF.FilePolarity,Positive*%
%FSLAX46Y46*%
G04 Gerber Fmt 4.6, Leading zero omitted, Abs format (unit mm)*
G04 Created by KiCad (PCBNEW (6.0.7-1)-1) date 2022-08-23 13:11:12*
%MOMM*%
%LPD*%
G01*
G04 APERTURE LIST*
%TA.AperFunction,ComponentPad*%
%ADD10R,1.700000X1.700000*%
%TD*%
%TA.AperFunction,ComponentPad*%
%ADD11O,1.700000X1.700000*%
%TD*%
%TA.AperFunction,ComponentPad*%
%ADD12R,1.200000X1.200000*%
%TD*%
%TA.AperFunction,ComponentPad*%
%ADD13C,1.200000*%
%TD*%
%TA.AperFunction,ComponentPad*%
%ADD14C,1.700000*%
%TD*%
%TA.AperFunction,ViaPad*%
%ADD15C,0.800000*%
%TD*%
%TA.AperFunction,Conductor*%
%ADD16C,0.400000*%
%TD*%
%TA.AperFunction,Conductor*%
%ADD17C,0.220000*%
%TD*%
G04 APERTURE END LIST*
D10*
%TO.P,J2,1,Pin_1*%
%TO.N,/-15V_IN*%
X168499999Y-98300001D03*
D11*
%TO.P,J2,2,Pin_2*%
%TO.N,/+15V_IN*%
X171039999Y-98300001D03*
%TO.P,J2,3,Pin_3*%
%TO.N,GND*%
X168499999Y-100840001D03*
%TO.P,J2,4,Pin_4*%
X171039999Y-100840001D03*
%TO.P,J2,5,Pin_5*%
%TO.N,unconnected-(J2-Pad5)*%
X168499999Y-103380001D03*
%TO.P,J2,6,Pin_6*%
%TO.N,unconnected-(J2-Pad6)*%
X171039999Y-103380001D03*
%TO.P,J2,7,Pin_7*%
%TO.N,GND*%
X168499999Y-105920001D03*
%TO.P,J2,8,Pin_8*%
%TO.N,unconnected-(J2-Pad8)*%
X171039999Y-105920001D03*
%TD*%
D10*
%TO.P,JP1,1,A*%
%TO.N,VCC*%
X213000000Y-184000000D03*
D11*
%TO.P,JP1,2,C*%
%TO.N,VIO*%
X210460000Y-184000000D03*
%TO.P,JP1,3,B*%
%TO.N,/EVIO*%
X207920000Y-184000000D03*
%TD*%
D12*
%TO.P,U1,1,A23*%
%TO.N,/A23*%
X206300742Y-133269258D03*
D13*
%TO.P,U1,2,A22*%
%TO.N,/A22*%
X205800742Y-129969258D03*
%TO.P,U1,3,A15*%
%TO.N,/A15*%
X205300742Y-126669258D03*
%TO.P,U1,4,A14*%
%TO.N,/A14*%
X204800742Y-133269258D03*
%TO.P,U1,5,A13*%
%TO.N,/A13*%
X204300742Y-129969258D03*
%TO.P,U1,6,A12*%
%TO.N,/A12*%
X203800742Y-126669258D03*
%TO.P,U1,7,A11*%
%TO.N,/A11*%
X203300742Y-133269258D03*
%TO.P,U1,8,A10*%
%TO.N,/A10*%
X202800742Y-129969258D03*
%TO.P,U1,9,A9*%
%TO.N,/A9*%
X202300742Y-126669258D03*
%TO.P,U1,10,A8*%
%TO.N,/A8*%
X201800742Y-133269258D03*
%TO.P,U1,11,A19*%
%TO.N,/A19*%
X201300742Y-129969258D03*
%TO.P,U1,12,A20*%
%TO.N,/A20*%
X200800742Y-126669258D03*
%TO.P,U1,13,~{WE}*%
%TO.N,/~{WE}*%
X200300742Y-133269258D03*
%TO.P,U1,14,~{RESET}*%
%TO.N,/VWL_BUF*%
X199800742Y-129969258D03*
%TO.P,U1,15,A21*%
%TO.N,/A21*%
X199300742Y-126669258D03*
%TO.P,U1,16,~{WP}/ACC*%
%TO.N,/WP_BUF*%
X198800742Y-133269258D03*
%TO.P,U1,17,RY/~{BY}*%
%TO.N,/RY{slash}~{BY}*%
X198300742Y-129969258D03*
%TO.P,U1,18,A18*%
%TO.N,/A18*%
X197800742Y-126669258D03*
%TO.P,U1,19,A17*%
%TO.N,/A17*%
X197300742Y-133269258D03*
%TO.P,U1,20,A7*%
%TO.N,/A7*%
X196800742Y-129969258D03*
%TO.P,U1,21,A6*%
%TO.N,/A6*%
X196300742Y-126669258D03*
%TO.P,U1,22,A5*%
%TO.N,/A5*%
X195800742Y-133269258D03*
%TO.P,U1,23,A4*%
%TO.N,/A4*%
X195300742Y-129969258D03*
%TO.P,U1,24,A3*%
%TO.N,/A3*%
X194800742Y-126669258D03*
%TO.P,U1,25,A2*%
%TO.N,/A2*%
X194300742Y-133269258D03*
%TO.P,U1,26,A1*%
%TO.N,/A1*%
X193800742Y-129969258D03*
%TO.P,U1,27*%
%TO.N,N/C*%
X193300742Y-126669258D03*
%TO.P,U1,28*%
X192800742Y-133269258D03*
%TO.P,U1,29,VIO*%
%TO.N,VIO*%
X192800742Y-163849258D03*
%TO.P,U1,30*%
%TO.N,N/C*%
X193300742Y-157249258D03*
%TO.P,U1,31,A0*%
%TO.N,/A0*%
X193800742Y-160549258D03*
%TO.P,U1,32,~{CE}*%
%TO.N,/~{CE}*%
X194300742Y-163849258D03*
%TO.P,U1,33,VSS*%
%TO.N,GND*%
X194800742Y-157249258D03*
%TO.P,U1,34,~{OE}*%
%TO.N,/~{OE}*%
X195300742Y-160549258D03*
%TO.P,U1,35,DQ0*%
%TO.N,/DQ0*%
X195800742Y-163849258D03*
%TO.P,U1,36,DQ8*%
%TO.N,/DQ8*%
X196300742Y-157249258D03*
%TO.P,U1,37,DQ1*%
%TO.N,/DQ1*%
X196800742Y-160549258D03*
%TO.P,U1,38,DQ9*%
%TO.N,/DQ9*%
X197300742Y-163849258D03*
%TO.P,U1,39,DQ2*%
%TO.N,/DQ2*%
X197800742Y-157249258D03*
%TO.P,U1,40,DQ10*%
%TO.N,/DQ10*%
X198300742Y-160549258D03*
%TO.P,U1,41,DQ3*%
%TO.N,/DQ3*%
X198800742Y-163849258D03*
%TO.P,U1,42,DQ11*%
%TO.N,/DQ11*%
X199300742Y-157249258D03*
%TO.P,U1,43,VCC*%
%TO.N,VCC*%
X199800742Y-160549258D03*
%TO.P,U1,44,DQ4*%
%TO.N,/DQ4*%
X200300742Y-163849258D03*
%TO.P,U1,45,DQ12*%
%TO.N,/DQ12*%
X200800742Y-157249258D03*
%TO.P,U1,46,DQ5*%
%TO.N,/DQ5*%
X201300742Y-160549258D03*
%TO.P,U1,47,DQ13*%
%TO.N,/DQ13*%
X201800742Y-163849258D03*
%TO.P,U1,48,DQ6*%
%TO.N,/DQ6*%
X202300742Y-157249258D03*
%TO.P,U1,49,DQ14*%
%TO.N,/DQ14*%
X202800742Y-160549258D03*
%TO.P,U1,50,DQ7*%
%TO.N,/DQ7*%
X203300742Y-163849258D03*
%TO.P,U1,51,DQ15/A-1*%
%TO.N,/DQ15*%
X203800742Y-157249258D03*
%TO.P,U1,52,VSS*%
%TO.N,GND*%
X204300742Y-160549258D03*
%TO.P,U1,53,~{BYTE}*%
%TO.N,/~{BYTE}*%
X204800742Y-163849258D03*
%TO.P,U1,54,A16*%
%TO.N,/A16*%
X205300742Y-157249258D03*
%TO.P,U1,55,A25*%
%TO.N,/A25*%
X205800742Y-160549258D03*
%TO.P,U1,56,A24*%
%TO.N,/A24*%
X206300742Y-163849258D03*
%TD*%
D10*
%TO.P,J1,1,Pin_1*%
%TO.N,/ANA_WP_SENSE*%
X229499999Y-98300001D03*
D11*
%TO.P,J1,2,Pin_2*%
%TO.N,unconnected-(J1-Pad2)*%
X232039999Y-98300001D03*
%TO.P,J1,3,Pin_3*%
%TO.N,/ANA_WP*%
X229499999Y-100840001D03*
%TO.P,J1,4,Pin_4*%
%TO.N,unconnected-(J1-Pad4)*%
X232039999Y-100840001D03*
%TO.P,J1,5,Pin_5*%
%TO.N,/ANA_VWL_SENSE*%
X229499999Y-103380001D03*
%TO.P,J1,6,Pin_6*%
%TO.N,unconnected-(J1-Pad6)*%
X232039999Y-103380001D03*
%TO.P,J1,7,Pin_7*%
%TO.N,/ANA_VWL*%
X229499999Y-105920001D03*
%TO.P,J1,8,Pin_8*%
%TO.N,unconnected-(J1-Pad8)*%
X232039999Y-105920001D03*
%TD*%
D10*
%TO.P,J3,1,Pin_1*%
%TO.N,/EVIO_IN*%
X203000000Y-184000000D03*
D11*
%TO.P,J3,2,Pin_2*%
%TO.N,GND*%
X200460000Y-184000000D03*
%TD*%
D14*
%TO.P,X1,1,PC10*%
%TO.N,/CE_SW*%
X168499999Y-111000001D03*
%TO.P,X1,2,PC11*%
%TO.N,unconnected-(X1-Pad2)*%
X171039999Y-111000001D03*
%TO.P,X1,3,PC12*%
%TO.N,unconnected-(X1-Pad3)*%
X168499999Y-113540001D03*
%TO.P,X1,4,PD2*%
%TO.N,unconnected-(X1-Pad4)*%
X171039999Y-113540001D03*
%TO.P,X1,5,VDD*%
%TO.N,unconnected-(X1-Pad5)*%
X168499999Y-116080001D03*
%TO.P,X1,6,E5V*%
%TO.N,unconnected-(X1-Pad6)*%
X171039999Y-116080001D03*
%TO.P,X1,7,~{BOOT0}*%
%TO.N,unconnected-(X1-Pad7)*%
X168499999Y-118620001D03*
%TO.P,X1,8,GND*%
%TO.N,GND*%
X171039999Y-118620001D03*
%TO.P,X1,9,PF6*%
%TO.N,unconnected-(X1-Pad9)*%
X168499999Y-121160001D03*
%TO.P,X1,10,NC*%
%TO.N,unconnected-(X1-Pad10)*%
X171039999Y-121160001D03*
%TO.P,X1,11,PF7*%
%TO.N,unconnected-(X1-Pad11)*%
X168499999Y-123700001D03*
%TO.P,X1,12,IOREF*%
%TO.N,unconnected-(X1-Pad12)*%
X171039999Y-123700001D03*
%TO.P,X1,13,TMS/PA13*%
%TO.N,unconnected-(X1-Pad13)*%
X168499999Y-126240001D03*
%TO.P,X1,14,~{RST}*%
%TO.N,unconnected-(X1-Pad14)*%
X171039999Y-126240001D03*
%TO.P,X1,15,TCK/PA14*%
%TO.N,unconnected-(X1-Pad15)*%
X168499999Y-128780001D03*
%TO.P,X1,16,+3V3*%
%TO.N,/VCC_IN*%
X171039999Y-128780001D03*
%TO.P,X1,17,PA15*%
%TO.N,unconnected-(X1-Pad17)*%
X168499999Y-131320001D03*
%TO.P,X1,18,+5V*%
%TO.N,unconnected-(X1-Pad18)*%
X171039999Y-131320001D03*
%TO.P,X1,19,GND*%
%TO.N,GND*%
X168499999Y-133860001D03*
%TO.P,X1,20,GND*%
X171039999Y-133860001D03*
%TO.P,X1,21,LD2/PB7*%
%TO.N,/A25*%
X168499999Y-136400001D03*
%TO.P,X1,22,GND*%
%TO.N,GND*%
X171039999Y-136400001D03*
%TO.P,X1,23,BT/PC13*%
%TO.N,unconnected-(X1-Pad23)*%
X168499999Y-138940001D03*
%TO.P,X1,24,VIN*%
%TO.N,unconnected-(X1-Pad24)*%
X171039999Y-138940001D03*
%TO.P,X1,25,RTC_CRYSTAL/PC14*%
%TO.N,unconnected-(X1-Pad25)*%
X168499999Y-141480001D03*
%TO.P,X1,26,NC*%
%TO.N,unconnected-(X1-Pad26)*%
X171039999Y-141480001D03*
%TO.P,X1,27,RTC_CRYSTAL/PC15*%
%TO.N,unconnected-(X1-Pad27)*%
X168499999Y-144020001D03*
%TO.P,X1,28,ETH_REF_CLK/PA0*%
%TO.N,unconnected-(X1-Pad28)*%
X171039999Y-144020001D03*
%TO.P,X1,29,PH0*%
%TO.N,unconnected-(X1-Pad29)*%
X168499999Y-146560001D03*
%TO.P,X1,30,ETH_MDIO/PA1*%
%TO.N,unconnected-(X1-Pad30)*%
X171039999Y-146560001D03*
%TO.P,X1,31,PH1*%
%TO.N,unconnected-(X1-Pad31)*%
X168499999Y-149100001D03*
%TO.P,X1,32,PA4*%
%TO.N,unconnected-(X1-Pad32)*%
X171039999Y-149100001D03*
%TO.P,X1,33,VBAT*%
%TO.N,unconnected-(X1-Pad33)*%
X168499999Y-151640001D03*
%TO.P,X1,34,PB0*%
%TO.N,unconnected-(X1-Pad34)*%
X171039999Y-151640001D03*
%TO.P,X1,35,PC2*%
%TO.N,unconnected-(X1-Pad35)*%
X168499999Y-154180001D03*
%TO.P,X1,36,ETH_MDC/PC1*%
%TO.N,unconnected-(X1-Pad36)*%
X171039999Y-154180001D03*
%TO.P,X1,37,PC3*%
%TO.N,unconnected-(X1-Pad37)*%
X168499999Y-156720001D03*
%TO.P,X1,38,PC0*%
%TO.N,unconnected-(X1-Pad38)*%
X171039999Y-156720001D03*
%TO.P,X1,39,PD4*%
%TO.N,/~{OE}*%
X168499999Y-159260001D03*
%TO.P,X1,40,PD3*%
%TO.N,unconnected-(X1-Pad40)*%
X171039999Y-159260001D03*
%TO.P,X1,41,PD5*%
%TO.N,/~{WE}*%
X168499999Y-161800001D03*
%TO.P,X1,42,PG2*%
%TO.N,/A11*%
X171039999Y-161800001D03*
%TO.P,X1,43,PD6*%
%TO.N,unconnected-(X1-Pad43)*%
X168499999Y-164340001D03*
%TO.P,X1,44,PG3*%
%TO.N,/A12*%
X171039999Y-164340001D03*
%TO.P,X1,45,PD7*%
%TO.N,unconnected-(X1-Pad45)*%
X168499999Y-166880001D03*
%TO.P,X1,46,PE2*%
%TO.N,/A22*%
X171039999Y-166880001D03*
%TO.P,X1,47,PE3*%
%TO.N,/A18*%
X168499999Y-169420001D03*
%TO.P,X1,48,PE4*%
%TO.N,/A19*%
X171039999Y-169420001D03*
%TO.P,X1,49,GND*%
%TO.N,GND*%
X168499999Y-171960001D03*
%TO.P,X1,50,PE5*%
%TO.N,/A20*%
X171039999Y-171960001D03*
%TO.P,X1,51,PF1*%
%TO.N,/A0*%
X168499999Y-174500001D03*
%TO.P,X1,52,PF2*%
%TO.N,/A1*%
X171039999Y-174500001D03*
%TO.P,X1,53,PF0*%
%TO.N,/A-1*%
X168499999Y-177040001D03*
%TO.P,X1,54,PF8*%
%TO.N,unconnected-(X1-Pad54)*%
X171039999Y-177040001D03*
%TO.P,X1,55,PD1*%
%TO.N,/DQ3*%
X168499999Y-179580001D03*
%TO.P,X1,56,PF9*%
%TO.N,unconnected-(X1-Pad56)*%
X171039999Y-179580001D03*
%TO.P,X1,57,PD0*%
%TO.N,/DQ2*%
X168499999Y-182120001D03*
%TO.P,X1,58,PG1*%
%TO.N,/A10*%
X171039999Y-182120001D03*
%TO.P,X1,59,PG0*%
%TO.N,/A9*%
X168499999Y-184660001D03*
%TO.P,X1,60,GND*%
%TO.N,GND*%
X171039999Y-184660001D03*
%TO.P,X1,61,PE1*%
%TO.N,unconnected-(X1-Pad61)*%
X168499999Y-187200001D03*
%TO.P,X1,62,PE6*%
%TO.N,/A21*%
X171039999Y-187200001D03*
%TO.P,X1,63,PG9*%
%TO.N,unconnected-(X1-Pad63)*%
X168499999Y-189740001D03*
%TO.P,X1,64,PG15*%
%TO.N,unconnected-(X1-Pad64)*%
X171039999Y-189740001D03*
%TO.P,X1,65,PG12*%
%TO.N,unconnected-(X1-Pad65)*%
X168499999Y-192280001D03*
%TO.P,X1,66,PG10*%
%TO.N,unconnected-(X1-Pad66)*%
X171039999Y-192280001D03*
%TO.P,X1,67,NC*%
%TO.N,unconnected-(X1-Pad67)*%
X168499999Y-194820001D03*
%TO.P,X1,68,PG13/ETH_TXD0*%
%TO.N,unconnected-(X1-Pad68)*%
X171039999Y-194820001D03*
%TO.P,X1,69,STLINK_RX/PD9*%
%TO.N,Net-(R14-Pad2)*%
X168499999Y-197360001D03*
%TO.P,X1,70,PG11/ETH_TX_EN*%
%TO.N,unconnected-(X1-Pad70)*%
X171039999Y-197360001D03*
%TO.P,X1,71,GND*%
%TO.N,GND*%
X168499999Y-199900001D03*
%TO.P,X1,72,GND*%
X171039999Y-199900001D03*
%TO.P,X1,73,PC9*%
%TO.N,unconnected-(X1-Pad73)*%
X229459999Y-111000001D03*
%TO.P,X1,74,PC8*%
%TO.N,unconnected-(X1-Pad74)*%
X231999999Y-111000001D03*
%TO.P,X1,75,PB8*%
%TO.N,unconnected-(X1-Pad75)*%
X229459999Y-113540001D03*
%TO.P,X1,76,PC6*%
%TO.N,/RY{slash}~{BY}*%
X231999999Y-113540001D03*
%TO.P,X1,77,PB9*%
%TO.N,unconnected-(X1-Pad77)*%
X229459999Y-116080001D03*
%TO.P,X1,78,ETH_RXD1/PC5*%
%TO.N,unconnected-(X1-Pad78)*%
X231999999Y-116080001D03*
%TO.P,X1,79,AVDD*%
%TO.N,unconnected-(X1-Pad79)*%
X229459999Y-118620001D03*
%TO.P,X1,80,U5V*%
%TO.N,unconnected-(X1-Pad80)*%
X231999999Y-118620001D03*
%TO.P,X1,81,GND*%
%TO.N,GND*%
X229459999Y-121160001D03*
%TO.P,X1,82,STLINK_TX/PD8*%
%TO.N,Net-(R13-Pad1)*%
X231999999Y-121160001D03*
%TO.P,X1,83,PA5*%
%TO.N,unconnected-(X1-Pad83)*%
X229459999Y-123700001D03*
%TO.P,X1,84,USB_DP/PA12*%
%TO.N,unconnected-(X1-Pad84)*%
X231999999Y-123700001D03*
%TO.P,X1,85,PA6*%
%TO.N,unconnected-(X1-Pad85)*%
X229459999Y-126240001D03*
%TO.P,X1,86,USB_DM/PA11*%
%TO.N,unconnected-(X1-Pad86)*%
X231999999Y-126240001D03*
%TO.P,X1,87,ETH_CRS_DV/PA7*%
%TO.N,unconnected-(X1-Pad87)*%
X229459999Y-128780001D03*
%TO.P,X1,88,PB12*%
%TO.N,unconnected-(X1-Pad88)*%
X231999999Y-128780001D03*
%TO.P,X1,89,PB6*%
%TO.N,/A24*%
X229459999Y-131320001D03*
%TO.P,X1,90,PB11*%
%TO.N,unconnected-(X1-Pad90)*%
X231999999Y-131320001D03*
%TO.P,X1,91,PC7*%
%TO.N,/NE1*%
X229459999Y-133860001D03*
%TO.P,X1,92,GND*%
%TO.N,GND*%
X231999999Y-133860001D03*
%TO.P,X1,93,USB_VBUS/PA9*%
%TO.N,unconnected-(X1-Pad93)*%
X229459999Y-136400001D03*
%TO.P,X1,94,PB2*%
%TO.N,unconnected-(X1-Pad94)*%
X231999999Y-136400001D03*
%TO.P,X1,95,USB_SOF/PA8*%
%TO.N,unconnected-(X1-Pad95)*%
X229459999Y-138940001D03*
%TO.P,X1,96,PB1*%
%TO.N,unconnected-(X1-Pad96)*%
X231999999Y-138940001D03*
%TO.P,X1,97,PB10*%
%TO.N,unconnected-(X1-Pad97)*%
X229459999Y-141480001D03*
%TO.P,X1,98,PB15*%
%TO.N,unconnected-(X1-Pad98)*%
X231999999Y-141480001D03*
%TO.P,X1,99,PB4*%
%TO.N,unconnected-(X1-Pad99)*%
X229459999Y-144020001D03*
%TO.P,X1,100,LD3/PB14*%
%TO.N,unconnected-(X1-Pad100)*%
X231999999Y-144020001D03*
%TO.P,X1,101,PB5*%
%TO.N,/A23*%
X229459999Y-146560001D03*
%TO.P,X1,102,ETH_TXD1/PB13*%
%TO.N,unconnected-(X1-Pad102)*%
X231999999Y-146560001D03*
%TO.P,X1,103,SWO/PB3*%
%TO.N,unconnected-(X1-Pad103)*%
X229459999Y-149100001D03*
%TO.P,X1,104,AGND*%
%TO.N,unconnected-(X1-Pad104)*%
X231999999Y-149100001D03*
%TO.P,X1,105,USB_ID/PA10*%
%TO.N,unconnected-(X1-Pad105)*%
X229459999Y-151640001D03*
%TO.P,X1,106,ETH_RXD0/PC4*%
%TO.N,unconnected-(X1-Pad106)*%
X231999999Y-151640001D03*
%TO.P,X1,107,PA2*%
%TO.N,unconnected-(X1-Pad107)*%
X229459999Y-154180001D03*
%TO.P,X1,108,PF5*%
%TO.N,/A4*%
X231999999Y-154180001D03*
%TO.P,X1,109,PA3*%
%TO.N,unconnected-(X1-Pad109)*%
X229459999Y-156720001D03*
%TO.P,X1,110,PF4*%
%TO.N,/A3*%
X231999999Y-156720001D03*
%TO.P,X1,111,GND*%
%TO.N,GND*%
X229459999Y-159260001D03*
%TO.P,X1,112,PE8*%
%TO.N,/DQ5*%
X231999999Y-159260001D03*
%TO.P,X1,113,PD13*%
%TO.N,/A17*%
X229459999Y-161800001D03*
%TO.P,X1,114,PF10*%
%TO.N,unconnected-(X1-Pad114)*%
X231999999Y-161800001D03*
%TO.P,X1,115,PD12*%
%TO.N,/A16*%
X229459999Y-164340001D03*
%TO.P,X1,116,PE7*%
%TO.N,/DQ4*%
X231999999Y-164340001D03*
%TO.P,X1,117,PD11*%
%TO.N,/A15*%
X229459999Y-166880001D03*
%TO.P,X1,118,PD14*%
%TO.N,/DQ0*%
X231999999Y-166880001D03*
%TO.P,X1,119,PE10*%
%TO.N,/DQ7*%
X229459999Y-169420001D03*
%TO.P,X1,120,PD15*%
%TO.N,/DQ1*%
X231999999Y-169420001D03*
%TO.P,X1,121,PE12*%
%TO.N,Net-(R9-Pad1)*%
X229459999Y-171960001D03*
%TO.P,X1,122,PF14*%
%TO.N,/A7*%
X231999999Y-171960001D03*
%TO.P,X1,123,PE14*%
%TO.N,Net-(R11-Pad1)*%
X229459999Y-174500001D03*
%TO.P,X1,124,PE9*%
%TO.N,/DQ6*%
X231999999Y-174500001D03*
%TO.P,X1,125,PE15*%
%TO.N,Net-(R12-Pad2)*%
X229459999Y-177040001D03*
%TO.P,X1,126,GND*%
%TO.N,GND*%
X231999999Y-177040001D03*
%TO.P,X1,127,PE13*%
%TO.N,Net-(R10-Pad2)*%
X229459999Y-179580001D03*
%TO.P,X1,128,PE11*%
%TO.N,Net-(R8-Pad2)*%
X231999999Y-179580001D03*
%TO.P,X1,129,PF13*%
%TO.N,/A6*%
X229459999Y-182120001D03*
%TO.P,X1,130,PF3*%
%TO.N,/A2*%
X231999999Y-182120001D03*
%TO.P,X1,131,PF12*%
%TO.N,/A5*%
X229459999Y-184660001D03*
%TO.P,X1,132,PF15*%
%TO.N,/A8*%
X231999999Y-184660001D03*
%TO.P,X1,133,PG14*%
%TO.N,unconnected-(X1-Pad133)*%
X229459999Y-187200001D03*
%TO.P,X1,134,PF11*%
%TO.N,unconnected-(X1-Pad134)*%
X231999999Y-187200001D03*
%TO.P,X1,135,GND*%
%TO.N,GND*%
X229459999Y-189740001D03*
%TO.P,X1,136,PE0*%
%TO.N,unconnected-(X1-Pad136)*%
X231999999Y-189740001D03*
%TO.P,X1,137,PD10*%
%TO.N,Net-(R15-Pad1)*%
X229459999Y-192280001D03*
%TO.P,X1,138,PG8*%
%TO.N,unconnected-(X1-Pad138)*%
X231999999Y-192280001D03*
%TO.P,X1,139,PG7/USB_GPIO_IN*%
%TO.N,unconnected-(X1-Pad139)*%
X229459999Y-194820001D03*
%TO.P,X1,140,PG5*%
%TO.N,/A14*%
X231999999Y-194820001D03*
%TO.P,X1,141,PG4*%
%TO.N,/A13*%
X229459999Y-197360001D03*
%TO.P,X1,142,PG6/USB_GPIO_OUT*%
%TO.N,unconnected-(X1-Pad142)*%
X231999999Y-197360001D03*
%TO.P,X1,143,GND*%
%TO.N,GND*%
X229459999Y-199900001D03*
%TO.P,X1,144,GND*%
X231999999Y-199900001D03*
%TO.P,X1,145*%
%TO.N,N/C*%
X168499999Y-83060001D03*
%TO.P,X1,146*%
X168499999Y-85600001D03*
%TO.P,X1,147*%
X231999999Y-83060001D03*
%TO.P,X1,148*%
X231999999Y-85600001D03*
%TD*%
D15*
%TO.N,VCC*%
X178500000Y-120250000D03*
X212150000Y-165000000D03*
X210650000Y-165000000D03*
X213750000Y-123000000D03*
X180500000Y-120250000D03*
X210650000Y-164000000D03*
X214750000Y-123000000D03*
X179500000Y-120250000D03*
X212150000Y-164000000D03*
X209400000Y-165000000D03*
X181500000Y-120250000D03*
%TO.N,GND*%
X210000000Y-148300000D03*
X179850000Y-96300000D03*
X204750000Y-120500000D03*
X195000000Y-137000000D03*
X189750000Y-169000000D03*
X207500000Y-96750000D03*
X214650000Y-162000000D03*
X209000000Y-168500000D03*
X207500000Y-114750000D03*
X193250000Y-137000000D03*
X217000000Y-134000000D03*
X210000000Y-144750000D03*
X208500000Y-193750000D03*
X214500000Y-134700000D03*
X207500000Y-193750000D03*
X202500000Y-96750000D03*
X181500000Y-112000000D03*
X210000000Y-141200000D03*
X210250000Y-96750000D03*
X214650000Y-163000000D03*
X213800000Y-160600000D03*
X207500000Y-108500000D03*
X180000000Y-105000000D03*
X185750000Y-123250000D03*
X194750000Y-123500000D03*
X212500000Y-96750000D03*
X189750000Y-168000000D03*
X185750000Y-122250000D03*
X191750000Y-123500000D03*
X214750000Y-118500000D03*
X199250000Y-99750000D03*
X186400000Y-162500000D03*
X179100000Y-171200000D03*
X180500000Y-111000000D03*
X191850000Y-104750000D03*
X178500000Y-111000000D03*
X205000000Y-96750000D03*
X213750000Y-118500000D03*
X226200000Y-151300000D03*
X200000000Y-106250000D03*
X179850000Y-97300000D03*
X187100000Y-134800000D03*
X198250000Y-99750000D03*
X179500000Y-130250000D03*
X179500000Y-111000000D03*
X207800000Y-155500000D03*
X178500000Y-112000000D03*
X181500000Y-111000000D03*
X215000000Y-108500000D03*
X181500000Y-172500000D03*
X185750000Y-117250000D03*
X181500000Y-162100000D03*
X212500000Y-125500000D03*
X180000000Y-104000000D03*
X223900000Y-148900000D03*
X176000000Y-127600000D03*
X185750000Y-118250000D03*
X191500000Y-137000000D03*
%TO.N,+15V*%
X203250000Y-110000000D03*
X197350000Y-113400000D03*
X203250000Y-111750000D03*
X186050000Y-100050000D03*
X197350000Y-112150000D03*
X197000000Y-120750000D03*
X203250000Y-113500000D03*
X197000000Y-122000000D03*
X204750000Y-121750000D03*
%TO.N,/DQ15*%
X184250000Y-158000000D03*
X215250000Y-153500000D03*
%TO.N,/A22*%
X174000000Y-127000000D03*
%TO.N,/A15*%
X223250000Y-128000000D03*
%TO.N,/A14*%
X214500000Y-136250000D03*
%TO.N,/A13*%
X219500000Y-181500000D03*
X220000000Y-130750000D03*
%TO.N,/A12*%
X179000000Y-161750000D03*
%TO.N,/A11*%
X181500000Y-160750000D03*
%TO.N,/A10*%
X178000000Y-128000000D03*
X178500000Y-172750000D03*
%TO.N,/A9*%
X188500000Y-135500000D03*
X187500000Y-180500000D03*
%TO.N,/A8*%
X215500000Y-137500000D03*
%TO.N,/A19*%
X175250000Y-129000000D03*
%TO.N,/~{WE}*%
X173000000Y-155500000D03*
X182750000Y-153250000D03*
%TO.N,/A21*%
X181500000Y-174000000D03*
X186000000Y-133500000D03*
%TO.N,/RY{slash}~{BY}*%
X209500000Y-129000000D03*
X227500000Y-129000000D03*
%TO.N,/A18*%
X175750000Y-125750000D03*
X166890982Y-126109018D03*
%TO.N,/A17*%
X227250000Y-149500000D03*
%TO.N,/A7*%
X225000000Y-132750000D03*
%TO.N,/A6*%
X219250000Y-127250000D03*
%TO.N,/A5*%
X216500000Y-139250000D03*
%TO.N,/A3*%
X234000000Y-125000000D03*
%TO.N,/A2*%
X217250000Y-141250000D03*
%TO.N,/DQ0*%
X230750000Y-173250000D03*
%TO.N,/DQ8*%
X222250000Y-149250000D03*
%TO.N,/DQ9*%
X222750000Y-172000000D03*
%TO.N,/DQ2*%
X185500000Y-155500000D03*
X195000000Y-154250000D03*
%TO.N,/DQ10*%
X221000000Y-157500000D03*
%TO.N,/DQ11*%
X224500000Y-150500000D03*
%TO.N,/DQ12*%
X223500000Y-151750000D03*
%TO.N,/DQ5*%
X209500000Y-155500000D03*
%TO.N,/DQ13*%
X211750000Y-159750000D03*
%TO.N,/DQ14*%
X188000000Y-162500000D03*
%TO.N,/A16*%
X226000000Y-154750000D03*
%TO.N,/A24*%
X212500000Y-160500000D03*
X213750000Y-130000000D03*
%TO.N,/CE_SW*%
X209250000Y-120000000D03*
%TO.N,-15V*%
X191600000Y-112900000D03*
X192500000Y-121500000D03*
X192500000Y-120250000D03*
X191600000Y-111650000D03*
X191250000Y-120250000D03*
X191250000Y-121500000D03*
X186000000Y-107750000D03*
X192850000Y-111650000D03*
X192850000Y-112900000D03*
%TO.N,/~{BYTE}*%
X204500000Y-170500000D03*
%TO.N,Net-(R13-Pad1)*%
X224750000Y-122500000D03*
%TD*%
D16*
%TO.N,+15V*%
X203250000Y-110000000D02*
X203250000Y-107750000D01*
X195550000Y-100050000D02*
X186050000Y-100050000D01*
X203250000Y-107750000D02*
X195550000Y-100050000D01*
D17*
%TO.N,/DQ15*%
X184830000Y-158580000D02*
X202470000Y-158580000D01*
X184830000Y-158580000D02*
X184250000Y-158000000D01*
X203800742Y-157249258D02*
X202470000Y-158580000D01*
X203800742Y-157249258D02*
X203800742Y-155699258D01*
X203800742Y-155699258D02*
X206000000Y-153500000D01*
X206000000Y-153500000D02*
X215250000Y-153500000D01*
%TO.N,/A23*%
X207000000Y-135500000D02*
X206300742Y-134800742D01*
X229459999Y-146560001D02*
X226560001Y-146560001D01*
X206300742Y-134800742D02*
X206300742Y-133269258D01*
X226560001Y-146560001D02*
X215500000Y-135500000D01*
X215500000Y-135500000D02*
X207000000Y-135500000D01*
%TO.N,/A22*%
X180500000Y-127750000D02*
X179500000Y-126750000D01*
X179500000Y-126750000D02*
X174250000Y-126750000D01*
X205800742Y-129050742D02*
X205750000Y-129000000D01*
X174250000Y-126750000D02*
X174000000Y-127000000D01*
X205750000Y-129000000D02*
X204500000Y-127750000D01*
X180500000Y-127750000D02*
X204500000Y-127750000D01*
X205800742Y-129969258D02*
X205800742Y-129050742D01*
%TO.N,/A15*%
X205300742Y-126669258D02*
X208830742Y-126669258D01*
X208830742Y-126669258D02*
X210161484Y-128000000D01*
X210161484Y-128000000D02*
X223250000Y-128000000D01*
%TO.N,/A14*%
X204800742Y-133269258D02*
X204800742Y-134300742D01*
X204800742Y-134300742D02*
X206750000Y-136250000D01*
X206750000Y-136250000D02*
X214500000Y-136250000D01*
%TO.N,/A13*%
X219750000Y-131000000D02*
X220000000Y-130750000D01*
X219500000Y-181500000D02*
X219500000Y-194000000D01*
X204300742Y-130800742D02*
X204500000Y-131000000D01*
X204500000Y-131000000D02*
X219750000Y-131000000D01*
X222860001Y-197360001D02*
X229459999Y-197360001D01*
X204300742Y-129969258D02*
X204300742Y-130800742D01*
X219500000Y-194000000D02*
X222860001Y-197360001D01*
%TO.N,/A12*%
X174159999Y-164340001D02*
X171039999Y-164340001D01*
X176750000Y-161750000D02*
X174159999Y-164340001D01*
X179000000Y-161750000D02*
X176750000Y-161750000D01*
%TO.N,/A11*%
X174449999Y-161800001D02*
X175500000Y-160750000D01*
X175500000Y-160750000D02*
X181500000Y-160750000D01*
X171039999Y-161800001D02*
X174449999Y-161800001D01*
%TO.N,/A10*%
X178250000Y-128250000D02*
X178000000Y-128000000D01*
X178500000Y-178500000D02*
X174879999Y-182120001D01*
X202800742Y-129050742D02*
X202000000Y-128250000D01*
X174879999Y-182120001D02*
X171039999Y-182120001D01*
X178500000Y-172750000D02*
X178500000Y-178500000D01*
X202000000Y-128250000D02*
X178250000Y-128250000D01*
X202800742Y-129969258D02*
X202800742Y-129050742D01*
%TO.N,/A9*%
X179500000Y-188500000D02*
X187500000Y-180500000D01*
X168000000Y-188500000D02*
X179500000Y-188500000D01*
X168499999Y-184660001D02*
X167000000Y-186160000D01*
X167000000Y-187500000D02*
X168000000Y-188500000D01*
X167000000Y-186160000D02*
X167000000Y-187500000D01*
%TO.N,/A8*%
X215250000Y-137500000D02*
X215500000Y-137500000D01*
X205000000Y-137500000D02*
X215250000Y-137500000D01*
X201800742Y-133269258D02*
X201800742Y-134300742D01*
X201800742Y-134300742D02*
X205000000Y-137500000D01*
%TO.N,/A19*%
X201300742Y-129050742D02*
X201250000Y-129000000D01*
X175500000Y-128750000D02*
X201000000Y-128750000D01*
X201300742Y-129969258D02*
X201300742Y-129050742D01*
X201250000Y-129000000D02*
X201000000Y-128750000D01*
X175500000Y-128750000D02*
X175250000Y-129000000D01*
%TO.N,/~{WE}*%
X182750000Y-153250000D02*
X180500000Y-155500000D01*
X180500000Y-155500000D02*
X173000000Y-155500000D01*
%TO.N,/A21*%
X178299999Y-187200001D02*
X171039999Y-187200001D01*
X181500000Y-184000000D02*
X178299999Y-187200001D01*
X181500000Y-174000000D02*
X181500000Y-184000000D01*
%TO.N,/RY{slash}~{BY}*%
X209500000Y-129000000D02*
X227500000Y-129000000D01*
%TO.N,/A18*%
X167750000Y-125000000D02*
X166890982Y-125859018D01*
X166890982Y-125859018D02*
X166890982Y-126109018D01*
X175750000Y-125750000D02*
X175000000Y-125000000D01*
X175000000Y-125000000D02*
X167750000Y-125000000D01*
%TO.N,/A17*%
X197300742Y-133269258D02*
X197300742Y-134050742D01*
X197300742Y-134050742D02*
X201500000Y-138250000D01*
X227250000Y-148500000D02*
X227250000Y-149500000D01*
X201500000Y-138250000D02*
X217000000Y-138250000D01*
X217000000Y-138250000D02*
X227250000Y-148500000D01*
%TO.N,/A7*%
X223750000Y-131500000D02*
X225000000Y-132750000D01*
X197000000Y-131500000D02*
X223750000Y-131500000D01*
X196800742Y-129969258D02*
X196800742Y-131300742D01*
X196800742Y-131300742D02*
X197000000Y-131500000D01*
%TO.N,/A6*%
X209250000Y-125500000D02*
X211000000Y-127250000D01*
X211000000Y-127250000D02*
X219250000Y-127250000D01*
X196300742Y-126669258D02*
X196300742Y-125699258D01*
X196500000Y-125500000D02*
X209250000Y-125500000D01*
X196300742Y-125699258D02*
X196500000Y-125500000D01*
%TO.N,/A5*%
X195800742Y-134050742D02*
X200750000Y-139000000D01*
X195800742Y-133269258D02*
X195800742Y-134050742D01*
X200750000Y-139000000D02*
X216250000Y-139000000D01*
X216250000Y-139000000D02*
X216500000Y-139250000D01*
%TO.N,/A4*%
X222250000Y-132250000D02*
X227750000Y-137750000D01*
X233750000Y-152430000D02*
X231999999Y-154180001D01*
X196000000Y-132250000D02*
X222250000Y-132250000D01*
X195300742Y-129969258D02*
X195300742Y-131550742D01*
X232500000Y-137750000D02*
X233750000Y-139000000D01*
X227750000Y-137750000D02*
X232500000Y-137750000D01*
X195300742Y-131550742D02*
X196000000Y-132250000D01*
X233750000Y-139000000D02*
X233750000Y-152430000D01*
%TO.N,/A3*%
X194800742Y-125699258D02*
X196000000Y-124500000D01*
X196000000Y-124500000D02*
X228579998Y-124500000D01*
X228579998Y-124500000D02*
X229079998Y-125000000D01*
X194800742Y-126669258D02*
X194800742Y-125699258D01*
X229079998Y-125000000D02*
X234000000Y-125000000D01*
%TO.N,/A2*%
X213250000Y-139750000D02*
X214750000Y-141250000D01*
X194300742Y-133269258D02*
X194300742Y-134050742D01*
X214750000Y-141250000D02*
X217250000Y-141250000D01*
X200000000Y-139750000D02*
X213250000Y-139750000D01*
X194300742Y-134050742D02*
X200000000Y-139750000D01*
%TO.N,/A0*%
X175750000Y-164000000D02*
X175750000Y-171750000D01*
X185200742Y-160549258D02*
X182750000Y-163000000D01*
X174250000Y-173250000D02*
X169750000Y-173250000D01*
X182750000Y-163000000D02*
X176750000Y-163000000D01*
X175750000Y-171750000D02*
X174250000Y-173250000D01*
X176750000Y-163000000D02*
X175750000Y-164000000D01*
X193800742Y-160549258D02*
X185200742Y-160549258D01*
X169750000Y-173250000D02*
X168499999Y-174500001D01*
%TO.N,/~{OE}*%
X173100001Y-158100001D02*
X169659999Y-158100001D01*
X174250000Y-159250000D02*
X173100001Y-158100001D01*
X169659999Y-158100001D02*
X168499999Y-159260001D01*
X194001484Y-159250000D02*
X174250000Y-159250000D01*
X195300742Y-160549258D02*
X194001484Y-159250000D01*
%TO.N,/DQ0*%
X204250000Y-173250000D02*
X230750000Y-173250000D01*
X195800742Y-164800742D02*
X204250000Y-173250000D01*
X195800742Y-163849258D02*
X195800742Y-164800742D01*
%TO.N,/DQ8*%
X196300742Y-157249258D02*
X196300742Y-154199258D01*
X196300742Y-154199258D02*
X201250000Y-149250000D01*
X201250000Y-149250000D02*
X222250000Y-149250000D01*
%TO.N,/DQ1*%
X196800742Y-160549258D02*
X196800742Y-159699258D01*
X196800742Y-159699258D02*
X197500000Y-159000000D01*
X205500000Y-159000000D02*
X208000000Y-156500000D01*
X232500000Y-160500000D02*
X233609016Y-161609016D01*
X197500000Y-159000000D02*
X205500000Y-159000000D01*
X233609016Y-161609016D02*
X233609016Y-167810984D01*
X233609016Y-167810984D02*
X231999999Y-169420001D01*
X224210980Y-156500000D02*
X228210980Y-160500000D01*
X228210980Y-160500000D02*
X232500000Y-160500000D01*
X208000000Y-156500000D02*
X224210980Y-156500000D01*
%TO.N,/DQ9*%
X197300742Y-164800742D02*
X197300742Y-163849258D01*
X204500000Y-167250000D02*
X199750000Y-167250000D01*
X199750000Y-167250000D02*
X197300742Y-164800742D01*
X222750000Y-172000000D02*
X209250000Y-172000000D01*
X209250000Y-172000000D02*
X204500000Y-167250000D01*
%TO.N,/DQ2*%
X195000000Y-154250000D02*
X186750000Y-154250000D01*
X186750000Y-154250000D02*
X185500000Y-155500000D01*
%TO.N,/DQ10*%
X199350000Y-159500000D02*
X206000000Y-159500000D01*
X208060000Y-157440000D02*
X220940000Y-157440000D01*
X198300742Y-160549258D02*
X199350000Y-159500000D01*
X220940000Y-157440000D02*
X221000000Y-157500000D01*
X206000000Y-159500000D02*
X208060000Y-157440000D01*
%TO.N,/DQ3*%
X189500000Y-164750000D02*
X178000000Y-164750000D01*
X177250000Y-177000000D02*
X175829999Y-178420001D01*
X175829999Y-178420001D02*
X169659999Y-178420001D01*
X191310742Y-162939258D02*
X189500000Y-164750000D01*
X177250000Y-165500000D02*
X177250000Y-177000000D01*
X197890742Y-162939258D02*
X191310742Y-162939258D01*
X178000000Y-164750000D02*
X177250000Y-165500000D01*
X198800742Y-163849258D02*
X197890742Y-162939258D01*
X169659999Y-178420001D02*
X168499999Y-179580001D01*
%TO.N,/DQ11*%
X199300742Y-157249258D02*
X199300742Y-153699258D01*
X202500000Y-150500000D02*
X224500000Y-150500000D01*
X199300742Y-153699258D02*
X202500000Y-150500000D01*
%TO.N,/DQ4*%
X202000000Y-166500000D02*
X200300742Y-164750000D01*
X214619018Y-170619018D02*
X210500000Y-166500000D01*
X231999999Y-164340001D02*
X230704508Y-165635492D01*
X230704508Y-165635492D02*
X230704508Y-170045492D01*
X230704508Y-170045492D02*
X230130982Y-170619018D01*
X230130982Y-170619018D02*
X214619018Y-170619018D01*
X210500000Y-166500000D02*
X202000000Y-166500000D01*
X200300742Y-164750000D02*
X200300742Y-163849258D01*
%TO.N,/DQ12*%
X200800742Y-154449258D02*
X203500000Y-151750000D01*
X200800742Y-157249258D02*
X200800742Y-154449258D01*
X203500000Y-151750000D02*
X223500000Y-151750000D01*
%TO.N,/DQ5*%
X209500000Y-155500000D02*
X226500000Y-155500000D01*
X226500000Y-155500000D02*
X229000000Y-158000000D01*
X230739998Y-158000000D02*
X231999999Y-159260001D01*
X229000000Y-158000000D02*
X230739998Y-158000000D01*
%TO.N,/DQ13*%
X201800742Y-163849258D02*
X202900000Y-162750000D01*
X208750000Y-162750000D02*
X211750000Y-159750000D01*
X202900000Y-162750000D02*
X208750000Y-162750000D01*
%TO.N,/DQ6*%
X205000000Y-152750000D02*
X225500000Y-152750000D01*
X228250000Y-155500000D02*
X232500000Y-155500000D01*
X202300742Y-157249258D02*
X202300742Y-155550742D01*
X202250000Y-155500000D02*
X205000000Y-152750000D01*
X225500000Y-152750000D02*
X228250000Y-155500000D01*
X232500000Y-155500000D02*
X234250000Y-157250000D01*
X234250000Y-157250000D02*
X234250000Y-172250000D01*
X234250000Y-172250000D02*
X231999999Y-174500001D01*
X202300742Y-155550742D02*
X202250000Y-155500000D01*
%TO.N,/DQ14*%
X189000000Y-161500000D02*
X188000000Y-162500000D01*
X189000000Y-161500000D02*
X201850000Y-161500000D01*
X202800742Y-160549258D02*
X201850000Y-161500000D01*
%TO.N,/DQ7*%
X203300742Y-164800742D02*
X204250000Y-165750000D01*
X204250000Y-165750000D02*
X210750000Y-165750000D01*
X210750000Y-165750000D02*
X214420001Y-169420001D01*
X214420001Y-169420001D02*
X229459999Y-169420001D01*
X203300742Y-163849258D02*
X203300742Y-164800742D01*
%TO.N,/A16*%
X225500000Y-154250000D02*
X226000000Y-154750000D01*
X205300742Y-155949258D02*
X207000000Y-154250000D01*
X205300742Y-157249258D02*
X205300742Y-155949258D01*
X207000000Y-154250000D02*
X225500000Y-154250000D01*
%TO.N,/A25*%
X204100000Y-162250000D02*
X190000000Y-162250000D01*
X176500000Y-164500000D02*
X176500000Y-172000000D01*
X168000000Y-175750000D02*
X167339999Y-175089999D01*
X177250000Y-163750000D02*
X176500000Y-164500000D01*
X188500000Y-163750000D02*
X177250000Y-163750000D01*
X172750000Y-175750000D02*
X168000000Y-175750000D01*
X190000000Y-162250000D02*
X188500000Y-163750000D01*
X167339999Y-137560001D02*
X168499999Y-136400001D01*
X167339999Y-175089999D02*
X167339999Y-137560001D01*
X176500000Y-172000000D02*
X172750000Y-175750000D01*
X205800742Y-160549258D02*
X204100000Y-162250000D01*
%TO.N,/A24*%
X213750000Y-130000000D02*
X228139998Y-130000000D01*
X209150742Y-163849258D02*
X212500000Y-160500000D01*
X228139998Y-130000000D02*
X229459999Y-131320001D01*
X206300742Y-163849258D02*
X209150742Y-163849258D01*
%TO.N,/CE_SW*%
X202550000Y-116250000D02*
X208000000Y-116250000D01*
X209113000Y-117363000D02*
X209113000Y-119863000D01*
X195454092Y-109250000D02*
X202454092Y-116250000D01*
X168499999Y-111000001D02*
X170250000Y-109250000D01*
X208000000Y-116250000D02*
X209113000Y-117363000D01*
X202454092Y-116250000D02*
X202550000Y-116250000D01*
X170250000Y-109250000D02*
X195454092Y-109250000D01*
X209113000Y-119863000D02*
X209250000Y-120000000D01*
%TO.N,Net-(R13-Pad1)*%
X230660000Y-122500000D02*
X231999999Y-121160001D01*
X224750000Y-122500000D02*
X230660000Y-122500000D01*
%TD*%
%TA.AperFunction,Conductor*%
%TO.N,+15V*%
G36*
X205042121Y-108520002D02*
G01*
X205088614Y-108573658D01*
X205100000Y-108626000D01*
X205100000Y-114874000D01*
X205079998Y-114942121D01*
X205026342Y-114988614D01*
X204974000Y-115000000D01*
X202376000Y-115000000D01*
X202307879Y-114979998D01*
X202261386Y-114926342D01*
X202250000Y-114874000D01*
X202250000Y-108626000D01*
X202270002Y-108557879D01*
X202323658Y-108511386D01*
X202376000Y-108500000D01*
X204974000Y-108500000D01*
X205042121Y-108520002D01*
G37*
%TD.AperFunction*%
%TD*%
M02*
