%TF.GenerationSoftware,KiCad,Pcbnew,(6.0.7-1)-1*%
%TF.CreationDate,2022-08-23T13:11:11-05:00*%
%TF.ProjectId,NR1B-ST56,4e523142-2d53-4543-9536-2e6b69636164,rev?*%
%TF.SameCoordinates,Original*%
%TF.FileFunction,Copper,L1,Top*%
%TF.FilePolarity,Positive*%
%FSLAX46Y46*%
G04 Gerber Fmt 4.6, Leading zero omitted, Abs format (unit mm)*
G04 Created by KiCad (PCBNEW (6.0.7-1)-1) date 2022-08-23 13:11:11*
%MOMM*%
%LPD*%
G01*
G04 APERTURE LIST*
G04 Aperture macros list*
%AMRoundRect*
0 Rectangle with rounded corners*
0 $1 Rounding radius*
0 $2 $3 $4 $5 $6 $7 $8 $9 X,Y pos of 4 corners*
0 Add a 4 corners polygon primitive as box body*
4,1,4,$2,$3,$4,$5,$6,$7,$8,$9,$2,$3,0*
0 Add four circle primitives for the rounded corners*
1,1,$1+$1,$2,$3*
1,1,$1+$1,$4,$5*
1,1,$1+$1,$6,$7*
1,1,$1+$1,$8,$9*
0 Add four rect primitives between the rounded corners*
20,1,$1+$1,$2,$3,$4,$5,0*
20,1,$1+$1,$4,$5,$6,$7,0*
20,1,$1+$1,$6,$7,$8,$9,0*
20,1,$1+$1,$8,$9,$2,$3,0*%
G04 Aperture macros list end*
%TA.AperFunction,SMDPad,CuDef*%
%ADD10RoundRect,0.150000X-0.825000X-0.150000X0.825000X-0.150000X0.825000X0.150000X-0.825000X0.150000X0*%
%TD*%
%TA.AperFunction,SMDPad,CuDef*%
%ADD11RoundRect,0.200000X-0.200000X-0.275000X0.200000X-0.275000X0.200000X0.275000X-0.200000X0.275000X0*%
%TD*%
%TA.AperFunction,SMDPad,CuDef*%
%ADD12RoundRect,0.250000X-0.450000X0.262500X-0.450000X-0.262500X0.450000X-0.262500X0.450000X0.262500X0*%
%TD*%
%TA.AperFunction,ComponentPad*%
%ADD13R,1.700000X1.700000*%
%TD*%
%TA.AperFunction,ComponentPad*%
%ADD14O,1.700000X1.700000*%
%TD*%
%TA.AperFunction,SMDPad,CuDef*%
%ADD15RoundRect,0.250000X0.250000X0.475000X-0.250000X0.475000X-0.250000X-0.475000X0.250000X-0.475000X0*%
%TD*%
%TA.AperFunction,SMDPad,CuDef*%
%ADD16RoundRect,0.250000X-0.250000X-0.475000X0.250000X-0.475000X0.250000X0.475000X-0.250000X0.475000X0*%
%TD*%
%TA.AperFunction,SMDPad,CuDef*%
%ADD17RoundRect,0.200000X0.200000X0.275000X-0.200000X0.275000X-0.200000X-0.275000X0.200000X-0.275000X0*%
%TD*%
%TA.AperFunction,SMDPad,CuDef*%
%ADD18R,0.600000X0.450000*%
%TD*%
%TA.AperFunction,SMDPad,CuDef*%
%ADD19R,1.100000X4.600000*%
%TD*%
%TA.AperFunction,SMDPad,CuDef*%
%ADD20R,10.800000X9.400000*%
%TD*%
%TA.AperFunction,SMDPad,CuDef*%
%ADD21R,2.500000X1.800000*%
%TD*%
%TA.AperFunction,SMDPad,CuDef*%
%ADD22C,0.500000*%
%TD*%
%TA.AperFunction,SMDPad,CuDef*%
%ADD23RoundRect,0.250000X0.475000X-0.250000X0.475000X0.250000X-0.475000X0.250000X-0.475000X-0.250000X0*%
%TD*%
%TA.AperFunction,SMDPad,CuDef*%
%ADD24R,0.450000X0.600000*%
%TD*%
%TA.AperFunction,SMDPad,CuDef*%
%ADD25RoundRect,0.250000X0.550000X-1.250000X0.550000X1.250000X-0.550000X1.250000X-0.550000X-1.250000X0*%
%TD*%
%TA.AperFunction,ComponentPad*%
%ADD26R,1.200000X1.200000*%
%TD*%
%TA.AperFunction,ComponentPad*%
%ADD27C,1.200000*%
%TD*%
%TA.AperFunction,ComponentPad*%
%ADD28C,1.700000*%
%TD*%
%TA.AperFunction,SMDPad,CuDef*%
%ADD29RoundRect,0.250000X0.262500X0.450000X-0.262500X0.450000X-0.262500X-0.450000X0.262500X-0.450000X0*%
%TD*%
%TA.AperFunction,ViaPad*%
%ADD30C,0.800000*%
%TD*%
%TA.AperFunction,Conductor*%
%ADD31C,0.400000*%
%TD*%
%TA.AperFunction,Conductor*%
%ADD32C,0.220000*%
%TD*%
G04 APERTURE END LIST*
%TO.C,NT1*%
G36*
X190550000Y-117650000D02*
G01*
X190050000Y-117650000D01*
X190050000Y-116650000D01*
X190550000Y-116650000D01*
X190550000Y-117650000D01*
G37*
%TO.C,NT2*%
G36*
X190350000Y-109050000D02*
G01*
X189850000Y-109050000D01*
X189850000Y-108050000D01*
X190350000Y-108050000D01*
X190350000Y-109050000D01*
G37*
%TD*%
D10*
%TO.P,U3,1,NC*%
%TO.N,unconnected-(U3-Pad1)*%
X192150000Y-115060000D03*
%TO.P,U3,2,-*%
%TO.N,/VWL_BUF*%
X192150000Y-116330000D03*
%TO.P,U3,3,+*%
%TO.N,/ANA_VWL*%
X192150000Y-117600000D03*
%TO.P,U3,4,V-*%
%TO.N,-15V*%
X192150000Y-118870000D03*
%TO.P,U3,5,NC*%
%TO.N,unconnected-(U3-Pad5)*%
X197100000Y-118870000D03*
%TO.P,U3,6*%
%TO.N,/VWL_BUF*%
X197100000Y-117600000D03*
%TO.P,U3,7,V+*%
%TO.N,+15V*%
X197100000Y-116330000D03*
%TO.P,U3,8,NC*%
%TO.N,unconnected-(U3-Pad8)*%
X197100000Y-115060000D03*
%TD*%
D11*
%TO.P,R6,1*%
%TO.N,Net-(R6-Pad1)*%
X196125000Y-104750000D03*
%TO.P,R6,2*%
%TO.N,/WP_BUF*%
X197775000Y-104750000D03*
%TD*%
D12*
%TO.P,R5,1*%
%TO.N,/ANA_WP*%
X198750000Y-96587500D03*
%TO.P,R5,2*%
%TO.N,GND*%
X198750000Y-98412500D03*
%TD*%
D13*
%TO.P,J2,1,Pin_1*%
%TO.N,/-15V_IN*%
X168499999Y-98300001D03*
D14*
%TO.P,J2,2,Pin_2*%
%TO.N,/+15V_IN*%
X171039999Y-98300001D03*
%TO.P,J2,3,Pin_3*%
%TO.N,GND*%
X168499999Y-100840001D03*
%TO.P,J2,4,Pin_4*%
X171039999Y-100840001D03*
%TO.P,J2,5,Pin_5*%
%TO.N,unconnected-(J2-Pad5)*%
X168499999Y-103380001D03*
%TO.P,J2,6,Pin_6*%
%TO.N,unconnected-(J2-Pad6)*%
X171039999Y-103380001D03*
%TO.P,J2,7,Pin_7*%
%TO.N,GND*%
X168499999Y-105920001D03*
%TO.P,J2,8,Pin_8*%
%TO.N,unconnected-(J2-Pad8)*%
X171039999Y-105920001D03*
%TD*%
D15*
%TO.P,C2,1*%
%TO.N,VIO*%
X192950000Y-168500000D03*
%TO.P,C2,2*%
%TO.N,GND*%
X191050000Y-168500000D03*
%TD*%
D16*
%TO.P,C1,1*%
%TO.N,VCC*%
X211400000Y-162500000D03*
%TO.P,C1,2*%
%TO.N,GND*%
X213300000Y-162500000D03*
%TD*%
D11*
%TO.P,R2,1*%
%TO.N,/~{BYTE}*%
X206087500Y-168500000D03*
%TO.P,R2,2*%
%TO.N,GND*%
X207737500Y-168500000D03*
%TD*%
D10*
%TO.P,U5,1,NC*%
%TO.N,unconnected-(U5-Pad1)*%
X192225000Y-106495000D03*
%TO.P,U5,2,-*%
%TO.N,Net-(R6-Pad1)*%
X192225000Y-107765000D03*
%TO.P,U5,3,+*%
%TO.N,/ANA_WP*%
X192225000Y-109035000D03*
%TO.P,U5,4,V-*%
%TO.N,-15V*%
X192225000Y-110305000D03*
%TO.P,U5,5,NC*%
%TO.N,unconnected-(U5-Pad5)*%
X197175000Y-110305000D03*
%TO.P,U5,6*%
%TO.N,/WP_BUF*%
X197175000Y-109035000D03*
%TO.P,U5,7,V+*%
%TO.N,+15V*%
X197175000Y-107765000D03*
%TO.P,U5,8,NC*%
%TO.N,unconnected-(U5-Pad8)*%
X197175000Y-106495000D03*
%TD*%
D11*
%TO.P,R10,1*%
%TO.N,/DQ10*%
X223425000Y-179500000D03*
%TO.P,R10,2*%
%TO.N,Net-(R10-Pad2)*%
X225075000Y-179500000D03*
%TD*%
D17*
%TO.P,R13,1*%
%TO.N,Net-(R13-Pad1)*%
X222575000Y-122500000D03*
%TO.P,R13,2*%
%TO.N,/DQ13*%
X220925000Y-122500000D03*
%TD*%
D10*
%TO.P,U2,1*%
%TO.N,/~{CE}*%
X206525000Y-117845000D03*
%TO.P,U2,2*%
%TO.N,/ANA_CE*%
X206525000Y-119115000D03*
%TO.P,U2,3,GND*%
%TO.N,GND*%
X206525000Y-120385000D03*
%TO.P,U2,4,V+*%
%TO.N,+15V*%
X206525000Y-121655000D03*
%TO.P,U2,5,VL*%
%TO.N,VCC*%
X211475000Y-121655000D03*
%TO.P,U2,6*%
%TO.N,/CE_SW*%
X211475000Y-120385000D03*
%TO.P,U2,7,V-*%
%TO.N,GND*%
X211475000Y-119115000D03*
%TO.P,U2,8*%
%TO.N,/NE1*%
X211475000Y-117845000D03*
%TD*%
D18*
%TO.P,D8,1,K*%
%TO.N,+15V*%
X183400000Y-96800000D03*
%TO.P,D8,2,A*%
%TO.N,GND*%
X181300000Y-96800000D03*
%TD*%
D19*
%TO.P,U4,1,IN*%
%TO.N,+15V*%
X204935000Y-111725000D03*
%TO.P,U4,2,GND*%
%TO.N,GND*%
X207475000Y-111725000D03*
D20*
X207475000Y-102575000D03*
D19*
%TO.P,U4,3,OUT*%
%TO.N,/ANA_CE*%
X210015000Y-111725000D03*
%TD*%
D21*
%TO.P,D9,1,K*%
%TO.N,/-15V_IN*%
X179500000Y-107750000D03*
%TO.P,D9,2,A*%
%TO.N,-15V*%
X183500000Y-107750000D03*
%TD*%
D13*
%TO.P,JP1,1,A*%
%TO.N,VCC*%
X213000000Y-184000000D03*
D14*
%TO.P,JP1,2,C*%
%TO.N,VIO*%
X210460000Y-184000000D03*
%TO.P,JP1,3,B*%
%TO.N,/EVIO*%
X207920000Y-184000000D03*
%TD*%
D22*
%TO.P,FID2,*%
%TO.N,*%
X234000000Y-80500000D03*
%TD*%
D18*
%TO.P,D4,1,K*%
%TO.N,VCC*%
X182450000Y-123000000D03*
%TO.P,D4,2,A*%
%TO.N,GND*%
X184550000Y-123000000D03*
%TD*%
D15*
%TO.P,C8,1*%
%TO.N,+15V*%
X196150000Y-112800000D03*
%TO.P,C8,2*%
%TO.N,-15V*%
X194250000Y-112800000D03*
%TD*%
D23*
%TO.P,C7,1*%
%TO.N,/ANA_CE*%
X215000000Y-111750000D03*
%TO.P,C7,2*%
%TO.N,GND*%
X215000000Y-109850000D03*
%TD*%
D24*
%TO.P,D6,1,K*%
%TO.N,/EVIO*%
X208000000Y-190450000D03*
%TO.P,D6,2,A*%
%TO.N,GND*%
X208000000Y-192550000D03*
%TD*%
D21*
%TO.P,D3,1,K*%
%TO.N,VCC*%
X179000000Y-123000000D03*
%TO.P,D3,2,A*%
%TO.N,/VCC_IN*%
X175000000Y-123000000D03*
%TD*%
D25*
%TO.P,C5,1*%
%TO.N,VCC*%
X180000000Y-117700000D03*
%TO.P,C5,2*%
%TO.N,GND*%
X180000000Y-113300000D03*
%TD*%
D22*
%TO.P,FID1,*%
%TO.N,*%
X166500000Y-80500000D03*
%TD*%
D17*
%TO.P,R11,1*%
%TO.N,Net-(R11-Pad1)*%
X225075000Y-174500000D03*
%TO.P,R11,2*%
%TO.N,/DQ11*%
X223425000Y-174500000D03*
%TD*%
D21*
%TO.P,D7,1,K*%
%TO.N,+15V*%
X183450000Y-100050000D03*
%TO.P,D7,2,A*%
%TO.N,/+15V_IN*%
X179450000Y-100050000D03*
%TD*%
D18*
%TO.P,D10,1,K*%
%TO.N,GND*%
X181450000Y-104500000D03*
%TO.P,D10,2,A*%
%TO.N,-15V*%
X183550000Y-104500000D03*
%TD*%
D22*
%TO.P,NT1,1,1*%
%TO.N,/ANA_VWL*%
X190300000Y-117650000D03*
%TO.P,NT1,2,2*%
%TO.N,/ANA_VWL_SENSE*%
X190300000Y-116650000D03*
%TD*%
D26*
%TO.P,U1,1,A23*%
%TO.N,/A23*%
X206300742Y-133269258D03*
D27*
%TO.P,U1,2,A22*%
%TO.N,/A22*%
X205800742Y-129969258D03*
%TO.P,U1,3,A15*%
%TO.N,/A15*%
X205300742Y-126669258D03*
%TO.P,U1,4,A14*%
%TO.N,/A14*%
X204800742Y-133269258D03*
%TO.P,U1,5,A13*%
%TO.N,/A13*%
X204300742Y-129969258D03*
%TO.P,U1,6,A12*%
%TO.N,/A12*%
X203800742Y-126669258D03*
%TO.P,U1,7,A11*%
%TO.N,/A11*%
X203300742Y-133269258D03*
%TO.P,U1,8,A10*%
%TO.N,/A10*%
X202800742Y-129969258D03*
%TO.P,U1,9,A9*%
%TO.N,/A9*%
X202300742Y-126669258D03*
%TO.P,U1,10,A8*%
%TO.N,/A8*%
X201800742Y-133269258D03*
%TO.P,U1,11,A19*%
%TO.N,/A19*%
X201300742Y-129969258D03*
%TO.P,U1,12,A20*%
%TO.N,/A20*%
X200800742Y-126669258D03*
%TO.P,U1,13,~{WE}*%
%TO.N,/~{WE}*%
X200300742Y-133269258D03*
%TO.P,U1,14,~{RESET}*%
%TO.N,/VWL_BUF*%
X199800742Y-129969258D03*
%TO.P,U1,15,A21*%
%TO.N,/A21*%
X199300742Y-126669258D03*
%TO.P,U1,16,~{WP}/ACC*%
%TO.N,/WP_BUF*%
X198800742Y-133269258D03*
%TO.P,U1,17,RY/~{BY}*%
%TO.N,/RY{slash}~{BY}*%
X198300742Y-129969258D03*
%TO.P,U1,18,A18*%
%TO.N,/A18*%
X197800742Y-126669258D03*
%TO.P,U1,19,A17*%
%TO.N,/A17*%
X197300742Y-133269258D03*
%TO.P,U1,20,A7*%
%TO.N,/A7*%
X196800742Y-129969258D03*
%TO.P,U1,21,A6*%
%TO.N,/A6*%
X196300742Y-126669258D03*
%TO.P,U1,22,A5*%
%TO.N,/A5*%
X195800742Y-133269258D03*
%TO.P,U1,23,A4*%
%TO.N,/A4*%
X195300742Y-129969258D03*
%TO.P,U1,24,A3*%
%TO.N,/A3*%
X194800742Y-126669258D03*
%TO.P,U1,25,A2*%
%TO.N,/A2*%
X194300742Y-133269258D03*
%TO.P,U1,26,A1*%
%TO.N,/A1*%
X193800742Y-129969258D03*
%TO.P,U1,27*%
%TO.N,N/C*%
X193300742Y-126669258D03*
%TO.P,U1,28*%
X192800742Y-133269258D03*
%TO.P,U1,29,VIO*%
%TO.N,VIO*%
X192800742Y-163849258D03*
%TO.P,U1,30*%
%TO.N,N/C*%
X193300742Y-157249258D03*
%TO.P,U1,31,A0*%
%TO.N,/A0*%
X193800742Y-160549258D03*
%TO.P,U1,32,~{CE}*%
%TO.N,/~{CE}*%
X194300742Y-163849258D03*
%TO.P,U1,33,VSS*%
%TO.N,GND*%
X194800742Y-157249258D03*
%TO.P,U1,34,~{OE}*%
%TO.N,/~{OE}*%
X195300742Y-160549258D03*
%TO.P,U1,35,DQ0*%
%TO.N,/DQ0*%
X195800742Y-163849258D03*
%TO.P,U1,36,DQ8*%
%TO.N,/DQ8*%
X196300742Y-157249258D03*
%TO.P,U1,37,DQ1*%
%TO.N,/DQ1*%
X196800742Y-160549258D03*
%TO.P,U1,38,DQ9*%
%TO.N,/DQ9*%
X197300742Y-163849258D03*
%TO.P,U1,39,DQ2*%
%TO.N,/DQ2*%
X197800742Y-157249258D03*
%TO.P,U1,40,DQ10*%
%TO.N,/DQ10*%
X198300742Y-160549258D03*
%TO.P,U1,41,DQ3*%
%TO.N,/DQ3*%
X198800742Y-163849258D03*
%TO.P,U1,42,DQ11*%
%TO.N,/DQ11*%
X199300742Y-157249258D03*
%TO.P,U1,43,VCC*%
%TO.N,VCC*%
X199800742Y-160549258D03*
%TO.P,U1,44,DQ4*%
%TO.N,/DQ4*%
X200300742Y-163849258D03*
%TO.P,U1,45,DQ12*%
%TO.N,/DQ12*%
X200800742Y-157249258D03*
%TO.P,U1,46,DQ5*%
%TO.N,/DQ5*%
X201300742Y-160549258D03*
%TO.P,U1,47,DQ13*%
%TO.N,/DQ13*%
X201800742Y-163849258D03*
%TO.P,U1,48,DQ6*%
%TO.N,/DQ6*%
X202300742Y-157249258D03*
%TO.P,U1,49,DQ14*%
%TO.N,/DQ14*%
X202800742Y-160549258D03*
%TO.P,U1,50,DQ7*%
%TO.N,/DQ7*%
X203300742Y-163849258D03*
%TO.P,U1,51,DQ15/A-1*%
%TO.N,/DQ15*%
X203800742Y-157249258D03*
%TO.P,U1,52,VSS*%
%TO.N,GND*%
X204300742Y-160549258D03*
%TO.P,U1,53,~{BYTE}*%
%TO.N,/~{BYTE}*%
X204800742Y-163849258D03*
%TO.P,U1,54,A16*%
%TO.N,/A16*%
X205300742Y-157249258D03*
%TO.P,U1,55,A25*%
%TO.N,/A25*%
X205800742Y-160549258D03*
%TO.P,U1,56,A24*%
%TO.N,/A24*%
X206300742Y-163849258D03*
%TD*%
D17*
%TO.P,R9,1*%
%TO.N,Net-(R9-Pad1)*%
X225500000Y-172000000D03*
%TO.P,R9,2*%
%TO.N,/DQ9*%
X223850000Y-172000000D03*
%TD*%
D11*
%TO.P,R1,1*%
%TO.N,VIO*%
X202675000Y-168500000D03*
%TO.P,R1,2*%
%TO.N,/~{BYTE}*%
X204325000Y-168500000D03*
%TD*%
D21*
%TO.P,D5,1,K*%
%TO.N,/EVIO*%
X207500000Y-188000000D03*
%TO.P,D5,2,A*%
%TO.N,/EVIO_IN*%
X203500000Y-188000000D03*
%TD*%
D17*
%TO.P,R14,1*%
%TO.N,/DQ14*%
X175325000Y-196250000D03*
%TO.P,R14,2*%
%TO.N,Net-(R14-Pad2)*%
X173675000Y-196250000D03*
%TD*%
%TO.P,R7,1*%
%TO.N,Net-(R6-Pad1)*%
X194675000Y-104750000D03*
%TO.P,R7,2*%
%TO.N,GND*%
X193025000Y-104750000D03*
%TD*%
%TO.P,R3,1*%
%TO.N,/DQ15*%
X176324999Y-177000001D03*
%TO.P,R3,2*%
%TO.N,/A-1*%
X174674999Y-177000001D03*
%TD*%
D22*
%TO.P,FID3,*%
%TO.N,*%
X234000000Y-211500000D03*
%TD*%
D13*
%TO.P,J1,1,Pin_1*%
%TO.N,/ANA_WP_SENSE*%
X229499999Y-98300001D03*
D14*
%TO.P,J1,2,Pin_2*%
%TO.N,unconnected-(J1-Pad2)*%
X232039999Y-98300001D03*
%TO.P,J1,3,Pin_3*%
%TO.N,/ANA_WP*%
X229499999Y-100840001D03*
%TO.P,J1,4,Pin_4*%
%TO.N,unconnected-(J1-Pad4)*%
X232039999Y-100840001D03*
%TO.P,J1,5,Pin_5*%
%TO.N,/ANA_VWL_SENSE*%
X229499999Y-103380001D03*
%TO.P,J1,6,Pin_6*%
%TO.N,unconnected-(J1-Pad6)*%
X232039999Y-103380001D03*
%TO.P,J1,7,Pin_7*%
%TO.N,/ANA_VWL*%
X229499999Y-105920001D03*
%TO.P,J1,8,Pin_8*%
%TO.N,unconnected-(J1-Pad8)*%
X232039999Y-105920001D03*
%TD*%
D15*
%TO.P,C4,1*%
%TO.N,+15V*%
X195800000Y-121400000D03*
%TO.P,C4,2*%
%TO.N,-15V*%
X193900000Y-121400000D03*
%TD*%
D13*
%TO.P,J3,1,Pin_1*%
%TO.N,/EVIO_IN*%
X203000000Y-184000000D03*
D14*
%TO.P,J3,2,Pin_2*%
%TO.N,GND*%
X200460000Y-184000000D03*
%TD*%
D11*
%TO.P,R12,1*%
%TO.N,/DQ12*%
X223425000Y-177000000D03*
%TO.P,R12,2*%
%TO.N,Net-(R12-Pad2)*%
X225075000Y-177000000D03*
%TD*%
D17*
%TO.P,R15,1*%
%TO.N,Net-(R15-Pad1)*%
X225075000Y-192250000D03*
%TO.P,R15,2*%
%TO.N,/DQ15*%
X223425000Y-192250000D03*
%TD*%
D11*
%TO.P,R8,1*%
%TO.N,/DQ8*%
X225425000Y-181000000D03*
%TO.P,R8,2*%
%TO.N,Net-(R8-Pad2)*%
X227075000Y-181000000D03*
%TD*%
D22*
%TO.P,NT2,1,1*%
%TO.N,/ANA_WP*%
X190100000Y-109050000D03*
%TO.P,NT2,2,2*%
%TO.N,/ANA_WP_SENSE*%
X190100000Y-108050000D03*
%TD*%
D28*
%TO.P,X1,1,PC10*%
%TO.N,/CE_SW*%
X168499999Y-111000001D03*
%TO.P,X1,2,PC11*%
%TO.N,unconnected-(X1-Pad2)*%
X171039999Y-111000001D03*
%TO.P,X1,3,PC12*%
%TO.N,unconnected-(X1-Pad3)*%
X168499999Y-113540001D03*
%TO.P,X1,4,PD2*%
%TO.N,unconnected-(X1-Pad4)*%
X171039999Y-113540001D03*
%TO.P,X1,5,VDD*%
%TO.N,unconnected-(X1-Pad5)*%
X168499999Y-116080001D03*
%TO.P,X1,6,E5V*%
%TO.N,unconnected-(X1-Pad6)*%
X171039999Y-116080001D03*
%TO.P,X1,7,~{BOOT0}*%
%TO.N,unconnected-(X1-Pad7)*%
X168499999Y-118620001D03*
%TO.P,X1,8,GND*%
%TO.N,GND*%
X171039999Y-118620001D03*
%TO.P,X1,9,PF6*%
%TO.N,unconnected-(X1-Pad9)*%
X168499999Y-121160001D03*
%TO.P,X1,10,NC*%
%TO.N,unconnected-(X1-Pad10)*%
X171039999Y-121160001D03*
%TO.P,X1,11,PF7*%
%TO.N,unconnected-(X1-Pad11)*%
X168499999Y-123700001D03*
%TO.P,X1,12,IOREF*%
%TO.N,unconnected-(X1-Pad12)*%
X171039999Y-123700001D03*
%TO.P,X1,13,TMS/PA13*%
%TO.N,unconnected-(X1-Pad13)*%
X168499999Y-126240001D03*
%TO.P,X1,14,~{RST}*%
%TO.N,unconnected-(X1-Pad14)*%
X171039999Y-126240001D03*
%TO.P,X1,15,TCK/PA14*%
%TO.N,unconnected-(X1-Pad15)*%
X168499999Y-128780001D03*
%TO.P,X1,16,+3V3*%
%TO.N,/VCC_IN*%
X171039999Y-128780001D03*
%TO.P,X1,17,PA15*%
%TO.N,unconnected-(X1-Pad17)*%
X168499999Y-131320001D03*
%TO.P,X1,18,+5V*%
%TO.N,unconnected-(X1-Pad18)*%
X171039999Y-131320001D03*
%TO.P,X1,19,GND*%
%TO.N,GND*%
X168499999Y-133860001D03*
%TO.P,X1,20,GND*%
X171039999Y-133860001D03*
%TO.P,X1,21,LD2/PB7*%
%TO.N,/A25*%
X168499999Y-136400001D03*
%TO.P,X1,22,GND*%
%TO.N,GND*%
X171039999Y-136400001D03*
%TO.P,X1,23,BT/PC13*%
%TO.N,unconnected-(X1-Pad23)*%
X168499999Y-138940001D03*
%TO.P,X1,24,VIN*%
%TO.N,unconnected-(X1-Pad24)*%
X171039999Y-138940001D03*
%TO.P,X1,25,RTC_CRYSTAL/PC14*%
%TO.N,unconnected-(X1-Pad25)*%
X168499999Y-141480001D03*
%TO.P,X1,26,NC*%
%TO.N,unconnected-(X1-Pad26)*%
X171039999Y-141480001D03*
%TO.P,X1,27,RTC_CRYSTAL/PC15*%
%TO.N,unconnected-(X1-Pad27)*%
X168499999Y-144020001D03*
%TO.P,X1,28,ETH_REF_CLK/PA0*%
%TO.N,unconnected-(X1-Pad28)*%
X171039999Y-144020001D03*
%TO.P,X1,29,PH0*%
%TO.N,unconnected-(X1-Pad29)*%
X168499999Y-146560001D03*
%TO.P,X1,30,ETH_MDIO/PA1*%
%TO.N,unconnected-(X1-Pad30)*%
X171039999Y-146560001D03*
%TO.P,X1,31,PH1*%
%TO.N,unconnected-(X1-Pad31)*%
X168499999Y-149100001D03*
%TO.P,X1,32,PA4*%
%TO.N,unconnected-(X1-Pad32)*%
X171039999Y-149100001D03*
%TO.P,X1,33,VBAT*%
%TO.N,unconnected-(X1-Pad33)*%
X168499999Y-151640001D03*
%TO.P,X1,34,PB0*%
%TO.N,unconnected-(X1-Pad34)*%
X171039999Y-151640001D03*
%TO.P,X1,35,PC2*%
%TO.N,unconnected-(X1-Pad35)*%
X168499999Y-154180001D03*
%TO.P,X1,36,ETH_MDC/PC1*%
%TO.N,unconnected-(X1-Pad36)*%
X171039999Y-154180001D03*
%TO.P,X1,37,PC3*%
%TO.N,unconnected-(X1-Pad37)*%
X168499999Y-156720001D03*
%TO.P,X1,38,PC0*%
%TO.N,unconnected-(X1-Pad38)*%
X171039999Y-156720001D03*
%TO.P,X1,39,PD4*%
%TO.N,/~{OE}*%
X168499999Y-159260001D03*
%TO.P,X1,40,PD3*%
%TO.N,unconnected-(X1-Pad40)*%
X171039999Y-159260001D03*
%TO.P,X1,41,PD5*%
%TO.N,/~{WE}*%
X168499999Y-161800001D03*
%TO.P,X1,42,PG2*%
%TO.N,/A11*%
X171039999Y-161800001D03*
%TO.P,X1,43,PD6*%
%TO.N,unconnected-(X1-Pad43)*%
X168499999Y-164340001D03*
%TO.P,X1,44,PG3*%
%TO.N,/A12*%
X171039999Y-164340001D03*
%TO.P,X1,45,PD7*%
%TO.N,unconnected-(X1-Pad45)*%
X168499999Y-166880001D03*
%TO.P,X1,46,PE2*%
%TO.N,/A22*%
X171039999Y-166880001D03*
%TO.P,X1,47,PE3*%
%TO.N,/A18*%
X168499999Y-169420001D03*
%TO.P,X1,48,PE4*%
%TO.N,/A19*%
X171039999Y-169420001D03*
%TO.P,X1,49,GND*%
%TO.N,GND*%
X168499999Y-171960001D03*
%TO.P,X1,50,PE5*%
%TO.N,/A20*%
X171039999Y-171960001D03*
%TO.P,X1,51,PF1*%
%TO.N,/A0*%
X168499999Y-174500001D03*
%TO.P,X1,52,PF2*%
%TO.N,/A1*%
X171039999Y-174500001D03*
%TO.P,X1,53,PF0*%
%TO.N,/A-1*%
X168499999Y-177040001D03*
%TO.P,X1,54,PF8*%
%TO.N,unconnected-(X1-Pad54)*%
X171039999Y-177040001D03*
%TO.P,X1,55,PD1*%
%TO.N,/DQ3*%
X168499999Y-179580001D03*
%TO.P,X1,56,PF9*%
%TO.N,unconnected-(X1-Pad56)*%
X171039999Y-179580001D03*
%TO.P,X1,57,PD0*%
%TO.N,/DQ2*%
X168499999Y-182120001D03*
%TO.P,X1,58,PG1*%
%TO.N,/A10*%
X171039999Y-182120001D03*
%TO.P,X1,59,PG0*%
%TO.N,/A9*%
X168499999Y-184660001D03*
%TO.P,X1,60,GND*%
%TO.N,GND*%
X171039999Y-184660001D03*
%TO.P,X1,61,PE1*%
%TO.N,unconnected-(X1-Pad61)*%
X168499999Y-187200001D03*
%TO.P,X1,62,PE6*%
%TO.N,/A21*%
X171039999Y-187200001D03*
%TO.P,X1,63,PG9*%
%TO.N,unconnected-(X1-Pad63)*%
X168499999Y-189740001D03*
%TO.P,X1,64,PG15*%
%TO.N,unconnected-(X1-Pad64)*%
X171039999Y-189740001D03*
%TO.P,X1,65,PG12*%
%TO.N,unconnected-(X1-Pad65)*%
X168499999Y-192280001D03*
%TO.P,X1,66,PG10*%
%TO.N,unconnected-(X1-Pad66)*%
X171039999Y-192280001D03*
%TO.P,X1,67,NC*%
%TO.N,unconnected-(X1-Pad67)*%
X168499999Y-194820001D03*
%TO.P,X1,68,PG13/ETH_TXD0*%
%TO.N,unconnected-(X1-Pad68)*%
X171039999Y-194820001D03*
%TO.P,X1,69,STLINK_RX/PD9*%
%TO.N,Net-(R14-Pad2)*%
X168499999Y-197360001D03*
%TO.P,X1,70,PG11/ETH_TX_EN*%
%TO.N,unconnected-(X1-Pad70)*%
X171039999Y-197360001D03*
%TO.P,X1,71,GND*%
%TO.N,GND*%
X168499999Y-199900001D03*
%TO.P,X1,72,GND*%
X171039999Y-199900001D03*
%TO.P,X1,73,PC9*%
%TO.N,unconnected-(X1-Pad73)*%
X229459999Y-111000001D03*
%TO.P,X1,74,PC8*%
%TO.N,unconnected-(X1-Pad74)*%
X231999999Y-111000001D03*
%TO.P,X1,75,PB8*%
%TO.N,unconnected-(X1-Pad75)*%
X229459999Y-113540001D03*
%TO.P,X1,76,PC6*%
%TO.N,/RY{slash}~{BY}*%
X231999999Y-113540001D03*
%TO.P,X1,77,PB9*%
%TO.N,unconnected-(X1-Pad77)*%
X229459999Y-116080001D03*
%TO.P,X1,78,ETH_RXD1/PC5*%
%TO.N,unconnected-(X1-Pad78)*%
X231999999Y-116080001D03*
%TO.P,X1,79,AVDD*%
%TO.N,unconnected-(X1-Pad79)*%
X229459999Y-118620001D03*
%TO.P,X1,80,U5V*%
%TO.N,unconnected-(X1-Pad80)*%
X231999999Y-118620001D03*
%TO.P,X1,81,GND*%
%TO.N,GND*%
X229459999Y-121160001D03*
%TO.P,X1,82,STLINK_TX/PD8*%
%TO.N,Net-(R13-Pad1)*%
X231999999Y-121160001D03*
%TO.P,X1,83,PA5*%
%TO.N,unconnected-(X1-Pad83)*%
X229459999Y-123700001D03*
%TO.P,X1,84,USB_DP/PA12*%
%TO.N,unconnected-(X1-Pad84)*%
X231999999Y-123700001D03*
%TO.P,X1,85,PA6*%
%TO.N,unconnected-(X1-Pad85)*%
X229459999Y-126240001D03*
%TO.P,X1,86,USB_DM/PA11*%
%TO.N,unconnected-(X1-Pad86)*%
X231999999Y-126240001D03*
%TO.P,X1,87,ETH_CRS_DV/PA7*%
%TO.N,unconnected-(X1-Pad87)*%
X229459999Y-128780001D03*
%TO.P,X1,88,PB12*%
%TO.N,unconnected-(X1-Pad88)*%
X231999999Y-128780001D03*
%TO.P,X1,89,PB6*%
%TO.N,/A24*%
X229459999Y-131320001D03*
%TO.P,X1,90,PB11*%
%TO.N,unconnected-(X1-Pad90)*%
X231999999Y-131320001D03*
%TO.P,X1,91,PC7*%
%TO.N,/NE1*%
X229459999Y-133860001D03*
%TO.P,X1,92,GND*%
%TO.N,GND*%
X231999999Y-133860001D03*
%TO.P,X1,93,USB_VBUS/PA9*%
%TO.N,unconnected-(X1-Pad93)*%
X229459999Y-136400001D03*
%TO.P,X1,94,PB2*%
%TO.N,unconnected-(X1-Pad94)*%
X231999999Y-136400001D03*
%TO.P,X1,95,USB_SOF/PA8*%
%TO.N,unconnected-(X1-Pad95)*%
X229459999Y-138940001D03*
%TO.P,X1,96,PB1*%
%TO.N,unconnected-(X1-Pad96)*%
X231999999Y-138940001D03*
%TO.P,X1,97,PB10*%
%TO.N,unconnected-(X1-Pad97)*%
X229459999Y-141480001D03*
%TO.P,X1,98,PB15*%
%TO.N,unconnected-(X1-Pad98)*%
X231999999Y-141480001D03*
%TO.P,X1,99,PB4*%
%TO.N,unconnected-(X1-Pad99)*%
X229459999Y-144020001D03*
%TO.P,X1,100,LD3/PB14*%
%TO.N,unconnected-(X1-Pad100)*%
X231999999Y-144020001D03*
%TO.P,X1,101,PB5*%
%TO.N,/A23*%
X229459999Y-146560001D03*
%TO.P,X1,102,ETH_TXD1/PB13*%
%TO.N,unconnected-(X1-Pad102)*%
X231999999Y-146560001D03*
%TO.P,X1,103,SWO/PB3*%
%TO.N,unconnected-(X1-Pad103)*%
X229459999Y-149100001D03*
%TO.P,X1,104,AGND*%
%TO.N,unconnected-(X1-Pad104)*%
X231999999Y-149100001D03*
%TO.P,X1,105,USB_ID/PA10*%
%TO.N,unconnected-(X1-Pad105)*%
X229459999Y-151640001D03*
%TO.P,X1,106,ETH_RXD0/PC4*%
%TO.N,unconnected-(X1-Pad106)*%
X231999999Y-151640001D03*
%TO.P,X1,107,PA2*%
%TO.N,unconnected-(X1-Pad107)*%
X229459999Y-154180001D03*
%TO.P,X1,108,PF5*%
%TO.N,/A4*%
X231999999Y-154180001D03*
%TO.P,X1,109,PA3*%
%TO.N,unconnected-(X1-Pad109)*%
X229459999Y-156720001D03*
%TO.P,X1,110,PF4*%
%TO.N,/A3*%
X231999999Y-156720001D03*
%TO.P,X1,111,GND*%
%TO.N,GND*%
X229459999Y-159260001D03*
%TO.P,X1,112,PE8*%
%TO.N,/DQ5*%
X231999999Y-159260001D03*
%TO.P,X1,113,PD13*%
%TO.N,/A17*%
X229459999Y-161800001D03*
%TO.P,X1,114,PF10*%
%TO.N,unconnected-(X1-Pad114)*%
X231999999Y-161800001D03*
%TO.P,X1,115,PD12*%
%TO.N,/A16*%
X229459999Y-164340001D03*
%TO.P,X1,116,PE7*%
%TO.N,/DQ4*%
X231999999Y-164340001D03*
%TO.P,X1,117,PD11*%
%TO.N,/A15*%
X229459999Y-166880001D03*
%TO.P,X1,118,PD14*%
%TO.N,/DQ0*%
X231999999Y-166880001D03*
%TO.P,X1,119,PE10*%
%TO.N,/DQ7*%
X229459999Y-169420001D03*
%TO.P,X1,120,PD15*%
%TO.N,/DQ1*%
X231999999Y-169420001D03*
%TO.P,X1,121,PE12*%
%TO.N,Net-(R9-Pad1)*%
X229459999Y-171960001D03*
%TO.P,X1,122,PF14*%
%TO.N,/A7*%
X231999999Y-171960001D03*
%TO.P,X1,123,PE14*%
%TO.N,Net-(R11-Pad1)*%
X229459999Y-174500001D03*
%TO.P,X1,124,PE9*%
%TO.N,/DQ6*%
X231999999Y-174500001D03*
%TO.P,X1,125,PE15*%
%TO.N,Net-(R12-Pad2)*%
X229459999Y-177040001D03*
%TO.P,X1,126,GND*%
%TO.N,GND*%
X231999999Y-177040001D03*
%TO.P,X1,127,PE13*%
%TO.N,Net-(R10-Pad2)*%
X229459999Y-179580001D03*
%TO.P,X1,128,PE11*%
%TO.N,Net-(R8-Pad2)*%
X231999999Y-179580001D03*
%TO.P,X1,129,PF13*%
%TO.N,/A6*%
X229459999Y-182120001D03*
%TO.P,X1,130,PF3*%
%TO.N,/A2*%
X231999999Y-182120001D03*
%TO.P,X1,131,PF12*%
%TO.N,/A5*%
X229459999Y-184660001D03*
%TO.P,X1,132,PF15*%
%TO.N,/A8*%
X231999999Y-184660001D03*
%TO.P,X1,133,PG14*%
%TO.N,unconnected-(X1-Pad133)*%
X229459999Y-187200001D03*
%TO.P,X1,134,PF11*%
%TO.N,unconnected-(X1-Pad134)*%
X231999999Y-187200001D03*
%TO.P,X1,135,GND*%
%TO.N,GND*%
X229459999Y-189740001D03*
%TO.P,X1,136,PE0*%
%TO.N,unconnected-(X1-Pad136)*%
X231999999Y-189740001D03*
%TO.P,X1,137,PD10*%
%TO.N,Net-(R15-Pad1)*%
X229459999Y-192280001D03*
%TO.P,X1,138,PG8*%
%TO.N,unconnected-(X1-Pad138)*%
X231999999Y-192280001D03*
%TO.P,X1,139,PG7/USB_GPIO_IN*%
%TO.N,unconnected-(X1-Pad139)*%
X229459999Y-194820001D03*
%TO.P,X1,140,PG5*%
%TO.N,/A14*%
X231999999Y-194820001D03*
%TO.P,X1,141,PG4*%
%TO.N,/A13*%
X229459999Y-197360001D03*
%TO.P,X1,142,PG6/USB_GPIO_OUT*%
%TO.N,unconnected-(X1-Pad142)*%
X231999999Y-197360001D03*
%TO.P,X1,143,GND*%
%TO.N,GND*%
X229459999Y-199900001D03*
%TO.P,X1,144,GND*%
X231999999Y-199900001D03*
%TO.P,X1,145*%
%TO.N,N/C*%
X168499999Y-83060001D03*
%TO.P,X1,146*%
X168499999Y-85600001D03*
%TO.P,X1,147*%
X231999999Y-83060001D03*
%TO.P,X1,148*%
X231999999Y-85600001D03*
%TD*%
D29*
%TO.P,R4,1*%
%TO.N,/ANA_VWL*%
X188862500Y-117750000D03*
%TO.P,R4,2*%
%TO.N,GND*%
X187037500Y-117750000D03*
%TD*%
D23*
%TO.P,C6,1*%
%TO.N,+15V*%
X200500000Y-109900000D03*
%TO.P,C6,2*%
%TO.N,GND*%
X200500000Y-108000000D03*
%TD*%
%TO.P,C3,1*%
%TO.N,VCC*%
X214250000Y-121700000D03*
%TO.P,C3,2*%
%TO.N,GND*%
X214250000Y-119800000D03*
%TD*%
D30*
%TO.N,VCC*%
X178500000Y-120250000D03*
X212150000Y-165000000D03*
X210650000Y-165000000D03*
X213750000Y-123000000D03*
X180500000Y-120250000D03*
X210650000Y-164000000D03*
X214750000Y-123000000D03*
X179500000Y-120250000D03*
X212150000Y-164000000D03*
X209400000Y-165000000D03*
X181500000Y-120250000D03*
%TO.N,GND*%
X210000000Y-148300000D03*
X179850000Y-96300000D03*
X204750000Y-120500000D03*
X195000000Y-137000000D03*
X189750000Y-169000000D03*
X207500000Y-96750000D03*
X214650000Y-162000000D03*
X209000000Y-168500000D03*
X207500000Y-114750000D03*
X193250000Y-137000000D03*
X217000000Y-134000000D03*
X210000000Y-144750000D03*
X208500000Y-193750000D03*
X214500000Y-134700000D03*
X207500000Y-193750000D03*
X202500000Y-96750000D03*
X181500000Y-112000000D03*
X210000000Y-141200000D03*
X210250000Y-96750000D03*
X214650000Y-163000000D03*
X213800000Y-160600000D03*
X207500000Y-108500000D03*
X180000000Y-105000000D03*
X185750000Y-123250000D03*
X194750000Y-123500000D03*
X212500000Y-96750000D03*
X189750000Y-168000000D03*
X185750000Y-122250000D03*
X191750000Y-123500000D03*
X214750000Y-118500000D03*
X199250000Y-99750000D03*
X186400000Y-162500000D03*
X179100000Y-171200000D03*
X180500000Y-111000000D03*
X191850000Y-104750000D03*
X178500000Y-111000000D03*
X205000000Y-96750000D03*
X213750000Y-118500000D03*
X226200000Y-151300000D03*
X200000000Y-106250000D03*
X179850000Y-97300000D03*
X187100000Y-134800000D03*
X198250000Y-99750000D03*
X179500000Y-130250000D03*
X179500000Y-111000000D03*
X207800000Y-155500000D03*
X178500000Y-112000000D03*
X181500000Y-111000000D03*
X215000000Y-108500000D03*
X181500000Y-172500000D03*
X185750000Y-117250000D03*
X181500000Y-162100000D03*
X212500000Y-125500000D03*
X180000000Y-104000000D03*
X223900000Y-148900000D03*
X176000000Y-127600000D03*
X185750000Y-118250000D03*
X191500000Y-137000000D03*
%TO.N,+15V*%
X203250000Y-110000000D03*
X197350000Y-113400000D03*
X203250000Y-111750000D03*
X186050000Y-100050000D03*
X197350000Y-112150000D03*
X197000000Y-120750000D03*
X203250000Y-113500000D03*
X197000000Y-122000000D03*
X204750000Y-121750000D03*
%TO.N,/DQ15*%
X184250000Y-158000000D03*
X215250000Y-153500000D03*
%TO.N,/A22*%
X174000000Y-127000000D03*
%TO.N,/A15*%
X223250000Y-128000000D03*
%TO.N,/A14*%
X214500000Y-136250000D03*
%TO.N,/A13*%
X219500000Y-181500000D03*
X220000000Y-130750000D03*
%TO.N,/A12*%
X179000000Y-161750000D03*
%TO.N,/A11*%
X181500000Y-160750000D03*
%TO.N,/A10*%
X178000000Y-128000000D03*
X178500000Y-172750000D03*
%TO.N,/A9*%
X188500000Y-135500000D03*
X187500000Y-180500000D03*
%TO.N,/A8*%
X215500000Y-137500000D03*
%TO.N,/A19*%
X175250000Y-129000000D03*
%TO.N,/~{WE}*%
X173000000Y-155500000D03*
X182750000Y-153250000D03*
%TO.N,/A21*%
X181500000Y-174000000D03*
X186000000Y-133500000D03*
%TO.N,/RY{slash}~{BY}*%
X209500000Y-129000000D03*
X227500000Y-129000000D03*
%TO.N,/A18*%
X175750000Y-125750000D03*
X166890982Y-126109018D03*
%TO.N,/A17*%
X227250000Y-149500000D03*
%TO.N,/A7*%
X225000000Y-132750000D03*
%TO.N,/A6*%
X219250000Y-127250000D03*
%TO.N,/A5*%
X216500000Y-139250000D03*
%TO.N,/A3*%
X234000000Y-125000000D03*
%TO.N,/A2*%
X217250000Y-141250000D03*
%TO.N,/DQ0*%
X230750000Y-173250000D03*
%TO.N,/DQ8*%
X222250000Y-149250000D03*
%TO.N,/DQ9*%
X222750000Y-172000000D03*
%TO.N,/DQ2*%
X185500000Y-155500000D03*
X195000000Y-154250000D03*
%TO.N,/DQ10*%
X221000000Y-157500000D03*
%TO.N,/DQ11*%
X224500000Y-150500000D03*
%TO.N,/DQ12*%
X223500000Y-151750000D03*
%TO.N,/DQ5*%
X209500000Y-155500000D03*
%TO.N,/DQ13*%
X211750000Y-159750000D03*
%TO.N,/DQ14*%
X188000000Y-162500000D03*
%TO.N,/A16*%
X226000000Y-154750000D03*
%TO.N,/A24*%
X212500000Y-160500000D03*
X213750000Y-130000000D03*
%TO.N,/CE_SW*%
X209250000Y-120000000D03*
%TO.N,-15V*%
X191600000Y-112900000D03*
X192500000Y-121500000D03*
X192500000Y-120250000D03*
X191600000Y-111650000D03*
X191250000Y-120250000D03*
X191250000Y-121500000D03*
X186000000Y-107750000D03*
X192850000Y-111650000D03*
X192850000Y-112900000D03*
%TO.N,/~{BYTE}*%
X204500000Y-170500000D03*
%TO.N,Net-(R13-Pad1)*%
X224750000Y-122500000D03*
%TD*%
D31*
%TO.N,VCC*%
X211475000Y-121655000D02*
X214205000Y-121655000D01*
X210000000Y-162000000D02*
X200500000Y-162000000D01*
X199800742Y-161300742D02*
X199800742Y-160549258D01*
X200500000Y-162000000D02*
X199800742Y-161300742D01*
X210500000Y-175500000D02*
X213000000Y-178000000D01*
X210500000Y-175500000D02*
X210500000Y-165150000D01*
X214205000Y-121655000D02*
X214250000Y-121700000D01*
X213000000Y-178000000D02*
X213000000Y-184000000D01*
X210500000Y-165150000D02*
X210650000Y-165000000D01*
%TO.N,GND*%
X215000000Y-109850000D02*
X215000000Y-108500000D01*
D32*
X209000000Y-168500000D02*
X207825000Y-168500000D01*
D31*
X193025000Y-104750000D02*
X191850000Y-104750000D01*
D32*
X206525000Y-120385000D02*
X204865000Y-120385000D01*
D31*
X200500000Y-108000000D02*
X200500000Y-106750000D01*
D32*
X204865000Y-120385000D02*
X204750000Y-120500000D01*
D31*
X200500000Y-106750000D02*
X200000000Y-106250000D01*
%TO.N,VIO*%
X192800742Y-168350742D02*
X192950000Y-168500000D01*
X202587500Y-168500000D02*
X192950000Y-168500000D01*
X210460000Y-181460000D02*
X202587500Y-173587500D01*
X210460000Y-184000000D02*
X210460000Y-181460000D01*
X202587500Y-173587500D02*
X202587500Y-168500000D01*
X192800742Y-163849258D02*
X192800742Y-168350742D01*
%TO.N,+15V*%
X206525000Y-121655000D02*
X204845000Y-121655000D01*
X197175000Y-107765000D02*
X195885000Y-107765000D01*
X195450000Y-110800000D02*
X196300000Y-111650000D01*
X195885000Y-107765000D02*
X195450000Y-108200000D01*
X200500000Y-109900000D02*
X203150000Y-109900000D01*
X197100000Y-116330000D02*
X198030000Y-116330000D01*
X198030000Y-116330000D02*
X198600000Y-116900000D01*
X195450000Y-108200000D02*
X195450000Y-110800000D01*
X203150000Y-109900000D02*
X203250000Y-110000000D01*
X198600000Y-119650000D02*
X197750000Y-120500000D01*
X198600000Y-116900000D02*
X198600000Y-119650000D01*
X204845000Y-121655000D02*
X204750000Y-121750000D01*
D32*
%TO.N,/ANA_CE*%
X215000000Y-111750000D02*
X214975000Y-111725000D01*
X206525000Y-119115000D02*
X208135000Y-119115000D01*
X214975000Y-111725000D02*
X210015000Y-111725000D01*
X210015000Y-117235000D02*
X210015000Y-111725000D01*
X208135000Y-119115000D02*
X210015000Y-117235000D01*
D31*
%TO.N,/VCC_IN*%
X173000000Y-127750000D02*
X173000000Y-123500000D01*
X171039999Y-128780001D02*
X171969999Y-128780001D01*
X173500000Y-123000000D02*
X175000000Y-123000000D01*
X171969999Y-128780001D02*
X173000000Y-127750000D01*
X173000000Y-123500000D02*
X173500000Y-123000000D01*
%TO.N,/EVIO*%
X208000000Y-188500000D02*
X207500000Y-188000000D01*
X207920000Y-187580000D02*
X207500000Y-188000000D01*
X208000000Y-190450000D02*
X208000000Y-188500000D01*
X207920000Y-184000000D02*
X207920000Y-187580000D01*
D32*
%TO.N,/DQ15*%
X215250000Y-153500000D02*
X215250000Y-159000000D01*
X184250000Y-173750000D02*
X180999999Y-177000001D01*
X180999999Y-177000001D02*
X176412499Y-177000001D01*
X219000000Y-192250000D02*
X223425000Y-192250000D01*
X216250000Y-189500000D02*
X219000000Y-192250000D01*
X216250000Y-160000000D02*
X216250000Y-189500000D01*
X184250000Y-158000000D02*
X184250000Y-173750000D01*
X215250000Y-159000000D02*
X216250000Y-160000000D01*
%TO.N,/A-1*%
X172164508Y-178335492D02*
X173500000Y-177000000D01*
X173500000Y-177000000D02*
X174587499Y-177000001D01*
X168499999Y-177040001D02*
X169795490Y-178335492D01*
X169795490Y-178335492D02*
X172164508Y-178335492D01*
%TO.N,/A22*%
X174000000Y-127000000D02*
X174000000Y-166500000D01*
X174000000Y-166500000D02*
X173619999Y-166880001D01*
X173619999Y-166880001D02*
X171039999Y-166880001D01*
%TO.N,/A15*%
X223250000Y-144250000D02*
X225250000Y-146250000D01*
X227380001Y-166880001D02*
X229459999Y-166880001D01*
X225250000Y-146250000D02*
X225250000Y-164750000D01*
X223250000Y-128000000D02*
X223250000Y-144250000D01*
X225250000Y-164750000D02*
X227380001Y-166880001D01*
%TO.N,/A14*%
X215500000Y-192000000D02*
X217000000Y-193500000D01*
X214500000Y-159600000D02*
X215653000Y-160753000D01*
X214500000Y-136250000D02*
X214500000Y-159600000D01*
X230679998Y-193500000D02*
X231999999Y-194820001D01*
X215653000Y-160753000D02*
X215500000Y-192000000D01*
X217000000Y-193500000D02*
X230679998Y-193500000D01*
%TO.N,/A13*%
X218500000Y-180500000D02*
X219500000Y-181500000D01*
X220000000Y-130750000D02*
X220000000Y-143500000D01*
X218500000Y-173500000D02*
X218500000Y-180500000D01*
X218500000Y-145000000D02*
X218500000Y-173500000D01*
X220000000Y-143500000D02*
X218500000Y-145000000D01*
%TO.N,/A12*%
X202750000Y-128750000D02*
X182750000Y-128750000D01*
X203800742Y-126669258D02*
X203800742Y-127699258D01*
X182750000Y-128750000D02*
X179000000Y-132500000D01*
X203800742Y-127699258D02*
X202750000Y-128750000D01*
X179000000Y-132500000D02*
X179000000Y-161750000D01*
%TO.N,/A11*%
X203300742Y-132050742D02*
X202750000Y-131500000D01*
X181500000Y-134000000D02*
X181500000Y-160750000D01*
X203300742Y-133269258D02*
X203300742Y-132050742D01*
X184000000Y-131500000D02*
X181500000Y-134000000D01*
X202750000Y-131500000D02*
X184000000Y-131500000D01*
%TO.N,/A10*%
X178000000Y-172250000D02*
X178500000Y-172750000D01*
X178000000Y-128000000D02*
X178000000Y-172250000D01*
%TO.N,/A9*%
X189500000Y-164500000D02*
X187500000Y-166500000D01*
X188500000Y-158500000D02*
X189500000Y-159500000D01*
X188500000Y-135500000D02*
X188500000Y-158500000D01*
X187500000Y-166500000D02*
X187500000Y-180500000D01*
X189500000Y-159500000D02*
X189500000Y-164500000D01*
%TO.N,/A8*%
X230660000Y-186000000D02*
X227500000Y-186000000D01*
X216750000Y-185750000D02*
X216750000Y-153500000D01*
X231999999Y-184660001D02*
X230660000Y-186000000D01*
X216750000Y-153500000D02*
X215500000Y-152250000D01*
X219000000Y-188000000D02*
X216750000Y-185750000D01*
X225500000Y-188000000D02*
X219000000Y-188000000D01*
X215500000Y-152250000D02*
X215500000Y-137500000D01*
X227500000Y-186000000D02*
X225500000Y-188000000D01*
%TO.N,/A19*%
X174079999Y-169420001D02*
X171039999Y-169420001D01*
X175250000Y-168250000D02*
X174079999Y-169420001D01*
X175250000Y-129000000D02*
X175250000Y-168250000D01*
%TO.N,/A20*%
X200800742Y-127449258D02*
X200800742Y-126669258D01*
X191750000Y-127000000D02*
X192500000Y-127750000D01*
X177500000Y-127000000D02*
X191750000Y-127000000D01*
X177000000Y-171500000D02*
X177000000Y-127500000D01*
X171039999Y-171960001D02*
X176539999Y-171960001D01*
X200500000Y-127750000D02*
X200800742Y-127449258D01*
X176539999Y-171960001D02*
X177000000Y-171500000D01*
X177000000Y-127500000D02*
X177500000Y-127000000D01*
X192500000Y-127750000D02*
X200500000Y-127750000D01*
%TO.N,/~{WE}*%
X200000000Y-132250000D02*
X185000000Y-132250000D01*
X172500000Y-160500000D02*
X169800000Y-160500000D01*
X169800000Y-160500000D02*
X168499999Y-161800001D01*
X200300742Y-132550742D02*
X200000000Y-132250000D01*
X173000000Y-155500000D02*
X173000000Y-160000000D01*
X173000000Y-160000000D02*
X172500000Y-160500000D01*
X182750000Y-134500000D02*
X182750000Y-153250000D01*
X185000000Y-132250000D02*
X182750000Y-134500000D01*
X200300742Y-133269258D02*
X200300742Y-132550742D01*
%TO.N,/A21*%
X183000000Y-155500000D02*
X183000000Y-172500000D01*
X186000000Y-133500000D02*
X186000000Y-152500000D01*
X186000000Y-152500000D02*
X183000000Y-155500000D01*
X183000000Y-172500000D02*
X181500000Y-174000000D01*
%TO.N,/RY{slash}~{BY}*%
X227500000Y-129000000D02*
X227500000Y-116000000D01*
X228649018Y-114850982D02*
X230689018Y-114850982D01*
X227500000Y-116000000D02*
X228649018Y-114850982D01*
X230689018Y-114850982D02*
X231999999Y-113540001D01*
%TO.N,/A18*%
X166890982Y-168640982D02*
X166890982Y-126109018D01*
X167670001Y-169420001D02*
X166890982Y-168640982D01*
X196881484Y-125750000D02*
X197800742Y-126669258D01*
X175750000Y-125750000D02*
X196881484Y-125750000D01*
X168499999Y-169420001D02*
X167670001Y-169420001D01*
%TO.N,/A17*%
X228300001Y-161800001D02*
X229459999Y-161800001D01*
X227250000Y-160750000D02*
X228300001Y-161800001D01*
X227250000Y-149500000D02*
X227250000Y-160750000D01*
%TO.N,/A7*%
X234000000Y-169960000D02*
X231999999Y-171960001D01*
X230750000Y-162750000D02*
X231000000Y-163000000D01*
X231000000Y-163000000D02*
X232500000Y-163000000D01*
X230250000Y-135000000D02*
X230750000Y-135500000D01*
X232500000Y-163000000D02*
X234000000Y-164500000D01*
X227250000Y-135000000D02*
X230250000Y-135000000D01*
X234000000Y-164500000D02*
X234000000Y-169960000D01*
X225000000Y-132750000D02*
X227250000Y-135000000D01*
X230750000Y-135500000D02*
X230750000Y-162750000D01*
%TO.N,/A6*%
X220750000Y-184250000D02*
X220750000Y-180750000D01*
X221750000Y-129750000D02*
X219250000Y-127250000D01*
X224250000Y-185500000D02*
X222000000Y-185500000D01*
X221750000Y-144250000D02*
X221750000Y-129750000D01*
X222000000Y-185500000D02*
X220750000Y-184250000D01*
X220750000Y-180750000D02*
X219000000Y-179000000D01*
X219000000Y-179000000D02*
X219000000Y-147000000D01*
X229459999Y-182120001D02*
X227629999Y-182120001D01*
X227629999Y-182120001D02*
X224250000Y-185500000D01*
X219000000Y-147000000D02*
X221750000Y-144250000D01*
%TO.N,/A5*%
X216500000Y-139250000D02*
X216500000Y-152000000D01*
X224570002Y-187250000D02*
X227160001Y-184660001D01*
X220000000Y-187250000D02*
X224570002Y-187250000D01*
X227160001Y-184660001D02*
X229459999Y-184660001D01*
X217500000Y-153000000D02*
X217500000Y-184750000D01*
X217500000Y-184750000D02*
X220000000Y-187250000D01*
X216500000Y-152000000D02*
X217500000Y-153000000D01*
%TO.N,/A3*%
X234000000Y-154720000D02*
X234000000Y-125000000D01*
X234000000Y-154720000D02*
X231999999Y-156720001D01*
%TO.N,/A2*%
X221750000Y-186000000D02*
X224750000Y-186000000D01*
X227334508Y-183415492D02*
X230704508Y-183415492D01*
X224750000Y-186000000D02*
X227334508Y-183415492D01*
X217250000Y-151500000D02*
X218000000Y-152250000D01*
X218000000Y-182250000D02*
X221750000Y-186000000D01*
X218000000Y-152250000D02*
X218000000Y-182250000D01*
X217250000Y-141250000D02*
X217250000Y-151500000D01*
X230704508Y-183415492D02*
X231999999Y-182120001D01*
%TO.N,/A1*%
X180250000Y-134000000D02*
X180250000Y-173500000D01*
X184280742Y-129969258D02*
X180250000Y-134000000D01*
X180250000Y-173500000D02*
X179249999Y-174500001D01*
X179249999Y-174500001D02*
X171039999Y-174500001D01*
X193800742Y-129969258D02*
X184280742Y-129969258D01*
%TO.N,/~{CE}*%
X192000000Y-152250000D02*
X207250000Y-137000000D01*
X192000000Y-161750000D02*
X192000000Y-152250000D01*
X204655000Y-117845000D02*
X206525000Y-117845000D01*
X203500000Y-119000000D02*
X204655000Y-117845000D01*
X211500000Y-127000000D02*
X207250000Y-122750000D01*
X194300742Y-162800742D02*
X193500000Y-162000000D01*
X194300742Y-163849258D02*
X194300742Y-162800742D01*
X193500000Y-162000000D02*
X192250000Y-162000000D01*
X203500000Y-121750000D02*
X203500000Y-119000000D01*
X192250000Y-162000000D02*
X192000000Y-161750000D01*
X208500000Y-137000000D02*
X211500000Y-134000000D01*
X211500000Y-134000000D02*
X211500000Y-127000000D01*
X204500000Y-122750000D02*
X203500000Y-121750000D01*
X207250000Y-137000000D02*
X208500000Y-137000000D01*
X207250000Y-122750000D02*
X204500000Y-122750000D01*
%TO.N,/DQ0*%
X230750000Y-168130000D02*
X231999999Y-166880001D01*
X230750000Y-173250000D02*
X230750000Y-168130000D01*
%TO.N,/DQ8*%
X219750000Y-151750000D02*
X219750000Y-179000000D01*
X219750000Y-179000000D02*
X221750000Y-181000000D01*
X222250000Y-149250000D02*
X219750000Y-151750000D01*
X221750000Y-181000000D02*
X225425000Y-181000000D01*
%TO.N,/DQ9*%
X223850000Y-172000000D02*
X222750000Y-172000000D01*
%TO.N,/DQ2*%
X184750000Y-158750000D02*
X184750000Y-175500000D01*
X197800742Y-157249258D02*
X197800742Y-156050742D01*
X184750000Y-175500000D02*
X179289999Y-180960001D01*
X185500000Y-155500000D02*
X185500000Y-158000000D01*
X197800742Y-156050742D02*
X196000000Y-154250000D01*
X169659999Y-180960001D02*
X168499999Y-182120001D01*
X185500000Y-158000000D02*
X184750000Y-158750000D01*
X196000000Y-154250000D02*
X195000000Y-154250000D01*
X179289999Y-180960001D02*
X169659999Y-180960001D01*
%TO.N,/DQ10*%
X220500000Y-178250000D02*
X221750000Y-179500000D01*
X221750000Y-179500000D02*
X223425000Y-179500000D01*
X221000000Y-157500000D02*
X221000000Y-167250000D01*
X220500000Y-167750000D02*
X220500000Y-178250000D01*
X221000000Y-167250000D02*
X220500000Y-167750000D01*
%TO.N,/DQ11*%
X223000000Y-174500000D02*
X223425000Y-174500000D01*
X222000000Y-173500000D02*
X223000000Y-174500000D01*
X222000000Y-168750000D02*
X222000000Y-173500000D01*
X224500000Y-150500000D02*
X224500000Y-166250000D01*
X224500000Y-166250000D02*
X222000000Y-168750000D01*
%TO.N,/DQ12*%
X221250000Y-176000000D02*
X222250000Y-177000000D01*
X223500000Y-166000000D02*
X221250000Y-168250000D01*
X223500000Y-151750000D02*
X223500000Y-166000000D01*
X221250000Y-168250000D02*
X221250000Y-176000000D01*
X222250000Y-177000000D02*
X223425000Y-177000000D01*
%TO.N,/DQ5*%
X201300742Y-160549258D02*
X202350000Y-159500000D01*
X205500000Y-159500000D02*
X209500000Y-155500000D01*
X202350000Y-159500000D02*
X205500000Y-159500000D01*
%TO.N,/DQ13*%
X212500000Y-159000000D02*
X211750000Y-159750000D01*
X212500000Y-159000000D02*
X212500000Y-128500000D01*
X218500000Y-122500000D02*
X220925000Y-122500000D01*
X212500000Y-128500000D02*
X218500000Y-122500000D01*
%TO.N,/DQ14*%
X188000000Y-162500000D02*
X185500000Y-165000000D01*
X185500000Y-188000000D02*
X177250000Y-196250000D01*
X177250000Y-196250000D02*
X175325000Y-196250000D01*
X185500000Y-165000000D02*
X185500000Y-188000000D01*
%TO.N,/A16*%
X226840001Y-164340001D02*
X229459999Y-164340001D01*
X226000000Y-154750000D02*
X226000000Y-163500000D01*
X226000000Y-163500000D02*
X226840001Y-164340001D01*
%TO.N,/A24*%
X213750000Y-159250000D02*
X212500000Y-160500000D01*
X213750000Y-130000000D02*
X213750000Y-159250000D01*
%TO.N,/CE_SW*%
X211475000Y-120385000D02*
X209635000Y-120385000D01*
X209635000Y-120385000D02*
X209250000Y-120000000D01*
%TO.N,/NE1*%
X211475000Y-116775000D02*
X211475000Y-117845000D01*
X228110001Y-133860001D02*
X226750000Y-132500000D01*
X229459999Y-133860001D02*
X228110001Y-133860001D01*
X212250000Y-116000000D02*
X211475000Y-116775000D01*
X220750000Y-116000000D02*
X212250000Y-116000000D01*
X226750000Y-132500000D02*
X226750000Y-122000000D01*
X226750000Y-122000000D02*
X220750000Y-116000000D01*
D31*
%TO.N,/EVIO_IN*%
X203000000Y-184000000D02*
X203000000Y-187500000D01*
X203000000Y-187500000D02*
X203500000Y-188000000D01*
%TO.N,/+15V_IN*%
X171039999Y-98300001D02*
X172789998Y-100050000D01*
X172789998Y-100050000D02*
X179450000Y-100050000D01*
D32*
%TO.N,/ANA_WP_SENSE*%
X224449998Y-93250000D02*
X195250000Y-93250000D01*
X190100000Y-108050000D02*
X190100000Y-98500000D01*
X229499999Y-98300001D02*
X224449998Y-93250000D01*
X190100000Y-98400000D02*
X195250000Y-93250000D01*
%TO.N,/ANA_WP*%
X214500000Y-94250000D02*
X221090001Y-100840001D01*
X221090001Y-100840001D02*
X229499999Y-100840001D01*
X198750000Y-94300000D02*
X198800000Y-94250000D01*
X198750000Y-96587500D02*
X198750000Y-94300000D01*
X195350000Y-94250000D02*
X190750000Y-98850000D01*
X192210000Y-109050000D02*
X192225000Y-109035000D01*
X190750000Y-98850000D02*
X190750000Y-109050000D01*
X198800000Y-94250000D02*
X214500000Y-94250000D01*
X190750000Y-109050000D02*
X192210000Y-109050000D01*
X190100000Y-109050000D02*
X190750000Y-109050000D01*
X198800000Y-94250000D02*
X195350000Y-94250000D01*
%TO.N,/ANA_VWL_SENSE*%
X189500000Y-115850000D02*
X190300000Y-116650000D01*
X230750000Y-102130000D02*
X230750000Y-97376002D01*
X189500000Y-97650000D02*
X189500000Y-115850000D01*
X230750000Y-97376002D02*
X225373998Y-92000000D01*
X229499999Y-103380001D02*
X230750000Y-102130000D01*
X195150000Y-92000000D02*
X189500000Y-97650000D01*
X225373998Y-92000000D02*
X195150000Y-92000000D01*
%TO.N,/ANA_VWL*%
X188962500Y-117650000D02*
X190300000Y-117650000D01*
X192100000Y-117650000D02*
X192150000Y-117600000D01*
X188862500Y-117750000D02*
X188962500Y-117650000D01*
X190300000Y-117650000D02*
X192100000Y-117650000D01*
X234000000Y-107750000D02*
X233250000Y-108500000D01*
X230500000Y-108500000D02*
X229499999Y-107499999D01*
X194400000Y-90500000D02*
X231000000Y-90500000D01*
X188862500Y-96037500D02*
X188862500Y-117750000D01*
X229499999Y-107499999D02*
X229499999Y-105920001D01*
X231000000Y-90500000D02*
X234000000Y-93500000D01*
X194400000Y-90500000D02*
X188862500Y-96037500D01*
X234000000Y-93500000D02*
X234000000Y-107750000D01*
X233250000Y-108500000D02*
X230500000Y-108500000D01*
%TO.N,/~{BYTE}*%
X204412500Y-170412500D02*
X204500000Y-170500000D01*
X204412500Y-168500000D02*
X204412500Y-170412500D01*
X204412500Y-168500000D02*
X206000000Y-168500000D01*
%TO.N,/VWL_BUF*%
X199800742Y-129969258D02*
X199800742Y-130800742D01*
X194990000Y-118310000D02*
X195700000Y-117600000D01*
X199800742Y-130800742D02*
X200000000Y-131000000D01*
X194430000Y-116330000D02*
X192150000Y-116330000D01*
X197100000Y-117600000D02*
X195700000Y-117600000D01*
X206250000Y-125250000D02*
X197750000Y-125250000D01*
X194990000Y-122490000D02*
X194990000Y-118310000D01*
X207000000Y-131000000D02*
X207250000Y-130750000D01*
X207250000Y-130750000D02*
X207250000Y-126250000D01*
X200000000Y-131000000D02*
X207000000Y-131000000D01*
X195700000Y-117600000D02*
X194430000Y-116330000D01*
X207250000Y-126250000D02*
X206250000Y-125250000D01*
X197750000Y-125250000D02*
X194990000Y-122490000D01*
%TO.N,/WP_BUF*%
X198950000Y-112250000D02*
X198950000Y-109320000D01*
X199750000Y-113050000D02*
X198950000Y-112250000D01*
X198665000Y-109035000D02*
X198950000Y-108750000D01*
X197175000Y-109035000D02*
X198665000Y-109035000D01*
X208250000Y-125500000D02*
X208250000Y-129750000D01*
X210500000Y-134000000D02*
X209000000Y-135500000D01*
X198950000Y-105150000D02*
X198550000Y-104750000D01*
X198950000Y-108750000D02*
X198950000Y-105150000D01*
X198665000Y-109035000D02*
X198950000Y-109320000D01*
X199750000Y-135500000D02*
X198800742Y-134550742D01*
X203200000Y-124000000D02*
X199750000Y-120550000D01*
X208250000Y-129750000D02*
X210500000Y-132000000D01*
X199750000Y-120550000D02*
X199750000Y-113050000D01*
X198800742Y-134550742D02*
X198800742Y-133269258D01*
X198550000Y-104750000D02*
X197775000Y-104750000D01*
X203200000Y-124000000D02*
X206750000Y-124000000D01*
X206750000Y-124000000D02*
X208250000Y-125500000D01*
X209000000Y-135500000D02*
X199750000Y-135500000D01*
X210500000Y-132000000D02*
X210500000Y-134000000D01*
D31*
%TO.N,/-15V_IN*%
X168499999Y-98300001D02*
X169750000Y-99550002D01*
X170522232Y-102090001D02*
X175090001Y-102090001D01*
X169750000Y-101317769D02*
X170522232Y-102090001D01*
X179500000Y-106500000D02*
X179500000Y-107750000D01*
X169750000Y-99550002D02*
X169750000Y-101317769D01*
X175090001Y-102090001D02*
X179500000Y-106500000D01*
D32*
%TO.N,Net-(R6-Pad1)*%
X193735000Y-107765000D02*
X194675000Y-106825000D01*
X194675000Y-106825000D02*
X194675000Y-104750000D01*
X194675000Y-104750000D02*
X196125000Y-104750000D01*
X192225000Y-107765000D02*
X193735000Y-107765000D01*
%TO.N,Net-(R8-Pad2)*%
X230580000Y-181000000D02*
X231999999Y-179580001D01*
X227075000Y-181000000D02*
X230580000Y-181000000D01*
%TO.N,Net-(R9-Pad1)*%
X225500000Y-172000000D02*
X225539999Y-171960001D01*
X225539999Y-171960001D02*
X229459999Y-171960001D01*
%TO.N,Net-(R10-Pad2)*%
X225155001Y-179580001D02*
X229459999Y-179580001D01*
X225075000Y-179500000D02*
X225155001Y-179580001D01*
%TO.N,Net-(R11-Pad1)*%
X225075000Y-174500000D02*
X229459999Y-174500001D01*
%TO.N,Net-(R12-Pad2)*%
X225150000Y-177000000D02*
X225190001Y-177040001D01*
X225190001Y-177040001D02*
X229459999Y-177040001D01*
%TO.N,Net-(R13-Pad1)*%
X222575000Y-122500000D02*
X224750000Y-122500000D01*
%TO.N,Net-(R14-Pad2)*%
X169610000Y-196250000D02*
X168499999Y-197360001D01*
X173675000Y-196250000D02*
X169610000Y-196250000D01*
%TO.N,Net-(R15-Pad1)*%
X225075000Y-192250000D02*
X225105001Y-192280001D01*
X225105001Y-192280001D02*
X229459999Y-192280001D01*
%TD*%
%TA.AperFunction,Conductor*%
%TO.N,GND*%
G36*
X186392121Y-121770002D02*
G01*
X186438614Y-121823658D01*
X186450000Y-121876000D01*
X186450000Y-123624000D01*
X186429998Y-123692121D01*
X186376342Y-123738614D01*
X186324000Y-123750000D01*
X183802190Y-123750000D01*
X183734069Y-123729998D01*
X183713095Y-123713095D01*
X183546405Y-123546405D01*
X183512379Y-123484093D01*
X183509500Y-123457310D01*
X183509500Y-123292591D01*
X183509241Y-123281004D01*
X183508739Y-123269773D01*
X183503216Y-123243828D01*
X183996001Y-123243828D01*
X183997209Y-123256088D01*
X184008315Y-123311931D01*
X184017633Y-123334427D01*
X184059983Y-123397808D01*
X184077192Y-123415017D01*
X184140575Y-123457368D01*
X184163066Y-123466684D01*
X184218915Y-123477793D01*
X184231170Y-123479000D01*
X184306885Y-123479000D01*
X184322124Y-123474525D01*
X184323329Y-123473135D01*
X184325000Y-123465452D01*
X184325000Y-123460884D01*
X184775000Y-123460884D01*
X184779475Y-123476123D01*
X184780865Y-123477328D01*
X184788548Y-123478999D01*
X184868828Y-123478999D01*
X184881088Y-123477791D01*
X184936931Y-123466685D01*
X184959427Y-123457367D01*
X185022808Y-123415017D01*
X185040017Y-123397808D01*
X185082368Y-123334425D01*
X185091684Y-123311934D01*
X185102793Y-123256085D01*
X185104000Y-123243830D01*
X185104000Y-123243115D01*
X185099525Y-123227876D01*
X185098135Y-123226671D01*
X185090452Y-123225000D01*
X184793115Y-123225000D01*
X184777876Y-123229475D01*
X184776671Y-123230865D01*
X184775000Y-123238548D01*
X184775000Y-123460884D01*
X184325000Y-123460884D01*
X184325000Y-123243115D01*
X184320525Y-123227876D01*
X184319135Y-123226671D01*
X184311452Y-123225000D01*
X184014116Y-123225000D01*
X183998877Y-123229475D01*
X183997672Y-123230865D01*
X183996001Y-123238548D01*
X183996001Y-123243828D01*
X183503216Y-123243828D01*
X183502762Y-123241697D01*
X183500000Y-123215461D01*
X183500000Y-122782506D01*
X183501282Y-122764575D01*
X183502388Y-122756885D01*
X183996000Y-122756885D01*
X184000475Y-122772124D01*
X184001865Y-122773329D01*
X184009548Y-122775000D01*
X184306885Y-122775000D01*
X184322124Y-122770525D01*
X184323329Y-122769135D01*
X184325000Y-122761452D01*
X184325000Y-122756885D01*
X184775000Y-122756885D01*
X184779475Y-122772124D01*
X184780865Y-122773329D01*
X184788548Y-122775000D01*
X185085884Y-122775000D01*
X185101123Y-122770525D01*
X185102328Y-122769135D01*
X185103999Y-122761452D01*
X185103999Y-122756172D01*
X185102791Y-122743912D01*
X185091685Y-122688069D01*
X185082367Y-122665573D01*
X185040017Y-122602192D01*
X185022808Y-122584983D01*
X184959425Y-122542632D01*
X184936934Y-122533316D01*
X184881085Y-122522207D01*
X184868830Y-122521000D01*
X184793115Y-122521000D01*
X184777876Y-122525475D01*
X184776671Y-122526865D01*
X184775000Y-122534548D01*
X184775000Y-122756885D01*
X184325000Y-122756885D01*
X184325000Y-122539116D01*
X184320525Y-122523877D01*
X184319135Y-122522672D01*
X184311452Y-122521001D01*
X184231172Y-122521001D01*
X184218912Y-122522209D01*
X184163069Y-122533315D01*
X184140573Y-122542633D01*
X184077192Y-122584983D01*
X184059983Y-122602192D01*
X184017632Y-122665575D01*
X184008316Y-122688066D01*
X183997207Y-122743915D01*
X183996000Y-122756170D01*
X183996000Y-122756885D01*
X183502388Y-122756885D01*
X183508861Y-122711863D01*
X183508861Y-122711856D01*
X183509500Y-122707415D01*
X183509500Y-122042690D01*
X183529502Y-121974569D01*
X183546405Y-121953595D01*
X183713095Y-121786905D01*
X183775407Y-121752879D01*
X183802190Y-121750000D01*
X186324000Y-121750000D01*
X186392121Y-121770002D01*
G37*
%TD.AperFunction*%
%TD*%
%TA.AperFunction,Conductor*%
%TO.N,+15V*%
G36*
X205042121Y-108520002D02*
G01*
X205088614Y-108573658D01*
X205100000Y-108626000D01*
X205100000Y-114874000D01*
X205079998Y-114942121D01*
X205026342Y-114988614D01*
X204974000Y-115000000D01*
X202376000Y-115000000D01*
X202307879Y-114979998D01*
X202261386Y-114926342D01*
X202250000Y-114874000D01*
X202250000Y-114069669D01*
X203877001Y-114069669D01*
X203877371Y-114076490D01*
X203882895Y-114127352D01*
X203886521Y-114142604D01*
X203931676Y-114263054D01*
X203940214Y-114278649D01*
X204016715Y-114380724D01*
X204029276Y-114393285D01*
X204131351Y-114469786D01*
X204146946Y-114478324D01*
X204267394Y-114523478D01*
X204282649Y-114527105D01*
X204333514Y-114532631D01*
X204340328Y-114533000D01*
X204662885Y-114533000D01*
X204678124Y-114528525D01*
X204679329Y-114527135D01*
X204681000Y-114519452D01*
X204681000Y-111997115D01*
X204676525Y-111981876D01*
X204675135Y-111980671D01*
X204667452Y-111979000D01*
X203895116Y-111979000D01*
X203879877Y-111983475D01*
X203878672Y-111984865D01*
X203877001Y-111992548D01*
X203877001Y-114069669D01*
X202250000Y-114069669D01*
X202250000Y-111452885D01*
X203877000Y-111452885D01*
X203881475Y-111468124D01*
X203882865Y-111469329D01*
X203890548Y-111471000D01*
X204662885Y-111471000D01*
X204678124Y-111466525D01*
X204679329Y-111465135D01*
X204681000Y-111457452D01*
X204681000Y-108935116D01*
X204676525Y-108919877D01*
X204675135Y-108918672D01*
X204667452Y-108917001D01*
X204340331Y-108917001D01*
X204333510Y-108917371D01*
X204282648Y-108922895D01*
X204267396Y-108926521D01*
X204146946Y-108971676D01*
X204131351Y-108980214D01*
X204029276Y-109056715D01*
X204016715Y-109069276D01*
X203940214Y-109171351D01*
X203931676Y-109186946D01*
X203886522Y-109307394D01*
X203882895Y-109322649D01*
X203877369Y-109373514D01*
X203877000Y-109380328D01*
X203877000Y-111452885D01*
X202250000Y-111452885D01*
X202250000Y-108626000D01*
X202270002Y-108557879D01*
X202323658Y-108511386D01*
X202376000Y-108500000D01*
X204974000Y-108500000D01*
X205042121Y-108520002D01*
G37*
%TD.AperFunction*%
%TD*%
%TA.AperFunction,Conductor*%
%TO.N,-15V*%
G36*
X186942121Y-103520002D02*
G01*
X186988614Y-103573658D01*
X187000000Y-103626000D01*
X187000000Y-109624000D01*
X186979998Y-109692121D01*
X186926342Y-109738614D01*
X186874000Y-109750000D01*
X183476000Y-109750000D01*
X183407879Y-109729998D01*
X183361386Y-109676342D01*
X183350000Y-109624000D01*
X183350000Y-109139885D01*
X183754000Y-109139885D01*
X183758475Y-109155124D01*
X183759865Y-109156329D01*
X183767548Y-109158000D01*
X184794669Y-109157999D01*
X184801490Y-109157629D01*
X184852352Y-109152105D01*
X184867604Y-109148479D01*
X184988054Y-109103324D01*
X185003649Y-109094786D01*
X185105724Y-109018285D01*
X185118285Y-109005724D01*
X185194786Y-108903649D01*
X185203324Y-108888054D01*
X185248478Y-108767606D01*
X185252105Y-108752351D01*
X185257631Y-108701486D01*
X185258000Y-108694672D01*
X185258000Y-108022115D01*
X185253525Y-108006876D01*
X185252135Y-108005671D01*
X185244452Y-108004000D01*
X183772115Y-108004000D01*
X183756876Y-108008475D01*
X183755671Y-108009865D01*
X183754000Y-108017548D01*
X183754000Y-109139885D01*
X183350000Y-109139885D01*
X183350000Y-107477885D01*
X183754000Y-107477885D01*
X183758475Y-107493124D01*
X183759865Y-107494329D01*
X183767548Y-107496000D01*
X185239884Y-107496000D01*
X185255123Y-107491525D01*
X185256328Y-107490135D01*
X185257999Y-107482452D01*
X185257999Y-106805331D01*
X185257629Y-106798510D01*
X185252105Y-106747648D01*
X185248479Y-106732396D01*
X185203324Y-106611946D01*
X185194786Y-106596351D01*
X185118285Y-106494276D01*
X185105724Y-106481715D01*
X185003649Y-106405214D01*
X184988054Y-106396676D01*
X184867606Y-106351522D01*
X184852351Y-106347895D01*
X184801486Y-106342369D01*
X184794672Y-106342000D01*
X183772115Y-106342001D01*
X183756876Y-106346476D01*
X183755671Y-106347866D01*
X183754000Y-106355549D01*
X183754000Y-107477885D01*
X183350000Y-107477885D01*
X183350000Y-105214884D01*
X183775000Y-105214884D01*
X183779475Y-105230123D01*
X183780865Y-105231328D01*
X183788548Y-105232999D01*
X183894669Y-105232999D01*
X183901490Y-105232629D01*
X183952352Y-105227105D01*
X183967604Y-105223479D01*
X184088054Y-105178324D01*
X184103649Y-105169786D01*
X184205724Y-105093285D01*
X184218285Y-105080724D01*
X184294786Y-104978649D01*
X184303324Y-104963054D01*
X184348478Y-104842606D01*
X184352105Y-104827351D01*
X184357631Y-104776486D01*
X184358000Y-104769672D01*
X184358000Y-104743115D01*
X184353525Y-104727876D01*
X184352135Y-104726671D01*
X184344452Y-104725000D01*
X183793115Y-104725000D01*
X183777876Y-104729475D01*
X183776671Y-104730865D01*
X183775000Y-104738548D01*
X183775000Y-105214884D01*
X183350000Y-105214884D01*
X183350000Y-104256885D01*
X183775000Y-104256885D01*
X183779475Y-104272124D01*
X183780865Y-104273329D01*
X183788548Y-104275000D01*
X184339884Y-104275000D01*
X184355123Y-104270525D01*
X184356328Y-104269135D01*
X184357999Y-104261452D01*
X184357999Y-104230331D01*
X184357629Y-104223510D01*
X184352105Y-104172648D01*
X184348479Y-104157396D01*
X184303324Y-104036946D01*
X184294786Y-104021351D01*
X184218285Y-103919276D01*
X184205724Y-103906715D01*
X184103649Y-103830214D01*
X184088054Y-103821676D01*
X183967606Y-103776522D01*
X183952351Y-103772895D01*
X183901486Y-103767369D01*
X183894672Y-103767000D01*
X183793115Y-103767000D01*
X183777876Y-103771475D01*
X183776671Y-103772865D01*
X183775000Y-103780548D01*
X183775000Y-104256885D01*
X183350000Y-104256885D01*
X183350000Y-103626000D01*
X183370002Y-103557879D01*
X183423658Y-103511386D01*
X183476000Y-103500000D01*
X186874000Y-103500000D01*
X186942121Y-103520002D01*
G37*
%TD.AperFunction*%
%TD*%
%TA.AperFunction,Conductor*%
%TO.N,-15V*%
G36*
X190915711Y-118605360D02*
G01*
X190951013Y-118616000D01*
X193349448Y-118616000D01*
X193386556Y-118605104D01*
X193422054Y-118600000D01*
X193624000Y-118600000D01*
X193692121Y-118620002D01*
X193738614Y-118673658D01*
X193750000Y-118726000D01*
X193750000Y-120000000D01*
X194117095Y-120367095D01*
X194151121Y-120429407D01*
X194154000Y-120456190D01*
X194154000Y-122360884D01*
X194158475Y-122376123D01*
X194169176Y-122385396D01*
X194213095Y-122409377D01*
X194247120Y-122471689D01*
X194250000Y-122498473D01*
X194250000Y-122624000D01*
X194229998Y-122692121D01*
X194176342Y-122738614D01*
X194124000Y-122750000D01*
X190376000Y-122750000D01*
X190307879Y-122729998D01*
X190261386Y-122676342D01*
X190250000Y-122624000D01*
X190250000Y-121919292D01*
X193146001Y-121919292D01*
X193146370Y-121926110D01*
X193151841Y-121976482D01*
X193155470Y-121991741D01*
X193200222Y-122111118D01*
X193208754Y-122126704D01*
X193284572Y-122227867D01*
X193297133Y-122240428D01*
X193398296Y-122316246D01*
X193413882Y-122324778D01*
X193533265Y-122369533D01*
X193548510Y-122373158D01*
X193598892Y-122378631D01*
X193605706Y-122379000D01*
X193627885Y-122379000D01*
X193643124Y-122374525D01*
X193644329Y-122373135D01*
X193646000Y-122365452D01*
X193646000Y-121672115D01*
X193641525Y-121656876D01*
X193640135Y-121655671D01*
X193632452Y-121654000D01*
X193164116Y-121654000D01*
X193148877Y-121658475D01*
X193147672Y-121659865D01*
X193146001Y-121667548D01*
X193146001Y-121919292D01*
X190250000Y-121919292D01*
X190250000Y-121127885D01*
X193146000Y-121127885D01*
X193150475Y-121143124D01*
X193151865Y-121144329D01*
X193159548Y-121146000D01*
X193627885Y-121146000D01*
X193643124Y-121141525D01*
X193644329Y-121140135D01*
X193646000Y-121132452D01*
X193646000Y-120439116D01*
X193641525Y-120423877D01*
X193640135Y-120422672D01*
X193632452Y-120421001D01*
X193605708Y-120421001D01*
X193598890Y-120421370D01*
X193548518Y-120426841D01*
X193533259Y-120430470D01*
X193413882Y-120475222D01*
X193398296Y-120483754D01*
X193297133Y-120559572D01*
X193284572Y-120572133D01*
X193208754Y-120673296D01*
X193200222Y-120688882D01*
X193155467Y-120808265D01*
X193151842Y-120823510D01*
X193146369Y-120873892D01*
X193146000Y-120880706D01*
X193146000Y-121127885D01*
X190250000Y-121127885D01*
X190250000Y-119140273D01*
X190935625Y-119140273D01*
X190940486Y-119155234D01*
X190989583Y-119251593D01*
X191001094Y-119267436D01*
X191077564Y-119343906D01*
X191093407Y-119355417D01*
X191189768Y-119404515D01*
X191208392Y-119410567D01*
X191288315Y-119423225D01*
X191298158Y-119424000D01*
X191877885Y-119424000D01*
X191893124Y-119419525D01*
X191894329Y-119418135D01*
X191896000Y-119410452D01*
X191896000Y-119405884D01*
X192404000Y-119405884D01*
X192408475Y-119421123D01*
X192409865Y-119422328D01*
X192417548Y-119423999D01*
X193001840Y-119423999D01*
X193011687Y-119423224D01*
X193091607Y-119410567D01*
X193110233Y-119404515D01*
X193206593Y-119355417D01*
X193222436Y-119343906D01*
X193298906Y-119267436D01*
X193310417Y-119251593D01*
X193359516Y-119155231D01*
X193364479Y-119139955D01*
X193362962Y-119128212D01*
X193348988Y-119124000D01*
X192422115Y-119124000D01*
X192406876Y-119128475D01*
X192405671Y-119129865D01*
X192404000Y-119137548D01*
X192404000Y-119405884D01*
X191896000Y-119405884D01*
X191896000Y-119142115D01*
X191891525Y-119126876D01*
X191890135Y-119125671D01*
X191882452Y-119124000D01*
X190950552Y-119124000D01*
X190937316Y-119127887D01*
X190935625Y-119140273D01*
X190250000Y-119140273D01*
X190250000Y-118726000D01*
X190270002Y-118657879D01*
X190323658Y-118611386D01*
X190376000Y-118600000D01*
X190879350Y-118600000D01*
X190915711Y-118605360D01*
G37*
%TD.AperFunction*%
%TD*%
%TA.AperFunction,Conductor*%
%TO.N,+15V*%
G36*
X197942121Y-120020002D02*
G01*
X197988614Y-120073658D01*
X198000000Y-120126000D01*
X198000000Y-122624000D01*
X197979998Y-122692121D01*
X197926342Y-122738614D01*
X197874000Y-122750000D01*
X195876000Y-122750000D01*
X195807879Y-122729998D01*
X195761386Y-122676342D01*
X195750000Y-122624000D01*
X195750000Y-122360884D01*
X196054000Y-122360884D01*
X196058475Y-122376123D01*
X196059865Y-122377328D01*
X196067548Y-122378999D01*
X196094292Y-122378999D01*
X196101110Y-122378630D01*
X196151482Y-122373159D01*
X196166741Y-122369530D01*
X196286118Y-122324778D01*
X196301704Y-122316246D01*
X196402867Y-122240428D01*
X196415428Y-122227867D01*
X196491246Y-122126704D01*
X196499778Y-122111118D01*
X196544533Y-121991735D01*
X196548158Y-121976490D01*
X196553631Y-121926108D01*
X196554000Y-121919294D01*
X196554000Y-121672115D01*
X196549525Y-121656876D01*
X196548135Y-121655671D01*
X196540452Y-121654000D01*
X196072115Y-121654000D01*
X196056876Y-121658475D01*
X196055671Y-121659865D01*
X196054000Y-121667548D01*
X196054000Y-122360884D01*
X195750000Y-122360884D01*
X195750000Y-121127885D01*
X196054000Y-121127885D01*
X196058475Y-121143124D01*
X196059865Y-121144329D01*
X196067548Y-121146000D01*
X196535884Y-121146000D01*
X196551123Y-121141525D01*
X196552328Y-121140135D01*
X196553999Y-121132452D01*
X196553999Y-120880708D01*
X196553630Y-120873890D01*
X196548159Y-120823518D01*
X196544530Y-120808259D01*
X196499778Y-120688882D01*
X196491246Y-120673296D01*
X196415428Y-120572133D01*
X196402867Y-120559572D01*
X196301704Y-120483754D01*
X196286118Y-120475222D01*
X196166735Y-120430467D01*
X196151490Y-120426842D01*
X196101108Y-120421369D01*
X196094294Y-120421000D01*
X196072115Y-120421000D01*
X196056876Y-120425475D01*
X196055671Y-120426865D01*
X196054000Y-120434548D01*
X196054000Y-121127885D01*
X195750000Y-121127885D01*
X195750000Y-120126000D01*
X195770002Y-120057879D01*
X195823658Y-120011386D01*
X195876000Y-120000000D01*
X197874000Y-120000000D01*
X197942121Y-120020002D01*
G37*
%TD.AperFunction*%
%TD*%
%TA.AperFunction,Conductor*%
%TO.N,GND*%
G36*
X215265931Y-118020002D02*
G01*
X215286905Y-118036905D01*
X215463095Y-118213095D01*
X215497121Y-118275407D01*
X215500000Y-118302190D01*
X215500000Y-119947810D01*
X215479998Y-120015931D01*
X215463095Y-120036905D01*
X215424305Y-120075695D01*
X215361993Y-120109721D01*
X215291178Y-120104656D01*
X215255331Y-120077821D01*
X215252486Y-120081104D01*
X215223135Y-120055671D01*
X215215452Y-120054000D01*
X213341438Y-120054000D01*
X213288438Y-120038438D01*
X212777885Y-119527885D01*
X213271000Y-119527885D01*
X213275475Y-119543124D01*
X213276865Y-119544329D01*
X213284548Y-119546000D01*
X213977885Y-119546000D01*
X213993124Y-119541525D01*
X213994329Y-119540135D01*
X213996000Y-119532452D01*
X213996000Y-119527885D01*
X214504000Y-119527885D01*
X214508475Y-119543124D01*
X214509865Y-119544329D01*
X214517548Y-119546000D01*
X215210884Y-119546000D01*
X215226123Y-119541525D01*
X215227328Y-119540135D01*
X215228999Y-119532452D01*
X215228999Y-119505708D01*
X215228630Y-119498890D01*
X215223159Y-119448518D01*
X215219530Y-119433259D01*
X215174778Y-119313882D01*
X215166246Y-119298296D01*
X215090428Y-119197133D01*
X215077867Y-119184572D01*
X214976704Y-119108754D01*
X214961118Y-119100222D01*
X214841735Y-119055467D01*
X214826490Y-119051842D01*
X214776108Y-119046369D01*
X214769294Y-119046000D01*
X214522115Y-119046000D01*
X214506876Y-119050475D01*
X214505671Y-119051865D01*
X214504000Y-119059548D01*
X214504000Y-119527885D01*
X213996000Y-119527885D01*
X213996000Y-119064116D01*
X213991525Y-119048877D01*
X213990135Y-119047672D01*
X213982452Y-119046001D01*
X213730708Y-119046001D01*
X213723890Y-119046370D01*
X213673518Y-119051841D01*
X213658259Y-119055470D01*
X213538882Y-119100222D01*
X213523296Y-119108754D01*
X213422133Y-119184572D01*
X213409572Y-119197133D01*
X213333754Y-119298296D01*
X213325222Y-119313882D01*
X213280467Y-119433265D01*
X213276842Y-119448510D01*
X213271369Y-119498892D01*
X213271000Y-119505706D01*
X213271000Y-119527885D01*
X212777885Y-119527885D01*
X212750000Y-119500000D01*
X212746522Y-119500000D01*
X212704947Y-119458424D01*
X212693261Y-119404703D01*
X212692051Y-119404859D01*
X212690231Y-119390774D01*
X212689856Y-119389050D01*
X212689928Y-119388426D01*
X212687962Y-119373212D01*
X212673988Y-119369000D01*
X211347000Y-119369000D01*
X211278879Y-119348998D01*
X211232386Y-119295342D01*
X211221000Y-119243000D01*
X211221000Y-118987000D01*
X211241002Y-118918879D01*
X211294658Y-118872386D01*
X211347000Y-118861000D01*
X212674448Y-118861000D01*
X212687684Y-118857113D01*
X212690033Y-118839909D01*
X212719065Y-118775119D01*
X212741323Y-118760703D01*
X212739057Y-118757892D01*
X212748850Y-118750000D01*
X212750000Y-118750000D01*
X213463095Y-118036905D01*
X213525407Y-118002879D01*
X213552190Y-118000000D01*
X215197810Y-118000000D01*
X215265931Y-118020002D01*
G37*
%TD.AperFunction*%
%TD*%
%TA.AperFunction,Conductor*%
%TO.N,VCC*%
G36*
X211415931Y-161020002D02*
G01*
X211436905Y-161036905D01*
X211613095Y-161213095D01*
X211647121Y-161275407D01*
X211650000Y-161302190D01*
X211650000Y-162750000D01*
X211654000Y-162754000D01*
X211654000Y-163460884D01*
X211658475Y-163476123D01*
X211659865Y-163477328D01*
X211667548Y-163478999D01*
X211694292Y-163478999D01*
X211701110Y-163478630D01*
X211751482Y-163473159D01*
X211766741Y-163469530D01*
X211886118Y-163424778D01*
X211901704Y-163416246D01*
X212002867Y-163340428D01*
X212015427Y-163327868D01*
X212019275Y-163322733D01*
X212076132Y-163280216D01*
X212146950Y-163275187D01*
X212209199Y-163309199D01*
X213113095Y-164213095D01*
X213147121Y-164275407D01*
X213150000Y-164302190D01*
X213150000Y-165447810D01*
X213129998Y-165515931D01*
X213113095Y-165536905D01*
X212936905Y-165713095D01*
X212874593Y-165747121D01*
X212847810Y-165750000D01*
X208952190Y-165750000D01*
X208884069Y-165729998D01*
X208863095Y-165713095D01*
X208686905Y-165536905D01*
X208652879Y-165474593D01*
X208650000Y-165447810D01*
X208650000Y-163019292D01*
X210646001Y-163019292D01*
X210646370Y-163026110D01*
X210651841Y-163076482D01*
X210655470Y-163091741D01*
X210700222Y-163211118D01*
X210708754Y-163226704D01*
X210784572Y-163327867D01*
X210797133Y-163340428D01*
X210898296Y-163416246D01*
X210913882Y-163424778D01*
X211033265Y-163469533D01*
X211048510Y-163473158D01*
X211098892Y-163478631D01*
X211105706Y-163479000D01*
X211127885Y-163479000D01*
X211143124Y-163474525D01*
X211144329Y-163473135D01*
X211146000Y-163465452D01*
X211146000Y-162772115D01*
X211141525Y-162756876D01*
X211140135Y-162755671D01*
X211132452Y-162754000D01*
X210664116Y-162754000D01*
X210648877Y-162758475D01*
X210647672Y-162759865D01*
X210646001Y-162767548D01*
X210646001Y-163019292D01*
X208650000Y-163019292D01*
X208650000Y-162227885D01*
X210646000Y-162227885D01*
X210650475Y-162243124D01*
X210651865Y-162244329D01*
X210659548Y-162246000D01*
X211127885Y-162246000D01*
X211143124Y-162241525D01*
X211144329Y-162240135D01*
X211146000Y-162232452D01*
X211146000Y-161539116D01*
X211141525Y-161523877D01*
X211140135Y-161522672D01*
X211132452Y-161521001D01*
X211105708Y-161521001D01*
X211098890Y-161521370D01*
X211048518Y-161526841D01*
X211033259Y-161530470D01*
X210913882Y-161575222D01*
X210898296Y-161583754D01*
X210797133Y-161659572D01*
X210784572Y-161672133D01*
X210708754Y-161773296D01*
X210700222Y-161788882D01*
X210655467Y-161908265D01*
X210651842Y-161923510D01*
X210646369Y-161973892D01*
X210646000Y-161980706D01*
X210646000Y-162227885D01*
X208650000Y-162227885D01*
X208650000Y-161302190D01*
X208670002Y-161234069D01*
X208686905Y-161213095D01*
X208863095Y-161036905D01*
X208925407Y-161002879D01*
X208952190Y-161000000D01*
X211347810Y-161000000D01*
X211415931Y-161020002D01*
G37*
%TD.AperFunction*%
%TD*%
%TA.AperFunction,Conductor*%
%TO.N,GND*%
G36*
X197740231Y-98113935D02*
G01*
X197778711Y-98136766D01*
X197801865Y-98156829D01*
X197809548Y-98158500D01*
X199685884Y-98158500D01*
X199701124Y-98154025D01*
X199706696Y-98147595D01*
X199766422Y-98109212D01*
X199837419Y-98109213D01*
X199891014Y-98141014D01*
X199963095Y-98213095D01*
X199997121Y-98275407D01*
X200000000Y-98302190D01*
X200000000Y-100197810D01*
X199979998Y-100265931D01*
X199963095Y-100286905D01*
X199786905Y-100463095D01*
X199724593Y-100497121D01*
X199697810Y-100500000D01*
X197802190Y-100500000D01*
X197734069Y-100479998D01*
X197713095Y-100463095D01*
X197536905Y-100286905D01*
X197502879Y-100224593D01*
X197500000Y-100197810D01*
X197500000Y-98719292D01*
X197796001Y-98719292D01*
X197796370Y-98726110D01*
X197801841Y-98776482D01*
X197805470Y-98791741D01*
X197850222Y-98911118D01*
X197858754Y-98926704D01*
X197934572Y-99027867D01*
X197947133Y-99040428D01*
X198048296Y-99116246D01*
X198063882Y-99124778D01*
X198183265Y-99169533D01*
X198198510Y-99173158D01*
X198248892Y-99178631D01*
X198255706Y-99179000D01*
X198477885Y-99179000D01*
X198493124Y-99174525D01*
X198494329Y-99173135D01*
X198496000Y-99165452D01*
X198496000Y-99160884D01*
X199004000Y-99160884D01*
X199008475Y-99176123D01*
X199009865Y-99177328D01*
X199017548Y-99178999D01*
X199244292Y-99178999D01*
X199251110Y-99178630D01*
X199301482Y-99173159D01*
X199316741Y-99169530D01*
X199436118Y-99124778D01*
X199451704Y-99116246D01*
X199552867Y-99040428D01*
X199565428Y-99027867D01*
X199641246Y-98926704D01*
X199649778Y-98911118D01*
X199694533Y-98791735D01*
X199698158Y-98776490D01*
X199703631Y-98726108D01*
X199704000Y-98719294D01*
X199704000Y-98684615D01*
X199699525Y-98669376D01*
X199698135Y-98668171D01*
X199690452Y-98666500D01*
X199022115Y-98666500D01*
X199006876Y-98670975D01*
X199005671Y-98672365D01*
X199004000Y-98680048D01*
X199004000Y-99160884D01*
X198496000Y-99160884D01*
X198496000Y-98684615D01*
X198491525Y-98669376D01*
X198490135Y-98668171D01*
X198482452Y-98666500D01*
X197814116Y-98666500D01*
X197798877Y-98670975D01*
X197797672Y-98672365D01*
X197796001Y-98680048D01*
X197796001Y-98719292D01*
X197500000Y-98719292D01*
X197500000Y-98302190D01*
X197520002Y-98234069D01*
X197536905Y-98213095D01*
X197607104Y-98142896D01*
X197669416Y-98108870D01*
X197740231Y-98113935D01*
G37*
%TD.AperFunction*%
%TD*%
%TA.AperFunction,Conductor*%
%TO.N,+15V*%
G36*
X186942121Y-95820002D02*
G01*
X186988614Y-95873658D01*
X187000000Y-95926000D01*
X187000000Y-101924000D01*
X186979998Y-101992121D01*
X186926342Y-102038614D01*
X186874000Y-102050000D01*
X183476000Y-102050000D01*
X183407879Y-102029998D01*
X183361386Y-101976342D01*
X183350000Y-101924000D01*
X183350000Y-101439885D01*
X183704000Y-101439885D01*
X183708475Y-101455124D01*
X183709865Y-101456329D01*
X183717548Y-101458000D01*
X184744669Y-101457999D01*
X184751490Y-101457629D01*
X184802352Y-101452105D01*
X184817604Y-101448479D01*
X184938054Y-101403324D01*
X184953649Y-101394786D01*
X185055724Y-101318285D01*
X185068285Y-101305724D01*
X185144786Y-101203649D01*
X185153324Y-101188054D01*
X185198478Y-101067606D01*
X185202105Y-101052351D01*
X185207631Y-101001486D01*
X185208000Y-100994672D01*
X185208000Y-100322115D01*
X185203525Y-100306876D01*
X185202135Y-100305671D01*
X185194452Y-100304000D01*
X183722115Y-100304000D01*
X183706876Y-100308475D01*
X183705671Y-100309865D01*
X183704000Y-100317548D01*
X183704000Y-101439885D01*
X183350000Y-101439885D01*
X183350000Y-99777885D01*
X183704000Y-99777885D01*
X183708475Y-99793124D01*
X183709865Y-99794329D01*
X183717548Y-99796000D01*
X185189884Y-99796000D01*
X185205123Y-99791525D01*
X185206328Y-99790135D01*
X185207999Y-99782452D01*
X185207999Y-99105331D01*
X185207629Y-99098510D01*
X185202105Y-99047648D01*
X185198479Y-99032396D01*
X185153324Y-98911946D01*
X185144786Y-98896351D01*
X185068285Y-98794276D01*
X185055724Y-98781715D01*
X184953649Y-98705214D01*
X184938054Y-98696676D01*
X184817606Y-98651522D01*
X184802351Y-98647895D01*
X184751486Y-98642369D01*
X184744672Y-98642000D01*
X183722115Y-98642001D01*
X183706876Y-98646476D01*
X183705671Y-98647866D01*
X183704000Y-98655549D01*
X183704000Y-99777885D01*
X183350000Y-99777885D01*
X183350000Y-97514884D01*
X183625000Y-97514884D01*
X183629475Y-97530123D01*
X183630865Y-97531328D01*
X183638548Y-97532999D01*
X183744669Y-97532999D01*
X183751490Y-97532629D01*
X183802352Y-97527105D01*
X183817604Y-97523479D01*
X183938054Y-97478324D01*
X183953649Y-97469786D01*
X184055724Y-97393285D01*
X184068285Y-97380724D01*
X184144786Y-97278649D01*
X184153324Y-97263054D01*
X184198478Y-97142606D01*
X184202105Y-97127351D01*
X184207631Y-97076486D01*
X184208000Y-97069672D01*
X184208000Y-97043115D01*
X184203525Y-97027876D01*
X184202135Y-97026671D01*
X184194452Y-97025000D01*
X183643115Y-97025000D01*
X183627876Y-97029475D01*
X183626671Y-97030865D01*
X183625000Y-97038548D01*
X183625000Y-97514884D01*
X183350000Y-97514884D01*
X183350000Y-96556885D01*
X183625000Y-96556885D01*
X183629475Y-96572124D01*
X183630865Y-96573329D01*
X183638548Y-96575000D01*
X184189884Y-96575000D01*
X184205123Y-96570525D01*
X184206328Y-96569135D01*
X184207999Y-96561452D01*
X184207999Y-96530331D01*
X184207629Y-96523510D01*
X184202105Y-96472648D01*
X184198479Y-96457396D01*
X184153324Y-96336946D01*
X184144786Y-96321351D01*
X184068285Y-96219276D01*
X184055724Y-96206715D01*
X183953649Y-96130214D01*
X183938054Y-96121676D01*
X183817606Y-96076522D01*
X183802351Y-96072895D01*
X183751486Y-96067369D01*
X183744672Y-96067000D01*
X183643115Y-96067000D01*
X183627876Y-96071475D01*
X183626671Y-96072865D01*
X183625000Y-96080548D01*
X183625000Y-96556885D01*
X183350000Y-96556885D01*
X183350000Y-95926000D01*
X183370002Y-95857879D01*
X183423658Y-95811386D01*
X183476000Y-95800000D01*
X186874000Y-95800000D01*
X186942121Y-95820002D01*
G37*
%TD.AperFunction*%
%TD*%
%TA.AperFunction,Conductor*%
%TO.N,GND*%
G36*
X181515931Y-103520002D02*
G01*
X181536905Y-103536905D01*
X181645208Y-103645208D01*
X181679234Y-103707520D01*
X181679233Y-103761087D01*
X181675000Y-103780545D01*
X181675000Y-105214885D01*
X181678932Y-105228277D01*
X181678932Y-105299274D01*
X181647131Y-105352869D01*
X181536905Y-105463095D01*
X181474593Y-105497121D01*
X181447810Y-105500000D01*
X179626000Y-105500000D01*
X179557879Y-105479998D01*
X179511386Y-105426342D01*
X179500000Y-105374000D01*
X179500000Y-104769669D01*
X180642001Y-104769669D01*
X180642371Y-104776490D01*
X180647895Y-104827352D01*
X180651521Y-104842604D01*
X180696676Y-104963054D01*
X180705214Y-104978649D01*
X180781715Y-105080724D01*
X180794276Y-105093285D01*
X180896351Y-105169786D01*
X180911946Y-105178324D01*
X181032394Y-105223478D01*
X181047649Y-105227105D01*
X181098514Y-105232631D01*
X181105328Y-105233000D01*
X181206885Y-105233000D01*
X181222124Y-105228525D01*
X181223329Y-105227135D01*
X181225000Y-105219452D01*
X181225000Y-104743115D01*
X181220525Y-104727876D01*
X181219135Y-104726671D01*
X181211452Y-104725000D01*
X180660116Y-104725000D01*
X180644877Y-104729475D01*
X180643672Y-104730865D01*
X180642001Y-104738548D01*
X180642001Y-104769669D01*
X179500000Y-104769669D01*
X179500000Y-104256885D01*
X180642000Y-104256885D01*
X180646475Y-104272124D01*
X180647865Y-104273329D01*
X180655548Y-104275000D01*
X181206885Y-104275000D01*
X181222124Y-104270525D01*
X181223329Y-104269135D01*
X181225000Y-104261452D01*
X181225000Y-103785116D01*
X181220525Y-103769877D01*
X181219135Y-103768672D01*
X181211452Y-103767001D01*
X181105331Y-103767001D01*
X181098510Y-103767371D01*
X181047648Y-103772895D01*
X181032396Y-103776521D01*
X180911946Y-103821676D01*
X180896351Y-103830214D01*
X180794276Y-103906715D01*
X180781715Y-103919276D01*
X180705214Y-104021351D01*
X180696676Y-104036946D01*
X180651522Y-104157394D01*
X180647895Y-104172649D01*
X180642369Y-104223514D01*
X180642000Y-104230328D01*
X180642000Y-104256885D01*
X179500000Y-104256885D01*
X179500000Y-103626000D01*
X179520002Y-103557879D01*
X179573658Y-103511386D01*
X179626000Y-103500000D01*
X181447810Y-103500000D01*
X181515931Y-103520002D01*
G37*
%TD.AperFunction*%
%TD*%
%TA.AperFunction,Conductor*%
%TO.N,GND*%
G36*
X213442121Y-95520002D02*
G01*
X213488614Y-95573658D01*
X213500000Y-95626000D01*
X213500000Y-99874000D01*
X213479998Y-99942121D01*
X213426342Y-99988614D01*
X213374000Y-100000000D01*
X201626000Y-100000000D01*
X201557879Y-99979998D01*
X201511386Y-99926342D01*
X201500000Y-99874000D01*
X201500000Y-95626000D01*
X201520002Y-95557879D01*
X201573658Y-95511386D01*
X201626000Y-95500000D01*
X213374000Y-95500000D01*
X213442121Y-95520002D01*
G37*
%TD.AperFunction*%
%TD*%
%TA.AperFunction,Conductor*%
%TO.N,-15V*%
G36*
X190980663Y-110020002D02*
G01*
X191008935Y-110044856D01*
X191010059Y-110046192D01*
X191026012Y-110051000D01*
X193424448Y-110051000D01*
X193439687Y-110046525D01*
X193442320Y-110043487D01*
X193502046Y-110005104D01*
X193537544Y-110000000D01*
X193974000Y-110000000D01*
X194042121Y-110020002D01*
X194088614Y-110073658D01*
X194100000Y-110126000D01*
X194100000Y-111400000D01*
X194467095Y-111767095D01*
X194501121Y-111829407D01*
X194504000Y-111856190D01*
X194504000Y-113760884D01*
X194508475Y-113776123D01*
X194519176Y-113785396D01*
X194563095Y-113809377D01*
X194597120Y-113871689D01*
X194600000Y-113898473D01*
X194600000Y-114024000D01*
X194579998Y-114092121D01*
X194526342Y-114138614D01*
X194474000Y-114150000D01*
X190726000Y-114150000D01*
X190657879Y-114129998D01*
X190611386Y-114076342D01*
X190600000Y-114024000D01*
X190600000Y-113319292D01*
X193496001Y-113319292D01*
X193496370Y-113326110D01*
X193501841Y-113376482D01*
X193505470Y-113391741D01*
X193550222Y-113511118D01*
X193558754Y-113526704D01*
X193634572Y-113627867D01*
X193647133Y-113640428D01*
X193748296Y-113716246D01*
X193763882Y-113724778D01*
X193883265Y-113769533D01*
X193898510Y-113773158D01*
X193948892Y-113778631D01*
X193955706Y-113779000D01*
X193977885Y-113779000D01*
X193993124Y-113774525D01*
X193994329Y-113773135D01*
X193996000Y-113765452D01*
X193996000Y-113072115D01*
X193991525Y-113056876D01*
X193990135Y-113055671D01*
X193982452Y-113054000D01*
X193514116Y-113054000D01*
X193498877Y-113058475D01*
X193497672Y-113059865D01*
X193496001Y-113067548D01*
X193496001Y-113319292D01*
X190600000Y-113319292D01*
X190600000Y-112527885D01*
X193496000Y-112527885D01*
X193500475Y-112543124D01*
X193501865Y-112544329D01*
X193509548Y-112546000D01*
X193977885Y-112546000D01*
X193993124Y-112541525D01*
X193994329Y-112540135D01*
X193996000Y-112532452D01*
X193996000Y-111839116D01*
X193991525Y-111823877D01*
X193990135Y-111822672D01*
X193982452Y-111821001D01*
X193955708Y-111821001D01*
X193948890Y-111821370D01*
X193898518Y-111826841D01*
X193883259Y-111830470D01*
X193763882Y-111875222D01*
X193748296Y-111883754D01*
X193647133Y-111959572D01*
X193634572Y-111972133D01*
X193558754Y-112073296D01*
X193550222Y-112088882D01*
X193505467Y-112208265D01*
X193501842Y-112223510D01*
X193496369Y-112273892D01*
X193496000Y-112280706D01*
X193496000Y-112527885D01*
X190600000Y-112527885D01*
X190600000Y-110575273D01*
X191010625Y-110575273D01*
X191015486Y-110590234D01*
X191064583Y-110686593D01*
X191076094Y-110702436D01*
X191152564Y-110778906D01*
X191168407Y-110790417D01*
X191264768Y-110839515D01*
X191283392Y-110845567D01*
X191363315Y-110858225D01*
X191373158Y-110859000D01*
X191952885Y-110859000D01*
X191968124Y-110854525D01*
X191969329Y-110853135D01*
X191971000Y-110845452D01*
X191971000Y-110840884D01*
X192479000Y-110840884D01*
X192483475Y-110856123D01*
X192484865Y-110857328D01*
X192492548Y-110858999D01*
X193076840Y-110858999D01*
X193086687Y-110858224D01*
X193166607Y-110845567D01*
X193185233Y-110839515D01*
X193281593Y-110790417D01*
X193297436Y-110778906D01*
X193373906Y-110702436D01*
X193385417Y-110686593D01*
X193434516Y-110590231D01*
X193439479Y-110574955D01*
X193437962Y-110563212D01*
X193423988Y-110559000D01*
X192497115Y-110559000D01*
X192481876Y-110563475D01*
X192480671Y-110564865D01*
X192479000Y-110572548D01*
X192479000Y-110840884D01*
X191971000Y-110840884D01*
X191971000Y-110577115D01*
X191966525Y-110561876D01*
X191965135Y-110560671D01*
X191957452Y-110559000D01*
X191025552Y-110559000D01*
X191012316Y-110562887D01*
X191010625Y-110575273D01*
X190600000Y-110575273D01*
X190600000Y-110126000D01*
X190620002Y-110057879D01*
X190673658Y-110011386D01*
X190726000Y-110000000D01*
X190912542Y-110000000D01*
X190980663Y-110020002D01*
G37*
%TD.AperFunction*%
%TD*%
%TA.AperFunction,Conductor*%
%TO.N,GND*%
G36*
X209015931Y-191520002D02*
G01*
X209036905Y-191536905D01*
X209213095Y-191713095D01*
X209247121Y-191775407D01*
X209250000Y-191802190D01*
X209250000Y-193947810D01*
X209229998Y-194015931D01*
X209213095Y-194036905D01*
X209036905Y-194213095D01*
X208974593Y-194247121D01*
X208947810Y-194250000D01*
X207052190Y-194250000D01*
X206984069Y-194229998D01*
X206963095Y-194213095D01*
X206786905Y-194036905D01*
X206752879Y-193974593D01*
X206750000Y-193947810D01*
X206750000Y-192868828D01*
X207521001Y-192868828D01*
X207522209Y-192881088D01*
X207533315Y-192936931D01*
X207542633Y-192959427D01*
X207584983Y-193022808D01*
X207602192Y-193040017D01*
X207665575Y-193082368D01*
X207688066Y-193091684D01*
X207743915Y-193102793D01*
X207756170Y-193104000D01*
X207756885Y-193104000D01*
X207772124Y-193099525D01*
X207773329Y-193098135D01*
X207775000Y-193090452D01*
X207775000Y-193085884D01*
X208225000Y-193085884D01*
X208229475Y-193101123D01*
X208230865Y-193102328D01*
X208238548Y-193103999D01*
X208243828Y-193103999D01*
X208256088Y-193102791D01*
X208311931Y-193091685D01*
X208334427Y-193082367D01*
X208397808Y-193040017D01*
X208415017Y-193022808D01*
X208457368Y-192959425D01*
X208466684Y-192936934D01*
X208477793Y-192881085D01*
X208479000Y-192868830D01*
X208479000Y-192793115D01*
X208474525Y-192777876D01*
X208473135Y-192776671D01*
X208465452Y-192775000D01*
X208243115Y-192775000D01*
X208227876Y-192779475D01*
X208226671Y-192780865D01*
X208225000Y-192788548D01*
X208225000Y-193085884D01*
X207775000Y-193085884D01*
X207775000Y-192793115D01*
X207770525Y-192777876D01*
X207769135Y-192776671D01*
X207761452Y-192775000D01*
X207539116Y-192775000D01*
X207523877Y-192779475D01*
X207522672Y-192780865D01*
X207521001Y-192788548D01*
X207521001Y-192868828D01*
X206750000Y-192868828D01*
X206750000Y-192306885D01*
X207521000Y-192306885D01*
X207525475Y-192322124D01*
X207526865Y-192323329D01*
X207534548Y-192325000D01*
X207756885Y-192325000D01*
X207772124Y-192320525D01*
X207773329Y-192319135D01*
X207775000Y-192311452D01*
X207775000Y-192306885D01*
X208225000Y-192306885D01*
X208229475Y-192322124D01*
X208230865Y-192323329D01*
X208238548Y-192325000D01*
X208460884Y-192325000D01*
X208476123Y-192320525D01*
X208477328Y-192319135D01*
X208478999Y-192311452D01*
X208478999Y-192231172D01*
X208477791Y-192218912D01*
X208466685Y-192163069D01*
X208457367Y-192140573D01*
X208415017Y-192077192D01*
X208397808Y-192059983D01*
X208334425Y-192017632D01*
X208311934Y-192008316D01*
X208256085Y-191997207D01*
X208243830Y-191996000D01*
X208243115Y-191996000D01*
X208227876Y-192000475D01*
X208226671Y-192001865D01*
X208225000Y-192009548D01*
X208225000Y-192306885D01*
X207775000Y-192306885D01*
X207775000Y-192014116D01*
X207770525Y-191998877D01*
X207769135Y-191997672D01*
X207761452Y-191996001D01*
X207756172Y-191996001D01*
X207743912Y-191997209D01*
X207688069Y-192008315D01*
X207665573Y-192017633D01*
X207602192Y-192059983D01*
X207584983Y-192077192D01*
X207542632Y-192140575D01*
X207533316Y-192163066D01*
X207522207Y-192218915D01*
X207521000Y-192231170D01*
X207521000Y-192306885D01*
X206750000Y-192306885D01*
X206750000Y-191802190D01*
X206770002Y-191734069D01*
X206786905Y-191713095D01*
X206963095Y-191536905D01*
X207025407Y-191502879D01*
X207052190Y-191500000D01*
X208947810Y-191500000D01*
X209015931Y-191520002D01*
G37*
%TD.AperFunction*%
%TD*%
%TA.AperFunction,Conductor*%
%TO.N,GND*%
G36*
X207942121Y-108020002D02*
G01*
X207988614Y-108073658D01*
X208000000Y-108126000D01*
X208000000Y-115124000D01*
X207979998Y-115192121D01*
X207926342Y-115238614D01*
X207874000Y-115250000D01*
X207126000Y-115250000D01*
X207057879Y-115229998D01*
X207011386Y-115176342D01*
X207000000Y-115124000D01*
X207000000Y-108126000D01*
X207020002Y-108057879D01*
X207073658Y-108011386D01*
X207126000Y-108000000D01*
X207874000Y-108000000D01*
X207942121Y-108020002D01*
G37*
%TD.AperFunction*%
%TD*%
%TA.AperFunction,Conductor*%
%TO.N,+15V*%
G36*
X198292121Y-111420002D02*
G01*
X198338614Y-111473658D01*
X198350000Y-111526000D01*
X198350000Y-114024000D01*
X198329998Y-114092121D01*
X198276342Y-114138614D01*
X198224000Y-114150000D01*
X196226000Y-114150000D01*
X196157879Y-114129998D01*
X196111386Y-114076342D01*
X196100000Y-114024000D01*
X196100000Y-113760884D01*
X196404000Y-113760884D01*
X196408475Y-113776123D01*
X196409865Y-113777328D01*
X196417548Y-113778999D01*
X196444292Y-113778999D01*
X196451110Y-113778630D01*
X196501482Y-113773159D01*
X196516741Y-113769530D01*
X196636118Y-113724778D01*
X196651704Y-113716246D01*
X196752867Y-113640428D01*
X196765428Y-113627867D01*
X196841246Y-113526704D01*
X196849778Y-113511118D01*
X196894533Y-113391735D01*
X196898158Y-113376490D01*
X196903631Y-113326108D01*
X196904000Y-113319294D01*
X196904000Y-113072115D01*
X196899525Y-113056876D01*
X196898135Y-113055671D01*
X196890452Y-113054000D01*
X196422115Y-113054000D01*
X196406876Y-113058475D01*
X196405671Y-113059865D01*
X196404000Y-113067548D01*
X196404000Y-113760884D01*
X196100000Y-113760884D01*
X196100000Y-112527885D01*
X196404000Y-112527885D01*
X196408475Y-112543124D01*
X196409865Y-112544329D01*
X196417548Y-112546000D01*
X196885884Y-112546000D01*
X196901123Y-112541525D01*
X196902328Y-112540135D01*
X196903999Y-112532452D01*
X196903999Y-112280708D01*
X196903630Y-112273890D01*
X196898159Y-112223518D01*
X196894530Y-112208259D01*
X196849778Y-112088882D01*
X196841246Y-112073296D01*
X196765428Y-111972133D01*
X196752867Y-111959572D01*
X196651704Y-111883754D01*
X196636118Y-111875222D01*
X196516735Y-111830467D01*
X196501490Y-111826842D01*
X196451108Y-111821369D01*
X196444294Y-111821000D01*
X196422115Y-111821000D01*
X196406876Y-111825475D01*
X196405671Y-111826865D01*
X196404000Y-111834548D01*
X196404000Y-112527885D01*
X196100000Y-112527885D01*
X196100000Y-111526000D01*
X196120002Y-111457879D01*
X196173658Y-111411386D01*
X196226000Y-111400000D01*
X198224000Y-111400000D01*
X198292121Y-111420002D01*
G37*
%TD.AperFunction*%
%TD*%
%TA.AperFunction,Conductor*%
%TO.N,GND*%
G36*
X187242121Y-116520002D02*
G01*
X187288614Y-116573658D01*
X187300000Y-116626000D01*
X187300000Y-116756925D01*
X187297121Y-116783707D01*
X187291500Y-116809547D01*
X187291500Y-118685884D01*
X187294896Y-118697450D01*
X187300000Y-118732948D01*
X187300000Y-118874000D01*
X187279998Y-118942121D01*
X187226342Y-118988614D01*
X187174000Y-119000000D01*
X185302190Y-119000000D01*
X185234069Y-118979998D01*
X185213095Y-118963095D01*
X185036905Y-118786905D01*
X185002879Y-118724593D01*
X185000000Y-118697810D01*
X185000000Y-118244292D01*
X186271001Y-118244292D01*
X186271370Y-118251110D01*
X186276841Y-118301482D01*
X186280470Y-118316741D01*
X186325222Y-118436118D01*
X186333754Y-118451704D01*
X186409572Y-118552867D01*
X186422133Y-118565428D01*
X186523296Y-118641246D01*
X186538882Y-118649778D01*
X186658265Y-118694533D01*
X186673510Y-118698158D01*
X186723892Y-118703631D01*
X186730706Y-118704000D01*
X186765385Y-118704000D01*
X186780624Y-118699525D01*
X186781829Y-118698135D01*
X186783500Y-118690452D01*
X186783500Y-118022115D01*
X186779025Y-118006876D01*
X186777635Y-118005671D01*
X186769952Y-118004000D01*
X186289116Y-118004000D01*
X186273877Y-118008475D01*
X186272672Y-118009865D01*
X186271001Y-118017548D01*
X186271001Y-118244292D01*
X185000000Y-118244292D01*
X185000000Y-117477885D01*
X186271000Y-117477885D01*
X186275475Y-117493124D01*
X186276865Y-117494329D01*
X186284548Y-117496000D01*
X186765385Y-117496000D01*
X186780624Y-117491525D01*
X186781829Y-117490135D01*
X186783500Y-117482452D01*
X186783500Y-116814116D01*
X186779025Y-116798877D01*
X186777635Y-116797672D01*
X186769952Y-116796001D01*
X186730708Y-116796001D01*
X186723890Y-116796370D01*
X186673518Y-116801841D01*
X186658259Y-116805470D01*
X186538882Y-116850222D01*
X186523296Y-116858754D01*
X186422133Y-116934572D01*
X186409572Y-116947133D01*
X186333754Y-117048296D01*
X186325222Y-117063882D01*
X186280467Y-117183265D01*
X186276842Y-117198510D01*
X186271369Y-117248892D01*
X186271000Y-117255706D01*
X186271000Y-117477885D01*
X185000000Y-117477885D01*
X185000000Y-116802190D01*
X185020002Y-116734069D01*
X185036905Y-116713095D01*
X185213095Y-116536905D01*
X185275407Y-116502879D01*
X185302190Y-116500000D01*
X187174000Y-116500000D01*
X187242121Y-116520002D01*
G37*
%TD.AperFunction*%
%TD*%
%TA.AperFunction,Conductor*%
%TO.N,GND*%
G36*
X191015931Y-167270002D02*
G01*
X191036905Y-167286905D01*
X191250000Y-167500000D01*
X191250000Y-169500000D01*
X191036905Y-169713095D01*
X190974593Y-169747121D01*
X190947810Y-169750000D01*
X189302190Y-169750000D01*
X189234069Y-169729998D01*
X189213095Y-169713095D01*
X189036905Y-169536905D01*
X189002879Y-169474593D01*
X189000000Y-169447810D01*
X189000000Y-169019292D01*
X190296001Y-169019292D01*
X190296370Y-169026110D01*
X190301841Y-169076482D01*
X190305470Y-169091741D01*
X190350222Y-169211118D01*
X190358754Y-169226704D01*
X190434572Y-169327867D01*
X190447133Y-169340428D01*
X190548296Y-169416246D01*
X190563882Y-169424778D01*
X190683265Y-169469533D01*
X190698510Y-169473158D01*
X190748892Y-169478631D01*
X190755706Y-169479000D01*
X190777885Y-169479000D01*
X190793124Y-169474525D01*
X190794329Y-169473135D01*
X190796000Y-169465452D01*
X190796000Y-168772115D01*
X190791525Y-168756876D01*
X190790135Y-168755671D01*
X190782452Y-168754000D01*
X190314116Y-168754000D01*
X190298877Y-168758475D01*
X190297672Y-168759865D01*
X190296001Y-168767548D01*
X190296001Y-169019292D01*
X189000000Y-169019292D01*
X189000000Y-168227885D01*
X190296000Y-168227885D01*
X190300475Y-168243124D01*
X190301865Y-168244329D01*
X190309548Y-168246000D01*
X190777885Y-168246000D01*
X190793124Y-168241525D01*
X190794329Y-168240135D01*
X190796000Y-168232452D01*
X190796000Y-167539116D01*
X190791525Y-167523877D01*
X190790135Y-167522672D01*
X190782452Y-167521001D01*
X190755708Y-167521001D01*
X190748890Y-167521370D01*
X190698518Y-167526841D01*
X190683259Y-167530470D01*
X190563882Y-167575222D01*
X190548296Y-167583754D01*
X190447133Y-167659572D01*
X190434572Y-167672133D01*
X190358754Y-167773296D01*
X190350222Y-167788882D01*
X190305467Y-167908265D01*
X190301842Y-167923510D01*
X190296369Y-167973892D01*
X190296000Y-167980706D01*
X190296000Y-168227885D01*
X189000000Y-168227885D01*
X189000000Y-167552190D01*
X189020002Y-167484069D01*
X189036905Y-167463095D01*
X189213095Y-167286905D01*
X189275407Y-167252879D01*
X189302190Y-167250000D01*
X190947810Y-167250000D01*
X191015931Y-167270002D01*
G37*
%TD.AperFunction*%
%TD*%
%TA.AperFunction,Conductor*%
%TO.N,VCC*%
G36*
X178890236Y-116270002D02*
G01*
X178936729Y-116323658D01*
X178947378Y-116389612D01*
X178946368Y-116398902D01*
X178946000Y-116405706D01*
X178946000Y-117173885D01*
X178950475Y-117189124D01*
X178951865Y-117190329D01*
X178959548Y-117192000D01*
X181035884Y-117192000D01*
X181051123Y-117187525D01*
X181052328Y-117186135D01*
X181053999Y-117178452D01*
X181053999Y-116405708D01*
X181053630Y-116398897D01*
X181052621Y-116389609D01*
X181065149Y-116319726D01*
X181113469Y-116267710D01*
X181177884Y-116250000D01*
X183124000Y-116250000D01*
X183192121Y-116270002D01*
X183238614Y-116323658D01*
X183250000Y-116376000D01*
X183250000Y-122707415D01*
X183229998Y-122775536D01*
X183176342Y-122822029D01*
X183106068Y-122832133D01*
X183041488Y-122802639D01*
X183003104Y-122742913D01*
X183000421Y-122731994D01*
X182991685Y-122688069D01*
X182982367Y-122665573D01*
X182940017Y-122602192D01*
X182922808Y-122584983D01*
X182859425Y-122542632D01*
X182836934Y-122533316D01*
X182781085Y-122522207D01*
X182768830Y-122521000D01*
X182693115Y-122521000D01*
X182677876Y-122525475D01*
X182676671Y-122526865D01*
X182675000Y-122534548D01*
X182675000Y-123460884D01*
X182679475Y-123476123D01*
X182680865Y-123477328D01*
X182688548Y-123478999D01*
X182768828Y-123478999D01*
X182781088Y-123477791D01*
X182836931Y-123466685D01*
X182859427Y-123457367D01*
X182922808Y-123415017D01*
X182940017Y-123397808D01*
X182982368Y-123334425D01*
X182991684Y-123311934D01*
X183000421Y-123268010D01*
X183033328Y-123205100D01*
X183095023Y-123169968D01*
X183165918Y-123173768D01*
X183223504Y-123215293D01*
X183249498Y-123281360D01*
X183250000Y-123292591D01*
X183250000Y-124624000D01*
X183229998Y-124692121D01*
X183176342Y-124738614D01*
X183124000Y-124750000D01*
X177126000Y-124750000D01*
X177057879Y-124729998D01*
X177011386Y-124676342D01*
X177000000Y-124624000D01*
X177000000Y-123918828D01*
X177496001Y-123918828D01*
X177497209Y-123931088D01*
X177508315Y-123986931D01*
X177517633Y-124009427D01*
X177559983Y-124072808D01*
X177577192Y-124090017D01*
X177640575Y-124132368D01*
X177663066Y-124141684D01*
X177718915Y-124152793D01*
X177731170Y-124154000D01*
X178473885Y-124154000D01*
X178489124Y-124149525D01*
X178490329Y-124148135D01*
X178492000Y-124140452D01*
X178492000Y-124135884D01*
X179508000Y-124135884D01*
X179512475Y-124151123D01*
X179513865Y-124152328D01*
X179521548Y-124153999D01*
X180268828Y-124153999D01*
X180281088Y-124152791D01*
X180336931Y-124141685D01*
X180359427Y-124132367D01*
X180422808Y-124090017D01*
X180440017Y-124072808D01*
X180482368Y-124009425D01*
X180491684Y-123986934D01*
X180502793Y-123931085D01*
X180504000Y-123918830D01*
X180504000Y-123526115D01*
X180499525Y-123510876D01*
X180498135Y-123509671D01*
X180490452Y-123508000D01*
X179526115Y-123508000D01*
X179510876Y-123512475D01*
X179509671Y-123513865D01*
X179508000Y-123521548D01*
X179508000Y-124135884D01*
X178492000Y-124135884D01*
X178492000Y-123526115D01*
X178487525Y-123510876D01*
X178486135Y-123509671D01*
X178478452Y-123508000D01*
X177514116Y-123508000D01*
X177498877Y-123512475D01*
X177497672Y-123513865D01*
X177496001Y-123521548D01*
X177496001Y-123918828D01*
X177000000Y-123918828D01*
X177000000Y-123243828D01*
X181896001Y-123243828D01*
X181897209Y-123256088D01*
X181908315Y-123311931D01*
X181917633Y-123334427D01*
X181959983Y-123397808D01*
X181977192Y-123415017D01*
X182040575Y-123457368D01*
X182063066Y-123466684D01*
X182118915Y-123477793D01*
X182131170Y-123479000D01*
X182206885Y-123479000D01*
X182222124Y-123474525D01*
X182223329Y-123473135D01*
X182225000Y-123465452D01*
X182225000Y-123243115D01*
X182220525Y-123227876D01*
X182219135Y-123226671D01*
X182211452Y-123225000D01*
X181914116Y-123225000D01*
X181898877Y-123229475D01*
X181897672Y-123230865D01*
X181896001Y-123238548D01*
X181896001Y-123243828D01*
X177000000Y-123243828D01*
X177000000Y-122756885D01*
X181896000Y-122756885D01*
X181900475Y-122772124D01*
X181901865Y-122773329D01*
X181909548Y-122775000D01*
X182206885Y-122775000D01*
X182222124Y-122770525D01*
X182223329Y-122769135D01*
X182225000Y-122761452D01*
X182225000Y-122539116D01*
X182220525Y-122523877D01*
X182219135Y-122522672D01*
X182211452Y-122521001D01*
X182131172Y-122521001D01*
X182118912Y-122522209D01*
X182063069Y-122533315D01*
X182040573Y-122542633D01*
X181977192Y-122584983D01*
X181959983Y-122602192D01*
X181917632Y-122665575D01*
X181908316Y-122688066D01*
X181897207Y-122743915D01*
X181896000Y-122756170D01*
X181896000Y-122756885D01*
X177000000Y-122756885D01*
X177000000Y-122473885D01*
X177496000Y-122473885D01*
X177500475Y-122489124D01*
X177501865Y-122490329D01*
X177509548Y-122492000D01*
X178473885Y-122492000D01*
X178489124Y-122487525D01*
X178490329Y-122486135D01*
X178492000Y-122478452D01*
X178492000Y-122473885D01*
X179508000Y-122473885D01*
X179512475Y-122489124D01*
X179513865Y-122490329D01*
X179521548Y-122492000D01*
X180485884Y-122492000D01*
X180501123Y-122487525D01*
X180502328Y-122486135D01*
X180503999Y-122478452D01*
X180503999Y-122081172D01*
X180502791Y-122068912D01*
X180491685Y-122013069D01*
X180482367Y-121990573D01*
X180440017Y-121927192D01*
X180422808Y-121909983D01*
X180359425Y-121867632D01*
X180336934Y-121858316D01*
X180281085Y-121847207D01*
X180268830Y-121846000D01*
X179526115Y-121846000D01*
X179510876Y-121850475D01*
X179509671Y-121851865D01*
X179508000Y-121859548D01*
X179508000Y-122473885D01*
X178492000Y-122473885D01*
X178492000Y-121864116D01*
X178487525Y-121848877D01*
X178486135Y-121847672D01*
X178478452Y-121846001D01*
X177731172Y-121846001D01*
X177718912Y-121847209D01*
X177663069Y-121858315D01*
X177640573Y-121867633D01*
X177577192Y-121909983D01*
X177559983Y-121927192D01*
X177517632Y-121990575D01*
X177508316Y-122013066D01*
X177497207Y-122068915D01*
X177496000Y-122081170D01*
X177496000Y-122473885D01*
X177000000Y-122473885D01*
X177000000Y-118994292D01*
X178946001Y-118994292D01*
X178946370Y-119001110D01*
X178951841Y-119051482D01*
X178955470Y-119066741D01*
X179000222Y-119186118D01*
X179008754Y-119201704D01*
X179084572Y-119302867D01*
X179097133Y-119315428D01*
X179198296Y-119391246D01*
X179213882Y-119399778D01*
X179333265Y-119444533D01*
X179348510Y-119448158D01*
X179398892Y-119453631D01*
X179405706Y-119454000D01*
X179473885Y-119454000D01*
X179489124Y-119449525D01*
X179490329Y-119448135D01*
X179492000Y-119440452D01*
X179492000Y-119435884D01*
X180508000Y-119435884D01*
X180512475Y-119451123D01*
X180513865Y-119452328D01*
X180521548Y-119453999D01*
X180594292Y-119453999D01*
X180601110Y-119453630D01*
X180651482Y-119448159D01*
X180666741Y-119444530D01*
X180786118Y-119399778D01*
X180801704Y-119391246D01*
X180902867Y-119315428D01*
X180915428Y-119302867D01*
X180991246Y-119201704D01*
X180999778Y-119186118D01*
X181044533Y-119066735D01*
X181048158Y-119051490D01*
X181053631Y-119001108D01*
X181054000Y-118994294D01*
X181054000Y-118226115D01*
X181049525Y-118210876D01*
X181048135Y-118209671D01*
X181040452Y-118208000D01*
X180526115Y-118208000D01*
X180510876Y-118212475D01*
X180509671Y-118213865D01*
X180508000Y-118221548D01*
X180508000Y-119435884D01*
X179492000Y-119435884D01*
X179492000Y-118226115D01*
X179487525Y-118210876D01*
X179486135Y-118209671D01*
X179478452Y-118208000D01*
X178964116Y-118208000D01*
X178948877Y-118212475D01*
X178947672Y-118213865D01*
X178946001Y-118221548D01*
X178946001Y-118994292D01*
X177000000Y-118994292D01*
X177000000Y-116376000D01*
X177020002Y-116307879D01*
X177073658Y-116261386D01*
X177126000Y-116250000D01*
X178822115Y-116250000D01*
X178890236Y-116270002D01*
G37*
%TD.AperFunction*%
%TD*%
%TA.AperFunction,Conductor*%
%TO.N,GND*%
G36*
X181365931Y-95820002D02*
G01*
X181386905Y-95836905D01*
X181495208Y-95945208D01*
X181529234Y-96007520D01*
X181529233Y-96061087D01*
X181525000Y-96080545D01*
X181525000Y-97514885D01*
X181528932Y-97528277D01*
X181528932Y-97599274D01*
X181497131Y-97652869D01*
X181386905Y-97763095D01*
X181324593Y-97797121D01*
X181297810Y-97800000D01*
X179476000Y-97800000D01*
X179407879Y-97779998D01*
X179361386Y-97726342D01*
X179350000Y-97674000D01*
X179350000Y-97069669D01*
X180492001Y-97069669D01*
X180492371Y-97076490D01*
X180497895Y-97127352D01*
X180501521Y-97142604D01*
X180546676Y-97263054D01*
X180555214Y-97278649D01*
X180631715Y-97380724D01*
X180644276Y-97393285D01*
X180746351Y-97469786D01*
X180761946Y-97478324D01*
X180882394Y-97523478D01*
X180897649Y-97527105D01*
X180948514Y-97532631D01*
X180955328Y-97533000D01*
X181056885Y-97533000D01*
X181072124Y-97528525D01*
X181073329Y-97527135D01*
X181075000Y-97519452D01*
X181075000Y-97043115D01*
X181070525Y-97027876D01*
X181069135Y-97026671D01*
X181061452Y-97025000D01*
X180510116Y-97025000D01*
X180494877Y-97029475D01*
X180493672Y-97030865D01*
X180492001Y-97038548D01*
X180492001Y-97069669D01*
X179350000Y-97069669D01*
X179350000Y-96556885D01*
X180492000Y-96556885D01*
X180496475Y-96572124D01*
X180497865Y-96573329D01*
X180505548Y-96575000D01*
X181056885Y-96575000D01*
X181072124Y-96570525D01*
X181073329Y-96569135D01*
X181075000Y-96561452D01*
X181075000Y-96085116D01*
X181070525Y-96069877D01*
X181069135Y-96068672D01*
X181061452Y-96067001D01*
X180955331Y-96067001D01*
X180948510Y-96067371D01*
X180897648Y-96072895D01*
X180882396Y-96076521D01*
X180761946Y-96121676D01*
X180746351Y-96130214D01*
X180644276Y-96206715D01*
X180631715Y-96219276D01*
X180555214Y-96321351D01*
X180546676Y-96336946D01*
X180501522Y-96457394D01*
X180497895Y-96472649D01*
X180492369Y-96523514D01*
X180492000Y-96530328D01*
X180492000Y-96556885D01*
X179350000Y-96556885D01*
X179350000Y-95926000D01*
X179370002Y-95857879D01*
X179423658Y-95811386D01*
X179476000Y-95800000D01*
X181297810Y-95800000D01*
X181365931Y-95820002D01*
G37*
%TD.AperFunction*%
%TD*%
%TA.AperFunction,Conductor*%
%TO.N,VCC*%
G36*
X215421817Y-121421817D02*
G01*
X215463095Y-121463095D01*
X215497121Y-121525407D01*
X215500000Y-121552190D01*
X215500000Y-123447810D01*
X215479998Y-123515931D01*
X215463095Y-123536905D01*
X215286905Y-123713095D01*
X215224593Y-123747121D01*
X215197810Y-123750000D01*
X213302190Y-123750000D01*
X213234069Y-123729998D01*
X213213095Y-123713095D01*
X213036905Y-123536905D01*
X213002879Y-123474593D01*
X213000000Y-123447810D01*
X213000000Y-121994292D01*
X213271001Y-121994292D01*
X213271370Y-122001110D01*
X213276841Y-122051482D01*
X213280470Y-122066741D01*
X213325222Y-122186118D01*
X213333754Y-122201704D01*
X213409572Y-122302867D01*
X213422133Y-122315428D01*
X213523296Y-122391246D01*
X213538882Y-122399778D01*
X213658265Y-122444533D01*
X213673510Y-122448158D01*
X213723892Y-122453631D01*
X213730706Y-122454000D01*
X213977885Y-122454000D01*
X213993124Y-122449525D01*
X213994329Y-122448135D01*
X213996000Y-122440452D01*
X213996000Y-122435884D01*
X214504000Y-122435884D01*
X214508475Y-122451123D01*
X214509865Y-122452328D01*
X214517548Y-122453999D01*
X214769292Y-122453999D01*
X214776110Y-122453630D01*
X214826482Y-122448159D01*
X214841741Y-122444530D01*
X214961118Y-122399778D01*
X214976704Y-122391246D01*
X215077867Y-122315428D01*
X215090428Y-122302867D01*
X215166246Y-122201704D01*
X215174778Y-122186118D01*
X215219533Y-122066735D01*
X215223158Y-122051490D01*
X215228631Y-122001108D01*
X215229000Y-121994294D01*
X215229000Y-121972115D01*
X215224525Y-121956876D01*
X215223135Y-121955671D01*
X215215452Y-121954000D01*
X214522115Y-121954000D01*
X214506876Y-121958475D01*
X214505671Y-121959865D01*
X214504000Y-121967548D01*
X214504000Y-122435884D01*
X213996000Y-122435884D01*
X213996000Y-121972115D01*
X213991525Y-121956876D01*
X213990135Y-121955671D01*
X213982452Y-121954000D01*
X213289116Y-121954000D01*
X213273877Y-121958475D01*
X213272672Y-121959865D01*
X213271001Y-121967548D01*
X213271001Y-121994292D01*
X213000000Y-121994292D01*
X213000000Y-121552190D01*
X213020002Y-121484069D01*
X213036905Y-121463095D01*
X213075695Y-121424305D01*
X213138007Y-121390279D01*
X213208822Y-121395344D01*
X213244669Y-121422179D01*
X213247514Y-121418896D01*
X213276865Y-121444329D01*
X213284548Y-121446000D01*
X215210884Y-121446000D01*
X215226124Y-121441525D01*
X215237498Y-121428399D01*
X215297225Y-121390016D01*
X215368222Y-121390016D01*
X215421817Y-121421817D01*
G37*
%TD.AperFunction*%
%TD*%
%TA.AperFunction,Conductor*%
%TO.N,GND*%
G36*
X181765931Y-110520002D02*
G01*
X181786905Y-110536905D01*
X181963095Y-110713095D01*
X181997121Y-110775407D01*
X182000000Y-110802190D01*
X182000000Y-115197810D01*
X181979998Y-115265931D01*
X181963095Y-115286905D01*
X181786905Y-115463095D01*
X181724593Y-115497121D01*
X181697810Y-115500000D01*
X178302190Y-115500000D01*
X178234069Y-115479998D01*
X178213095Y-115463095D01*
X178036905Y-115286905D01*
X178002879Y-115224593D01*
X178000000Y-115197810D01*
X178000000Y-114594292D01*
X178946001Y-114594292D01*
X178946370Y-114601110D01*
X178951841Y-114651482D01*
X178955470Y-114666741D01*
X179000222Y-114786118D01*
X179008754Y-114801704D01*
X179084572Y-114902867D01*
X179097133Y-114915428D01*
X179198296Y-114991246D01*
X179213882Y-114999778D01*
X179333265Y-115044533D01*
X179348510Y-115048158D01*
X179398892Y-115053631D01*
X179405706Y-115054000D01*
X179727885Y-115054000D01*
X179743124Y-115049525D01*
X179744329Y-115048135D01*
X179746000Y-115040452D01*
X179746000Y-115035884D01*
X180254000Y-115035884D01*
X180258475Y-115051123D01*
X180259865Y-115052328D01*
X180267548Y-115053999D01*
X180594292Y-115053999D01*
X180601110Y-115053630D01*
X180651482Y-115048159D01*
X180666741Y-115044530D01*
X180786118Y-114999778D01*
X180801704Y-114991246D01*
X180902867Y-114915428D01*
X180915428Y-114902867D01*
X180991246Y-114801704D01*
X180999778Y-114786118D01*
X181044533Y-114666735D01*
X181048158Y-114651490D01*
X181053631Y-114601108D01*
X181054000Y-114594294D01*
X181054000Y-113572115D01*
X181049525Y-113556876D01*
X181048135Y-113555671D01*
X181040452Y-113554000D01*
X180272115Y-113554000D01*
X180256876Y-113558475D01*
X180255671Y-113559865D01*
X180254000Y-113567548D01*
X180254000Y-115035884D01*
X179746000Y-115035884D01*
X179746000Y-113572115D01*
X179741525Y-113556876D01*
X179740135Y-113555671D01*
X179732452Y-113554000D01*
X178964116Y-113554000D01*
X178948877Y-113558475D01*
X178947672Y-113559865D01*
X178946001Y-113567548D01*
X178946001Y-114594292D01*
X178000000Y-114594292D01*
X178000000Y-113027885D01*
X178946000Y-113027885D01*
X178950475Y-113043124D01*
X178951865Y-113044329D01*
X178959548Y-113046000D01*
X179727885Y-113046000D01*
X179743124Y-113041525D01*
X179744329Y-113040135D01*
X179746000Y-113032452D01*
X179746000Y-113027885D01*
X180254000Y-113027885D01*
X180258475Y-113043124D01*
X180259865Y-113044329D01*
X180267548Y-113046000D01*
X181035884Y-113046000D01*
X181051123Y-113041525D01*
X181052328Y-113040135D01*
X181053999Y-113032452D01*
X181053999Y-112005708D01*
X181053630Y-111998890D01*
X181048159Y-111948518D01*
X181044530Y-111933259D01*
X180999778Y-111813882D01*
X180991246Y-111798296D01*
X180915428Y-111697133D01*
X180902867Y-111684572D01*
X180801704Y-111608754D01*
X180786118Y-111600222D01*
X180666735Y-111555467D01*
X180651490Y-111551842D01*
X180601108Y-111546369D01*
X180594294Y-111546000D01*
X180272115Y-111546000D01*
X180256876Y-111550475D01*
X180255671Y-111551865D01*
X180254000Y-111559548D01*
X180254000Y-113027885D01*
X179746000Y-113027885D01*
X179746000Y-111564116D01*
X179741525Y-111548877D01*
X179740135Y-111547672D01*
X179732452Y-111546001D01*
X179405708Y-111546001D01*
X179398890Y-111546370D01*
X179348518Y-111551841D01*
X179333259Y-111555470D01*
X179213882Y-111600222D01*
X179198296Y-111608754D01*
X179097133Y-111684572D01*
X179084572Y-111697133D01*
X179008754Y-111798296D01*
X179000222Y-111813882D01*
X178955467Y-111933265D01*
X178951842Y-111948510D01*
X178946369Y-111998892D01*
X178946000Y-112005706D01*
X178946000Y-113027885D01*
X178000000Y-113027885D01*
X178000000Y-110802190D01*
X178020002Y-110734069D01*
X178036905Y-110713095D01*
X178213095Y-110536905D01*
X178275407Y-110502879D01*
X178302190Y-110500000D01*
X181697810Y-110500000D01*
X181765931Y-110520002D01*
G37*
%TD.AperFunction*%
%TD*%
%TA.AperFunction,Conductor*%
%TO.N,GND*%
G36*
X215165931Y-161020002D02*
G01*
X215186905Y-161036905D01*
X215249457Y-161099457D01*
X215283483Y-161161769D01*
X215286360Y-161189169D01*
X215274077Y-163697810D01*
X215273454Y-163824971D01*
X215253119Y-163892993D01*
X215236551Y-163913449D01*
X215186905Y-163963095D01*
X215124593Y-163997121D01*
X215097810Y-164000000D01*
X213452190Y-164000000D01*
X213384069Y-163979998D01*
X213363095Y-163963095D01*
X213186905Y-163786905D01*
X213152879Y-163724593D01*
X213150000Y-163697810D01*
X213150000Y-163460884D01*
X213554000Y-163460884D01*
X213558475Y-163476123D01*
X213559865Y-163477328D01*
X213567548Y-163478999D01*
X213594292Y-163478999D01*
X213601110Y-163478630D01*
X213651482Y-163473159D01*
X213666741Y-163469530D01*
X213786118Y-163424778D01*
X213801704Y-163416246D01*
X213902867Y-163340428D01*
X213915428Y-163327867D01*
X213991246Y-163226704D01*
X213999778Y-163211118D01*
X214044533Y-163091735D01*
X214048158Y-163076490D01*
X214053631Y-163026108D01*
X214054000Y-163019294D01*
X214054000Y-162772115D01*
X214049525Y-162756876D01*
X214048135Y-162755671D01*
X214040452Y-162754000D01*
X213572115Y-162754000D01*
X213556876Y-162758475D01*
X213555671Y-162759865D01*
X213554000Y-162767548D01*
X213554000Y-163460884D01*
X213150000Y-163460884D01*
X213150000Y-162227885D01*
X213554000Y-162227885D01*
X213558475Y-162243124D01*
X213559865Y-162244329D01*
X213567548Y-162246000D01*
X214035884Y-162246000D01*
X214051123Y-162241525D01*
X214052328Y-162240135D01*
X214053999Y-162232452D01*
X214053999Y-161980708D01*
X214053630Y-161973890D01*
X214048159Y-161923518D01*
X214044530Y-161908259D01*
X213999778Y-161788882D01*
X213991246Y-161773296D01*
X213915428Y-161672133D01*
X213902867Y-161659572D01*
X213801704Y-161583754D01*
X213786118Y-161575222D01*
X213666735Y-161530467D01*
X213651490Y-161526842D01*
X213601108Y-161521369D01*
X213594294Y-161521000D01*
X213572115Y-161521000D01*
X213556876Y-161525475D01*
X213555671Y-161526865D01*
X213554000Y-161534548D01*
X213554000Y-162227885D01*
X213150000Y-162227885D01*
X213150000Y-161302190D01*
X213170002Y-161234069D01*
X213186905Y-161213095D01*
X213363095Y-161036905D01*
X213425407Y-161002879D01*
X213452190Y-161000000D01*
X215097810Y-161000000D01*
X215165931Y-161020002D01*
G37*
%TD.AperFunction*%
%TD*%
M02*
